G04*
G04 #@! TF.GenerationSoftware,Altium Limited,Altium Designer,23.5.1 (21)*
G04*
G04 Layer_Color=65535*
%FSLAX44Y44*%
%MOMM*%
G71*
G04*
G04 #@! TF.SameCoordinates,E7796D47-8282-4EC7-A355-9F660DFBD72A*
G04*
G04*
G04 #@! TF.FilePolarity,Positive*
G04*
G01*
G75*
%ADD10C,0.2000*%
%ADD11C,0.1000*%
%ADD12C,0.2500*%
%ADD13C,0.1270*%
G36*
X-6638Y-128630D02*
X-13888D01*
Y-110130D01*
X-6638D01*
Y-128630D01*
D02*
G37*
%LPC*%
G36*
X-8290Y-118070D02*
D01*
Y-119803D01*
X-9817D01*
Y-118323D01*
X-10572D01*
Y-119803D01*
X-11486D01*
Y-118070D01*
X-8290D01*
X-12236D01*
Y-120690D01*
X-8290D01*
Y-118070D01*
D02*
G37*
%LPD*%
D10*
X56762Y-96520D02*
G03*
X56762Y-96520I-12700J0D01*
G01*
X13970Y0D02*
G03*
X13970Y0I-12700J0D01*
G01*
X54343Y-13343D02*
G03*
X54343Y-15343I0J-1000D01*
G01*
D02*
G03*
X54343Y-13343I0J1000D01*
G01*
X-5688Y-14970D02*
X6312D01*
X-5688Y-104370D02*
X6312D01*
X-44188D02*
X-31688D01*
X-44188D02*
Y-14970D01*
X-31688D01*
X148163Y-11993D02*
Y-3993D01*
X178403D01*
Y-11993D02*
Y-3993D01*
X148163Y-11993D02*
X178403D01*
X147533Y-26493D02*
Y-15493D01*
X203073Y-27893D02*
X211073D01*
X203073D02*
Y2347D01*
X211073D01*
Y-27893D02*
Y2347D01*
X214573Y-28523D02*
X225573D01*
X195072Y11157D02*
X203073Y11157D01*
X195073Y5157D02*
X206623D01*
X-6638Y-127630D02*
X17862D01*
X-6638D02*
X-6638Y-111130D01*
X17862D01*
D11*
X33312Y-54670D02*
G03*
X34312Y-54670I500J0D01*
G01*
D02*
G03*
X33312Y-54670I-500J0D01*
G01*
X45390Y-126384D02*
G03*
X45390Y-125384I0J500D01*
G01*
D02*
G03*
X45390Y-126384I0J-500D01*
G01*
X82343Y11257D02*
X122343D01*
X82343Y-39943D02*
X122343D01*
X226993Y-129353D02*
Y-59353D01*
X157993D02*
X226993D01*
X157993Y-129353D02*
X226993D01*
X157993D02*
Y-59353D01*
D12*
X97296Y-89020D02*
G03*
X97296Y-89020I-1250J0D01*
G01*
D13*
X15662Y8889D02*
X19047D01*
X17355Y10582D02*
Y7196D01*
X20740Y11428D02*
Y8043D01*
X22433Y6350D01*
X24126Y8043D01*
Y11428D01*
X25819D02*
Y6350D01*
X28358D01*
X29204Y7196D01*
Y8043D01*
X28358Y8889D01*
X25819D01*
X28358D01*
X29204Y9736D01*
Y10582D01*
X28358Y11428D01*
X25819D01*
X30897D02*
Y7196D01*
X31743Y6350D01*
X33436D01*
X34283Y7196D01*
Y11428D01*
X39361Y10582D02*
X38515Y11428D01*
X36822D01*
X35975Y10582D01*
Y9736D01*
X36822Y8889D01*
X38515D01*
X39361Y8043D01*
Y7196D01*
X38515Y6350D01*
X36822D01*
X35975Y7196D01*
X52209Y-85335D02*
X55595D01*
X53902Y-83643D02*
Y-87028D01*
X57287Y-83643D02*
X58134Y-82796D01*
X59827D01*
X60673Y-83643D01*
Y-84489D01*
X59827Y-85335D01*
X58980D01*
X59827D01*
X60673Y-86182D01*
Y-87028D01*
X59827Y-87874D01*
X58134D01*
X57287Y-87028D01*
X62366Y-82796D02*
Y-86182D01*
X64058Y-87874D01*
X65751Y-86182D01*
Y-82796D01*
X67444Y-83643D02*
X68291Y-82796D01*
X69983D01*
X70830Y-83643D01*
Y-84489D01*
X69983Y-85335D01*
X69137D01*
X69983D01*
X70830Y-86182D01*
Y-87028D01*
X69983Y-87874D01*
X68291D01*
X67444Y-87028D01*
M02*
