G04*
G04 #@! TF.GenerationSoftware,Altium Limited,Altium Designer,23.5.1 (21)*
G04*
G04 Layer_Color=32896*
%FSLAX44Y44*%
%MOMM*%
G71*
G04*
G04 #@! TF.SameCoordinates,E7796D47-8282-4EC7-A355-9F660DFBD72A*
G04*
G04*
G04 #@! TF.FilePolarity,Positive*
G04*
G01*
G75*
%ADD13C,0.1270*%
D13*
X39790Y-124119D02*
Y-119041D01*
X37251D01*
X36404Y-119887D01*
Y-121580D01*
X37251Y-122426D01*
X39790D01*
X38097D02*
X36404Y-124119D01*
X34712D02*
X33019D01*
X33865D01*
Y-119041D01*
X34712Y-119887D01*
X27940Y-124119D02*
Y-119041D01*
X30480Y-121580D01*
X27094D01*
X207817Y-4651D02*
Y-1266D01*
X208663Y-419D01*
X210356D01*
X211203Y-1266D01*
Y-4651D01*
X210356Y-5498D01*
X208663D01*
X209510Y-3805D02*
X207817Y-5498D01*
X208663D02*
X207817Y-4651D01*
X202739Y-5498D02*
X206124D01*
X202739Y-2112D01*
Y-1266D01*
X203585Y-419D01*
X205278D01*
X206124Y-1266D01*
X151599Y-9985D02*
Y-6600D01*
X152445Y-5753D01*
X154138D01*
X154984Y-6600D01*
Y-9985D01*
X154138Y-10832D01*
X152445D01*
X153291Y-9139D02*
X151599Y-10832D01*
X152445D02*
X151599Y-9985D01*
X149906Y-10832D02*
X148213D01*
X149059D01*
Y-5753D01*
X149906Y-6600D01*
X117022Y-109950D02*
X122100D01*
Y-107410D01*
X121254Y-106564D01*
X119561D01*
X118715Y-107410D01*
Y-109950D01*
Y-108257D02*
X117022Y-106564D01*
X121254Y-104871D02*
X122100Y-104025D01*
Y-102332D01*
X121254Y-101486D01*
X120408D01*
X119561Y-102332D01*
Y-103179D01*
Y-102332D01*
X118715Y-101486D01*
X117868D01*
X117022Y-102332D01*
Y-104025D01*
X117868Y-104871D01*
X109402Y-109950D02*
X114480D01*
Y-107410D01*
X113634Y-106564D01*
X111941D01*
X111095Y-107410D01*
Y-109950D01*
Y-108257D02*
X109402Y-106564D01*
Y-104871D02*
Y-103179D01*
Y-104025D01*
X114480D01*
X113634Y-104871D01*
X101782Y-109950D02*
X106860D01*
Y-107410D01*
X106014Y-106564D01*
X104321D01*
X103475Y-107410D01*
Y-109950D01*
Y-108257D02*
X101782Y-106564D01*
Y-102332D02*
X106860D01*
X104321Y-104871D01*
Y-101486D01*
X94162Y-109950D02*
X99240D01*
Y-107410D01*
X98394Y-106564D01*
X96701D01*
X95855Y-107410D01*
Y-109950D01*
Y-108257D02*
X94162Y-106564D01*
Y-101486D02*
Y-104871D01*
X97548Y-101486D01*
X98394D01*
X99240Y-102332D01*
Y-104025D01*
X98394Y-104871D01*
X147756Y-109950D02*
X152834D01*
Y-107410D01*
X151988Y-106564D01*
X150295D01*
X149449Y-107410D01*
Y-109950D01*
Y-108257D02*
X147756Y-106564D01*
Y-104871D02*
Y-103179D01*
Y-104025D01*
X152834D01*
X151988Y-104871D01*
X147756Y-100639D02*
Y-98947D01*
Y-99793D01*
X152834D01*
X151988Y-100639D01*
X140136Y-109950D02*
X145214D01*
Y-107410D01*
X144368Y-106564D01*
X142675D01*
X141829Y-107410D01*
Y-109950D01*
Y-108257D02*
X140136Y-106564D01*
X145214Y-104871D02*
Y-101486D01*
X144368D01*
X140983Y-104871D01*
X140136D01*
X132770Y-109950D02*
X137848D01*
Y-107410D01*
X137002Y-106564D01*
X135309D01*
X134463Y-107410D01*
Y-109950D01*
Y-108257D02*
X132770Y-106564D01*
Y-104871D02*
Y-103179D01*
Y-104025D01*
X137848D01*
X137002Y-104871D01*
Y-100639D02*
X137848Y-99793D01*
Y-98100D01*
X137002Y-97254D01*
X133617D01*
X132770Y-98100D01*
Y-99793D01*
X133617Y-100639D01*
X137002D01*
X124896Y-109950D02*
X129974D01*
Y-107410D01*
X129128Y-106564D01*
X127435D01*
X126589Y-107410D01*
Y-109950D01*
Y-108257D02*
X124896Y-106564D01*
X129974Y-101486D02*
X129128Y-103179D01*
X127435Y-104871D01*
X125743D01*
X124896Y-104025D01*
Y-102332D01*
X125743Y-101486D01*
X126589D01*
X127435Y-102332D01*
Y-104871D01*
X60993Y-124458D02*
X66071D01*
Y-121919D01*
X65225Y-121072D01*
X63532D01*
X62686Y-121919D01*
Y-124458D01*
Y-122765D02*
X60993Y-121072D01*
Y-119380D02*
Y-117687D01*
Y-118533D01*
X66071D01*
X65225Y-119380D01*
Y-115148D02*
X66071Y-114301D01*
Y-112608D01*
X65225Y-111762D01*
X64378D01*
X63532Y-112608D01*
Y-113455D01*
Y-112608D01*
X62686Y-111762D01*
X61839D01*
X60993Y-112608D01*
Y-114301D01*
X61839Y-115148D01*
X53373Y-124458D02*
X58451D01*
Y-121919D01*
X57605Y-121072D01*
X55912D01*
X55066Y-121919D01*
Y-124458D01*
Y-122765D02*
X53373Y-121072D01*
Y-119380D02*
Y-117687D01*
Y-118533D01*
X58451D01*
X57605Y-119380D01*
X53373Y-111762D02*
Y-115148D01*
X56758Y-111762D01*
X57605D01*
X58451Y-112608D01*
Y-114301D01*
X57605Y-115148D01*
X148083Y-67732D02*
X153161D01*
Y-65193D01*
X152315Y-64346D01*
X150622D01*
X149776Y-65193D01*
Y-67732D01*
Y-66039D02*
X148083Y-64346D01*
X148929Y-62654D02*
X148083Y-61807D01*
Y-60114D01*
X148929Y-59268D01*
X152315D01*
X153161Y-60114D01*
Y-61807D01*
X152315Y-62654D01*
X151468D01*
X150622Y-61807D01*
Y-59268D01*
X147743Y-48682D02*
X152821D01*
Y-46143D01*
X151975Y-45296D01*
X150282D01*
X149436Y-46143D01*
Y-48682D01*
Y-46989D02*
X147743Y-45296D01*
X152821Y-40218D02*
Y-43604D01*
X150282D01*
X151128Y-41911D01*
Y-41064D01*
X150282Y-40218D01*
X148589D01*
X147743Y-41064D01*
Y-42757D01*
X148589Y-43604D01*
X181103Y-13122D02*
X186181D01*
Y-10583D01*
X185335Y-9736D01*
X183642D01*
X182796Y-10583D01*
Y-13122D01*
Y-11429D02*
X181103Y-9736D01*
X185335Y-8044D02*
X186181Y-7197D01*
Y-5504D01*
X185335Y-4658D01*
X184488D01*
X183642Y-5504D01*
X182796Y-4658D01*
X181949D01*
X181103Y-5504D01*
Y-7197D01*
X181949Y-8044D01*
X182796D01*
X183642Y-7197D01*
X184488Y-8044D01*
X185335D01*
X183642Y-7197D02*
Y-5504D01*
X46989Y-119886D02*
X50375D01*
X51221Y-120733D01*
Y-122426D01*
X50375Y-123272D01*
X46989D01*
X46143Y-122426D01*
Y-120733D01*
X47836Y-121579D02*
X46143Y-119886D01*
Y-120733D02*
X46989Y-119886D01*
X50375Y-118194D02*
X51221Y-117347D01*
Y-115654D01*
X50375Y-114808D01*
X49528D01*
X48682Y-115654D01*
Y-116501D01*
Y-115654D01*
X47836Y-114808D01*
X46989D01*
X46143Y-115654D01*
Y-117347D01*
X46989Y-118194D01*
X166708Y-69849D02*
Y-64771D01*
X164168D01*
X163322Y-65617D01*
Y-67310D01*
X164168Y-68156D01*
X166708D01*
X161629Y-69849D02*
X159936D01*
X160783D01*
Y-64771D01*
X161629Y-65617D01*
X862Y-40641D02*
X2555D01*
X1708D01*
Y-44873D01*
X2555Y-45719D01*
X3401D01*
X4248Y-44873D01*
X-831Y-45719D02*
X-2524D01*
X-1677D01*
Y-40641D01*
X-831Y-41487D01*
X119114Y-46161D02*
X117421D01*
X118267D01*
Y-51239D01*
X119114D01*
X117421D01*
X111496Y-47007D02*
X112342Y-46161D01*
X114035D01*
X114881Y-47007D01*
Y-50393D01*
X114035Y-51239D01*
X112342D01*
X111496Y-50393D01*
X109803Y-51239D02*
X108110D01*
X108957D01*
Y-46161D01*
X109803Y-47007D01*
X104902Y-11431D02*
X108288D01*
Y-13970D01*
X106595D01*
X108288D01*
Y-16509D01*
X103209D02*
X101516D01*
X102363D01*
Y-11431D01*
X103209Y-12277D01*
X13544Y-116501D02*
Y-121579D01*
X11005D01*
X10158Y-120733D01*
Y-117347D01*
X11005Y-116501D01*
X13544D01*
X5080Y-121579D02*
X8466D01*
X5080Y-118194D01*
Y-117347D01*
X5926Y-116501D01*
X7619D01*
X8466Y-117347D01*
X202368Y11160D02*
Y6082D01*
X199829D01*
X198983Y6928D01*
Y10314D01*
X199829Y11160D01*
X202368D01*
X197290Y6082D02*
X195597D01*
X196443D01*
Y11160D01*
X197290Y10314D01*
X81071Y-110232D02*
X81917Y-109385D01*
X83610D01*
X84457Y-110232D01*
Y-113617D01*
X83610Y-114464D01*
X81917D01*
X81071Y-113617D01*
X79378Y-109385D02*
X75993D01*
Y-110232D01*
X79378Y-113617D01*
Y-114464D01*
X86275Y-60536D02*
X87121Y-61383D01*
Y-63075D01*
X86275Y-63922D01*
X82889D01*
X82043Y-63075D01*
Y-61383D01*
X82889Y-60536D01*
X87121Y-55458D02*
Y-58844D01*
X84582D01*
X85428Y-57151D01*
Y-56304D01*
X84582Y-55458D01*
X82889D01*
X82043Y-56304D01*
Y-57997D01*
X82889Y-58844D01*
X77385Y-60536D02*
X78231Y-61383D01*
Y-63075D01*
X77385Y-63922D01*
X73999D01*
X73153Y-63075D01*
Y-61383D01*
X73999Y-60536D01*
X73153Y-56304D02*
X78231D01*
X75692Y-58844D01*
Y-55458D01*
X81108Y-89557D02*
X81955Y-88711D01*
X83647D01*
X84494Y-89557D01*
Y-92943D01*
X83647Y-93789D01*
X81955D01*
X81108Y-92943D01*
X79416Y-89557D02*
X78569Y-88711D01*
X76876D01*
X76030Y-89557D01*
Y-90404D01*
X76876Y-91250D01*
X77723D01*
X76876D01*
X76030Y-92096D01*
Y-92943D01*
X76876Y-93789D01*
X78569D01*
X79416Y-92943D01*
X163875Y-41906D02*
X164721Y-41059D01*
X166414D01*
X167260Y-41906D01*
Y-45292D01*
X166414Y-46138D01*
X164721D01*
X163875Y-45292D01*
X158797Y-41059D02*
X160489Y-41906D01*
X162182Y-43599D01*
Y-45292D01*
X161336Y-46138D01*
X159643D01*
X158797Y-45292D01*
Y-44445D01*
X159643Y-43599D01*
X162182D01*
X32351Y2963D02*
X33198Y3810D01*
X34890D01*
X35737Y2963D01*
Y-422D01*
X34890Y-1269D01*
X33198D01*
X32351Y-422D01*
X27273Y-1269D02*
X30658D01*
X27273Y2117D01*
Y2963D01*
X28119Y3810D01*
X29812D01*
X30658Y2963D01*
X41109Y-73630D02*
X40263Y-72784D01*
Y-71091D01*
X41109Y-70244D01*
X44495D01*
X45341Y-71091D01*
Y-72784D01*
X44495Y-73630D01*
X45341Y-75323D02*
Y-77016D01*
Y-76169D01*
X40263D01*
X41109Y-75323D01*
X195455Y-50625D02*
X196302Y-51472D01*
Y-53164D01*
X195455Y-54011D01*
X192070D01*
X191223Y-53164D01*
Y-51472D01*
X192070Y-50625D01*
X191223Y-48932D02*
Y-47239D01*
Y-48086D01*
X196302D01*
X195455Y-48932D01*
Y-44700D02*
X196302Y-43854D01*
Y-42161D01*
X195455Y-41315D01*
X192070D01*
X191223Y-42161D01*
Y-43854D01*
X192070Y-44700D01*
X195455D01*
X181147Y-42668D02*
X181993Y-41821D01*
X183686D01*
X184533Y-42668D01*
Y-46054D01*
X183686Y-46900D01*
X181993D01*
X181147Y-46054D01*
X179454D02*
X178608Y-46900D01*
X176915D01*
X176069Y-46054D01*
Y-42668D01*
X176915Y-41821D01*
X178608D01*
X179454Y-42668D01*
Y-43514D01*
X178608Y-44361D01*
X176069D01*
X214421Y-48510D02*
X215267Y-47663D01*
X216960D01*
X217806Y-48510D01*
Y-51895D01*
X216960Y-52742D01*
X215267D01*
X214421Y-51895D01*
X212728Y-48510D02*
X211882Y-47663D01*
X210189D01*
X209343Y-48510D01*
Y-49356D01*
X210189Y-50203D01*
X209343Y-51049D01*
Y-51895D01*
X210189Y-52742D01*
X211882D01*
X212728Y-51895D01*
Y-51049D01*
X211882Y-50203D01*
X212728Y-49356D01*
Y-48510D01*
X211882Y-50203D02*
X210189D01*
M02*
