G04*
G04 #@! TF.GenerationSoftware,Altium Limited,Altium Designer,23.5.1 (21)*
G04*
G04 Layer_Color=16711935*
%FSLAX44Y44*%
%MOMM*%
G71*
G04*
G04 #@! TF.SameCoordinates,E7796D47-8282-4EC7-A355-9F660DFBD72A*
G04*
G04*
G04 #@! TF.FilePolarity,Positive*
G04*
G01*
G75*
%ADD10C,0.2000*%
%ADD11C,0.1000*%
D10*
X56762Y-96520D02*
G03*
X56762Y-96520I-12700J0D01*
G01*
D02*
G03*
X56762Y-96520I-12700J0D01*
G01*
X13970Y0D02*
G03*
X13970Y0I-12700J0D01*
G01*
D02*
G03*
X13970Y0I-12700J0D01*
G01*
X65563Y11257D02*
X139123D01*
Y-39943D02*
Y11257D01*
X65563Y-39943D02*
X139123D01*
X65563D02*
Y11257D01*
D11*
X-44188Y-14970D02*
X24812D01*
Y-104370D02*
Y-14970D01*
X-44188Y-104370D02*
X24812D01*
X-44188D02*
Y-14970D01*
X102142Y-104440D02*
X107142D01*
X102142Y-114440D02*
Y-104440D01*
Y-114440D02*
X107142D01*
Y-104440D01*
X148163Y-16113D02*
Y127D01*
X178403D01*
Y-16113D02*
Y127D01*
X148163Y-16113D02*
X178403D01*
X148163Y-6613D02*
X157663Y-16113D01*
X153083Y-39273D02*
X153083Y-49273D01*
X148083D02*
X153083D01*
X148083D02*
Y-39273D01*
X153083D01*
X198953Y-27893D02*
X215193D01*
X198953D02*
X198953Y2347D01*
X215193D01*
X215193Y-27893D01*
X205693Y-27893D02*
X215193Y-18393D01*
X200523Y5157D02*
X203073Y7707D01*
Y11157D02*
X203073Y5157D01*
X195072Y11157D02*
X203073Y11157D01*
X195072Y11157D02*
X195073Y5157D01*
X203073D01*
X96112Y-83700D02*
X101112Y-88700D01*
X96112D02*
X136112D01*
Y-48700D01*
X96112D02*
X136112D01*
X96112Y-88700D02*
Y-48700D01*
X45052Y-113670D02*
X51052D01*
Y-123670D02*
Y-113670D01*
X45052Y-123670D02*
X51052D01*
X45052D02*
Y-113670D01*
X74012Y-121880D02*
X86512D01*
Y-101780D01*
X74012Y-101780D02*
X86512Y-101780D01*
X74012Y-101780D02*
X74012Y-121880D01*
Y-73100D02*
X86512D01*
X74012Y-93200D02*
Y-73100D01*
Y-93200D02*
X86512Y-93200D01*
Y-73100D01*
X73402Y-64650D02*
X78402D01*
Y-54650D01*
X73402D02*
X78402D01*
X73402Y-64650D02*
Y-54650D01*
X82292Y-64650D02*
Y-54650D01*
X87292D01*
Y-64650D02*
Y-54650D01*
X82292Y-64650D02*
X87292D01*
X28032Y-124420D02*
X38032D01*
X28032D02*
Y-119420D01*
X38032D01*
Y-124420D02*
Y-119420D01*
X53802Y-123960D02*
Y-113960D01*
X58802D01*
X58802Y-123960D01*
X53802Y-123960D02*
X58802Y-123960D01*
X196145Y-53785D02*
Y-43785D01*
X191145Y-53785D02*
X196145D01*
X191145D02*
Y-43785D01*
X196145D01*
X186043Y-54083D02*
Y-33983D01*
X173543Y-54083D02*
X186043Y-54083D01*
X173543Y-54083D02*
Y-33983D01*
X186043D01*
X203243Y-43653D02*
X223343Y-43653D01*
X223343Y-56153D02*
X223343Y-43653D01*
X203243Y-56153D02*
X223343D01*
X203243D02*
Y-43653D01*
X148083Y-69163D02*
X148083Y-59163D01*
X153083D01*
Y-69163D02*
Y-59163D01*
X148083Y-69163D02*
X153083D01*
X181357Y-13713D02*
X181357Y-3713D01*
X186357D01*
Y-13713D02*
Y-3713D01*
X181357Y-13713D02*
X186357Y-13713D01*
X33232Y-67380D02*
X53332D01*
X53332Y-79880D02*
X53332Y-67380D01*
X33232Y-79880D02*
X53332D01*
X33232D02*
Y-67380D01*
X169533Y-54083D02*
Y-33983D01*
X157033Y-54083D02*
X169533Y-54083D01*
X157033Y-54083D02*
Y-33983D01*
X169533D01*
X1362Y-118050D02*
X4032Y-115380D01*
X1362Y-123380D02*
Y-115380D01*
Y-123380D02*
X17362Y-123380D01*
Y-115380D01*
X1362Y-115380D02*
X17362Y-115380D01*
X66422Y-123960D02*
Y-113960D01*
X61422Y-123960D02*
X66422Y-123960D01*
X61422Y-113960D02*
X61422Y-123960D01*
X61422Y-113960D02*
X66422Y-113960D01*
X125002Y-114440D02*
Y-104440D01*
X130002D01*
Y-114440D02*
Y-104440D01*
X125002Y-114440D02*
X130002D01*
X137622D02*
Y-104440D01*
X132622Y-114440D02*
X137622D01*
X132622D02*
Y-104440D01*
X137622D01*
X140242Y-114440D02*
Y-104440D01*
X145242D01*
Y-114440D02*
Y-104440D01*
X140242Y-114440D02*
X145242D01*
X152862Y-114440D02*
Y-104440D01*
X147862Y-114440D02*
X152862D01*
X147862D02*
Y-104440D01*
X152862D01*
X94522Y-114440D02*
Y-104440D01*
X99522D01*
Y-114440D02*
Y-104440D01*
X94522Y-114440D02*
X99522D01*
X109762Y-104440D02*
X109762Y-114440D01*
X109762Y-104440D02*
X114762D01*
Y-114440D02*
Y-104440D01*
X109762Y-114440D02*
X114762Y-114440D01*
X122382D02*
Y-104440D01*
X117382Y-114440D02*
X122382D01*
X117382D02*
Y-104440D01*
X122382D01*
X25552Y-1230D02*
X35552D01*
X25552D02*
Y3770D01*
X35552D01*
Y-1230D02*
Y3770D01*
M02*
