G04*
G04 #@! TF.GenerationSoftware,Altium Limited,Altium Designer,22.3.1 (43)*
G04*
G04 Layer_Color=128*
%FSLAX44Y44*%
%MOMM*%
G71*
G04*
G04 #@! TF.SameCoordinates,183D5ADB-B2EB-4085-A593-B9F204B0C739*
G04*
G04*
G04 #@! TF.FilePolarity,Positive*
G04*
G01*
G75*
%ADD101C,0.0508*%
D101*
X-285235Y-202230D02*
X-275075D01*
X-280155Y-207310D02*
Y-197150D01*
X-285235Y-176830D02*
X-275075D01*
X-280155Y-181910D02*
Y-171750D01*
X-285235Y-151430D02*
X-275075D01*
X-280155Y-156510D02*
Y-146350D01*
X-285235Y-126030D02*
X-275075D01*
X-280155Y-131110D02*
Y-120950D01*
X-285235Y-100630D02*
X-275075D01*
X-280155Y-105710D02*
Y-95550D01*
X-285235Y-75230D02*
X-275075D01*
X-280155Y-80310D02*
Y-70150D01*
X-285235Y-49830D02*
X-275075D01*
X-280155Y-54910D02*
Y-44750D01*
X-285235Y-24430D02*
X-275075D01*
X-280155Y-29510D02*
Y-19350D01*
X-285235Y970D02*
X-275075D01*
X-280155Y-4110D02*
Y6050D01*
X-285235Y26370D02*
X-275075D01*
X-280155Y21290D02*
Y31450D01*
X-951985Y-12830D02*
X-934205D01*
X-943095Y-21720D02*
Y-3940D01*
X-951985Y37970D02*
X-934205D01*
X-943095Y29080D02*
Y46860D01*
X50025Y290530D02*
X60225D01*
X55125Y285430D02*
Y295630D01*
X50025Y265130D02*
X60225D01*
X55125Y260030D02*
Y270230D01*
X50025Y239730D02*
X60225D01*
X55125Y234630D02*
Y244830D01*
X50025Y214330D02*
X60225D01*
X55125Y209230D02*
Y219430D01*
X-184992Y400308D02*
X-172292D01*
X-178642Y393959D02*
Y406659D01*
X-426292Y400308D02*
X-413592D01*
X-419942Y393959D02*
Y406659D01*
X409189Y4068D02*
X421889D01*
X415539Y-2282D02*
Y10418D01*
X409189Y-237232D02*
X421889D01*
X415539Y-243582D02*
Y-230882D01*
X238347Y145030D02*
X248347D01*
X243347Y140030D02*
Y150030D01*
X111348Y145030D02*
X121347D01*
X116347Y140030D02*
Y150030D01*
X85948Y145030D02*
X95947D01*
X90947Y140030D02*
Y150030D01*
X187547Y145030D02*
X197547D01*
X192547Y140030D02*
Y150030D01*
X162148Y145030D02*
X172147D01*
X167147Y140030D02*
Y150030D01*
X136748Y145030D02*
X146747D01*
X141747Y140030D02*
Y150030D01*
X60547Y145030D02*
X70547D01*
X65547Y140030D02*
Y150030D01*
X212948Y145030D02*
X222947D01*
X217947Y140030D02*
Y150030D01*
X263748Y-261370D02*
X273747D01*
X268747Y-266370D02*
Y-256370D01*
X289147Y-261370D02*
X299147D01*
X294147Y-266370D02*
Y-256370D01*
X111348Y-261370D02*
X121347D01*
X116347Y-266370D02*
Y-256370D01*
X60547Y-261370D02*
X70547D01*
X65547Y-266370D02*
Y-256370D01*
X85948Y-261370D02*
X95947D01*
X90947Y-266370D02*
Y-256370D01*
X238347Y-261370D02*
X248347D01*
X243347Y-266370D02*
Y-256370D01*
X212948Y-261370D02*
X222947D01*
X217947Y-266370D02*
Y-256370D01*
X162148Y-261370D02*
X172147D01*
X167147Y-266370D02*
Y-256370D01*
X187547Y-261370D02*
X197547D01*
X192547Y-266370D02*
Y-256370D01*
X136748Y-261370D02*
X146747D01*
X141747Y-266370D02*
Y-256370D01*
X9747Y-261370D02*
X19747D01*
X14747Y-266370D02*
Y-256370D01*
X35148Y-261370D02*
X45147D01*
X40147Y-266370D02*
Y-256370D01*
X-536353Y145030D02*
X-526353D01*
X-531353Y140030D02*
Y150030D01*
X-663353Y145030D02*
X-653353D01*
X-658353Y140030D02*
Y150030D01*
X-688753Y145030D02*
X-678753D01*
X-683753Y140030D02*
Y150030D01*
X-587153Y145030D02*
X-577153D01*
X-582153Y140030D02*
Y150030D01*
X-612553Y145030D02*
X-602553D01*
X-607553Y140030D02*
Y150030D01*
X-637953Y145030D02*
X-627953D01*
X-632953Y140030D02*
Y150030D01*
X-714153Y145030D02*
X-704153D01*
X-709153Y140030D02*
Y150030D01*
X-561753Y145030D02*
X-551753D01*
X-556753Y140030D02*
Y150030D01*
X-510953Y-261370D02*
X-500953D01*
X-505953Y-266370D02*
Y-256370D01*
X-485553Y-261370D02*
X-475553D01*
X-480553Y-266370D02*
Y-256370D01*
X-663353Y-261370D02*
X-653353D01*
X-658353Y-266370D02*
Y-256370D01*
X-714153Y-261370D02*
X-704153D01*
X-709153Y-266370D02*
Y-256370D01*
X-688753Y-261370D02*
X-678753D01*
X-683753Y-266370D02*
Y-256370D01*
X-536353Y-261370D02*
X-526353D01*
X-531353Y-266370D02*
Y-256370D01*
X-561753Y-261370D02*
X-551753D01*
X-556753Y-266370D02*
Y-256370D01*
X-612553Y-261370D02*
X-602553D01*
X-607553Y-266370D02*
Y-256370D01*
X-587153Y-261370D02*
X-577153D01*
X-582153Y-266370D02*
Y-256370D01*
X-637953Y-261370D02*
X-627953D01*
X-632953Y-266370D02*
Y-256370D01*
X-764953Y-261370D02*
X-754953D01*
X-759953Y-266370D02*
Y-256370D01*
X-739553Y-261370D02*
X-729553D01*
X-734553Y-266370D02*
Y-256370D01*
X-385196Y70108D02*
X-373766D01*
X-379481Y64393D02*
Y75823D01*
X-181996Y70108D02*
X-170566D01*
X-176281Y64393D02*
Y75823D01*
X-181996Y171708D02*
X-170566D01*
X-176281Y165993D02*
Y177423D01*
X-181996Y273308D02*
X-170566D01*
X-176281Y267593D02*
Y279023D01*
X-385196Y146308D02*
X-373766D01*
X-379481Y140593D02*
Y152023D01*
X-385196Y197108D02*
X-373766D01*
X-379481Y191393D02*
Y202823D01*
X249509Y255528D02*
X281509D01*
X265509Y239528D02*
Y271528D01*
X249509Y-366772D02*
X281509D01*
X265509Y-382772D02*
Y-350772D01*
X-754891Y255528D02*
X-722891D01*
X-738891Y239528D02*
Y271528D01*
X-754891Y-366772D02*
X-722891D01*
X-738891Y-382772D02*
Y-350772D01*
X-542891Y-307072D02*
X-533891D01*
X-538391Y-311572D02*
Y-302572D01*
X-517491Y-307072D02*
X-508491D01*
X-512991Y-311572D02*
Y-302572D01*
X-492091Y-307072D02*
X-483091D01*
X-487591Y-311572D02*
Y-302572D01*
X-466691Y-307072D02*
X-457691D01*
X-462191Y-311572D02*
Y-302572D01*
X-441291Y-307072D02*
X-432291D01*
X-436791Y-311572D02*
Y-302572D01*
X-415891Y-307072D02*
X-406891D01*
X-411391Y-311572D02*
Y-302572D01*
X-390491Y-307072D02*
X-381491D01*
X-385991Y-311572D02*
Y-302572D01*
X-365091Y-307072D02*
X-356091D01*
X-360591Y-311572D02*
Y-302572D01*
X-339691Y-307072D02*
X-330691D01*
X-335191Y-311572D02*
Y-302572D01*
X-314291Y-307072D02*
X-305291D01*
X-309791Y-311572D02*
Y-302572D01*
X-288891Y-307072D02*
X-279891D01*
X-284391Y-311572D02*
Y-302572D01*
X-263491Y-307072D02*
X-254491D01*
X-258991Y-311572D02*
Y-302572D01*
X-238091Y-307072D02*
X-229091D01*
X-233591Y-311572D02*
Y-302572D01*
X-212691Y-307072D02*
X-203691D01*
X-208191Y-311572D02*
Y-302572D01*
X-187291Y-307072D02*
X-178291D01*
X-182791Y-311572D02*
Y-302572D01*
X-161891Y-307072D02*
X-152891D01*
X-157391Y-311572D02*
Y-302572D01*
X-136491Y-307072D02*
X-127491D01*
X-131991Y-311572D02*
Y-302572D01*
X-111091Y-307072D02*
X-102091D01*
X-106591Y-311572D02*
Y-302572D01*
X-542891Y-332472D02*
X-533891D01*
X-538391Y-336972D02*
Y-327972D01*
X-517491Y-332472D02*
X-508491D01*
X-512991Y-336972D02*
Y-327972D01*
X-492091Y-332472D02*
X-483091D01*
X-487591Y-336972D02*
Y-327972D01*
X-466691Y-332472D02*
X-457691D01*
X-462191Y-336972D02*
Y-327972D01*
X-441291Y-332472D02*
X-432291D01*
X-436791Y-336972D02*
Y-327972D01*
X-415891Y-332472D02*
X-406891D01*
X-411391Y-336972D02*
Y-327972D01*
X-390491Y-332472D02*
X-381491D01*
X-385991Y-336972D02*
Y-327972D01*
X-365091Y-332472D02*
X-356091D01*
X-360591Y-336972D02*
Y-327972D01*
X-339691Y-332472D02*
X-330691D01*
X-335191Y-336972D02*
Y-327972D01*
X-314291Y-332472D02*
X-305291D01*
X-309791Y-336972D02*
Y-327972D01*
X-288891Y-332472D02*
X-279891D01*
X-284391Y-336972D02*
Y-327972D01*
X-263491Y-332472D02*
X-254491D01*
X-258991Y-336972D02*
Y-327972D01*
X-238091Y-332472D02*
X-229091D01*
X-233591Y-336972D02*
Y-327972D01*
X-212691Y-332472D02*
X-203691D01*
X-208191Y-336972D02*
Y-327972D01*
X-187291Y-332472D02*
X-178291D01*
X-182791Y-336972D02*
Y-327972D01*
X-161891Y-332472D02*
X-152891D01*
X-157391Y-336972D02*
Y-327972D01*
X-136491Y-332472D02*
X-127491D01*
X-131991Y-336972D02*
Y-327972D01*
X-111091Y-332472D02*
X-102091D01*
X-106591Y-336972D02*
Y-327972D01*
X-85691Y-332472D02*
X-76691D01*
X-81191Y-336972D02*
Y-327972D01*
X-85691Y-307072D02*
X-76691D01*
X-81191Y-311572D02*
Y-302572D01*
X-60291Y-332472D02*
X-51291D01*
X-55791Y-336972D02*
Y-327972D01*
X-60291Y-307072D02*
X-51291D01*
X-55791Y-311572D02*
Y-302572D01*
X105109Y-329972D02*
X114109D01*
X109609Y-334472D02*
Y-325472D01*
X105109Y-304572D02*
X114109D01*
X109609Y-309072D02*
Y-300072D01*
X130509Y-329972D02*
X139509D01*
X135009Y-334472D02*
Y-325472D01*
X130509Y-304572D02*
X139509D01*
X135009Y-309072D02*
Y-300072D01*
X155909Y-329972D02*
X164909D01*
X160408Y-334472D02*
Y-325472D01*
X155909Y-304572D02*
X164909D01*
X160409Y-309072D02*
Y-300072D01*
X181309Y-329972D02*
X190309D01*
X185809Y-334472D02*
Y-325472D01*
X181309Y-304572D02*
X190309D01*
X185809Y-309072D02*
Y-300072D01*
X206709Y-329972D02*
X215709D01*
X211209Y-334472D02*
Y-325472D01*
X206709Y-304572D02*
X215709D01*
X211209Y-309072D02*
Y-300072D01*
X-944632Y-346451D02*
X-934472D01*
X-939552Y-351531D02*
Y-341371D01*
X-919232Y-346451D02*
X-909072D01*
X-914152Y-351531D02*
Y-341371D01*
X-843032Y-346451D02*
X-832872D01*
X-837952Y-351531D02*
Y-341371D01*
X-868432Y-346451D02*
X-858272D01*
X-863352Y-351531D02*
Y-341371D01*
X-893832Y-346451D02*
X-883672D01*
X-888752Y-351531D02*
Y-341371D01*
X-817632Y-346451D02*
X-807472D01*
X-812552Y-351531D02*
Y-341371D01*
X-1128782Y-346451D02*
X-1118622D01*
X-1123702Y-351531D02*
Y-341371D01*
X-1103382Y-346451D02*
X-1093222D01*
X-1098302Y-351531D02*
Y-341371D01*
X-1027182Y-346451D02*
X-1017022D01*
X-1022102Y-351531D02*
Y-341371D01*
X-1052582Y-346451D02*
X-1042422D01*
X-1047502Y-351531D02*
Y-341371D01*
X-1077982Y-346451D02*
X-1067822D01*
X-1072902Y-351531D02*
Y-341371D01*
X-1001782Y-346451D02*
X-991622D01*
X-996702Y-351531D02*
Y-341371D01*
X532378Y-346451D02*
X542538D01*
X537458Y-351531D02*
Y-341371D01*
X557778Y-346451D02*
X567938D01*
X562858Y-351531D02*
Y-341371D01*
X633978Y-346451D02*
X644138D01*
X639058Y-351531D02*
Y-341371D01*
X608578Y-346451D02*
X618738D01*
X613658Y-351531D02*
Y-341371D01*
X583178Y-346451D02*
X593338D01*
X588258Y-351531D02*
Y-341371D01*
X659378Y-346451D02*
X669538D01*
X664458Y-351531D02*
Y-341371D01*
X348228Y-346451D02*
X358388D01*
X353308Y-351531D02*
Y-341371D01*
X373628Y-346451D02*
X383788D01*
X378708Y-351531D02*
Y-341371D01*
X449828Y-346451D02*
X459988D01*
X454908Y-351531D02*
Y-341371D01*
X424428Y-346451D02*
X434588D01*
X429508Y-351531D02*
Y-341371D01*
X399028Y-346451D02*
X409188D01*
X404108Y-351531D02*
Y-341371D01*
X475228Y-346451D02*
X485388D01*
X480308Y-351531D02*
Y-341371D01*
X364918Y156468D02*
X375078D01*
X369998Y151389D02*
Y161549D01*
X364918Y181360D02*
X375078D01*
X369998Y176280D02*
Y186441D01*
X364918Y131576D02*
X375078D01*
X369998Y126496D02*
Y136657D01*
X-663962Y369320D02*
X-653802D01*
X-658882Y364240D02*
Y374400D01*
X-663962Y344428D02*
X-653802D01*
X-658882Y339348D02*
Y349509D01*
X197278Y376940D02*
X207438D01*
X202358Y371861D02*
Y382020D01*
X197278Y352048D02*
X207438D01*
X202358Y346968D02*
Y357128D01*
X-596542Y404018D02*
X-564542D01*
X-580542Y388018D02*
Y420018D01*
X102550Y404019D02*
X134551D01*
X118551Y388019D02*
Y420019D01*
X596884Y-90315D02*
X628884D01*
X612884Y-106315D02*
Y-74315D01*
X-1090875Y-90314D02*
X-1058875D01*
X-1074875Y-106314D02*
Y-74314D01*
X-837685Y-80310D02*
X-819905D01*
X-828795Y-89200D02*
Y-71420D01*
X-837685Y-222550D02*
X-819905D01*
X-828795Y-231440D02*
Y-213660D01*
X-875475Y133220D02*
X-865475D01*
X-870475Y128220D02*
Y138220D01*
X-845475Y83220D02*
X-835475D01*
X-840475Y78220D02*
Y88220D01*
X-813475Y133220D02*
X-803475D01*
X-808475Y128220D02*
Y138220D01*
X122745Y290530D02*
X129745D01*
X126245Y287030D02*
Y294030D01*
X122745Y250530D02*
X129745D01*
X126245Y247030D02*
Y254030D01*
X-85535Y175590D02*
X-78535D01*
X-82035Y172090D02*
Y179090D01*
X-85535Y135590D02*
X-78535D01*
X-82035Y132090D02*
Y139090D01*
X-1092587Y-257551D02*
X-1083697D01*
X-1088142Y-261996D02*
Y-253106D01*
X-1039247Y-257551D02*
X-1030357D01*
X-1034802Y-261996D02*
Y-253106D01*
X-1092587Y-155951D02*
X-1083697D01*
X-1088142Y-160396D02*
Y-151507D01*
X-1039247Y-155951D02*
X-1030357D01*
X-1034802Y-160396D02*
Y-151507D01*
X-280670Y213360D02*
X-278130D01*
X-279400Y212090D02*
Y214630D01*
X-130810Y213360D02*
X-128270D01*
X-129540Y212090D02*
Y214630D01*
X-1085335Y-292230D02*
X-1082795D01*
X-1084065Y-293500D02*
Y-290960D01*
X577095Y-216030D02*
X579635D01*
X578365Y-217300D02*
Y-214760D01*
X-657345Y-59820D02*
X-654805D01*
X-656075Y-61090D02*
Y-58550D01*
X-657345Y39240D02*
X-654805D01*
X-656075Y37970D02*
Y40510D01*
X-593845Y39240D02*
X-591305D01*
X-592575Y37970D02*
Y40510D01*
X-350092Y400459D02*
X-337392D01*
X-343742Y394109D02*
Y406809D01*
X-261192Y400459D02*
X-248492D01*
X-254842Y394109D02*
Y406809D01*
X409039Y-161032D02*
X421739D01*
X415389Y-167382D02*
Y-154682D01*
X409039Y-72132D02*
X421739D01*
X415389Y-78482D02*
Y-65782D01*
X328419Y-293112D02*
X330959D01*
X329689Y-294382D02*
Y-291842D01*
X126292Y458728D02*
X133405D01*
X129848Y455172D02*
Y462284D01*
X193555Y-78180D02*
X196095D01*
X194825Y-79450D02*
Y-76910D01*
X206255Y-79791D02*
X208795D01*
X207525Y-81061D02*
Y-78521D01*
X132508Y-79752D02*
X135048D01*
X133778Y-81022D02*
Y-78482D01*
X117355Y-78180D02*
X119895D01*
X118625Y-79450D02*
Y-76910D01*
X104655Y-90880D02*
X107195D01*
X105925Y-92150D02*
Y-89610D01*
X38615Y18750D02*
X41155D01*
X39885Y17480D02*
Y20020D01*
X-225545Y18750D02*
X-223005D01*
X-224275Y17480D02*
Y20020D01*
X-225545Y145750D02*
X-223005D01*
X-224275Y144480D02*
Y147020D01*
X-484371Y-230170D02*
X-477259D01*
X-480815Y-233726D02*
Y-226614D01*
X-227831Y-230170D02*
X-220719D01*
X-224275Y-233726D02*
Y-226614D01*
X-227831Y-153970D02*
X-220719D01*
X-224275Y-157526D02*
Y-150414D01*
X287789Y-156510D02*
X294901D01*
X291345Y-160066D02*
Y-152954D01*
X328050Y-240455D02*
X330590D01*
X329320Y-241725D02*
Y-239185D01*
X338335Y-324150D02*
X340875D01*
X339605Y-325420D02*
Y-322880D01*
X358655Y-316530D02*
X361195D01*
X359925Y-317800D02*
Y-315260D01*
X-314445Y-100630D02*
X-311905D01*
X-313175Y-101900D02*
Y-99360D01*
X-799585Y-100630D02*
X-797045D01*
X-798315Y-101900D02*
Y-99360D01*
X-370325Y-90470D02*
X-367785D01*
X-369055Y-91740D02*
Y-89200D01*
X-637025Y-90470D02*
X-634485D01*
X-635755Y-91740D02*
Y-89200D01*
X-382181Y43448D02*
X-379641D01*
X-380911Y42178D02*
Y44718D01*
X-606570Y82275D02*
X-604030D01*
X-605300Y81005D02*
Y83545D01*
X178508Y242666D02*
X185620D01*
X182064Y239110D02*
Y246222D01*
X155455Y39070D02*
X157995D01*
X156725Y37800D02*
Y40340D01*
X168155Y-80720D02*
X170695D01*
X169425Y-81990D02*
Y-79450D01*
X155368Y-79752D02*
X157908D01*
X156638Y-81022D02*
Y-78482D01*
X-136645Y129870D02*
X-134105D01*
X-135375Y128600D02*
Y131140D01*
X-560912Y-79752D02*
X-558372D01*
X-559642Y-81022D02*
Y-78482D01*
X-581232Y-79752D02*
X-578692D01*
X-579962Y-81022D02*
Y-78482D01*
X-593932Y-79752D02*
X-591392D01*
X-592662Y-81022D02*
Y-78482D01*
X-616792Y-79752D02*
X-614252D01*
X-615522Y-81022D02*
Y-78482D01*
X-626952Y-79752D02*
X-624412D01*
X-625682Y-81022D02*
Y-78482D01*
X-1097031Y-34032D02*
X-1094491D01*
X-1095761Y-35302D02*
Y-32762D01*
X-7456Y-372761D02*
X-4916D01*
X-6186Y-374031D02*
Y-371491D01*
X-158661Y-373112D02*
X-156121D01*
X-157391Y-374382D02*
Y-371842D01*
X-14272Y-364337D02*
X-11732D01*
X-13002Y-365607D02*
Y-363067D01*
X-184905Y-220010D02*
X-182365D01*
X-183635Y-221280D02*
Y-218740D01*
X-380485Y-273350D02*
X-377945D01*
X-379215Y-274620D02*
Y-272080D01*
X-370325Y-265730D02*
X-367785D01*
X-369055Y-267000D02*
Y-264460D01*
X-362705Y-258110D02*
X-360165D01*
X-361435Y-259380D02*
Y-256840D01*
X-334765Y-250490D02*
X-332225D01*
X-333495Y-251760D02*
Y-249220D01*
X-642105Y75925D02*
X-639565D01*
X-640835Y74655D02*
Y77195D01*
X-362705Y87330D02*
X-360165D01*
X-361435Y86060D02*
Y88600D01*
X-555745Y87330D02*
X-553205D01*
X-554475Y86060D02*
Y88600D01*
X-534565Y-37634D02*
X-532025D01*
X-533295Y-38904D02*
Y-36364D01*
X-333829Y-37826D02*
X-331289D01*
X-332559Y-39096D02*
Y-36556D01*
X-130629Y-45446D02*
X-128089D01*
X-129359Y-46716D02*
Y-44176D01*
X-158569Y-70846D02*
X-156029D01*
X-157299Y-72116D02*
Y-69576D01*
X-130629Y289834D02*
X-128089D01*
X-129359Y288564D02*
Y291104D01*
X64951Y117114D02*
X67491D01*
X66221Y115844D02*
Y118384D01*
X143691Y117114D02*
X146231D01*
X144961Y115844D02*
Y118384D01*
X90351Y124734D02*
X92891D01*
X91621Y123464D02*
Y126004D01*
X169091Y124734D02*
X171631D01*
X170361Y123464D02*
Y126004D01*
X280851Y20594D02*
X283391D01*
X282121Y19324D02*
Y21864D01*
X280851Y211094D02*
X283391D01*
X282121Y209824D02*
Y212364D01*
X-84212Y239730D02*
X-81672D01*
X-82942Y238460D02*
Y241000D01*
X-82369Y272054D02*
X-79829D01*
X-81099Y270784D02*
Y273324D01*
X-313509Y25674D02*
X-310969D01*
X-312239Y24404D02*
Y26944D01*
X-592909Y25674D02*
X-590369D01*
X-591639Y24404D02*
Y26944D01*
X-450669Y96794D02*
X-448129D01*
X-449399Y95524D02*
Y98064D01*
X-840123Y-378607D02*
X-837582D01*
X-838852Y-379877D02*
Y-377337D01*
X-1024709Y-378186D02*
X-1022169D01*
X-1023439Y-379456D02*
Y-376916D01*
X-580209Y-322306D02*
X-577669D01*
X-578939Y-323576D02*
Y-321036D01*
X-658949Y-291826D02*
X-656409D01*
X-657679Y-293096D02*
Y-290556D01*
X-940889Y-322457D02*
X-938349D01*
X-939619Y-323727D02*
Y-321186D01*
X-1050109Y-312146D02*
X-1047569D01*
X-1048839Y-313416D02*
Y-310876D01*
X-1072969Y-305312D02*
X-1070429D01*
X-1071699Y-306581D02*
Y-304042D01*
X-709749Y-281666D02*
X-707209D01*
X-708479Y-282936D02*
Y-280396D01*
X-996769Y-281666D02*
X-994229D01*
X-995499Y-282936D02*
Y-280396D01*
X-488769Y-403586D02*
X-486229D01*
X-487499Y-404856D02*
Y-402316D01*
X-463369Y-411206D02*
X-460829D01*
X-462099Y-412476D02*
Y-409936D01*
X-864689Y-403586D02*
X-862149D01*
X-863419Y-404856D02*
Y-402316D01*
X-890089Y-411206D02*
X-887549D01*
X-888819Y-412476D02*
Y-409936D01*
X-209369Y-398506D02*
X-206829D01*
X-208099Y-399776D02*
Y-397236D01*
X-234259Y-397599D02*
X-231719D01*
X-232989Y-398869D02*
Y-396329D01*
X585651Y-404425D02*
X588191D01*
X586921Y-405695D02*
Y-403155D01*
X612998Y-410775D02*
X615538D01*
X614268Y-412045D02*
Y-409505D01*
X-1089Y-243566D02*
X1451D01*
X181Y-244836D02*
Y-242296D01*
X-1680Y102275D02*
X860D01*
X-410Y101005D02*
Y103545D01*
X-7318Y168747D02*
X-4778D01*
X-6048Y167477D02*
Y170017D01*
X-13789Y178074D02*
X-11249D01*
X-12519Y176804D02*
Y179344D01*
X-133261Y-362952D02*
X-130721D01*
X-131991Y-364222D02*
Y-361682D01*
X-21409Y-355326D02*
X-18869D01*
X-20139Y-356596D02*
Y-354056D01*
X-107861Y-355332D02*
X-105321D01*
X-106591Y-356602D02*
Y-354062D01*
X-29121Y193308D02*
X-26581D01*
X-27851Y192038D02*
Y194578D01*
X-36741Y200928D02*
X-34201D01*
X-35471Y199658D02*
Y202198D01*
X-62141Y338088D02*
X-59601D01*
X-60871Y336818D02*
Y339358D01*
X-62141Y-220712D02*
X-59601D01*
X-60871Y-221982D02*
Y-219442D01*
X-36741Y-332472D02*
X-34201D01*
X-35471Y-333742D02*
Y-331202D01*
X-29121Y-347712D02*
X-26581D01*
X-27851Y-348982D02*
Y-346442D01*
X-82461Y-347712D02*
X-79921D01*
X-81191Y-348982D02*
Y-346442D01*
X191859Y193308D02*
X194399D01*
X193129Y192038D02*
Y194578D01*
X216968Y200638D02*
X219508D01*
X218238Y199368D02*
Y201908D01*
X166459Y185688D02*
X168999D01*
X167729Y184418D02*
Y186958D01*
X141059Y178068D02*
X143599D01*
X142329Y176798D02*
Y179338D01*
X115659Y170448D02*
X118199D01*
X116929Y169178D02*
Y171718D01*
X-19805Y185750D02*
X-17265D01*
X-18535Y184480D02*
Y187020D01*
X5595Y94310D02*
X8135D01*
X6865Y93040D02*
Y95580D01*
X5595Y-233350D02*
X8135D01*
X6865Y-234620D02*
Y-232080D01*
X-7117Y338150D02*
X-4577D01*
X-5847Y336880D02*
Y339420D01*
X554235Y-313990D02*
X556775D01*
X555505Y-315260D02*
Y-312720D01*
X452900Y-314262D02*
X455440D01*
X454170Y-315532D02*
Y-312992D01*
X638055Y-313990D02*
X640595D01*
X639325Y-315260D02*
Y-312720D01*
X-80765Y-242870D02*
X-78225D01*
X-79495Y-244140D02*
Y-241600D01*
X269755Y158450D02*
X272295D01*
X271025Y157180D02*
Y159720D01*
X330715Y87330D02*
X333255D01*
X331985Y86060D02*
Y88600D01*
X318015Y79710D02*
X320555D01*
X319285Y78440D02*
Y80980D01*
X193555Y87330D02*
X196095D01*
X194825Y86060D02*
Y88600D01*
X117355Y79710D02*
X119895D01*
X118625Y78440D02*
Y80980D01*
X155673Y21290D02*
X158213D01*
X156943Y20020D02*
Y22560D01*
X307830Y-90445D02*
X310370D01*
X309100Y-91715D02*
Y-89175D01*
X358655Y-80310D02*
X361195D01*
X359925Y-81580D02*
Y-79040D01*
X536455Y-263190D02*
X538995D01*
X537725Y-264460D02*
Y-261920D01*
X389376Y-262788D02*
X391917D01*
X390647Y-264058D02*
Y-261518D01*
X389135Y-227630D02*
X391675D01*
X390405Y-228900D02*
Y-226360D01*
X241815Y-227630D02*
X244355D01*
X243085Y-228900D02*
Y-226360D01*
X191015Y-214930D02*
X193555D01*
X192285Y-216200D02*
Y-213660D01*
X373895Y-202230D02*
X376435D01*
X375165Y-203500D02*
Y-200960D01*
X140215Y-202230D02*
X142755D01*
X141485Y-203500D02*
Y-200960D01*
X480575Y-189530D02*
X483115D01*
X481845Y-190800D02*
Y-188260D01*
X89415Y-189530D02*
X91955D01*
X90685Y-190800D02*
Y-188260D01*
X-659885Y97490D02*
X-657345D01*
X-658615Y96220D02*
Y98760D01*
X-685285Y89870D02*
X-682745D01*
X-684015Y88600D02*
Y91140D01*
X-581145Y89870D02*
X-578605D01*
X-579875Y88600D02*
Y91140D01*
X-634223Y104390D02*
X-631683D01*
X-632953Y103120D02*
Y105660D01*
X-398003Y104390D02*
X-395463D01*
X-396733Y103120D02*
Y105660D01*
X-608823Y112010D02*
X-606283D01*
X-607553Y110740D02*
Y113280D01*
X-347552Y117173D02*
X-345012D01*
X-346282Y115903D02*
Y118443D01*
X-324692Y125480D02*
X-322152D01*
X-323422Y124210D02*
Y126750D01*
X-355936Y112016D02*
X-353396D01*
X-354666Y110746D02*
Y113286D01*
X-710772Y82300D02*
X-708232D01*
X-709502Y81030D02*
Y83570D01*
X-583139Y118366D02*
X-580599D01*
X-581869Y117096D02*
Y119636D01*
X-558023Y125980D02*
X-555483D01*
X-556753Y124710D02*
Y127250D01*
X269668Y95000D02*
X272208D01*
X270938Y93730D02*
Y96270D01*
X259508Y102620D02*
X262048D01*
X260778Y101350D02*
Y103890D01*
X-107188Y-233504D02*
X-104648D01*
X-105918Y-234774D02*
Y-232234D01*
X261112Y183056D02*
X263652D01*
X262382Y181786D02*
Y184326D01*
M02*
