G04*
G04 #@! TF.GenerationSoftware,Altium Limited,Altium Designer,22.3.1 (43)*
G04*
G04 Layer_Color=65535*
%FSLAX44Y44*%
%MOMM*%
G71*
G04*
G04 #@! TF.SameCoordinates,183D5ADB-B2EB-4085-A593-B9F204B0C739*
G04*
G04*
G04 #@! TF.FilePolarity,Positive*
G04*
G01*
G75*
%ADD10C,0.2540*%
%ADD11C,0.1000*%
%ADD12C,0.2500*%
%ADD13C,0.6000*%
%ADD14C,0.2000*%
%ADD15C,0.5080*%
%ADD16C,1.0000*%
%ADD17C,0.7620*%
%ADD18C,0.2032*%
%ADD19C,0.1500*%
%ADD20C,0.1270*%
D10*
X-926905Y67020D02*
G03*
X-926905Y67020I-2540J0D01*
G01*
X303037Y157730D02*
G03*
X303037Y157730I-2540J0D01*
G01*
X-471663Y157730D02*
G03*
X-471663Y157730I-2540J0D01*
G01*
X-704036Y-366772D02*
G03*
X-704036Y-366772I-34855J0D01*
G01*
X300533D02*
G03*
X300533Y-366772I-35024J0D01*
G01*
X300545Y255528D02*
G03*
X300545Y255528I-35037J0D01*
G01*
X-704486D02*
G03*
X-704486Y255528I-34405J0D01*
G01*
X-955046Y-307843D02*
G03*
X-955046Y-307843I-2540J0D01*
G01*
X-1139196D02*
G03*
X-1139196Y-307843I-2540J0D01*
G01*
X521964Y-307843D02*
G03*
X521964Y-307843I-2540J0D01*
G01*
X337814D02*
G03*
X337814Y-307843I-2540J0D01*
G01*
X-545528Y404018D02*
G03*
X-545528Y404018I-35014J0D01*
G01*
X153565Y404019D02*
G03*
X153565Y404019I-35014J0D01*
G01*
X647898Y-90315D02*
G03*
X647898Y-90315I-35014J0D01*
G01*
X-1039861Y-90314D02*
G03*
X-1039861Y-90314I-35014J0D01*
G01*
X-305555Y40340D02*
X-153155D01*
Y-216200D02*
Y40340D01*
X-165855Y39070D02*
X-153155Y26370D01*
X-305555Y-216200D02*
X-153155D01*
X-305555D02*
Y40340D01*
X-1043095Y-48230D02*
X-921505D01*
Y73370D01*
X-1043095D02*
X-921505D01*
X-1043095Y-48230D02*
Y73370D01*
X67825Y201630D02*
Y303230D01*
X-135375D02*
X67825D01*
X-135375Y201630D02*
X67825D01*
X-135375D02*
Y303230D01*
X-464392Y489359D02*
X-134192D01*
X-464392Y311559D02*
Y489359D01*
X-134192Y311559D02*
Y489359D01*
X-464392Y311559D02*
X-134192D01*
X326489Y-281682D02*
Y48518D01*
Y-281682D02*
X504289D01*
X326489Y48518D02*
X504289D01*
Y-281682D02*
Y48518D01*
X-975942Y-257192D02*
Y-149691D01*
X-920942Y-257192D02*
Y-149691D01*
X-94642Y470989D02*
X12858D01*
X-94642Y415989D02*
X12858D01*
X-92102Y404949D02*
X15398D01*
X-92102Y349949D02*
X15398D01*
X-854902Y-70771D02*
Y36729D01*
X-909902Y-70771D02*
Y36729D01*
X306847Y-286770D02*
Y164080D01*
X2047D02*
X306847D01*
X2047Y-286770D02*
Y164080D01*
Y-286770D02*
X306847D01*
X-467853Y-286770D02*
Y164080D01*
X-772653D02*
X-467853D01*
X-772653Y-286770D02*
Y164080D01*
Y-286770D02*
X-467853D01*
X-150881Y44708D02*
Y298708D01*
X-404881D02*
X-150881D01*
X-404881Y44708D02*
Y298708D01*
Y44708D02*
X-150881Y44708D01*
X316309Y-417572D02*
Y306328D01*
X-789691Y-417572D02*
X316309D01*
X-789691D02*
Y306328D01*
X316309D01*
X-963936Y-301493D02*
X-788168D01*
Y-416555D02*
Y-301493D01*
X-963936Y-416555D02*
X-788168D01*
X-963936D02*
Y-301493D01*
X-1148086D02*
X-972318D01*
Y-416555D02*
Y-301493D01*
X-1148086Y-416555D02*
X-972318D01*
X-1148086D02*
Y-301493D01*
X513074Y-301493D02*
X688842D01*
Y-416555D02*
Y-301493D01*
X513074Y-416555D02*
X688842D01*
X513074D02*
Y-301493D01*
X328924D02*
X504692D01*
Y-416555D02*
Y-301493D01*
X328924Y-416555D02*
X504692D01*
X328924D02*
Y-301493D01*
X380920Y107192D02*
Y113542D01*
X387270D01*
Y107192D02*
Y113542D01*
X380920Y199394D02*
Y205744D01*
Y199394D02*
X387270D01*
Y205744D01*
X336216Y107192D02*
X393620D01*
Y205744D01*
X336216Y107192D02*
Y205744D01*
X393620D01*
X-692664Y393704D02*
X-635260D01*
X-692664Y320045D02*
Y393704D01*
X-635260Y320045D02*
Y393704D01*
X-692664Y320045D02*
X-635260D01*
X-641610Y387355D02*
Y393704D01*
X-647960Y387355D02*
X-641610D01*
X-647960D02*
Y393704D01*
X-641610Y320045D02*
Y326395D01*
X-647960D02*
X-641610D01*
X-647960Y320045D02*
Y326395D01*
X168576Y401325D02*
X225980D01*
X168576Y327664D02*
Y401325D01*
X225980Y327664D02*
Y401325D01*
X168576Y327664D02*
X225980D01*
X219630Y394975D02*
Y401325D01*
X213280Y394975D02*
X219630D01*
X213280D02*
Y401325D01*
X219630Y327664D02*
Y334015D01*
X213280D02*
X219630D01*
X213280Y327664D02*
Y334015D01*
X-874515Y-171750D02*
X-849115Y-197150D01*
X-1112272Y-282952D02*
X-1010672D01*
X-1113542D02*
Y-244851D01*
X-1009402Y-282952D02*
Y-244851D01*
Y-168652D02*
Y-130552D01*
X-1112272D02*
X-1010672D01*
X-1113542Y-168652D02*
Y-130552D01*
X-912193Y67180D02*
Y58716D01*
X-907962Y62948D02*
X-916425D01*
X-658460Y411231D02*
Y402767D01*
X-654228Y406999D02*
X-662692D01*
X202780Y418851D02*
Y410387D01*
X207012Y414619D02*
X198548D01*
D11*
X-1136874Y-89372D02*
G03*
X-1136874Y-89372I-500J0D01*
G01*
X88167Y470390D02*
G03*
X88167Y470390I-500J0D01*
G01*
D12*
X161647Y-205490D02*
G03*
X161647Y-205490I-1250J0D01*
G01*
X-600353Y-204220D02*
G03*
X-600353Y-204220I-1250J0D01*
G01*
X60047Y-205490D02*
G03*
X60047Y-205490I-1250J0D01*
G01*
X-701953Y-204220D02*
G03*
X-701953Y-204220I-1250J0D01*
G01*
X111375Y2350D02*
G03*
X111375Y2350I-1250J0D01*
G01*
X-637925Y2350D02*
G03*
X-637925Y2350I-1250J0D01*
G01*
X-791055Y41490D02*
G03*
X-791055Y41490I-1250J0D01*
G01*
D13*
X125725Y23600D02*
G03*
X125725Y23600I-3000J0D01*
G01*
X-623575Y23600D02*
G03*
X-623575Y23600I-3000J0D01*
G01*
D14*
X166245Y270530D02*
G03*
X166245Y270530I-40000J0D01*
G01*
X-42035Y155590D02*
G03*
X-42035Y155590I-40000J0D01*
G01*
X-597832Y314109D02*
Y334109D01*
X-1134253Y-74500D02*
Y-71500D01*
X-1122253Y-74500D02*
Y-71500D01*
X102538Y467269D02*
X105538D01*
X102538Y455269D02*
X105538D01*
X-1128753Y-107390D02*
X-1127753D01*
X-1128753Y-100390D02*
X-1127753D01*
X70229Y467309D02*
X71229D01*
X70229Y460309D02*
X71229D01*
X161547Y-185990D02*
Y-176990D01*
Y-185990D02*
X228547D01*
Y-176990D01*
X-600452Y-184720D02*
Y-175720D01*
Y-184720D02*
X-533453D01*
Y-175720D01*
X59948Y-185990D02*
Y-176990D01*
Y-185990D02*
X126947D01*
Y-176990D01*
X-702053Y-184720D02*
Y-175720D01*
Y-184720D02*
X-635053D01*
Y-175720D01*
X200725Y13600D02*
Y45600D01*
X112725Y13600D02*
Y45600D01*
X200725D01*
X112725Y13600D02*
X200725D01*
X-548575Y13600D02*
Y45600D01*
X-636575Y13600D02*
Y45600D01*
X-548575D01*
X-636575Y13600D02*
X-548575D01*
X-43091Y-345172D02*
Y-294372D01*
X-551091Y-345172D02*
X-43091D01*
X-551091Y-294372D02*
X-43091D01*
X-551091Y-345172D02*
Y-294372D01*
X96909Y-291872D02*
X223909D01*
X96909Y-342672D02*
X223909D01*
Y-291872D01*
X96909Y-342672D02*
Y-291872D01*
X-606492Y265969D02*
Y272969D01*
X-629992Y265969D02*
Y272969D01*
X-572961Y265968D02*
Y272968D01*
X-596461Y265968D02*
Y272968D01*
X-537401Y265968D02*
Y272968D01*
X-560901Y265968D02*
Y272968D01*
X-565102Y334358D02*
Y342359D01*
X-549102Y334358D02*
Y342359D01*
X-549102Y211370D02*
Y219370D01*
X-565102Y211370D02*
Y219370D01*
X-799475Y178220D02*
X-799475Y155220D01*
X-945475Y178220D02*
X-799475D01*
X-945475Y88220D02*
Y178220D01*
X-799475Y88220D02*
Y111220D01*
X-818475Y88220D02*
X-799475D01*
X-945475D02*
X-862475D01*
X-782055Y-37010D02*
Y34990D01*
X-845055Y-37010D02*
Y34990D01*
X-793805D02*
X-782055D01*
X-793805Y-37010D02*
X-782055D01*
X-845055Y34990D02*
X-833305D01*
X-845055Y-37010D02*
X-833305D01*
X-127875Y157790D02*
Y165790D01*
X-142875Y157790D02*
Y165790D01*
X174625Y273030D02*
Y281030D01*
X189624Y273030D02*
Y281030D01*
D15*
X-874515Y-197150D02*
Y-105710D01*
X-783075Y-197150D02*
Y-105710D01*
X-874515Y-197150D02*
X-783075D01*
X-874515Y-105710D02*
X-783075D01*
D16*
X-166965Y440883D02*
X-186959D01*
X-176962Y430886D02*
Y450880D01*
X416335Y89318D02*
Y69325D01*
X426332Y79322D02*
X406339D01*
D17*
X-438905Y-224936D02*
Y-275720D01*
X-413514D01*
X-405050Y-267256D01*
Y-233400D01*
X-413514Y-224936D01*
X-438905D01*
X-362730Y-275720D02*
X-379658D01*
X-388122Y-267256D01*
Y-250328D01*
X-379658Y-241864D01*
X-362730D01*
X-354266Y-250328D01*
Y-258792D01*
X-388122D01*
X-337338Y-275720D02*
X-320410D01*
X-328874D01*
Y-224936D01*
X-337338Y-233400D01*
X-295019D02*
X-286555Y-224936D01*
X-269627D01*
X-261163Y-233400D01*
Y-267256D01*
X-269627Y-275720D01*
X-286555D01*
X-295019Y-267256D01*
Y-233400D01*
X-244235Y-250328D02*
X-210379D01*
X-193451Y-275720D02*
Y-224936D01*
X-159596Y-275720D01*
Y-224936D01*
X-134204Y-241864D02*
X-117276D01*
X-108812Y-250328D01*
Y-275720D01*
X-134204D01*
X-142668Y-267256D01*
X-134204Y-258792D01*
X-108812D01*
X-91884Y-275720D02*
Y-241864D01*
X-66492D01*
X-58028Y-250328D01*
Y-275720D01*
X-32637D02*
X-15709D01*
X-7245Y-267256D01*
Y-250328D01*
X-15709Y-241864D01*
X-32637D01*
X-41101Y-250328D01*
Y-267256D01*
X-32637Y-275720D01*
D18*
X-36741Y-313422D02*
X-32510D01*
X-34625D01*
Y-300726D01*
X-36741Y-302842D01*
X-28277Y-338822D02*
X-36741D01*
X-28277Y-330358D01*
Y-328242D01*
X-30394Y-326126D01*
X-34625D01*
X-36741Y-328242D01*
X-576493Y-338822D02*
Y-326126D01*
X-582841Y-332474D01*
X-574378D01*
X-570145Y-328242D02*
X-568030Y-326126D01*
X-563798D01*
X-561682Y-328242D01*
Y-336706D01*
X-563798Y-338822D01*
X-568030D01*
X-570145Y-336706D01*
Y-328242D01*
X-582841Y-302842D02*
X-580726Y-300726D01*
X-576493D01*
X-574378Y-302842D01*
Y-304958D01*
X-576493Y-307074D01*
X-578610D01*
X-576493D01*
X-574378Y-309190D01*
Y-311306D01*
X-576493Y-313422D01*
X-580726D01*
X-582841Y-311306D01*
X-570145D02*
X-568030Y-313422D01*
X-563798D01*
X-561682Y-311306D01*
Y-302842D01*
X-563798Y-300726D01*
X-568030D01*
X-570145Y-302842D01*
Y-304958D01*
X-568030Y-307074D01*
X-561682D01*
X71509Y-336322D02*
X75740D01*
X73625D01*
Y-323626D01*
X71509Y-325742D01*
X82088D02*
X84205Y-323626D01*
X88436D01*
X90552Y-325742D01*
Y-334206D01*
X88436Y-336322D01*
X84205D01*
X82088Y-334206D01*
Y-325742D01*
X77859Y-308806D02*
X79974Y-310922D01*
X84206D01*
X86322Y-308806D01*
Y-300342D01*
X84206Y-298226D01*
X79974D01*
X77859Y-300342D01*
Y-302458D01*
X79974Y-304574D01*
X86322D01*
X229115Y-308740D02*
X233347D01*
X231231D01*
Y-296044D01*
X229115Y-298160D01*
X237579Y-334140D02*
X229115D01*
X237579Y-325676D01*
Y-323560D01*
X235462Y-321444D01*
X231231D01*
X229115Y-323560D01*
D19*
X128747Y320530D02*
Y330527D01*
X123749Y325529D02*
X133745D01*
X-79533Y205590D02*
Y215587D01*
X-84531Y210588D02*
X-74534D01*
D20*
X-964841Y77587D02*
Y83935D01*
X-961667D01*
X-960609Y82877D01*
Y80761D01*
X-961667Y79703D01*
X-964841D01*
X-958493Y77587D02*
X-956377D01*
X-957435D01*
Y83935D01*
X-958493Y82877D01*
X-122641Y299342D02*
X-118409D01*
X-120525D01*
Y292994D01*
X-112061D02*
X-116293D01*
X-112061Y297226D01*
Y298284D01*
X-113119Y299342D01*
X-115235D01*
X-116293Y298284D01*
X-116113Y196126D02*
X-117171Y197184D01*
X-119287D01*
X-120345Y196126D01*
Y191894D01*
X-119287Y190836D01*
X-117171D01*
X-116113Y191894D01*
X-109765Y197184D02*
X-111881Y196126D01*
X-113997Y194010D01*
Y191894D01*
X-112939Y190836D01*
X-110823D01*
X-109765Y191894D01*
Y192952D01*
X-110823Y194010D01*
X-113997D01*
X-139786Y193934D02*
X-140844Y194992D01*
X-142960D01*
X-144018Y193934D01*
Y189702D01*
X-142960Y188644D01*
X-140844D01*
X-139786Y189702D01*
X-137670Y193934D02*
X-136612Y194992D01*
X-134496D01*
X-133438Y193934D01*
Y192876D01*
X-134496Y191818D01*
X-133438Y190760D01*
Y189702D01*
X-134496Y188644D01*
X-136612D01*
X-137670Y189702D01*
Y190760D01*
X-136612Y191818D01*
X-137670Y192876D01*
Y193934D01*
X-136612Y191818D02*
X-134496D01*
X329584Y59524D02*
X328526Y60582D01*
X326410D01*
X325352Y59524D01*
Y55292D01*
X326410Y54234D01*
X328526D01*
X329584Y55292D01*
X331700Y54234D02*
X333816D01*
X332758D01*
Y60582D01*
X331700Y59524D01*
X336990Y54234D02*
X339105D01*
X338048D01*
Y60582D01*
X336990Y59524D01*
X345782Y-314889D02*
Y-308541D01*
X348956D01*
X350014Y-309599D01*
Y-311715D01*
X348956Y-312773D01*
X345782D01*
X355304Y-314889D02*
Y-308541D01*
X352130Y-311715D01*
X356362D01*
X358478Y-315947D02*
X362710D01*
X364826Y-314889D02*
X366942D01*
X365884D01*
Y-308541D01*
X364826Y-309599D01*
X528662Y-314889D02*
Y-308541D01*
X531836D01*
X532894Y-309599D01*
Y-311715D01*
X531836Y-312773D01*
X528662D01*
X535010Y-309599D02*
X536068Y-308541D01*
X538184D01*
X539242Y-309599D01*
Y-310657D01*
X538184Y-311715D01*
X537126D01*
X538184D01*
X539242Y-312773D01*
Y-313831D01*
X538184Y-314889D01*
X536068D01*
X535010Y-313831D01*
X541358Y-315947D02*
X545590D01*
X547706Y-314889D02*
X549822D01*
X548764D01*
Y-308541D01*
X547706Y-309599D01*
X-700999Y-96369D02*
Y-101659D01*
X-699941Y-102717D01*
X-697825D01*
X-696767Y-101659D01*
Y-96369D01*
X-694651Y-97427D02*
X-693593Y-96369D01*
X-691477D01*
X-690419Y-97427D01*
Y-98485D01*
X-691477Y-99543D01*
X-692535D01*
X-691477D01*
X-690419Y-100601D01*
Y-101659D01*
X-691477Y-102717D01*
X-693593D01*
X-694651Y-101659D01*
X-688303Y-103775D02*
X-684072D01*
X-677723Y-102717D02*
X-681955D01*
X-677723Y-98485D01*
Y-97427D01*
X-678782Y-96369D01*
X-680898D01*
X-681955Y-97427D01*
X-485875Y462265D02*
X-486933Y463322D01*
X-489049D01*
X-490107Y462265D01*
Y458033D01*
X-489049Y456975D01*
X-486933D01*
X-485875Y458033D01*
X-483759Y456975D02*
X-481643D01*
X-482701D01*
Y463322D01*
X-483759Y462265D01*
X-474237Y456975D02*
X-478469D01*
X-474237Y461207D01*
Y462265D01*
X-475295Y463322D01*
X-477411D01*
X-478469Y462265D01*
X60134Y447935D02*
Y454282D01*
X63308D01*
X64366Y453224D01*
Y451109D01*
X63308Y450051D01*
X60134D01*
X62250D02*
X64366Y447935D01*
X66482D02*
X68598D01*
X67540D01*
Y454282D01*
X66482Y453224D01*
X71772D02*
X72830Y454282D01*
X74946D01*
X76004Y453224D01*
Y448993D01*
X74946Y447935D01*
X72830D01*
X71772Y448993D01*
Y453224D01*
X91538Y449202D02*
Y442855D01*
X94712D01*
X95770Y443913D01*
Y448144D01*
X94712Y449202D01*
X91538D01*
X101060Y442855D02*
Y449202D01*
X97886Y446029D01*
X102118D01*
X54625Y-98087D02*
Y-103377D01*
X55683Y-104435D01*
X57799D01*
X58857Y-103377D01*
Y-98087D01*
X60973Y-99145D02*
X62031Y-98087D01*
X64147D01*
X65205Y-99145D01*
Y-100203D01*
X64147Y-101261D01*
X63089D01*
X64147D01*
X65205Y-102319D01*
Y-103377D01*
X64147Y-104435D01*
X62031D01*
X60973Y-103377D01*
X67321Y-105493D02*
X71553D01*
X73669Y-104435D02*
X75785D01*
X74727D01*
Y-98087D01*
X73669Y-99145D01*
X-561119Y-97639D02*
Y-102928D01*
X-560061Y-103986D01*
X-557946D01*
X-556888Y-102928D01*
Y-97639D01*
X-550540Y-103986D02*
X-554772D01*
X-550540Y-99754D01*
Y-98696D01*
X-551598Y-97639D01*
X-553714D01*
X-554772Y-98696D01*
X-548424Y-105044D02*
X-544192D01*
X-537844Y-103986D02*
X-542076D01*
X-537844Y-99754D01*
Y-98696D01*
X-538902Y-97639D01*
X-541018D01*
X-542076Y-98696D01*
X158845Y-98087D02*
Y-103377D01*
X159903Y-104435D01*
X162019D01*
X163077Y-103377D01*
Y-98087D01*
X169425Y-104435D02*
X165193D01*
X169425Y-100203D01*
Y-99145D01*
X168367Y-98087D01*
X166251D01*
X165193Y-99145D01*
X171541Y-105493D02*
X175773D01*
X177889Y-104435D02*
X180005D01*
X178947D01*
Y-98087D01*
X177889Y-99145D01*
X-1134070Y-310996D02*
Y-304648D01*
X-1130895D01*
X-1129837Y-305707D01*
Y-307822D01*
X-1130895Y-308881D01*
X-1134070D01*
X-1124548Y-310996D02*
Y-304648D01*
X-1127721Y-307822D01*
X-1123490D01*
X-1121374Y-312054D02*
X-1117142D01*
X-1110794Y-310996D02*
X-1115026D01*
X-1110794Y-306765D01*
Y-305707D01*
X-1111852Y-304648D01*
X-1113968D01*
X-1115026Y-305707D01*
X-948650Y-313536D02*
Y-307188D01*
X-945475D01*
X-944417Y-308246D01*
Y-310362D01*
X-945475Y-311420D01*
X-948650D01*
X-942301Y-308246D02*
X-941244Y-307188D01*
X-939128D01*
X-938070Y-308246D01*
Y-309305D01*
X-939128Y-310362D01*
X-940186D01*
X-939128D01*
X-938070Y-311420D01*
Y-312478D01*
X-939128Y-313536D01*
X-941244D01*
X-942301Y-312478D01*
X-935954Y-314594D02*
X-931722D01*
X-925374Y-313536D02*
X-929606D01*
X-925374Y-309305D01*
Y-308246D01*
X-926432Y-307188D01*
X-928548D01*
X-929606Y-308246D01*
X-772668Y172642D02*
Y178990D01*
X-770552Y176874D01*
X-768436Y178990D01*
Y172642D01*
X-766320Y178990D02*
Y172642D01*
X-763146D01*
X-762088Y173700D01*
Y177932D01*
X-763146Y178990D01*
X-766320D01*
X-759973Y172642D02*
X-757857D01*
X-758914D01*
Y178990D01*
X-759973Y177932D01*
X-754682Y171584D02*
X-750451D01*
X-744103Y172642D02*
X-748335D01*
X-744103Y176874D01*
Y177932D01*
X-745161Y178990D01*
X-747277D01*
X-748335Y177932D01*
X4044Y169063D02*
Y175411D01*
X6160Y173295D01*
X8276Y175411D01*
Y169063D01*
X10392Y175411D02*
Y169063D01*
X13566D01*
X14624Y170121D01*
Y174353D01*
X13566Y175411D01*
X10392D01*
X16740Y169063D02*
X18856D01*
X17798D01*
Y175411D01*
X16740Y174353D01*
X22030Y168005D02*
X26261D01*
X28377Y169063D02*
X30494D01*
X29436D01*
Y175411D01*
X28377Y174353D01*
X-901240Y58042D02*
X-905471D01*
Y54869D01*
X-903356D01*
X-905471D01*
Y51695D01*
X-894892D02*
X-899124D01*
X-894892Y55927D01*
Y56985D01*
X-895950Y58042D01*
X-898066D01*
X-899124Y56985D01*
X-785825Y44784D02*
Y38436D01*
X-782651D01*
X-781593Y39494D01*
Y43726D01*
X-782651Y44784D01*
X-785825D01*
X-779477Y43726D02*
X-778419Y44784D01*
X-776303D01*
X-775245Y43726D01*
Y42668D01*
X-776303Y41610D01*
X-777361D01*
X-776303D01*
X-775245Y40552D01*
Y39494D01*
X-776303Y38436D01*
X-778419D01*
X-779477Y39494D01*
X-103680Y408563D02*
X-107912D01*
Y405389D01*
X-105796D01*
X-107912D01*
Y402215D01*
X-101564Y407505D02*
X-100506Y408563D01*
X-98390D01*
X-97332Y407505D01*
Y406447D01*
X-98390Y405389D01*
X-99448D01*
X-98390D01*
X-97332Y404331D01*
Y403273D01*
X-98390Y402215D01*
X-100506D01*
X-101564Y403273D01*
X-733331Y318004D02*
Y311656D01*
X-730157D01*
X-729099Y312714D01*
Y316946D01*
X-730157Y318004D01*
X-733331D01*
X-723809Y311656D02*
X-725925D01*
X-726983Y312714D01*
Y314830D01*
X-725925Y315888D01*
X-723809D01*
X-722751Y314830D01*
Y313772D01*
X-726983D01*
X-720636Y311656D02*
X-718520D01*
X-719577D01*
Y318004D01*
X-720636Y316946D01*
X-556385Y-69368D02*
X-562733D01*
Y-66194D01*
X-561675Y-65136D01*
X-559559D01*
X-558501Y-66194D01*
Y-69368D01*
Y-67252D02*
X-556385Y-65136D01*
X-557443Y-63020D02*
X-556385Y-61962D01*
Y-59846D01*
X-557443Y-58788D01*
X-561675D01*
X-562733Y-59846D01*
Y-61962D01*
X-561675Y-63020D01*
X-560617D01*
X-559559Y-61962D01*
Y-58788D01*
X-555327Y-56673D02*
Y-52441D01*
X-556385Y-46093D02*
Y-50325D01*
X-560617Y-46093D01*
X-561675D01*
X-562733Y-47151D01*
Y-49267D01*
X-561675Y-50325D01*
X197470Y-66480D02*
X191122D01*
Y-63306D01*
X192180Y-62248D01*
X194296D01*
X195354Y-63306D01*
Y-66480D01*
Y-64364D02*
X197470Y-62248D01*
X196412Y-60132D02*
X197470Y-59074D01*
Y-56958D01*
X196412Y-55900D01*
X192180D01*
X191122Y-56958D01*
Y-59074D01*
X192180Y-60132D01*
X193238D01*
X194296Y-59074D01*
Y-55900D01*
X198528Y-53784D02*
Y-49552D01*
X197470Y-47436D02*
Y-45320D01*
Y-46378D01*
X191122D01*
X192180Y-47436D01*
X-546225Y-69368D02*
X-552573D01*
Y-66194D01*
X-551515Y-65136D01*
X-549399D01*
X-548341Y-66194D01*
Y-69368D01*
Y-67252D02*
X-546225Y-65136D01*
X-551515Y-63020D02*
X-552573Y-61962D01*
Y-59846D01*
X-551515Y-58788D01*
X-550457D01*
X-549399Y-59846D01*
X-548341Y-58788D01*
X-547283D01*
X-546225Y-59846D01*
Y-61962D01*
X-547283Y-63020D01*
X-548341D01*
X-549399Y-61962D01*
X-550457Y-63020D01*
X-551515D01*
X-549399Y-61962D02*
Y-59846D01*
X-545167Y-56672D02*
Y-52440D01*
X-546225Y-46093D02*
Y-50325D01*
X-550457Y-46093D01*
X-551515D01*
X-552573Y-47151D01*
Y-49267D01*
X-551515Y-50325D01*
X210170Y-66480D02*
X203822D01*
Y-63306D01*
X204880Y-62248D01*
X206996D01*
X208054Y-63306D01*
Y-66480D01*
Y-64364D02*
X210170Y-62248D01*
X204880Y-60132D02*
X203822Y-59074D01*
Y-56958D01*
X204880Y-55900D01*
X205938D01*
X206996Y-56958D01*
X208054Y-55900D01*
X209112D01*
X210170Y-56958D01*
Y-59074D01*
X209112Y-60132D01*
X208054D01*
X206996Y-59074D01*
X205938Y-60132D01*
X204880D01*
X206996Y-59074D02*
Y-56958D01*
X211228Y-53784D02*
Y-49552D01*
X210170Y-47436D02*
Y-45320D01*
Y-46378D01*
X203822D01*
X204880Y-47436D01*
X-622425Y-69368D02*
X-628773D01*
Y-66194D01*
X-627715Y-65136D01*
X-625599D01*
X-624541Y-66194D01*
Y-69368D01*
Y-67252D02*
X-622425Y-65136D01*
X-628773Y-58788D02*
Y-63020D01*
X-625599D01*
X-626657Y-60904D01*
Y-59846D01*
X-625599Y-58788D01*
X-623483D01*
X-622425Y-59846D01*
Y-61962D01*
X-623483Y-63020D01*
X-621367Y-56673D02*
Y-52441D01*
X-622425Y-46093D02*
Y-50325D01*
X-626657Y-46093D01*
X-627715D01*
X-628773Y-47151D01*
Y-49267D01*
X-627715Y-50325D01*
X121270Y-66480D02*
X114922D01*
Y-63306D01*
X115980Y-62248D01*
X118096D01*
X119154Y-63306D01*
Y-66480D01*
Y-64364D02*
X121270Y-62248D01*
X114922Y-55900D02*
Y-60132D01*
X118096D01*
X117038Y-58016D01*
Y-56958D01*
X118096Y-55900D01*
X120212D01*
X121270Y-56958D01*
Y-59074D01*
X120212Y-60132D01*
X122328Y-53784D02*
Y-49552D01*
X121270Y-47436D02*
Y-45320D01*
Y-46378D01*
X114922D01*
X115980Y-47436D01*
X-635125Y-69368D02*
X-641473D01*
Y-66194D01*
X-640415Y-65136D01*
X-638299D01*
X-637241Y-66194D01*
Y-69368D01*
Y-67252D02*
X-635125Y-65136D01*
Y-59846D02*
X-641473D01*
X-638299Y-63020D01*
Y-58788D01*
X-634067Y-56673D02*
Y-52441D01*
X-635125Y-46093D02*
Y-50325D01*
X-639357Y-46093D01*
X-640415D01*
X-641473Y-47151D01*
Y-49267D01*
X-640415Y-50325D01*
X108570Y-66480D02*
X102222D01*
Y-63306D01*
X103280Y-62248D01*
X105396D01*
X106454Y-63306D01*
Y-66480D01*
Y-64364D02*
X108570Y-62248D01*
Y-56958D02*
X102222D01*
X105396Y-60132D01*
Y-55900D01*
X109628Y-53784D02*
Y-49552D01*
X108570Y-47436D02*
Y-45320D01*
Y-46378D01*
X102222D01*
X103280Y-47436D01*
X-576705Y-69368D02*
X-583053D01*
Y-66194D01*
X-581995Y-65136D01*
X-579879D01*
X-578821Y-66194D01*
Y-69368D01*
Y-67252D02*
X-576705Y-65136D01*
X-583053Y-63020D02*
Y-58788D01*
X-581995D01*
X-577763Y-63020D01*
X-576705D01*
X-575647Y-56673D02*
Y-52441D01*
X-576705Y-46093D02*
Y-50325D01*
X-580937Y-46093D01*
X-581995D01*
X-583053Y-47151D01*
Y-49267D01*
X-581995Y-50325D01*
X172070Y-66650D02*
X165722D01*
Y-63476D01*
X166780Y-62418D01*
X168896D01*
X169954Y-63476D01*
Y-66650D01*
Y-64534D02*
X172070Y-62418D01*
X165722Y-60302D02*
Y-56070D01*
X166780D01*
X171012Y-60302D01*
X172070D01*
X173128Y-53954D02*
Y-49722D01*
X172070Y-47606D02*
Y-45490D01*
Y-46548D01*
X165722D01*
X166780Y-47606D01*
X-566545Y-69368D02*
X-572893D01*
Y-66194D01*
X-571835Y-65136D01*
X-569719D01*
X-568661Y-66194D01*
Y-69368D01*
Y-67252D02*
X-566545Y-65136D01*
X-572893Y-58788D02*
X-571835Y-60904D01*
X-569719Y-63020D01*
X-567603D01*
X-566545Y-61962D01*
Y-59846D01*
X-567603Y-58788D01*
X-568661D01*
X-569719Y-59846D01*
Y-63020D01*
X-565487Y-56673D02*
Y-52441D01*
X-566545Y-46093D02*
Y-50325D01*
X-570777Y-46093D01*
X-571835D01*
X-572893Y-47151D01*
Y-49267D01*
X-571835Y-50325D01*
X184770Y-66480D02*
X178422D01*
Y-63306D01*
X179480Y-62248D01*
X181596D01*
X182654Y-63306D01*
Y-66480D01*
Y-64364D02*
X184770Y-62248D01*
X178422Y-55900D02*
X179480Y-58016D01*
X181596Y-60132D01*
X183712D01*
X184770Y-59074D01*
Y-56958D01*
X183712Y-55900D01*
X182654D01*
X181596Y-56958D01*
Y-60132D01*
X185828Y-53784D02*
Y-49552D01*
X184770Y-47436D02*
Y-45320D01*
Y-46378D01*
X178422D01*
X179480Y-47436D01*
X-612265Y-69368D02*
X-618613D01*
Y-66194D01*
X-617555Y-65136D01*
X-615439D01*
X-614381Y-66194D01*
Y-69368D01*
Y-67252D02*
X-612265Y-65136D01*
X-617555Y-63020D02*
X-618613Y-61962D01*
Y-59846D01*
X-617555Y-58788D01*
X-616497D01*
X-615439Y-59846D01*
Y-60904D01*
Y-59846D01*
X-614381Y-58788D01*
X-613323D01*
X-612265Y-59846D01*
Y-61962D01*
X-613323Y-63020D01*
X-611207Y-56673D02*
Y-52441D01*
X-612265Y-46093D02*
Y-50325D01*
X-616497Y-46093D01*
X-617555D01*
X-618613Y-47151D01*
Y-49267D01*
X-617555Y-50325D01*
X133970Y-66480D02*
X127622D01*
Y-63306D01*
X128680Y-62248D01*
X130796D01*
X131854Y-63306D01*
Y-66480D01*
Y-64364D02*
X133970Y-62248D01*
X128680Y-60132D02*
X127622Y-59074D01*
Y-56958D01*
X128680Y-55900D01*
X129738D01*
X130796Y-56958D01*
Y-58016D01*
Y-56958D01*
X131854Y-55900D01*
X132912D01*
X133970Y-56958D01*
Y-59074D01*
X132912Y-60132D01*
X135028Y-53784D02*
Y-49552D01*
X133970Y-47436D02*
Y-45320D01*
Y-46378D01*
X127622D01*
X128680Y-47436D01*
X-602105Y-69368D02*
X-608453D01*
Y-66194D01*
X-607395Y-65136D01*
X-605279D01*
X-604221Y-66194D01*
Y-69368D01*
Y-67252D02*
X-602105Y-65136D01*
Y-58788D02*
Y-63020D01*
X-606337Y-58788D01*
X-607395D01*
X-608453Y-59846D01*
Y-61962D01*
X-607395Y-63020D01*
X-601047Y-56673D02*
Y-52441D01*
X-602105Y-46093D02*
Y-50325D01*
X-606337Y-46093D01*
X-607395D01*
X-608453Y-47151D01*
Y-49267D01*
X-607395Y-50325D01*
X146670Y-66650D02*
X140322D01*
Y-63476D01*
X141380Y-62418D01*
X143496D01*
X144554Y-63476D01*
Y-66650D01*
Y-64534D02*
X146670Y-62418D01*
Y-56070D02*
Y-60302D01*
X142438Y-56070D01*
X141380D01*
X140322Y-57128D01*
Y-59244D01*
X141380Y-60302D01*
X147728Y-53954D02*
Y-49722D01*
X146670Y-47606D02*
Y-45490D01*
Y-46548D01*
X140322D01*
X141380Y-47606D01*
X-416733Y299342D02*
X-412501D01*
X-414617D01*
Y292994D01*
X-410385D02*
X-408270D01*
X-409328D01*
Y299342D01*
X-410385Y298284D01*
X174208Y406787D02*
Y413134D01*
X177382D01*
X178440Y412076D01*
Y409961D01*
X177382Y408903D01*
X174208D01*
X180556Y413134D02*
X184788D01*
Y412076D01*
X180556Y407845D01*
Y406787D01*
X337099Y209174D02*
Y215522D01*
X340273D01*
X341331Y214464D01*
Y212348D01*
X340273Y211290D01*
X337099D01*
X347679Y215522D02*
X345563Y214464D01*
X343447Y212348D01*
Y210232D01*
X344505Y209174D01*
X346621D01*
X347679Y210232D01*
Y211290D01*
X346621Y212348D01*
X343447D01*
X-312541Y-212600D02*
X-318889D01*
Y-209426D01*
X-317831Y-208368D01*
X-315715D01*
X-314657Y-209426D01*
Y-212600D01*
X-318889Y-202020D02*
Y-206252D01*
X-315715D01*
X-316773Y-204136D01*
Y-203078D01*
X-315715Y-202020D01*
X-313599D01*
X-312541Y-203078D01*
Y-205194D01*
X-313599Y-206252D01*
X-106220Y477142D02*
X-110451D01*
Y473969D01*
X-108336D01*
X-110451D01*
Y470795D01*
X-100930D02*
Y477142D01*
X-104104Y473969D01*
X-99872D01*
X-646553Y7361D02*
X-641263D01*
X-640205Y8419D01*
Y10535D01*
X-641263Y11593D01*
X-646553D01*
X-640205Y13709D02*
Y15825D01*
Y14767D01*
X-646553D01*
X-645495Y13709D01*
X-639147Y18999D02*
Y23231D01*
X-640205Y29578D02*
Y25347D01*
X-644437Y29578D01*
X-645495D01*
X-646553Y28521D01*
Y26405D01*
X-645495Y25347D01*
X102222Y7539D02*
X107512D01*
X108570Y8597D01*
Y10713D01*
X107512Y11771D01*
X102222D01*
X108570Y13887D02*
Y16003D01*
Y14945D01*
X102222D01*
X103280Y13887D01*
X109628Y19177D02*
Y23409D01*
X108570Y25525D02*
Y27641D01*
Y26583D01*
X102222D01*
X103280Y25525D01*
X-999242Y-133516D02*
X-1000300Y-132458D01*
X-1002415D01*
X-1003474Y-133516D01*
Y-134573D01*
X-1002415Y-135631D01*
X-1000300D01*
X-999242Y-136689D01*
Y-137747D01*
X-1000300Y-138805D01*
X-1002415D01*
X-1003474Y-137747D01*
X-997126Y-138805D02*
X-995010D01*
X-996068D01*
Y-132458D01*
X-997126Y-133516D01*
X-1140633Y-118485D02*
Y-112137D01*
X-1137459D01*
X-1136402Y-113195D01*
Y-115311D01*
X-1137459Y-116369D01*
X-1140633D01*
X-1138518D02*
X-1136402Y-118485D01*
X-1134286D02*
X-1132170D01*
X-1133228D01*
Y-112137D01*
X-1134286Y-113195D01*
X-689572Y399167D02*
Y405514D01*
X-686398D01*
X-685340Y404456D01*
Y402341D01*
X-686398Y401283D01*
X-689572D01*
X-678992Y399167D02*
X-683224D01*
X-678992Y403399D01*
Y404456D01*
X-680050Y405514D01*
X-682166D01*
X-683224Y404456D01*
X-619934Y345062D02*
Y338715D01*
X-615702D01*
X-613586D02*
X-611470D01*
X-612528D01*
Y345062D01*
X-613586Y344005D01*
X-806975Y194814D02*
X-809091D01*
X-808033D01*
Y189524D01*
X-809091Y188466D01*
X-810149D01*
X-811207Y189524D01*
X-804859Y188466D02*
X-802743D01*
X-803801D01*
Y194814D01*
X-804859Y193756D01*
X-977016Y-267711D02*
Y-271943D01*
X-973842D01*
Y-269827D01*
Y-271943D01*
X-970668D01*
Y-265595D02*
Y-263479D01*
Y-264538D01*
X-977016D01*
X-975958Y-265595D01*
X-892261Y-190878D02*
Y-197226D01*
X-889087D01*
X-888029Y-196168D01*
Y-191936D01*
X-889087Y-190878D01*
X-892261D01*
X-881681Y-197226D02*
X-885913D01*
X-881681Y-192994D01*
Y-191936D01*
X-882739Y-190878D01*
X-884855D01*
X-885913Y-191936D01*
X-1146666Y-67072D02*
X-1140319D01*
Y-63898D01*
X-1141377Y-62840D01*
X-1145609D01*
X-1146666Y-63898D01*
Y-67072D01*
X-1140319Y-60724D02*
Y-58608D01*
Y-59666D01*
X-1146666D01*
X-1145609Y-60724D01*
X-594695Y-70321D02*
X-595753Y-71379D01*
Y-73495D01*
X-594695Y-74553D01*
X-590463D01*
X-589405Y-73495D01*
Y-71379D01*
X-590463Y-70321D01*
X-589405Y-68205D02*
Y-66089D01*
Y-67147D01*
X-595753D01*
X-594695Y-68205D01*
Y-62915D02*
X-595753Y-61857D01*
Y-59741D01*
X-594695Y-58683D01*
X-590463D01*
X-589405Y-59741D01*
Y-61857D01*
X-590463Y-62915D01*
X-594695D01*
X-588347Y-56568D02*
Y-52336D01*
X-589405Y-45988D02*
Y-50219D01*
X-593637Y-45988D01*
X-594695D01*
X-595753Y-47045D01*
Y-49162D01*
X-594695Y-50219D01*
X154080Y-67603D02*
X153022Y-68661D01*
Y-70777D01*
X154080Y-71835D01*
X158312D01*
X159370Y-70777D01*
Y-68661D01*
X158312Y-67603D01*
X159370Y-65487D02*
Y-63371D01*
Y-64429D01*
X153022D01*
X154080Y-65487D01*
Y-60197D02*
X153022Y-59139D01*
Y-57023D01*
X154080Y-55965D01*
X158312D01*
X159370Y-57023D01*
Y-59139D01*
X158312Y-60197D01*
X154080D01*
X160428Y-53849D02*
Y-49617D01*
X159370Y-47501D02*
Y-45385D01*
Y-46443D01*
X153022D01*
X154080Y-47501D01*
X199091Y288124D02*
X198033Y289182D01*
X195917D01*
X194859Y288124D01*
Y283892D01*
X195917Y282834D01*
X198033D01*
X199091Y283892D01*
X201207D02*
X202265Y282834D01*
X204381D01*
X205439Y283892D01*
Y288124D01*
X204381Y289182D01*
X202265D01*
X201207Y288124D01*
Y287066D01*
X202265Y286008D01*
X205439D01*
X87331Y300824D02*
X86273Y301882D01*
X84157D01*
X83099Y300824D01*
Y296592D01*
X84157Y295534D01*
X86273D01*
X87331Y296592D01*
X89447Y301882D02*
X93679D01*
Y300824D01*
X89447Y296592D01*
Y295534D01*
X-539023Y231856D02*
X-540081Y232914D01*
X-542197D01*
X-543255Y231856D01*
Y227624D01*
X-542197Y226566D01*
X-540081D01*
X-539023Y227624D01*
X-532676Y232914D02*
X-536907D01*
Y229740D01*
X-534791Y230798D01*
X-533733D01*
X-532676Y229740D01*
Y227624D01*
X-533733Y226566D01*
X-535849D01*
X-536907Y227624D01*
X-558160Y369404D02*
X-559218Y370462D01*
X-561334D01*
X-562392Y369404D01*
Y365173D01*
X-561334Y364115D01*
X-559218D01*
X-558160Y365173D01*
X-552870Y364115D02*
Y370462D01*
X-556044Y367289D01*
X-551812D01*
X-550173Y296556D02*
X-551230Y295497D01*
X-553346D01*
X-554404Y296556D01*
Y300787D01*
X-553346Y301845D01*
X-551230D01*
X-550173Y300787D01*
X-548056Y296556D02*
X-546998Y295497D01*
X-544883D01*
X-543825Y296556D01*
Y297614D01*
X-544883Y298671D01*
X-545941D01*
X-544883D01*
X-543825Y299729D01*
Y300787D01*
X-544883Y301845D01*
X-546998D01*
X-548056Y300787D01*
X-585732Y300788D02*
X-586790Y301845D01*
X-588906D01*
X-589964Y300788D01*
Y296556D01*
X-588906Y295497D01*
X-586790D01*
X-585732Y296556D01*
X-579384Y295497D02*
X-583616D01*
X-579384Y299729D01*
Y300788D01*
X-580443Y301845D01*
X-582559D01*
X-583616Y300788D01*
X-618242Y300825D02*
X-619300Y301882D01*
X-621415D01*
X-622473Y300825D01*
Y296593D01*
X-621415Y295535D01*
X-619300D01*
X-618242Y296593D01*
X-616126Y295535D02*
X-614010D01*
X-615068D01*
Y301882D01*
X-616126Y300825D01*
M02*
