G04*
G04 #@! TF.GenerationSoftware,Altium Limited,Altium Designer,22.3.1 (43)*
G04*
G04 Layer_Color=8388736*
%FSLAX44Y44*%
%MOMM*%
G71*
G04*
G04 #@! TF.SameCoordinates,183D5ADB-B2EB-4085-A593-B9F204B0C739*
G04*
G04*
G04 #@! TF.FilePolarity,Negative*
G04*
G01*
G75*
%ADD36R,4.0132X5.5372*%
%ADD37R,5.5372X4.0132*%
%ADD38R,1.0532X2.4032*%
%ADD39R,1.6032X1.1032*%
%ADD40R,1.1032X1.6032*%
%ADD41R,0.8032X1.1032*%
%ADD42R,0.7532X0.7532*%
%ADD43R,1.4532X3.2032*%
%ADD44R,5.7532X6.6032*%
%ADD45O,0.8032X2.2032*%
%ADD46R,2.7532X1.5032*%
%ADD47R,2.0032X1.5032*%
%ADD48R,3.3532X2.6532*%
%ADD49R,1.9032X1.3032*%
%ADD50R,0.7032X0.8032*%
%ADD51C,2.2352*%
%ADD52R,2.2352X2.2352*%
%ADD53C,3.7592*%
%ADD54R,3.7592X3.7592*%
%ADD55R,2.2032X2.2032*%
%ADD56C,2.2032*%
%ADD57C,2.7432*%
%ADD58O,3.0032X2.2032*%
%ADD59C,2.4892*%
%ADD60R,2.4892X2.4892*%
%ADD61C,6.5532*%
%ADD62C,1.7032*%
%ADD63R,1.7032X1.7032*%
%ADD64R,2.2352X2.2352*%
%ADD65O,2.2032X4.2032*%
%ADD66O,4.2032X2.2032*%
%ADD67O,2.2032X4.7032*%
%ADD68R,1.4032X1.4032*%
%ADD69C,1.4032*%
%ADD70C,0.7112*%
%ADD71C,1.4732*%
D36*
X-948442Y-165476D02*
D03*
Y-240152D02*
D03*
X-882402Y-54987D02*
D03*
Y19690D02*
D03*
D37*
X-2927Y443489D02*
D03*
X-77603D02*
D03*
X-387Y377449D02*
D03*
X-75063D02*
D03*
D38*
X-587582Y324109D02*
D03*
X-608082D02*
D03*
D39*
X-1128253Y-82750D02*
D03*
Y-63250D02*
D03*
D40*
X94288Y461269D02*
D03*
X113788D02*
D03*
D41*
X-1120753Y-103890D02*
D03*
X-1135753D02*
D03*
X63229Y463809D02*
D03*
X78229D02*
D03*
D42*
X144025Y-28130D02*
D03*
Y-37130D02*
D03*
X-605275Y-28130D02*
D03*
Y-37130D02*
D03*
X131325Y-36960D02*
D03*
Y-27960D02*
D03*
X-615435Y-37130D02*
D03*
Y-28130D02*
D03*
X182125Y-27960D02*
D03*
Y-36960D02*
D03*
X-569715Y-28130D02*
D03*
Y-37130D02*
D03*
X169425Y-37130D02*
D03*
Y-28130D02*
D03*
X-579875Y-37130D02*
D03*
Y-28130D02*
D03*
X105925Y-36960D02*
D03*
Y-27960D02*
D03*
X-635755Y-37130D02*
D03*
Y-28130D02*
D03*
X118625Y-27960D02*
D03*
Y-36960D02*
D03*
X-625595Y-28130D02*
D03*
Y-37130D02*
D03*
X207525Y-36960D02*
D03*
Y-27960D02*
D03*
X-549395Y-37130D02*
D03*
Y-28130D02*
D03*
X194825Y-27960D02*
D03*
Y-36960D02*
D03*
X-559555Y-28130D02*
D03*
Y-37130D02*
D03*
D43*
X172147Y-205490D02*
D03*
X217947D02*
D03*
X-589852Y-204220D02*
D03*
X-544053D02*
D03*
X70547Y-205490D02*
D03*
X116348D02*
D03*
X-691453Y-204220D02*
D03*
X-645653D02*
D03*
D44*
X195047Y-140990D02*
D03*
X-566953Y-139720D02*
D03*
X93448Y-140990D02*
D03*
X-668553Y-139720D02*
D03*
D45*
X118625Y59350D02*
D03*
X194825D02*
D03*
X182125D02*
D03*
X169425D02*
D03*
X156725D02*
D03*
X144025D02*
D03*
X131325D02*
D03*
X194825Y-150D02*
D03*
X182125D02*
D03*
X169425D02*
D03*
X156725D02*
D03*
X144025D02*
D03*
X131325D02*
D03*
X118625D02*
D03*
X-630675Y59350D02*
D03*
X-554475D02*
D03*
X-567175D02*
D03*
X-579875D02*
D03*
X-592575D02*
D03*
X-605275D02*
D03*
X-617975D02*
D03*
X-554475Y-150D02*
D03*
X-567175D02*
D03*
X-579875D02*
D03*
X-592575D02*
D03*
X-605275D02*
D03*
X-617975D02*
D03*
X-630675D02*
D03*
D46*
X-618242Y283468D02*
D03*
Y255469D02*
D03*
X-584711Y283468D02*
D03*
Y255468D02*
D03*
X-549151Y283468D02*
D03*
Y255468D02*
D03*
D47*
X-557102Y324109D02*
D03*
Y352608D02*
D03*
X-557102Y229620D02*
D03*
Y201120D02*
D03*
D48*
X-813555Y27490D02*
D03*
Y-29510D02*
D03*
D49*
X182125Y263530D02*
D03*
X-135375Y148290D02*
D03*
Y175290D02*
D03*
X182125Y290530D02*
D03*
D50*
X156725Y-38130D02*
D03*
X-592575D02*
D03*
X156725Y-28130D02*
D03*
X-592575D02*
D03*
D51*
X-280155Y-202230D02*
D03*
Y-176830D02*
D03*
Y-151430D02*
D03*
Y-126030D02*
D03*
Y-100630D02*
D03*
Y-75230D02*
D03*
Y-49830D02*
D03*
Y-24430D02*
D03*
Y970D02*
D03*
X-914152Y-346451D02*
D03*
X-837952D02*
D03*
X-863352D02*
D03*
X-888752D02*
D03*
X-812552D02*
D03*
X-1098302D02*
D03*
X-1022102D02*
D03*
X-1047502D02*
D03*
X-1072902D02*
D03*
X-996702D02*
D03*
X562858Y-346451D02*
D03*
X639058D02*
D03*
X613658D02*
D03*
X588258D02*
D03*
X664458D02*
D03*
X378708D02*
D03*
X454908D02*
D03*
X429508D02*
D03*
X404108D02*
D03*
X480308D02*
D03*
X369998Y156468D02*
D03*
Y131576D02*
D03*
X-658882Y344428D02*
D03*
X202358Y352048D02*
D03*
D52*
X-280155Y26370D02*
D03*
X-939552Y-346451D02*
D03*
X-1123702D02*
D03*
X537458Y-346451D02*
D03*
X353308D02*
D03*
D53*
X-943095Y-12830D02*
D03*
X-828795Y-80310D02*
D03*
D54*
X-943095Y37970D02*
D03*
X-828795Y-222550D02*
D03*
D55*
X55125Y290530D02*
D03*
X243347Y145030D02*
D03*
X-531353Y145030D02*
D03*
D56*
X55125Y265130D02*
D03*
Y239730D02*
D03*
Y214330D02*
D03*
X116347Y145030D02*
D03*
X90947D02*
D03*
X192547D02*
D03*
X167147D02*
D03*
X141747D02*
D03*
X65547D02*
D03*
X217947D02*
D03*
X-658353Y145030D02*
D03*
X-683753D02*
D03*
X-582153D02*
D03*
X-607553D02*
D03*
X-632953D02*
D03*
X-709153D02*
D03*
X-556753D02*
D03*
D57*
X-178642Y400308D02*
D03*
X-419942D02*
D03*
X415539Y4068D02*
D03*
Y-237232D02*
D03*
X-1088142Y-257551D02*
D03*
X-1034802D02*
D03*
X-1088142Y-155951D02*
D03*
X-1034802D02*
D03*
X-343742Y400459D02*
D03*
X-254842D02*
D03*
X415389Y-161032D02*
D03*
Y-72132D02*
D03*
D58*
X274247Y-261370D02*
D03*
X288647D02*
D03*
X121847D02*
D03*
X71047D02*
D03*
X85448D02*
D03*
X237847D02*
D03*
X223447D02*
D03*
X172647D02*
D03*
X187048D02*
D03*
X136248D02*
D03*
X20247D02*
D03*
X34648D02*
D03*
X-500453Y-261370D02*
D03*
X-486053D02*
D03*
X-652853D02*
D03*
X-703653D02*
D03*
X-689253D02*
D03*
X-536853D02*
D03*
X-551253D02*
D03*
X-602053D02*
D03*
X-587653D02*
D03*
X-638453D02*
D03*
X-754453D02*
D03*
X-740053D02*
D03*
D59*
X-379481Y70108D02*
D03*
X-176281D02*
D03*
Y171708D02*
D03*
Y273308D02*
D03*
X-379481Y146308D02*
D03*
D60*
Y197108D02*
D03*
D61*
X265509Y255528D02*
D03*
Y-366772D02*
D03*
X-738891Y255528D02*
D03*
Y-366772D02*
D03*
X-580542Y404018D02*
D03*
X118551Y404019D02*
D03*
X612884Y-90315D02*
D03*
X-1074875Y-90314D02*
D03*
D62*
X-538391Y-307072D02*
D03*
X-512991D02*
D03*
X-487591D02*
D03*
X-462191D02*
D03*
X-436791D02*
D03*
X-411391D02*
D03*
X-385991D02*
D03*
X-360591D02*
D03*
X-335191D02*
D03*
X-309791D02*
D03*
X-284391D02*
D03*
X-258991D02*
D03*
X-233591D02*
D03*
X-208191D02*
D03*
X-182791D02*
D03*
X-157391D02*
D03*
X-131991D02*
D03*
X-106591D02*
D03*
X-538391Y-332472D02*
D03*
X-512991D02*
D03*
X-487591D02*
D03*
X-462191D02*
D03*
X-436791D02*
D03*
X-411391D02*
D03*
X-385991D02*
D03*
X-360591D02*
D03*
X-335191D02*
D03*
X-309791D02*
D03*
X-284391D02*
D03*
X-258991D02*
D03*
X-233591D02*
D03*
X-208191D02*
D03*
X-182791D02*
D03*
X-157391D02*
D03*
X-131991D02*
D03*
X-106591D02*
D03*
X-81191D02*
D03*
Y-307072D02*
D03*
X-55791Y-332472D02*
D03*
X109609Y-329972D02*
D03*
Y-304572D02*
D03*
X135009Y-329972D02*
D03*
Y-304572D02*
D03*
X160408Y-329972D02*
D03*
X160409Y-304572D02*
D03*
X185809Y-329972D02*
D03*
Y-304572D02*
D03*
X211209Y-329972D02*
D03*
D63*
X-55791Y-307072D02*
D03*
X211209Y-304572D02*
D03*
D64*
X369998Y181360D02*
D03*
X-658882Y369320D02*
D03*
X202358Y376940D02*
D03*
D65*
X-870475Y133220D02*
D03*
D66*
X-840475Y83220D02*
D03*
D67*
X-808475Y133220D02*
D03*
D68*
X126245Y290530D02*
D03*
X-82035Y175590D02*
D03*
D69*
X126245Y250530D02*
D03*
X-82035Y135590D02*
D03*
D70*
X-279400Y213360D02*
D03*
X-129540D02*
D03*
X-1084065Y-292230D02*
D03*
X578365Y-216030D02*
D03*
X-656075Y-59820D02*
D03*
Y39240D02*
D03*
X-592575D02*
D03*
X329689Y-293112D02*
D03*
X194825Y-78180D02*
D03*
X207525Y-79791D02*
D03*
X133778Y-79752D02*
D03*
X118625Y-78180D02*
D03*
X105925Y-90880D02*
D03*
X39885Y18750D02*
D03*
X-224275D02*
D03*
Y145750D02*
D03*
X329320Y-240455D02*
D03*
X339605Y-324150D02*
D03*
X359925Y-316530D02*
D03*
X-313175Y-100630D02*
D03*
X-798315D02*
D03*
X-369055Y-90470D02*
D03*
X-635755D02*
D03*
X-380911Y43448D02*
D03*
X-605300Y82275D02*
D03*
X156725Y39070D02*
D03*
X169425Y-80720D02*
D03*
X156638Y-79752D02*
D03*
X-135375Y129870D02*
D03*
X-559642Y-79752D02*
D03*
X-579962D02*
D03*
X-592662D02*
D03*
X-615522D02*
D03*
X-625682D02*
D03*
X-1095761Y-34032D02*
D03*
X-6186Y-372761D02*
D03*
X-157391Y-373112D02*
D03*
X-13002Y-364337D02*
D03*
X-183635Y-220010D02*
D03*
X-379215Y-273350D02*
D03*
X-369055Y-265730D02*
D03*
X-361435Y-258110D02*
D03*
X-333495Y-250490D02*
D03*
X-640835Y75925D02*
D03*
X-361435Y87330D02*
D03*
X-554475D02*
D03*
X-533295Y-37634D02*
D03*
X-332559Y-37826D02*
D03*
X-129359Y-45446D02*
D03*
X-157299Y-70846D02*
D03*
X-129359Y289834D02*
D03*
X66221Y117114D02*
D03*
X144961D02*
D03*
X91621Y124734D02*
D03*
X170361D02*
D03*
X282121Y20594D02*
D03*
Y211094D02*
D03*
X-82942Y239730D02*
D03*
X-81099Y272054D02*
D03*
X-312239Y25674D02*
D03*
X-591639D02*
D03*
X-449399Y96794D02*
D03*
X-838852Y-378607D02*
D03*
X-1023439Y-378186D02*
D03*
X-578939Y-322306D02*
D03*
X-657679Y-291826D02*
D03*
X-939619Y-322457D02*
D03*
X-1048839Y-312146D02*
D03*
X-1071699Y-305312D02*
D03*
X-708479Y-281666D02*
D03*
X-995499D02*
D03*
X-487499Y-403586D02*
D03*
X-462099Y-411206D02*
D03*
X-863419Y-403586D02*
D03*
X-888819Y-411206D02*
D03*
X-208099Y-398506D02*
D03*
X-232989Y-397599D02*
D03*
X586921Y-404425D02*
D03*
X614268Y-410775D02*
D03*
X181Y-243566D02*
D03*
X-410Y102275D02*
D03*
X-6048Y168747D02*
D03*
X-12519Y178074D02*
D03*
X-131991Y-362952D02*
D03*
X-20139Y-355326D02*
D03*
X-106591Y-355332D02*
D03*
X-27851Y193308D02*
D03*
X-35471Y200928D02*
D03*
X-60871Y338088D02*
D03*
Y-220712D02*
D03*
X-35471Y-332472D02*
D03*
X-27851Y-347712D02*
D03*
X-81191D02*
D03*
X193129Y193308D02*
D03*
X218238Y200638D02*
D03*
X167729Y185688D02*
D03*
X142329Y178068D02*
D03*
X116929Y170448D02*
D03*
X-18535Y185750D02*
D03*
X6865Y94310D02*
D03*
Y-233350D02*
D03*
X-5847Y338150D02*
D03*
X555505Y-313990D02*
D03*
X454170Y-314262D02*
D03*
X639325Y-313990D02*
D03*
X-79495Y-242870D02*
D03*
X271025Y158450D02*
D03*
X331985Y87330D02*
D03*
X319285Y79710D02*
D03*
X194825Y87330D02*
D03*
X118625Y79710D02*
D03*
X156943Y21290D02*
D03*
X309100Y-90445D02*
D03*
X359925Y-80310D02*
D03*
X537725Y-263190D02*
D03*
X390647Y-262788D02*
D03*
X390405Y-227630D02*
D03*
X243085D02*
D03*
X192285Y-214930D02*
D03*
X375165Y-202230D02*
D03*
X141485D02*
D03*
X481845Y-189530D02*
D03*
X90685D02*
D03*
X-658615Y97490D02*
D03*
X-684015Y89870D02*
D03*
X-579875D02*
D03*
X-632953Y104390D02*
D03*
X-396733D02*
D03*
X-607553Y112010D02*
D03*
X-346282Y117173D02*
D03*
X-323422Y125480D02*
D03*
X-354666Y112016D02*
D03*
X-709502Y82300D02*
D03*
X-581869Y118366D02*
D03*
X-556753Y125980D02*
D03*
X270938Y95000D02*
D03*
X260778Y102620D02*
D03*
X-105918Y-233504D02*
D03*
X262382Y183056D02*
D03*
D71*
X129848Y458728D02*
D03*
X-480815Y-230170D02*
D03*
X-224275D02*
D03*
Y-153970D02*
D03*
X291345Y-156510D02*
D03*
X182064Y242666D02*
D03*
M02*
