M48
;Layer_Color=9474304
;FILE_FORMAT=4:4
METRIC,LZ
;TYPE=PLATED
T1F00S00C0.2540
T2F00S00C0.7000
T3F00S00C0.7112
T5F00S00C0.9000
T6F00S00C1.0000
T9F00S00C1.0160
T10F00S00C1.0200
T11F00S00C1.1430
T12F00S00C1.2700
T13F00S00C1.7780
T14F00S00C3.2000
%
T01
X-01023439Y-00378186
X-01048839Y-00312146
X-01071699Y-00305312
X-01084065Y-0029223
X-00995499Y-00281666
X-00939619Y-00322457
X-00888819Y-00411206
X-00863419Y-00403586
X-00838852Y-00378607
X-00708479Y-00281666
X-00657679Y-00291826
X-00578939Y-00322306
X-00487499Y-00403586
X-00462099Y-00411206
X-00379215Y-0027335
X-00369055Y-0026573
X-00361435Y-0025811
X-00333495Y-0025049
X-00183635Y-0022001
X-00105918Y-00233504
X-00079495Y-0024287
X-00060871Y-00220712
X00006865Y-0023335
X00000181Y-00243566
X-00035471Y-00332472
X-00027851Y-00347712
X-00020139Y-00355326
X-00013002Y-00364337
X-00006186Y-00372761
X-00081191Y-00347712
X-00106591Y-00355332
X-00131991Y-00362952
X-00157391Y-00373112
X-00208099Y-00398506
X-00232989Y-00397599
X00090685Y-0018953
X00141485Y-0020223
X00192285Y-0021493
X00243085Y-0022763
X0032932Y-00240455
X00329689Y-00293112
X00339605Y-0032415
X00359925Y-0031653
X00390647Y-00262788
X00390405Y-0022763
X00375165Y-0020223
X00481845Y-0018953
X00578365Y-0021603
X00537725Y-0026319
X00555505Y-0031399
X00639325
X00614268Y-00410775
X00586921Y-00404425
X0045417Y-00314262
X00359925Y-0008031
X003091Y-00090445
X00207525Y-00079791
X00194825Y-0007818
X00169425Y-0008072
X00156638Y-00079752
X00133778
X00118625Y-0007818
X00105925Y-0009088
X00156943Y0002129
X00156725Y0003907
X00118625Y0007971
X00144961Y00117114
X00170361Y00124734
X00194825Y0008733
X00260778Y0010262
X00270938Y00095
X00271025Y0015845
X00262382Y00183056
X00282121Y00211094
X00218238Y00200638
X00193129Y00193308
X00167729Y00185688
X00142329Y00178068
X00116929Y00170448
X00091621Y00124734
X00066221Y00117114
X00039885Y0001875
X00282121Y00020594
X00319285Y0007971
X00331985Y0008733
X00006865Y0009431
X-0000041Y00102275
X-00006048Y00168747
X-00012519Y00178074
X-00018535Y0018575
X-00027851Y00193308
X-00035471Y00200928
X-0012954Y0021336
X-00135375Y0012987
X-00224275Y0014575
X-00323422Y0012548
X-00346282Y00117173
X-00354666Y00112016
X-00312239Y00025674
X-00332559Y-00037826
X-00313175Y-0010063
X-00157299Y-00070846
X-00129359Y-00045446
X-00224275Y0001875
X-002794Y0021336
X-00361435Y0008733
X-00396733Y0010439
X-00449399Y00096794
X-00554475Y0008733
X-00579875Y0008987
X-00581869Y00118366
X-00607553Y0011201
X-006053Y00082275
X-00640835Y00075925
X-00632953Y0010439
X-00658615Y0009749
X-00684015Y0008987
X-00709502Y000823
X-00656075Y0003924
X-00592575
X-00591639Y00025674
X-00592662Y-00079752
X-00579962
X-00559642
X-00615522
X-00625682
X-00635755Y-0009047
X-00656075Y-0005982
X-00533295Y-00037634
X-00556753Y0012598
X-00380911Y00043448
X-00369055Y-0009047
X-00798315Y-0010063
X-01095761Y-00034032
X-00082942Y0023973
X-00081099Y00272054
X-00129359Y00289834
X-00060871Y00338088
X-00005847Y0033815
T02
X-00082035Y0013559
Y0017559
X00126245Y0025053
Y0029053
T03
X-00480815Y-0023017
X-00224275
X00291345Y-0015651
X-00224275Y-0015397
X00182064Y00242666
X00129848Y00458728
T05
X-00538391Y-00332472
Y-00307072
X-00512991
X-00487591
X-00462191
X-00436791
X-00411391
X-00385991
Y-00332472
X-00411391
X-00436791
X-00462191
X-00487591
X-00512991
X-00360591
Y-00307072
X-00335191
X-00309791
X-00284391
X-00258991
X-00233591
X-00208191
X-00182791
X-00157391
X-00131991
X-00106591
Y-00332472
X-00131991
X-00157391
X-00182791
X-00208191
X-00233591
X-00258991
X-00284391
X-00309791
X-00335191
X-00081191
Y-00307072
X-00055791
Y-00332472
X00109609Y-00329972
Y-00304572
X00135009
Y-00329972
X00160408
X00160409Y-00304572
X00185809
Y-00329972
X00211209
Y-00304572
T06
X-00759953Y-0026137
X-00734553
X-00709153
X-00683753
X-00658353
X-00632953
X-00607553
X-00582153
X-00556753
X-00531353
X-00505953
X-00480553
X00014747Y-0026137
X00040147
X00065547
X00090947
X00116347
X00141747
X00167147
X00192547
X00217947
X00243347
X00268747
X00294147
X00243347Y0014503
X00217947
X00192547
X00167147
X00141747
X00116347
X00090947
X00065547
X-00531353Y0014503
X-00556753
X-00582153
X-00607553
X-00632953
X-00658353
X-00683753
X-00709153
T09
X-01123702Y-00346451
X-01098302
X-01072902
X-01047502
X-01022102
X-00996702
X-00939552
X-00914152
X-00888752
X-00863352
X-00837952
X-00812552
X-00280155Y-0020223
Y-0017683
X00353308Y-00346451
X00378708
X00404108
X00429508
X00454908
X00480308
X00537458
X00562858
X00588258
X00613658
X00639058
X00664458
X00369998Y00131576
Y00156468
Y0018136
X-00280155Y0002637
Y0000097
Y-0002443
Y-0004983
Y-0007523
Y-0010063
Y-0012603
Y-0015143
X-00658882Y00344428
Y0036932
X00202358Y0037694
Y00352048
T10
X00055125Y0021433
Y0023973
Y0026513
Y0029053
T11
X-00176281Y00070108
Y00171708
X-00379481Y00146308
Y00197108
Y00070108
X-00176281Y00273308
T12
X00415539Y-00237232
X00415389Y-00161032
Y-00072132
X00415539Y00004068
X-00419942Y00400308
X-00343742Y00400459
X-00254842
X-00178642Y00400308
T13
X-00828795Y-0022255
Y-0008031
X-00943095Y-0001283
Y0003797
T14
X-00738891Y-00366772
X00265509
X00612884Y-00090315
X-01074875Y-00090314
X-00738891Y00255528
X-00580542Y00404018
X00118551Y00404019
X00265509Y00255528
M30
