G04*
G04 #@! TF.GenerationSoftware,Altium Limited,Altium Designer,22.6.1 (34)*
G04*
G04 Layer_Color=128*
%FSLAX44Y44*%
%MOMM*%
G71*
G04*
G04 #@! TF.SameCoordinates,0282B534-2DD6-4313-8036-895CCBFEA7A8*
G04*
G04*
G04 #@! TF.FilePolarity,Positive*
G04*
G01*
G75*
%ADD20R,1.8500X3.6000*%
%ADD21R,3.6000X1.8500*%
%ADD22R,2.8000X1.5500*%
%ADD23R,1.5500X2.8000*%
%ADD24R,0.9500X1.0000*%
%ADD27R,5.3340X3.8100*%
%ADD28R,3.8100X5.3340*%
%ADD30R,1.6000X1.4000*%
D20*
X476000Y-187500D02*
D03*
Y-402500D02*
D03*
X1393350Y205000D02*
D03*
X1490621Y-330029D02*
D03*
Y-509679D02*
D03*
X1397350Y-434750D02*
D03*
X1653350Y-215750D02*
D03*
X1712871Y-450480D02*
D03*
X1653350Y-268250D02*
D03*
X1490621Y-382529D02*
D03*
X-6030Y-668090D02*
D03*
X476000Y-240000D02*
D03*
X1490621Y-562179D02*
D03*
X1397350Y-382250D02*
D03*
X1393350Y152500D02*
D03*
X476000Y-455000D02*
D03*
X-6030Y-720590D02*
D03*
D21*
X764750Y-430500D02*
D03*
X720150Y-585750D02*
D03*
X1419650Y-96650D02*
D03*
X1595490Y-96650D02*
D03*
D22*
X1342350Y-405750D02*
D03*
X1455350Y179250D02*
D03*
X1597150Y-241600D02*
D03*
X1623971Y-454030D02*
D03*
Y-430829D02*
D03*
Y-555630D02*
D03*
Y-532429D02*
D03*
X1455350Y152750D02*
D03*
X1623971Y-582129D02*
D03*
Y-505929D02*
D03*
Y-480529D02*
D03*
Y-404329D02*
D03*
X1342350Y-379250D02*
D03*
D23*
X1341950Y-230000D02*
D03*
X1365150Y-230000D02*
D03*
X1443550Y-230000D02*
D03*
X1466750Y-230000D02*
D03*
X1734850Y-354250D02*
D03*
X1708350D02*
D03*
X1315450Y-230000D02*
D03*
X1493250Y-230000D02*
D03*
D24*
X1535071Y-367529D02*
D03*
Y-547179D02*
D03*
D27*
X145608Y-878070D02*
D03*
X70932Y-803140D02*
D03*
X145608D02*
D03*
D28*
X9150Y-508088D02*
D03*
D30*
X18650Y-300750D02*
D03*
X-65350D02*
D03*
Y-325750D02*
D03*
X18650D02*
D03*
M02*
