M48
;Layer_Color=9474304
;FILE_FORMAT=4:4
METRIC,LZ
;TYPE=PLATED
T1F00S00C0.2000
T2F00S00C0.2000
T3F00S00C0.3000
T4F00S00C0.3000
T5F00S00C1.0200
T6F00S00C1.1000
T7F00S00C1.3400
%
T01
X-00001678Y-0005207
X00008482Y-0006096
X-00009298Y-000381
X00113734Y-00039943
X00120103Y-00023787
X00123442Y00005167
X00183603Y-00020693
X00175221Y-00060617
X00163791
X00143813Y-000612
X00138852Y-000889
X00145503Y-00092953
X00150362Y-0012172
X00135343Y-00122293
X00120103
X00104863
X00090893
X00093433Y-00114673
X00083273Y-0012686
X00076923
X00066475Y-00108523
X00070142Y-0009138
X00080262Y-000849
X00090422Y-0009125
X00113792Y-0009606
X00168343Y-00076851
X00219163Y-00037073
Y-00006253
T02
X00064382Y-0007493
T03
X00105952Y-0007886
X00116112
X00126272
Y-000687
Y-0005854
X00116112
X00105952
Y-000687
X00116112
X00137883Y-00047363
X00220433Y00007377
T04
X-00022054Y-00088936
X-00015704Y-00076236
X-00003004
X00003346Y-00088936
X00028746Y-00114336
X-00022054Y-00063536
X-00015704Y-00050836
X-00022054Y-00038136
X-00003004Y-00025436
X-00015704Y-00000036
X00085896
X00098596
X00111296
X00104946Y-00012736
X00092246
X00085896Y-00025436
X00066846Y-00063536
X00155746Y-00088936
X00162096Y-00101636
X00174796
X00168446Y-00114336
X00206546
X00219246
X00212896Y-00101636
X00219246Y-00088936
Y-00063536
T05
X0000127Y0
X00044062Y-0009652
T06
X00192493Y-00111853
Y-00076853
T07
X-00018188Y-0010287
X00019812
Y-0001647
X-00018188
M30
