M48
;Layer_Color=9474304
;FILE_FORMAT=4:4
METRIC,LZ
;TYPE=PLATED
T1F00S00C0.3000
T2F00S00C0.6000
T4F00S00C0.9000
T5F00S00C1.0000
T8F00S00C1.0160
T9F00S00C1.0200
T10F00S00C1.0600
T11F00S00C1.1000
T13F00S00C1.8000
T14F00S00C1.8300
T15F00S00C2.8000
T16F00S00C3.0000
T17F00S00C3.2000
%
T01
X0021015Y-0111575
X0023515Y-0106575
X0028515
X0018515
X0021015Y-0101575
X0026635Y-0116725
X0031015Y-0121575
X0036015
X00368801Y-0124711
X0038515Y-0126575
X0043515
X0046015Y-0131575
X0051015
X0056015
X0061015
X0066015
X0068515Y-0126575
X0063515
X0058515
X0053515
X0056015Y-0121575
X0061015
X0066015
X0068515Y-0116575
X0063515
X0058515
X0053515
X0048515
X0043515
X0038635Y-0116725
X0041015Y-0121575
X0051015
Y-0111575
X0056015
X0061015
X0066015
X0068515Y-0106575
X0063515
X0058515
X0053515
X0048515
X0043515
X0046015Y-0101575
X0051015
X0056015
X0061015
X0066015
X0041015
X0036015
X0031015
Y-0111575
X0041015
X0046015
X0041015Y-0131575
X0071015
X0076015
X0081015
X0086015
X0091015
X0096015
X0101015
X0106015
X0108515Y-0126575
X0103515
X0098515
X0093515
X0088515
X0083515
X0078515
X0073515
X0076015Y-0121575
X0081015
X0086015
X0091015
X0096015
X0101015
X0106015
X0108515Y-0116575
X0103515
X0098515
X0093515
X0088515
X0083515
X0078515
X0073515
X0076015Y-0111575
X0081015
X0086015
X0091015
X0096015
X0101015
X0106015
X0108515Y-0106575
X0103515
X0098515
X0093515
X0088515
X0083515
X0078515
X0073515
X0076015Y-0101575
X0081015
X0086015
X0091015
X0096015
X0101015
X0106015
X0071015
Y-0111575
Y-0121575
X0111015
X0116015
X0121015
X0126015
X0131015
X0133515Y-0116575
X0138515
X0141015Y-0111575
X0136015
X0131015
X0126015
X0121015
X0116015
X0111015
X0113515Y-0106575
X0118515
X0123515
X0128515
X0133515
X0138515
X0143515
X0148515
X0146015Y-0101575
X0141015
X0136015
X0131015
X0126015
X0121015
X0116015
X0111015
X0113515Y-0116575
X0118515
X0123515
X0128515
Y-0126575
X0123515
X0121015Y-0131575
X0116015
X0111015
X0113515Y-0126575
X0151015Y-0101575
X0153515Y-0096575
X0158515
X0161015Y-0091575
X0156015
X0151015
X0153515Y-0086575
X0158515
X0163515
X0168515
X0171015Y-0081575
X0173515Y-0076575
X0163515
X0158515
X0153515
X0156015Y-0081575
X0161015
X0151015
X0153515Y-0066575
X0162328Y-0066018
X0168515Y-0066575
X0171015Y-0061575
X01631471Y-00582129
X01616471
X01490621Y-00574334
X0148515Y-0066575
X0143515
X0138335Y-0067825
X0135735Y-0067225
X0133135Y-0066625
X0130635Y-0066125
X0131015Y-0071575
X0136015
X0141015
X0143515Y-0076575
X0148515
Y-0086575
X0143515
X0138515
X0133515
X0128515
X0123515
X0118515
X0113515
X0116015Y-0081575
X0121015
X0126015
X0131015
X0136015
X0141015
X0138515Y-0076575
X0133515
X0128515
X0123515
X0118515
X0113515
X0116015Y-0071575
X0121015
X0126015
X0122835Y-0061025
X0123535Y-0058725
X0111835Y-0058025
X0111035Y-0057425
Y-0066725
X01102739Y-00672059
X0111835Y-0066125
X0111015Y-0071575
Y-0081575
X0113515Y-0096575
X0118515
X0123515
X0128515
X0133515
X0138515
X0143515
X0148515
X0108515
X0103515
X0098515
X0093515
X0088515
X0083515
X0078515
X0073515
Y-0086575
X0078515
X0083515
X0088515
X0093515
X0098515
X0103515
X0108515
X0106015Y-0081575
X0101015
X0096015
X0091015
X0086015
X0081015
X0076015
X0071015
X0073515Y-0076575
X0078515
X0083515
X0088515
X0093515
X0098515
X0103515
X0108515
X0106015Y-0071575
X0101015
X0096015
X0091015
X0086015
X0081015
X0076015
X0071015
X0073515Y-0066575
X0078515
X0083515
X0088515
X0093515
X0098515
X0103515
X0108515
X0109535Y-0067825
X0104535Y-0057425
X0103735Y-0058025
X0081015Y-0061575
X0076015
X0071015
X00707995Y-0058559
X0072015Y-0058575
X00732305
X0066015Y-0061575
X0061015
X0063515Y-0066575
X0068515
X0066015Y-0071575
X0061015
X0056015
X0051015
X0053515Y-0066575
X0058515
Y-0076575
X0063515
X0068515
X0066015Y-0081575
X0061015
X0056015
X0051015
X0046015
X0041015
X0043515Y-0076575
X0048515
X0053515
Y-0086575
X0058515
X0063515
X0068515
Y-0096575
X0063515
X0058515
X0053515
X0048515
X0043515
X0038515
Y-0086575
X0043515
X0048515
Y-0066575
X0043515
X0041015Y-0071575
X0038515Y-0076575
X0031015Y-0071575
X0033515Y-0066575
X0051015Y-0061575
X0028515Y-0076575
X0023515
X0018515
Y-0066575
X0013515
X0003515
X-0000603Y-0066809
Y-00680245
X-0000587Y-00655935
Y-00708435
X-0000603Y-0072059
Y-00732745
X0001015Y-0071575
X0005015Y-0072075
X0006515
Y-0074725
X0005015
X0003515Y-0076575
Y-0086575
X-0001485
X0001015Y-0091575
X0006015
X0011015Y-0081575
X-0003985
X0028515Y-0086575
Y-0096575
X0023515
X0018515
Y-0046575
X0023515
X0028515
X0026015Y-0041575
X0021015
X0016015
X0011015
X0006015
X0008515Y-0036575
X0013515
X0018515
X0023515
X0028515
X0026015Y-0031575
X0021015
X0016015
X0011015
X0006015
X0001865Y-0032575
Y-0030075
Y-0025575
X0003365Y-0023365
X0001015Y-0021575
X-0001465Y-0023365
X-0004Y-0023
X-0008
X-0006535Y-0025575
Y-0030075
Y-0032575
Y-0037075
X-0001485Y-0036575
X0001865Y-0037075
X0003515Y-0036575
Y-0046575
X0008515
X0013515
X-0001485
Y-0026575
X0008515
X0013515
X0018515
X0023515
X0028515
X0026015Y-0021575
X0021015
X0016015
X0006015
X00001Y-001805
X-00069
X0031015Y-0021575
X0033515Y-0026575
X0036015Y-0031575
X0041015
X0046015
X004495Y-002925
Y-002775
X0043515Y-0026575
X0047584Y-00252155
X00476Y-0024
Y-00227845
X0046015Y-0021575
X0047584Y-00199655
X00476Y-001875
Y-00175345
X0051015Y-0021575
X0056015
X0061015
X0066015
X0068515Y-0026575
X0063515
X0066015Y-0031575
X0061015
X0063515Y-0036575
X0068515
X0066015Y-0041575
X0061015
X0056015
X0051015
X0047584Y-00414655
X00476Y-004025
Y-00390345
X0048515Y-0036575
X0053515
X0058515
Y-0046575
X0063515
X0068515
X0066015Y-0051575
X0061015
X0056015
X0051015
X004495Y-005075
Y-004925
X0047584Y-00467155
X00476Y-00455
Y-00442845
X0046015Y-0041575
X0041015
X0036015
X0031015
X0033515Y-0036575
X0031015Y-0031575
X0043515Y-0036575
X0051015Y-0031575
X0053515Y-0046575
Y-0056575
X0058515
X0063515
X0068515
X0043515
X0033515Y-0046575
X0041015Y-0021575
X0076015
X0081015
X0086015
X0083515Y-0026575
X0078515
X0073515
X0076015Y-0031575
X0081015
X0086015
X0083515Y-0036575
X0078515
X0073515
X0076015Y-0041575
X0076475Y-004305
X00752595
X00776905Y-0043066
X0078515Y-0046575
X0073515
X0073875Y-0048142
Y-0049642
X0073515Y-0056575
X0078515
X0082935Y-0057075
X0081015Y-0051575
X0086015
X0096015
X0101015
X0098515Y-0046575
X0093515
X0096015Y-0041575
X0101015
X0098515Y-0036575
X0093515
X0096015Y-0031575
X0101015
Y-0021575
X0096015
X0093515Y-0026575
X0086015Y-0041575
X0093515Y-0056575
X0098515
X0105335Y-0056625
X0106Y-0056
X01095
X0110235Y-0056625
X0113515Y-0056575
X0118515
X0121135Y-0055725
X0121735Y-0054925
X0124635Y-0053225
X0126015Y-0051575
X0125235Y-0050625
X0125935Y-0048025
X0126535Y-0045625
X0128515Y-0046575
X0133515
X0138515
X0139735Y-00446905
Y-0043475
X0139751Y-00422595
X0139735Y-00394405
Y-0038225
X0139751Y-00370095
X0134985Y-0037925
X0133485
X0133515Y-0036575
X0133485Y-0040575
X0134985
X0143035Y-0040725
X0143635Y-0043125
X0145335Y-0045225
X0149035
X0148515Y-0046575
X01490781Y-00497524
X01490621Y-00509679
Y-00521834
X01490781Y-00550024
X01490621Y-00562179
X0145335Y-0056225
X0143515Y-0056575
X0143635Y-0055625
X01430234Y-00550065
X0141015Y-0051575
X0136015
X0138515Y-0056575
X0133515
X0128515
X0122835Y-0049525
X0123535Y-0047025
X0121135Y-0044425
X01217089Y-00418989
X0124635Y-0039325
X0123515Y-0036575
X01253073Y-00342528
X0125935Y-0031625
X0126735Y-0029125
X0123515Y-0026575
X0123135Y-0024125
X0124035Y-0021525
X0123135Y-0019825
X0124035Y-0018825
X0121435Y-0019025
X0118515Y-0026575
X0116235Y-0026625
X0118515Y-0036575
X0113515
X0116235Y-0043025
X0116015Y-0051575
X0111015
X0128515Y-0036575
X0131545Y-002375
Y-002225
X0134195
Y-002375
X0136515Y-002375
Y-002225
X0134235Y-0018825
X0131835Y-0019825
X0144355Y-002225
Y-002375
X0146675Y-002375
Y-002225
X0149325Y-002225
Y-002375
X01490781Y-00317875
X01490621Y-00330029
Y-00342184
X01490781Y-00370374
X01490621Y-00382529
Y-00394684
X0146015Y-0041575
X01444195Y-00382529
X0144435Y-0030225
X01535071Y-00367529
Y-00382529
X0151015Y-0041575
X0153515Y-0046575
X0156015Y-0051575
X0151015
X01535071Y-00547179
Y-00562179
X01616471Y-0055563
X01631471
Y-00532429
X01616471
Y-00505929
X01631471
Y-00480529
X01616471
Y-0045403
X01631471
Y-00430829
X01616471
X0161585Y-00403709
X0163085
X0162935Y-0030225
X0161015Y-0031575
X0166015
X0165335Y-00280405
Y-0026825
X0165351Y-00256095
X0165335Y-00227905
Y-0021575
X0165351Y-00203595
X0161015Y-0021575
X0160465Y-002416
X0158965
Y-002681
X0160465
X0173515Y-0026575
X0171015Y-0021575
X0170835Y-0034675
Y-0036175
X0173485
Y-0034675
X01713031Y-00438325
X01712871Y-0045048
Y-00462635
X0168515Y-0046575
X0171015Y-0051575
X0168515Y-0056575
Y-0016575
X0173515
X0171015Y-0011575
X0173515Y-0006575
X0166015Y-0001575
X0161015
X0162935Y-0004125
X0158515Y-0006575
X01583335Y-0009649
X0159549Y-0009665
X01607645
X0161015Y-0011575
X0156015
X0155799Y-001411
X0158515Y-0016575
X0151835Y-0012725
X0151015Y-0011575
Y-0001575
X0156015
X0158515Y0003425
X0163515
X0154135Y0004275
X0151935
X0156015Y0008425
X0153515Y0013425
X0148515
X0146285Y0015275
X0144785
X0144785Y0017925
X0146285
X0141015Y0018425
X0139319Y00192845
X0139335Y00205
Y00217155
X0139335Y00164655
Y001525
X0139319Y00140345
X0143515Y0013425
Y0003425
X0144235Y0000875
X0141735Y0001475
X0139135Y0002075
X0138515Y0003425
X0136635Y0002675
X0132935
X0133515Y0003425
X0132135Y0002075
X0131335Y0001475
X0130635Y0000875
X0128515Y0003425
X0131015Y0008425
X0133515Y0013425
X0128135Y0013275
X0127335Y0012375
X0126015Y0018425
X0127335Y0021525
X0119435Y0021575
X0115035
X0116015Y0018425
X0121015
X0119435Y0008775
X0118735Y0006175
X0118035Y0003675
X0117235Y0001175
X0113515Y0003425
X0116015Y0008425
X0111015
X0120635Y-0012725
X0121335Y-0012125
X0120635Y-0016425
X0123515Y-0016575
X0132935Y-0011425
X0132135Y-0008825
X0131335Y-0006325
X0133515Y-0006575
X0138515
X0143515
X01431805Y-0009665
X0141965
X01407495Y-0009649
X0138215Y-001411
X0149335Y-0012125
X0148515Y-0006575
X01468273Y-00012328
X0148515Y0003425
X0130635Y-0003825
X0136015Y0018425
X0103735Y0019075
X0104535Y0021575
X0101015Y0018425
X0096015
X0091015
X0086015
X0081015
X0076015
X0071015
X0071135Y0015275
X0073515Y0013425
X0078515
X0083515
X0088515
X0093515
X0098515
X0101015Y0008425
X0096015
X0091015
X0086015
X0081015
X0076015
X0078515Y0003425
X0083515
X0088515
X0093515
X0098515
X0101015Y-0001575
X0096015
X0091015
X0086015
X0081015
X0076015
X0078515Y-0006575
X0083515
X0088515
X0088035Y-0008825
X0086015Y-0011575
X0090535Y-0011425
X0093515Y-0006575
X0098515
X0106835Y-0006425
X0107535Y-0003825
X0108515Y0003425
X0106835Y0012375
X0107535Y0013275
X0098515Y-0016575
X0093515
X0083515
X0078515
X0073515
X0076015Y-0011575
X0081015
X0073515Y-0006575
Y0003425
X0068515
X0063515
X0058515
X0053515
X0048515
X0051015Y0008425
X0056015
X0061015
X0066015
X0068515Y0013425
X0063515
X0058515
X0053515
X0048515
X0043515
X0038515
X0033515
X0031015Y0018425
X0046015
X0051015
X0056015
X0061015
X0066015
Y-0001575
X0061015
X0056015
X0051015
X0046015
X0041015
X0036015
X0031015
X0033515Y0003425
X0038515
X0041015Y0008425
X0046015
X0048515Y-0006575
X0053515
X0058515
X0063515
X0068515
X0066015Y-0011575
X0061015
X0056015
X0051015
X0046015
X0043515Y-0006575
X0038515
X0033515
X0031015Y-0011575
X0033515Y-0016575
X0043515
X0053515
X0058515
X0063515
X0068515
X0026015Y-0011575
X0021015
X0016015
X0011015
X0013515Y-0006575
X0018515
X0023515
X0026015Y-0001575
X0028515Y0003425
X0023515
Y0013425
X0028515
X0018515
X0013515
Y0003425
X001222Y000216
X0011015Y-0001575
X0016015
X0005935Y0002125
X0004405Y0001125
X0003135
X0001865
X0000595
X0001015Y-0001575
X0000595Y-0004325
X0001865Y-0005665
X0003515Y-0006575
X0004405Y-0004325
X-0002635Y-0004495
X-00053Y-00043
X-0006445Y-0007035
X-0003905
X-0005175Y-0009575
X-0003905Y-0012115
X-0006445
X-0005175Y-0014655
X-0005275Y-0016075
X-0004005
X-0002735
X-0001465
X-0002635Y-0014655
X-0000095
X0003515Y-0016575
X0008515
X0013515
X0018515
X0005935Y0005225
X0021015Y0018425
X0023515Y0023425
X0028515
X0033515
X0038515
X0043515
X0048515
X0053515
X0058515
X0063515
X0068515
X0066015Y0028425
X0061015
X0056015
X0051015
X0046015
X0041015
X0043515Y0033425
X0048515
X0053515
X0058515
X0063515
X0068515
X0066015Y0038425
X0068515Y0043425
X0063515
X0058515
X0053515
X0043515
X0041015Y0038425
X0038515Y0033425
X00343559Y00334199
X0031015Y0028425
X0071015
X0076015
X0081015
X0086015
X0091015
X0092435Y0031475
X0089935Y0032075
X0087335Y0032675
X0084835Y0033275
X0083515Y0033425
X0078515
X0073515
X0076015Y0038425
X0081015
X0086015
X0091015
X0089835Y0044475
X0088515Y0043425
X0087335Y0045075
X0084835Y0045875
X0082235Y0046475
X0083515Y0043425
X0078515
X0073515
X0071015Y0038425
X0073515Y0023425
X0078515
X0083515
X0088515
X0093515
X0098515
X0101015Y0028425
X0096015
X0103735Y0031475
X0104535Y0032075
X0105335Y0032675
X0106235Y0033275
X0108515Y0033425
X0108735Y0034875
X0108135Y0035575
X0107435Y0036175
X0106935Y0036975
X0106015Y0038425
X0103515Y0043425
X0108735Y0044475
X01081347Y00450753
X0107535Y0045875
X0106935Y0046475
X0093515Y0043425
X0106235Y0026675
X0105335Y0024175
X0113515Y0023425
X0114435Y0024175
X0113835Y0026675
X0116015Y0028425
X0117235Y0029175
X0118035Y0026675
X0118835Y0024175
X0123515Y0023425
X0128135Y0023875
X0133515Y0023425
X0138515
X0143515
X0136015Y0028425
X0131015
X0126015
X0121015
X0123515Y0033425
X0128515
X0133515
X0126015Y0038425
X0123515Y0043425
X0113515
X0111015Y0038425
X0111935Y0036975
X0113835Y0036175
X0114435Y0035575
X0115035Y0034875
X0118515Y0033425
X0111015Y0028425
T02
X0173635Y-0071225
X0146935
Y-0091525
X003483Y-0080187
X00401Y-0058
X0028235Y-0072925
X0016161Y-0079552
Y-0081076
X001451
Y-0079552
X0012859
Y-0081076
X0008795
Y-0079552
X0007144
Y-0081076
X0005493
Y-0079552
X-0006572Y-0081457
Y-0071424
X-00051175Y-00579825
X0007652Y-009149
X0012859Y-0088569
Y-0087045
X001451
Y-0088569
X0016161
Y-0087045
X0026635Y-0091525
X0001677Y-0052409
X0000153
Y-0050758
X0001677
Y-0049107
X0000153
X00004Y-0035
X-00044
X00376Y-00245
X00401Y-00455
X00376Y-00505
X0126935Y-0022925
X0156735Y-0023025
X0170835Y-0026825
X0162335Y-0035825
X0154135Y-0004125
X01519Y001524
X0136735Y-0004125
X0071235Y-0004725
X0035535Y0008875
X0019935Y0005175
X00199Y-00048
X0006935Y-0001714
X0003135Y-0001825
X0008035Y0008975
X0035535Y0026375
T04
X01093639Y-00494927
Y-00469528
Y-00444128
Y-00418727
Y-00393327
Y-00367928
Y-00342528
Y-00317127
Y-00291728
Y-00266327
Y-00240928
Y-00215527
Y-00190128
X01119039
Y-00215527
Y-00240928
Y-00266327
Y-00291728
Y-00317127
Y-00342528
Y-00367928
Y-00393327
Y-00418727
Y-00444128
Y-00469528
Y-00494927
Y-00164727
Y-00139327
Y-00113927
Y-00088527
Y-00063127
Y-00037727
Y-00012328
X01119339Y00190772
Y00216173
X01093939
Y00190772
X01093639Y-00012328
Y-00037727
Y-00063127
Y-00088527
Y-00113927
Y-00139327
Y-00164727
X00695959Y0039064
X00670559
X00670559Y0041604
X00645159
X00619759
Y0039064
X00645159
X00695959Y0041604
X00721359
Y0039064
X00746759Y0039064
X00772159Y0039064
X00797559
X00797559Y0041604
X00772159
X00746759
X00822959
X00848359
X00873759
X00899159
X00924559
X00924559Y0039064
X00899159
X00873759
X00848359
X00822959
X01093939Y00292372
Y00266973
Y00241572
X01119339Y00241572
Y00266973
Y00292372
T05
X0043015Y0026175
Y0031675
T08
X01560471Y-0066018
Y-00635679
Y-0061118
Y-00586679
X0105795Y-0062325
X0103255
X0100715
X0098175
X0095635
X0093095
X0090555
X0088015
X0085475
X0082935
X003483Y-0085394
X003238
X004515Y-00555
X00476
Y-0034
X004515
X01560471Y-00358029
Y-00382529
Y-00407029
Y-0043153
Y-00456029
Y-00480529
Y-00537679
Y-00562179
X0156749Y-001665
X0154299Y-001665
X0151849Y-001665
X0149399Y-001665
X0146949
X0144499Y-001665
X0139165
X0136715
X0134265Y-001665
X0131815
X0129365
X0126915
X0130735Y0019075
Y0021525
Y0023975
T09
X01662071Y-00632929
Y-00607529
Y-00582129
X01382671Y-00632929
X01357271
X01331871
X01306471Y-00632929
X0068685Y-0052575
X0071225
X0073765
X0076305
X01306471Y-00531329
X01306471Y-00505929
X01306471Y-0048053
Y-0045513
Y-00429729
Y-00404329
Y-00378929
X0131545Y-002681
X0134085
X0136625Y-002681
X0139165Y-002681
X0141705
X0144245
X0146785
X0149325Y-002681
X0129005Y-002681
X0126465Y-002681
X0151865Y-002681
X0154405
X01662071Y-00353529
Y-00378929
Y-00404329
X01662071Y-00429729
X01662071Y-00455129
Y-00480529
Y-00505929
X01662071Y-00531329
X01662071Y-00556729
X0151865Y000875
X0149325
X0146785Y000875
X0144245Y000875
X0141705
X0139165
X0136625
X0126465Y000875
Y000621
Y000367
X0126465Y000113
T10
X0033015Y-0075365
X0035555
Y-0072825
X0033015
X0012695
X0010155
Y-0075365
X0012695
Y-0022025
Y-0019485
X0010155
Y-0022025
X0033015
Y-0019485
X0035555
Y-0022025
T11
X0009635Y-0005805
X0012175
X0014715
Y-0000725
X0009635
T13
X0023185Y-0065825
X0028265
X0028265Y-0014525
X0023185
T14
X0042435Y-00047275
X004245Y00028925
Y00117825
X0042435Y00194025
X0025135Y00193025
X002515Y00116825
Y00027925
X0025135Y-00048275
T15
X00347672Y-01046386
Y-00974386
T16
X0045515Y-0120325
X0103515
Y-0070825
X0045515
X0038289Y-0067205
X0007289
X0038289Y-0013205
X0007289
T17
X00484547Y-01285686
X01183639
X01677973Y-00791353
X01183639Y-00602327
X00561339
X-00009786Y-00791353
X00561339Y-00281192
X00982979
X00834092Y-00441806
X01677973Y-00092261
X-00009786
X00484547Y00402073
X00561339Y00402072
X00982979Y00402068
X01183639Y00402072
Y00402073
M30
