G04*
G04 #@! TF.GenerationSoftware,Altium Limited,Altium Designer,23.5.1 (21)*
G04*
G04 Layer_Color=16711935*
%FSLAX44Y44*%
%MOMM*%
G71*
G04*
G04 #@! TF.SameCoordinates,E7796D47-8282-4EC7-A355-9F660DFBD72A*
G04*
G04*
G04 #@! TF.FilePolarity,Positive*
G04*
G01*
G75*
%ADD64C,0.3000*%
%ADD65C,0.2500*%
D64*
X116112Y-68700D02*
D03*
X126272D02*
D03*
Y-58540D02*
D03*
X116112D02*
D03*
X105952D02*
D03*
Y-68700D02*
D03*
Y-78860D02*
D03*
X116112D02*
D03*
X126272D02*
D03*
X220433Y7377D02*
D03*
X137883Y-47363D02*
D03*
D65*
X150362Y-121720D02*
D03*
X80262Y-84900D02*
D03*
X163791Y-60617D02*
D03*
X138852Y-88900D02*
D03*
X135343Y-122293D02*
D03*
X120103D02*
D03*
X83273Y-126860D02*
D03*
X76923D02*
D03*
X90422Y-91250D02*
D03*
X113792Y-96060D02*
D03*
X123442Y5167D02*
D03*
X175221Y-60617D02*
D03*
X145503Y-92953D02*
D03*
X168343Y-76851D02*
D03*
X143813Y-61200D02*
D03*
X219163Y-37073D02*
D03*
X183603Y-20693D02*
D03*
X219163Y-6253D02*
D03*
X113734Y-39943D02*
D03*
X120103Y-23787D02*
D03*
X104863Y-122293D02*
D03*
X70142Y-91380D02*
D03*
X8482Y-60960D02*
D03*
X-1678Y-52070D02*
D03*
X-9298Y-38100D02*
D03*
X90893Y-122293D02*
D03*
X93433Y-114673D02*
D03*
X66475Y-108523D02*
D03*
M02*
