G04*
G04 #@! TF.GenerationSoftware,Altium Limited,Altium Designer,23.5.1 (21)*
G04*
G04 Layer_Color=8421504*
%FSLAX44Y44*%
%MOMM*%
G71*
G04*
G04 #@! TF.SameCoordinates,E7796D47-8282-4EC7-A355-9F660DFBD72A*
G04*
G04*
G04 #@! TF.FilePolarity,Positive*
G04*
G01*
G75*
%ADD14R,1.2000X0.8000*%
%ADD15R,1.2000X0.7600*%
%ADD16R,1.2000X0.7000*%
%ADD17R,0.6000X0.7000*%
%ADD18R,0.5500X1.1000*%
%ADD19R,1.1000X0.5500*%
%ADD20R,0.5100X0.3200*%
%ADD21R,2.8500X2.8500*%
%ADD22R,0.7500X0.3000*%
%ADD23R,0.3000X0.7500*%
%ADD24R,0.2200X0.3500*%
%ADD25R,0.6000X0.3500*%
%ADD26R,2.0000X5.3000*%
%ADD27R,1.4700X1.0200*%
%ADD28R,0.6400X0.6500*%
%ADD29R,0.7000X0.6000*%
%ADD30R,0.8000X0.9500*%
%ADD31R,1.0200X1.4700*%
%ADD32R,0.6500X0.6400*%
D14*
X20612Y-32170D02*
D03*
Y-87170D02*
D03*
D15*
Y-44470D02*
D03*
Y-74870D02*
D03*
D16*
Y-64670D02*
D03*
Y-54670D02*
D03*
D17*
X104642Y-114940D02*
D03*
Y-103940D02*
D03*
X150583Y-49773D02*
D03*
X150583Y-38773D02*
D03*
X56302Y-124460D02*
D03*
X56302Y-113460D02*
D03*
X112262Y-114940D02*
D03*
X97022Y-114940D02*
D03*
X142742Y-114940D02*
D03*
X127502Y-114940D02*
D03*
X150583Y-69663D02*
D03*
Y-58663D02*
D03*
X183857Y-14213D02*
D03*
Y-3213D02*
D03*
X63922Y-113460D02*
D03*
X63922Y-124460D02*
D03*
X127502Y-103940D02*
D03*
X135122D02*
D03*
X135122Y-114940D02*
D03*
X142742Y-103940D02*
D03*
X150362D02*
D03*
X150362Y-114940D02*
D03*
X97022Y-103940D02*
D03*
X112262D02*
D03*
X119882D02*
D03*
X119882Y-114940D02*
D03*
D18*
X153783Y-20993D02*
D03*
X163283D02*
D03*
X172783D02*
D03*
Y5007D02*
D03*
X163283D02*
D03*
X153783D02*
D03*
D19*
X220073Y-22273D02*
D03*
Y-12773D02*
D03*
X220073Y-3273D02*
D03*
X194073D02*
D03*
X194073Y-12773D02*
D03*
Y-22273D02*
D03*
D20*
X194073Y8157D02*
D03*
X204073D02*
D03*
D21*
X116112Y-68700D02*
D03*
D22*
X96112Y-81200D02*
D03*
Y-76200D02*
D03*
Y-71200D02*
D03*
Y-66200D02*
D03*
Y-61200D02*
D03*
Y-56200D02*
D03*
X136112D02*
D03*
Y-61200D02*
D03*
Y-66200D02*
D03*
Y-71200D02*
D03*
Y-76200D02*
D03*
Y-81200D02*
D03*
D23*
X103612Y-48700D02*
D03*
X108612D02*
D03*
X113612D02*
D03*
X118612D02*
D03*
X123612D02*
D03*
X128612D02*
D03*
Y-88700D02*
D03*
X123612D02*
D03*
X118612D02*
D03*
X113612D02*
D03*
X108612D02*
D03*
X103612D02*
D03*
D24*
X46152Y-121920D02*
D03*
X49952D02*
D03*
D25*
X48052Y-115420D02*
D03*
D26*
X69343Y-14343D02*
D03*
X135343D02*
D03*
D27*
X80262Y-103730D02*
D03*
Y-119930D02*
D03*
X80262Y-91250D02*
D03*
Y-75050D02*
D03*
X163283Y-35933D02*
D03*
X179793D02*
D03*
Y-52133D02*
D03*
X163283Y-52133D02*
D03*
D28*
X75902Y-55150D02*
D03*
Y-64150D02*
D03*
X84792D02*
D03*
Y-55150D02*
D03*
X193645Y-44285D02*
D03*
Y-53285D02*
D03*
D29*
X38532Y-121920D02*
D03*
X27532D02*
D03*
D30*
X862Y-119380D02*
D03*
X17862Y-119380D02*
D03*
D31*
X205193Y-49903D02*
D03*
X221393Y-49903D02*
D03*
X35182Y-73630D02*
D03*
X51382D02*
D03*
D32*
X35052Y1270D02*
D03*
X26052D02*
D03*
M02*
