G04*
G04 #@! TF.GenerationSoftware,Altium Limited,Altium Designer,23.5.1 (21)*
G04*
G04 Layer_Color=128*
%FSLAX44Y44*%
%MOMM*%
G71*
G04*
G04 #@! TF.SameCoordinates,E7796D47-8282-4EC7-A355-9F660DFBD72A*
G04*
G04*
G04 #@! TF.FilePolarity,Positive*
G04*
G01*
G75*
%ADD67C,0.0508*%
D67*
X38962Y-96520D02*
X49162D01*
X44062Y-101620D02*
Y-91420D01*
X-24888Y-102870D02*
X-11488D01*
X-18188Y-109570D02*
Y-96170D01*
X-24888Y-16470D02*
X-11488D01*
X-18188Y-23170D02*
Y-9770D01*
X13112Y-102870D02*
X26512D01*
X19812Y-109570D02*
Y-96170D01*
X13112Y-16470D02*
X26512D01*
X19812Y-23170D02*
Y-9770D01*
X-3830Y0D02*
X6370D01*
X1270Y-5100D02*
Y5100D01*
X186993Y-76853D02*
X197993D01*
X192493Y-82353D02*
Y-71353D01*
X186993Y-111853D02*
X197993D01*
X192493Y-117353D02*
Y-106353D01*
X217746Y-63536D02*
X220746D01*
X219246Y-65036D02*
Y-62036D01*
X217746Y-88936D02*
X220746D01*
X219246Y-90436D02*
Y-87436D01*
X211396Y-101636D02*
X214396D01*
X212896Y-103136D02*
Y-100136D01*
X217746Y-114336D02*
X220746D01*
X219246Y-115836D02*
Y-112836D01*
X205046Y-114336D02*
X208046D01*
X206546Y-115836D02*
Y-112836D01*
X173296Y-101636D02*
X176296D01*
X174796Y-103136D02*
Y-100136D01*
X160596Y-101636D02*
X163596D01*
X162096Y-103136D02*
Y-100136D01*
X166946Y-114336D02*
X169946D01*
X168446Y-115836D02*
Y-112836D01*
X154246Y-88936D02*
X157246D01*
X155746Y-90436D02*
Y-87436D01*
X109796Y-36D02*
X112796D01*
X111296Y-1536D02*
Y1464D01*
X97096Y-36D02*
X100096D01*
X98596Y-1536D02*
Y1464D01*
X103446Y-12736D02*
X106446D01*
X104946Y-14236D02*
Y-11236D01*
X84396Y-36D02*
X87396D01*
X85896Y-1536D02*
Y1464D01*
X90746Y-12736D02*
X93746D01*
X92246Y-14236D02*
Y-11236D01*
X84396Y-25436D02*
X87396D01*
X85896Y-26936D02*
Y-23936D01*
X65346Y-63536D02*
X68346D01*
X66846Y-65036D02*
Y-62036D01*
X27246Y-114336D02*
X30246D01*
X28746Y-115836D02*
Y-112836D01*
X-4504Y-25436D02*
X-1504D01*
X-3004Y-26936D02*
Y-23936D01*
X-4504Y-76236D02*
X-1504D01*
X-3004Y-77736D02*
Y-74736D01*
X1846Y-88936D02*
X4846D01*
X3346Y-90436D02*
Y-87436D01*
X-17204Y-36D02*
X-14204D01*
X-15704Y-1536D02*
Y1464D01*
X-17204Y-50836D02*
X-14204D01*
X-15704Y-52336D02*
Y-49336D01*
X-17204Y-76236D02*
X-14204D01*
X-15704Y-77736D02*
Y-74736D01*
X-23554Y-38136D02*
X-20554D01*
X-22054Y-39636D02*
Y-36636D01*
X-23554Y-63536D02*
X-20554D01*
X-22054Y-65036D02*
Y-62036D01*
X-23554Y-88936D02*
X-20554D01*
X-22054Y-90436D02*
Y-87436D01*
X65475Y-108523D02*
X67475D01*
X66475Y-109523D02*
Y-107523D01*
X92433Y-114673D02*
X94433D01*
X93433Y-115673D02*
Y-113673D01*
X89893Y-122293D02*
X91893D01*
X90893Y-123293D02*
Y-121293D01*
X63382Y-74930D02*
X65382D01*
X64382Y-75930D02*
Y-73930D01*
X-10298Y-38100D02*
X-8298D01*
X-9298Y-39100D02*
Y-37100D01*
X-2678Y-52070D02*
X-678D01*
X-1678Y-53070D02*
Y-51070D01*
X7482Y-60960D02*
X9482D01*
X8482Y-61960D02*
Y-59960D01*
X69142Y-91380D02*
X71142D01*
X70142Y-92380D02*
Y-90380D01*
X103863Y-122293D02*
X105863D01*
X104863Y-123293D02*
Y-121293D01*
X119103Y-23787D02*
X121103D01*
X120103Y-24787D02*
Y-22787D01*
X112734Y-39943D02*
X114734D01*
X113734Y-40943D02*
Y-38943D01*
X136383Y-47363D02*
X139383D01*
X137883Y-48863D02*
Y-45863D01*
X218163Y-6253D02*
X220163D01*
X219163Y-7253D02*
Y-5253D01*
X182603Y-20693D02*
X184603D01*
X183603Y-21693D02*
Y-19693D01*
X218933Y7377D02*
X221933D01*
X220433Y5877D02*
Y8877D01*
X218163Y-37073D02*
X220163D01*
X219163Y-38073D02*
Y-36073D01*
X142813Y-61200D02*
X144813D01*
X143813Y-62200D02*
Y-60200D01*
X167343Y-76851D02*
X169343D01*
X168343Y-77851D02*
Y-75851D01*
X144503Y-92953D02*
X146503D01*
X145503Y-93953D02*
Y-91953D01*
X174221Y-60617D02*
X176221D01*
X175221Y-61617D02*
Y-59617D01*
X122442Y5167D02*
X124442D01*
X123442Y4167D02*
Y6167D01*
X112792Y-96060D02*
X114792D01*
X113792Y-97060D02*
Y-95060D01*
X89422Y-91250D02*
X91422D01*
X90422Y-92250D02*
Y-90250D01*
X75923Y-126860D02*
X77923D01*
X76923Y-127860D02*
Y-125860D01*
X82273Y-126860D02*
X84273D01*
X83273Y-127860D02*
Y-125860D01*
X119103Y-122293D02*
X121103D01*
X120103Y-123293D02*
Y-121293D01*
X134343Y-122293D02*
X136343D01*
X135343Y-123293D02*
Y-121293D01*
X137852Y-88900D02*
X139852D01*
X138852Y-89900D02*
Y-87900D01*
X162791Y-60617D02*
X164791D01*
X163791Y-61617D02*
Y-59617D01*
X79262Y-84900D02*
X81262D01*
X80262Y-85900D02*
Y-83900D01*
X149362Y-121720D02*
X151362D01*
X150362Y-122720D02*
Y-120720D01*
X124772Y-78860D02*
X127772D01*
X126272Y-80360D02*
Y-77360D01*
X114612Y-78860D02*
X117612D01*
X116112Y-80360D02*
Y-77360D01*
X104452Y-78860D02*
X107452D01*
X105952Y-80360D02*
Y-77360D01*
X104452Y-68700D02*
X107452D01*
X105952Y-70200D02*
Y-67200D01*
X104452Y-58540D02*
X107452D01*
X105952Y-60040D02*
Y-57040D01*
X114612Y-58540D02*
X117612D01*
X116112Y-60040D02*
Y-57040D01*
X124772Y-58540D02*
X127772D01*
X126272Y-60040D02*
Y-57040D01*
X124772Y-68700D02*
X127772D01*
X126272Y-70200D02*
Y-67200D01*
X114612Y-68700D02*
X117612D01*
X116112Y-70200D02*
Y-67200D01*
M02*
