G04*
G04 #@! TF.GenerationSoftware,Altium Limited,Altium Designer,22.6.1 (34)*
G04*
G04 Layer_Color=16711935*
%FSLAX44Y44*%
%MOMM*%
G71*
G04*
G04 #@! TF.SameCoordinates,93EC8B6F-EB43-44BE-ACFD-6113DF9B5761*
G04*
G04*
G04 #@! TF.FilePolarity,Positive*
G04*
G01*
G75*
%ADD99C,0.0127*%
%ADD100C,0.0130*%
D99*
X561970Y1847823D02*
G03*
X526615Y1833178I0J-50000D01*
G01*
X14708Y1321271D02*
G03*
X63Y1285916I35355J-35355D01*
G01*
Y561970D02*
G03*
X14708Y526615I50000J0D01*
G01*
X1321271Y1833178D02*
G03*
X1285916Y1847823I-35355J-35355D01*
G01*
X526615Y14708D02*
G03*
X561970Y63I35355J35355D01*
G01*
X1833178Y526615D02*
G03*
X1847823Y561970I-35355J35355D01*
G01*
X1285916Y63D02*
G03*
X1321271Y14708I0J50000D01*
G01*
X1847823Y1285916D02*
G03*
X1833178Y1321271I-50000J0D01*
G01*
X265522Y275802D02*
X526615Y14708D01*
X1847823Y561970D02*
Y1285916D01*
X561970Y63D02*
X1285916D01*
X1321271Y14708D02*
X1833178Y526615D01*
X63Y561970D02*
Y1285916D01*
X1321271Y1833178D02*
X1833178Y1321271D01*
X561970Y1847823D02*
X1285916D01*
X14708Y1321271D02*
X526615Y1833178D01*
D100*
X265522Y429614D02*
G03*
X262272Y432864I-3250J0D01*
G01*
X265522Y275802D02*
Y429614D01*
X14708Y526615D02*
X14708D01*
X108522Y432864D02*
X262272D01*
X14708Y526615D02*
X108522Y432864D01*
M02*
