G04*
G04 #@! TF.GenerationSoftware,Altium Limited,Altium Designer,22.6.1 (34)*
G04*
G04 Layer_Color=16711935*
%FSLAX44Y44*%
%MOMM*%
G71*
G04*
G04 #@! TF.SameCoordinates,93EC8B6F-EB43-44BE-ACFD-6113DF9B5761*
G04*
G04*
G04 #@! TF.FilePolarity,Negative*
G04*
G01*
G75*
%ADD44C,3.3500*%
%ADD45C,6.5000*%
%ADD46C,1.6500*%
%ADD47R,1.6500X1.6500*%
%ADD48R,1.6500X1.6500*%
%ADD49O,2.1500X4.6500*%
%ADD50O,4.1500X2.1500*%
%ADD51O,2.1500X4.1500*%
%ADD52O,3.5500X1.3500*%
%ADD53C,5.7500*%
%ADD54C,2.1820*%
%ADD55R,2.1820X2.1820*%
%ADD56C,2.1500*%
%ADD57O,3.1500X2.1500*%
%ADD58O,2.1500X3.1500*%
%ADD59R,2.1820X2.1820*%
%ADD60C,2.6900*%
%ADD61R,2.8900X2.8900*%
%ADD62R,2.8900X2.8900*%
%ADD63C,3.6500*%
%ADD64R,2.1500X2.1500*%
%ADD65C,4.1500*%
%ADD66C,2.0500*%
%ADD67C,0.7500*%
%ADD68C,1.4200*%
%ADD69C,6.1500*%
%ADD98R,5.5372X4.0132*%
D44*
X344250Y1317695D02*
D03*
Y1558995D02*
D03*
X516750Y1318470D02*
D03*
Y1559770D02*
D03*
D45*
X651189Y1767823D02*
D03*
X1273489Y763423D02*
D03*
X651189D02*
D03*
X1273489Y1767823D02*
D03*
X1072829Y1084559D02*
D03*
Y1767818D02*
D03*
X651189Y1767823D02*
D03*
X651189Y1084559D02*
D03*
X574397Y1767823D02*
D03*
X1767823Y574397D02*
D03*
X80063D02*
D03*
Y1273489D02*
D03*
X1273489Y1767823D02*
D03*
X1767823Y1273489D02*
D03*
X1273489Y80063D02*
D03*
X574397D02*
D03*
X923942Y923944D02*
D03*
D46*
X1208889Y1302623D02*
D03*
Y1201022D02*
D03*
Y1175622D02*
D03*
Y1150222D02*
D03*
Y1124822D02*
D03*
Y1099423D02*
D03*
Y1074023D02*
D03*
Y1251823D02*
D03*
Y1226423D02*
D03*
Y1277223D02*
D03*
X1183489Y1328022D02*
D03*
Y1277223D02*
D03*
X1208889Y1328022D02*
D03*
X1183489Y1302623D02*
D03*
X1208889Y1353423D02*
D03*
X1183489Y1251823D02*
D03*
Y1226423D02*
D03*
Y1175622D02*
D03*
Y1150222D02*
D03*
Y1124822D02*
D03*
Y1099423D02*
D03*
Y1074023D02*
D03*
Y1048623D02*
D03*
X1208889D02*
D03*
Y1023223D02*
D03*
Y997822D02*
D03*
X1183489Y1023223D02*
D03*
Y997822D02*
D03*
Y1201022D02*
D03*
X1208889Y972422D02*
D03*
X1183489Y896223D02*
D03*
Y870823D02*
D03*
X1208889Y947022D02*
D03*
Y921622D02*
D03*
Y896223D02*
D03*
Y870823D02*
D03*
X1183489Y972422D02*
D03*
Y947022D02*
D03*
Y921622D02*
D03*
X1183789Y1581923D02*
D03*
Y1632723D02*
D03*
X1209189Y1607323D02*
D03*
Y1632723D02*
D03*
Y1581923D02*
D03*
X1183789Y1607323D02*
D03*
X1209189Y1658123D02*
D03*
X1183789Y1556523D02*
D03*
X1209189D02*
D03*
X735009Y1781791D02*
D03*
X735009Y1756391D02*
D03*
X709609Y1781791D02*
D03*
X989009D02*
D03*
X1014409D02*
D03*
X989009Y1756391D02*
D03*
X1014409D02*
D03*
X862009D02*
D03*
X760409D02*
D03*
X785809D02*
D03*
X811209D02*
D03*
X836609Y1756391D02*
D03*
X862009Y1781791D02*
D03*
X836609D02*
D03*
X785809D02*
D03*
X811209D02*
D03*
X760409D02*
D03*
X963609D02*
D03*
X887409D02*
D03*
X912809D02*
D03*
X938209D02*
D03*
X887409Y1756391D02*
D03*
X912809D02*
D03*
X963609D02*
D03*
X938209D02*
D03*
D47*
X1183489Y1353423D02*
D03*
X1183789Y1658123D02*
D03*
D48*
X709609Y1756391D02*
D03*
D49*
X437500Y227500D02*
D03*
D50*
X405500Y177500D02*
D03*
D51*
X375500Y227500D02*
D03*
D52*
X377522Y287864D02*
D03*
Y422864D02*
D03*
D53*
X437522Y391364D02*
D03*
Y319364D02*
D03*
D54*
X84500Y730250D02*
D03*
X486378Y886116D02*
D03*
Y983616D02*
D03*
X1415872Y1615168D02*
D03*
Y1639668D02*
D03*
X930400Y742500D02*
D03*
X955800D02*
D03*
X981200D02*
D03*
X1006600D02*
D03*
X1032000D02*
D03*
X1057400D02*
D03*
X1082800D02*
D03*
X1108200D02*
D03*
X1133600D02*
D03*
X1534840Y1199250D02*
D03*
X1559340Y1199250D02*
D03*
X1583840D02*
D03*
X1632840Y1199250D02*
D03*
X1608340Y1199250D02*
D03*
X1359000Y1199250D02*
D03*
X1383500D02*
D03*
X1408000D02*
D03*
X1457000Y1199250D02*
D03*
X1432500Y1199250D02*
D03*
X1650321Y885221D02*
D03*
Y909721D02*
D03*
Y934221D02*
D03*
Y983221D02*
D03*
Y958721D02*
D03*
Y705571D02*
D03*
Y730071D02*
D03*
Y754571D02*
D03*
Y803570D02*
D03*
Y779071D02*
D03*
D55*
X84500Y754750D02*
D03*
X486378Y861616D02*
D03*
Y959116D02*
D03*
X1415872Y1664168D02*
D03*
X905000Y742500D02*
D03*
X1650321Y1007721D02*
D03*
Y828071D02*
D03*
D56*
X1456100Y1453250D02*
D03*
X1481500D02*
D03*
X1506900D02*
D03*
X1532300D02*
D03*
X1557700Y1453250D02*
D03*
X1583100Y1453250D02*
D03*
X1608500D02*
D03*
X1354500Y1377050D02*
D03*
X1354500Y1402450D02*
D03*
Y1427850D02*
D03*
Y1453250D02*
D03*
X1396321Y834421D02*
D03*
X1396321Y859821D02*
D03*
X1396321Y885221D02*
D03*
Y910621D02*
D03*
Y936021D02*
D03*
Y961421D02*
D03*
Y986821D02*
D03*
X1472521Y732821D02*
D03*
X1447121D02*
D03*
X1421721D02*
D03*
X1396321Y732821D02*
D03*
X520000Y1682500D02*
D03*
Y1737500D02*
D03*
X776700Y840000D02*
D03*
X802100D02*
D03*
X827500D02*
D03*
D57*
X1359600Y1097650D02*
D03*
X1374800Y1097650D02*
D03*
X1410400D02*
D03*
X1425600D02*
D03*
X1461200Y1097650D02*
D03*
X1476400Y1097650D02*
D03*
X1512000D02*
D03*
X1527200D02*
D03*
X1562800D02*
D03*
X1578000Y1097650D02*
D03*
X1613600Y1097650D02*
D03*
X1628800D02*
D03*
D58*
X1751921Y737921D02*
D03*
Y753121D02*
D03*
Y788721D02*
D03*
Y803921D02*
D03*
X1751921Y839521D02*
D03*
X1751921Y854721D02*
D03*
Y890321D02*
D03*
Y905521D02*
D03*
X1751921Y941121D02*
D03*
X1751921Y956321D02*
D03*
Y991921D02*
D03*
Y1007121D02*
D03*
D59*
X1657340Y1199250D02*
D03*
X1481500D02*
D03*
D60*
X302500Y475000D02*
D03*
X355840D02*
D03*
X302500Y551200D02*
D03*
X355840D02*
D03*
D61*
X444400Y1146500D02*
D03*
X421000Y1169900D02*
D03*
X215800Y1146500D02*
D03*
X192400Y1169900D02*
D03*
X421000Y636500D02*
D03*
X444400Y613100D02*
D03*
X192400Y636500D02*
D03*
X215800Y613100D02*
D03*
D62*
X444400Y1169900D02*
D03*
X421000Y1146500D02*
D03*
X215800Y1169900D02*
D03*
X192400Y1146500D02*
D03*
X421000Y613100D02*
D03*
X444400Y636500D02*
D03*
X215800D02*
D03*
X192400Y613100D02*
D03*
D63*
X372500Y1220500D02*
D03*
X321700D02*
D03*
X372500Y707500D02*
D03*
X321700D02*
D03*
D64*
X852900Y840000D02*
D03*
D65*
X545000Y162500D02*
D03*
X1125000D02*
D03*
X545000Y657500D02*
D03*
X1125000D02*
D03*
D66*
X204600Y1291700D02*
D03*
X230000D02*
D03*
X179200D02*
D03*
Y1342500D02*
D03*
X230000D02*
D03*
D67*
X180000Y467500D02*
D03*
X170000D02*
D03*
X160000D02*
D03*
X150000D02*
D03*
X140000D02*
D03*
X180000Y477500D02*
D03*
X170000D02*
D03*
X160000D02*
D03*
X150000D02*
D03*
X140000D02*
D03*
Y487500D02*
D03*
X150000D02*
D03*
X160000D02*
D03*
X170000D02*
D03*
X180000D02*
D03*
D68*
X228600Y443230D02*
D03*
X351790D02*
D03*
X468630Y201930D02*
D03*
X351790D02*
D03*
D69*
X162740Y693700D02*
D03*
X472740D02*
D03*
Y1233700D02*
D03*
X162740D02*
D03*
D98*
X159639Y476250D02*
D03*
M02*
