G04*
G04 #@! TF.GenerationSoftware,Altium Limited,Altium Designer,22.6.1 (34)*
G04*
G04 Layer_Color=32896*
%FSLAX44Y44*%
%MOMM*%
G71*
G04*
G04 #@! TF.SameCoordinates,93EC8B6F-EB43-44BE-ACFD-6113DF9B5761*
G04*
G04*
G04 #@! TF.FilePolarity,Positive*
G04*
G01*
G75*
%ADD10C,0.2540*%
%ADD11C,0.1000*%
D10*
X686226Y1767823D02*
G03*
X686226Y1767823I-35037J0D01*
G01*
X1308513D02*
G03*
X1308513Y1767823I-35024J0D01*
G01*
X685595Y763423D02*
G03*
X685595Y763423I-34405J0D01*
G01*
X1308345D02*
G03*
X1308345Y763423I-34855J0D01*
G01*
X1107866Y1084559D02*
G03*
X1107866Y1084559I-35037J0D01*
G01*
Y1767818D02*
G03*
X1107866Y1767818I-35037J0D01*
G01*
X686226Y1084559D02*
G03*
X686226Y1084559I-35037J0D01*
G01*
X686226Y1767823D02*
G03*
X686226Y1767823I-35037J0D01*
G01*
X609411Y1767823D02*
G03*
X609411Y1767823I-35014J0D01*
G01*
X1802837Y574397D02*
G03*
X1802837Y574397I-35014J0D01*
G01*
X115078D02*
G03*
X115078Y574397I-35014J0D01*
G01*
Y1273489D02*
G03*
X115078Y1273489I-35014J0D01*
G01*
X1308504Y1767823D02*
G03*
X1308504Y1767823I-35014J0D01*
G01*
X1802837Y1273489D02*
G03*
X1802837Y1273489I-35014J0D01*
G01*
X1308504Y80063D02*
G03*
X1308504Y80063I-35014J0D01*
G01*
X609411D02*
G03*
X609411Y80063I-35014J0D01*
G01*
X958956Y923944D02*
G03*
X958956Y923944I-35014J0D01*
G01*
D11*
X1510415Y1188100D02*
X1516765D01*
Y1181750D02*
Y1188100D01*
X1510415Y1181750D02*
X1516765D01*
X1510340Y1175750D02*
Y1233250D01*
X1675415Y1188100D02*
X1681765Y1188100D01*
X1675415Y1181750D02*
X1675415Y1188100D01*
X1675415Y1181750D02*
X1681765D01*
X1510340Y1233250D02*
X1681840Y1233250D01*
X1681840Y1175750D01*
X1510340D02*
X1681840D01*
X1334575Y1188100D02*
X1340925Y1188100D01*
Y1181750D02*
Y1188100D01*
X1334575Y1181750D02*
X1340925D01*
X1334500Y1175750D02*
Y1233250D01*
X1499575Y1188100D02*
X1505925D01*
X1499575Y1181750D02*
Y1188100D01*
Y1181750D02*
X1505925Y1181750D01*
X1334500Y1233250D02*
X1506000D01*
Y1175750D02*
Y1233250D01*
X1334500Y1175750D02*
X1506000Y1175750D01*
X1661471Y867146D02*
X1661471Y860796D01*
X1661471Y867146D02*
X1667821D01*
Y860796D02*
Y867146D01*
X1616321Y860721D02*
X1673821D01*
X1661471Y1032146D02*
X1661471Y1025796D01*
X1667821D01*
Y1032146D01*
X1616321Y860721D02*
Y1032221D01*
X1673821D01*
Y860721D02*
Y1032221D01*
X1661471Y687495D02*
X1661471Y681146D01*
X1661471Y687495D02*
X1667821Y687496D01*
Y681145D02*
Y687496D01*
X1616320Y681071D02*
X1673821Y681070D01*
X1661471Y846146D02*
Y852496D01*
Y846146D02*
X1667821D01*
Y852496D01*
X1616320Y681071D02*
Y852570D01*
X1673821D01*
X1673821Y681070D02*
X1673821Y852570D01*
X1682309Y1167771D02*
Y1172770D01*
X1679809D01*
X1678976Y1171937D01*
Y1170271D01*
X1679809Y1169437D01*
X1682309D01*
X1677310Y1167771D02*
X1675644D01*
X1676477D01*
Y1172770D01*
X1677310Y1171937D01*
X1673145D02*
X1672312Y1172770D01*
X1670646D01*
X1669813Y1171937D01*
Y1171104D01*
X1670646Y1170271D01*
X1671479D01*
X1670646D01*
X1669813Y1169437D01*
Y1168604D01*
X1670646Y1167771D01*
X1672312D01*
X1673145Y1168604D01*
X1348969Y1167771D02*
Y1172770D01*
X1346469D01*
X1345636Y1171937D01*
Y1170271D01*
X1346469Y1169437D01*
X1348969D01*
X1343970Y1167771D02*
X1342304D01*
X1343137D01*
Y1172770D01*
X1343970Y1171937D01*
X1337306Y1167771D02*
Y1172770D01*
X1339805Y1170271D01*
X1336473D01*
X1669268Y1035121D02*
Y1040120D01*
X1666769D01*
X1665936Y1039287D01*
Y1037621D01*
X1666769Y1036787D01*
X1669268D01*
X1664270Y1035121D02*
X1662604D01*
X1663437D01*
Y1040120D01*
X1664270Y1039287D01*
X1656773Y1040120D02*
X1660105D01*
Y1037621D01*
X1658439Y1038454D01*
X1657606D01*
X1656773Y1037621D01*
Y1035955D01*
X1657606Y1035121D01*
X1659272D01*
X1660105Y1035955D01*
X1669268Y673171D02*
Y678170D01*
X1666769D01*
X1665936Y677337D01*
Y675671D01*
X1666769Y674837D01*
X1669268D01*
X1664270Y673171D02*
X1662604D01*
X1663437D01*
Y678170D01*
X1664270Y677337D01*
X1656773Y678170D02*
X1658439Y677337D01*
X1660105Y675671D01*
Y674005D01*
X1659272Y673171D01*
X1657606D01*
X1656773Y674005D01*
Y674837D01*
X1657606Y675671D01*
X1660105D01*
M02*
