G04*
G04 #@! TF.GenerationSoftware,Altium Limited,Altium Designer,22.6.1 (34)*
G04*
G04 Layer_Physical_Order=2*
G04 Layer_Color=16711680*
%FSLAX44Y44*%
%MOMM*%
G71*
G04*
G04 #@! TF.SameCoordinates,5A10DA5C-CD7F-47E8-AF5C-5331072B1CDA*
G04*
G04*
G04 #@! TF.FilePolarity,Positive*
G04*
G01*
G75*
%ADD19R,6.4000X5.5500*%
%ADD40C,0.1270*%
%ADD41O,2.0000X3.0000*%
%ADD42C,2.0000*%
%ADD43O,2.0000X2.8000*%
%ADD44R,2.0000X2.0000*%
%ADD45C,0.6000*%
G36*
X-158475Y219468D02*
X-133959Y219468D01*
Y219202D01*
X83591D01*
Y-93598D01*
X-129759D01*
Y-93275D01*
X-367225D01*
Y215932D01*
X-363632Y219524D01*
X-158475Y219468D01*
D02*
G37*
%LPC*%
G36*
X32825Y214092D02*
X29883Y213705D01*
X27141Y212569D01*
X24787Y210763D01*
X22981Y208409D01*
X21845Y205667D01*
X21458Y202725D01*
Y192725D01*
X21800Y190125D01*
X21458Y187525D01*
Y177525D01*
X21845Y174583D01*
X22981Y171841D01*
X24787Y169487D01*
X27141Y167681D01*
X27640Y167474D01*
Y161976D01*
X27141Y161769D01*
X24787Y159963D01*
X22981Y157609D01*
X21845Y154867D01*
X21458Y151925D01*
Y141925D01*
X21800Y139325D01*
X21458Y136725D01*
Y126725D01*
X21845Y123783D01*
X22981Y121041D01*
X24787Y118687D01*
X27141Y116881D01*
X27640Y116674D01*
Y111176D01*
X27141Y110969D01*
X24787Y109163D01*
X22981Y106809D01*
X21845Y104067D01*
X21458Y101125D01*
Y91125D01*
X21800Y88525D01*
X21458Y85925D01*
Y75925D01*
X21845Y72983D01*
X22981Y70241D01*
X24787Y67887D01*
X27141Y66081D01*
X27640Y65874D01*
Y60376D01*
X27141Y60169D01*
X24787Y58363D01*
X22981Y56009D01*
X21845Y53267D01*
X21458Y50325D01*
Y40325D01*
X21800Y37725D01*
X21458Y35125D01*
Y25125D01*
X21845Y22183D01*
X22981Y19441D01*
X24787Y17087D01*
X27141Y15281D01*
X27640Y15074D01*
Y9576D01*
X27141Y9369D01*
X24787Y7563D01*
X22981Y5209D01*
X21845Y2467D01*
X21458Y-475D01*
Y-10475D01*
X21800Y-13075D01*
X21458Y-15675D01*
Y-25675D01*
X21845Y-28617D01*
X22981Y-31359D01*
X24787Y-33713D01*
X27141Y-35519D01*
X27640Y-35726D01*
Y-41224D01*
X27141Y-41431D01*
X24787Y-43237D01*
X22981Y-45591D01*
X21845Y-48333D01*
X21458Y-51275D01*
Y-55640D01*
X32825D01*
Y-56910D01*
X21458D01*
Y-61275D01*
X21800Y-63875D01*
X21458Y-66475D01*
Y-70840D01*
X32825D01*
Y-71475D01*
X33460D01*
Y-87759D01*
X35767Y-87455D01*
X38509Y-86319D01*
X40863Y-84513D01*
X42669Y-82159D01*
X43066Y-81202D01*
X47650Y-80820D01*
X48498Y-80912D01*
X50187Y-83113D01*
X52541Y-84919D01*
X55283Y-86055D01*
X57590Y-86359D01*
Y-71075D01*
X58225D01*
Y-70440D01*
X69592D01*
Y-67075D01*
X69205Y-64133D01*
X69098Y-63875D01*
X69205Y-63617D01*
X69592Y-60675D01*
Y-57310D01*
X58225D01*
Y-56675D01*
X57590D01*
Y-41391D01*
X55283Y-41695D01*
X52541Y-42831D01*
X50187Y-44637D01*
X48498Y-46838D01*
X47650Y-46930D01*
X43066Y-46548D01*
X42669Y-45591D01*
X40863Y-43237D01*
X38509Y-41431D01*
X38010Y-41224D01*
Y-35726D01*
X38509Y-35519D01*
X40863Y-33713D01*
X42669Y-31359D01*
X43066Y-30402D01*
X47650Y-30020D01*
X48498Y-30112D01*
X50187Y-32313D01*
X52541Y-34119D01*
X55283Y-35255D01*
X58225Y-35642D01*
X61167Y-35255D01*
X63909Y-34119D01*
X66263Y-32313D01*
X68069Y-29959D01*
X69205Y-27217D01*
X69592Y-24275D01*
Y-16275D01*
X69205Y-13333D01*
X69098Y-13075D01*
X69205Y-12817D01*
X69592Y-9875D01*
Y-1875D01*
X69205Y1067D01*
X68069Y3809D01*
X66263Y6163D01*
X63909Y7969D01*
X61167Y9105D01*
X58225Y9492D01*
X55283Y9105D01*
X52541Y7969D01*
X50187Y6163D01*
X48498Y3962D01*
X47650Y3870D01*
X43066Y4252D01*
X42669Y5209D01*
X40863Y7563D01*
X38509Y9369D01*
X38010Y9576D01*
Y15074D01*
X38509Y15281D01*
X40863Y17087D01*
X42669Y19441D01*
X43066Y20398D01*
X47650Y20780D01*
X48498Y20688D01*
X50187Y18487D01*
X52541Y16681D01*
X55283Y15545D01*
X58225Y15158D01*
X61167Y15545D01*
X63909Y16681D01*
X66263Y18487D01*
X68069Y20841D01*
X69205Y23583D01*
X69592Y26525D01*
Y34525D01*
X69205Y37467D01*
X69098Y37725D01*
X69205Y37983D01*
X69592Y40925D01*
Y48925D01*
X69205Y51867D01*
X68069Y54609D01*
X66263Y56963D01*
X63909Y58769D01*
X61167Y59905D01*
X58225Y60292D01*
X55283Y59905D01*
X52541Y58769D01*
X50187Y56963D01*
X48498Y54762D01*
X47650Y54670D01*
X43066Y55052D01*
X42669Y56009D01*
X40863Y58363D01*
X38509Y60169D01*
X38010Y60376D01*
Y65874D01*
X38509Y66081D01*
X40863Y67887D01*
X42669Y70241D01*
X43066Y71198D01*
X47650Y71580D01*
X48498Y71488D01*
X50187Y69287D01*
X52541Y67481D01*
X55283Y66345D01*
X58225Y65958D01*
X61167Y66345D01*
X63909Y67481D01*
X66263Y69287D01*
X68069Y71641D01*
X69205Y74383D01*
X69592Y77325D01*
Y85325D01*
X69205Y88267D01*
X69098Y88525D01*
X69205Y88783D01*
X69592Y91725D01*
Y99725D01*
X69205Y102667D01*
X68069Y105409D01*
X66263Y107763D01*
X63909Y109569D01*
X61167Y110705D01*
X58225Y111092D01*
X55283Y110705D01*
X52541Y109569D01*
X50187Y107763D01*
X48498Y105562D01*
X47650Y105470D01*
X43066Y105852D01*
X42669Y106809D01*
X40863Y109163D01*
X38509Y110969D01*
X38010Y111176D01*
Y116674D01*
X38509Y116881D01*
X40863Y118687D01*
X42669Y121041D01*
X43066Y121998D01*
X47650Y122380D01*
X48498Y122288D01*
X50187Y120087D01*
X52541Y118281D01*
X55283Y117145D01*
X58225Y116758D01*
X61167Y117145D01*
X63909Y118281D01*
X66263Y120087D01*
X68069Y122441D01*
X69205Y125183D01*
X69592Y128125D01*
Y136125D01*
X69205Y139067D01*
X69098Y139325D01*
X69205Y139583D01*
X69592Y142525D01*
Y150525D01*
X69205Y153467D01*
X68069Y156209D01*
X66263Y158563D01*
X63909Y160369D01*
X61167Y161505D01*
X58225Y161892D01*
X55283Y161505D01*
X52541Y160369D01*
X50187Y158563D01*
X48498Y156362D01*
X47650Y156270D01*
X43066Y156652D01*
X42669Y157609D01*
X40863Y159963D01*
X38509Y161769D01*
X38010Y161976D01*
Y167474D01*
X38509Y167681D01*
X40863Y169487D01*
X42669Y171841D01*
X43066Y172798D01*
X47650Y173180D01*
X48498Y173088D01*
X50187Y170887D01*
X52541Y169081D01*
X55283Y167945D01*
X58225Y167558D01*
X61167Y167945D01*
X63909Y169081D01*
X66263Y170887D01*
X68069Y173241D01*
X69205Y175983D01*
X69592Y178925D01*
Y186925D01*
X69205Y189867D01*
X69098Y190125D01*
X69205Y190383D01*
X69592Y193325D01*
Y201325D01*
X69205Y204267D01*
X68069Y207009D01*
X66263Y209363D01*
X63909Y211169D01*
X61167Y212305D01*
X58225Y212692D01*
X55283Y212305D01*
X52541Y211169D01*
X50187Y209363D01*
X48498Y207162D01*
X47650Y207070D01*
X43066Y207452D01*
X42669Y208409D01*
X40863Y210763D01*
X38509Y212569D01*
X35767Y213705D01*
X32825Y214092D01*
D02*
G37*
G36*
X-321291Y188695D02*
X-324259D01*
X-327125Y187927D01*
X-329695Y186443D01*
X-331793Y184345D01*
X-333277Y181775D01*
X-334045Y178909D01*
Y175941D01*
X-333277Y173075D01*
X-331793Y170505D01*
X-329695Y168407D01*
X-328146Y167513D01*
X-327602Y164853D01*
Y164597D01*
X-328138Y161977D01*
X-328340Y161826D01*
X-329695Y161043D01*
X-330624Y160115D01*
X-332144Y158975D01*
X-336905Y160251D01*
Y163295D01*
X-347540D01*
Y152025D01*
X-348175D01*
Y151390D01*
X-359445D01*
Y140755D01*
X-356401D01*
X-355040Y135675D01*
X-355095Y135643D01*
X-357193Y133545D01*
X-358677Y130975D01*
X-359445Y128109D01*
Y125141D01*
X-358677Y122275D01*
X-357193Y119705D01*
X-355095Y117607D01*
X-353546Y116713D01*
X-353002Y114053D01*
Y113797D01*
X-353546Y111137D01*
X-355095Y110243D01*
X-357193Y108145D01*
X-358677Y105575D01*
X-359445Y102709D01*
Y99741D01*
X-358677Y96875D01*
X-357193Y94305D01*
X-355095Y92207D01*
X-353546Y91313D01*
X-353002Y88653D01*
Y88397D01*
X-353546Y85737D01*
X-355095Y84843D01*
X-357193Y82745D01*
X-358677Y80175D01*
X-359445Y77309D01*
Y74341D01*
X-358677Y71475D01*
X-357193Y68905D01*
X-355095Y66807D01*
X-353546Y65913D01*
X-353002Y63253D01*
Y62997D01*
X-353546Y60337D01*
X-355095Y59443D01*
X-357193Y57345D01*
X-358677Y54775D01*
X-359445Y51909D01*
Y48941D01*
X-358677Y46075D01*
X-357193Y43505D01*
X-355095Y41407D01*
X-353546Y40513D01*
X-353002Y37853D01*
Y37597D01*
X-353546Y34937D01*
X-355095Y34043D01*
X-357193Y31945D01*
X-358677Y29375D01*
X-359445Y26509D01*
Y23541D01*
X-358677Y20675D01*
X-357193Y18105D01*
X-355095Y16007D01*
X-353546Y15113D01*
X-353002Y12453D01*
Y12197D01*
X-353546Y9537D01*
X-355095Y8643D01*
X-357193Y6545D01*
X-358677Y3975D01*
X-359445Y1109D01*
Y-1859D01*
X-358677Y-4725D01*
X-357193Y-7295D01*
X-355095Y-9393D01*
X-353546Y-10287D01*
X-353002Y-12947D01*
Y-13203D01*
X-353546Y-15863D01*
X-355095Y-16757D01*
X-357193Y-18855D01*
X-358677Y-21425D01*
X-359445Y-24291D01*
Y-27259D01*
X-358677Y-30125D01*
X-357193Y-32695D01*
X-355095Y-34793D01*
X-352525Y-36277D01*
X-349659Y-37045D01*
X-346691D01*
X-343825Y-36277D01*
X-341255Y-34793D01*
X-339157Y-32695D01*
X-337673Y-30125D01*
X-337257Y-28573D01*
X-336954Y-27442D01*
X-307301D01*
X-307168Y-27507D01*
X-307021Y-27516D01*
X-306931Y-27532D01*
X-306809Y-27566D01*
X-306656Y-27624D01*
X-306478Y-27707D01*
X-306274Y-27818D01*
X-306061Y-27951D01*
X-305525Y-28340D01*
X-305237Y-28576D01*
X-305059Y-28630D01*
X-304844Y-28845D01*
X-303274Y-29495D01*
X-301576D01*
X-300006Y-28845D01*
X-298805Y-27644D01*
X-298155Y-26074D01*
Y-24376D01*
X-298805Y-22806D01*
X-300006Y-21605D01*
X-301576Y-20955D01*
X-303274D01*
X-304844Y-21605D01*
X-305551Y-22312D01*
X-305795Y-22436D01*
X-306021Y-22700D01*
X-306212Y-22901D01*
X-307332Y-23496D01*
X-307448Y-23558D01*
X-337102D01*
X-337375Y-22537D01*
X-337673Y-21425D01*
X-339157Y-18855D01*
X-341255Y-16757D01*
X-342804Y-15863D01*
X-343349Y-13203D01*
Y-12947D01*
X-342804Y-10287D01*
X-341255Y-9393D01*
X-339157Y-7295D01*
X-337673Y-4725D01*
X-337108Y-2617D01*
X-322458D01*
X-322347Y-2677D01*
X-321232Y-3268D01*
X-321041Y-3471D01*
X-320818Y-3736D01*
X-320579Y-3860D01*
X-319844Y-4595D01*
X-318274Y-5245D01*
X-316576D01*
X-315006Y-4595D01*
X-313805Y-3394D01*
X-313155Y-1824D01*
Y-126D01*
X-313805Y1444D01*
X-315006Y2645D01*
X-316576Y3295D01*
X-318274D01*
X-319844Y2645D01*
X-320040Y2449D01*
X-320209Y2399D01*
X-320502Y2164D01*
X-321042Y1777D01*
X-321258Y1644D01*
X-321465Y1532D01*
X-321646Y1449D01*
X-321799Y1391D01*
X-321923Y1357D01*
X-322014Y1341D01*
X-322160Y1332D01*
X-322293Y1267D01*
X-336947D01*
X-337252Y2403D01*
X-337673Y3975D01*
X-339157Y6545D01*
X-341255Y8643D01*
X-342804Y9537D01*
X-343349Y12197D01*
Y12453D01*
X-342804Y15113D01*
X-341255Y16007D01*
X-339157Y18105D01*
X-338263Y19654D01*
X-335603Y20199D01*
X-335347D01*
X-332687Y19654D01*
X-331793Y18105D01*
X-329695Y16007D01*
X-327125Y14523D01*
X-324259Y13755D01*
X-321291D01*
X-318425Y14523D01*
X-315855Y16007D01*
X-313757Y18105D01*
X-312273Y20675D01*
X-311505Y23541D01*
Y26509D01*
X-312273Y29375D01*
X-313757Y31945D01*
X-315855Y34043D01*
X-317404Y34937D01*
X-317948Y37597D01*
Y37853D01*
X-317404Y40513D01*
X-315855Y41407D01*
X-313757Y43505D01*
X-312273Y46075D01*
X-311505Y48941D01*
Y51909D01*
X-312273Y54775D01*
X-313757Y57345D01*
X-315855Y59443D01*
X-317404Y60337D01*
X-317948Y62997D01*
Y63253D01*
X-317404Y65913D01*
X-315855Y66807D01*
X-313757Y68905D01*
X-312273Y71475D01*
X-311505Y74341D01*
Y77309D01*
X-312273Y80175D01*
X-313757Y82745D01*
X-315855Y84843D01*
X-317404Y85737D01*
X-317948Y88397D01*
Y88653D01*
X-317404Y91313D01*
X-315855Y92207D01*
X-313757Y94305D01*
X-312273Y96875D01*
X-311505Y99741D01*
Y102709D01*
X-312273Y105575D01*
X-313757Y108145D01*
X-315855Y110243D01*
X-317404Y111137D01*
X-317948Y113797D01*
Y114053D01*
X-317404Y116713D01*
X-315855Y117607D01*
X-313757Y119705D01*
X-312273Y122275D01*
X-311505Y125141D01*
Y128109D01*
X-312273Y130975D01*
X-313757Y133545D01*
X-315855Y135643D01*
X-317404Y136537D01*
X-317948Y139197D01*
Y139453D01*
X-317404Y142113D01*
X-315855Y143007D01*
X-313757Y145105D01*
X-312273Y147675D01*
X-311505Y150541D01*
Y151390D01*
X-322775D01*
Y152660D01*
X-311505D01*
Y153509D01*
X-312273Y156375D01*
X-313757Y158945D01*
X-315855Y161043D01*
X-317404Y161937D01*
X-317948Y164597D01*
Y164853D01*
X-317404Y167513D01*
X-315855Y168407D01*
X-313757Y170505D01*
X-312273Y173075D01*
X-311505Y175941D01*
Y178909D01*
X-312273Y181775D01*
X-313757Y184345D01*
X-315855Y186443D01*
X-318425Y187927D01*
X-321291Y188695D01*
D02*
G37*
G36*
X-348810Y163295D02*
X-359445D01*
Y152660D01*
X-348810D01*
Y163295D01*
D02*
G37*
G36*
X58860Y-41391D02*
Y-56040D01*
X69592D01*
Y-52675D01*
X69205Y-49733D01*
X68069Y-46991D01*
X66263Y-44637D01*
X63909Y-42831D01*
X61167Y-41695D01*
X58860Y-41391D01*
D02*
G37*
G36*
X-245091Y-65305D02*
X-248059D01*
X-250925Y-66073D01*
X-253495Y-67557D01*
X-255593Y-69655D01*
X-256487Y-71204D01*
X-259147Y-71748D01*
X-259403D01*
X-262063Y-71204D01*
X-262957Y-69655D01*
X-265055Y-67557D01*
X-267625Y-66073D01*
X-270491Y-65305D01*
X-273459D01*
X-276325Y-66073D01*
X-278895Y-67557D01*
X-280993Y-69655D01*
X-281887Y-71204D01*
X-284547Y-71748D01*
X-284803D01*
X-287463Y-71204D01*
X-288357Y-69655D01*
X-290455Y-67557D01*
X-293025Y-66073D01*
X-295891Y-65305D01*
X-298859D01*
X-301725Y-66073D01*
X-304295Y-67557D01*
X-306393Y-69655D01*
X-307287Y-71204D01*
X-309947Y-71748D01*
X-310203D01*
X-312863Y-71204D01*
X-313757Y-69655D01*
X-315855Y-67557D01*
X-318425Y-66073D01*
X-321291Y-65305D01*
X-324259D01*
X-327125Y-66073D01*
X-329695Y-67557D01*
X-331793Y-69655D01*
X-333277Y-72225D01*
X-334045Y-75091D01*
Y-78059D01*
X-333277Y-80925D01*
X-331793Y-83495D01*
X-329695Y-85593D01*
X-327125Y-87077D01*
X-324259Y-87845D01*
X-321291D01*
X-318425Y-87077D01*
X-315855Y-85593D01*
X-313757Y-83495D01*
X-312863Y-81946D01*
X-310203Y-81402D01*
X-309947D01*
X-307287Y-81946D01*
X-306393Y-83495D01*
X-304295Y-85593D01*
X-301725Y-87077D01*
X-298859Y-87845D01*
X-295891D01*
X-293025Y-87077D01*
X-290455Y-85593D01*
X-288357Y-83495D01*
X-287463Y-81946D01*
X-284803Y-81402D01*
X-284547D01*
X-281887Y-81946D01*
X-280993Y-83495D01*
X-278895Y-85593D01*
X-276325Y-87077D01*
X-273459Y-87845D01*
X-270491D01*
X-267625Y-87077D01*
X-265055Y-85593D01*
X-262957Y-83495D01*
X-262063Y-81946D01*
X-259403Y-81402D01*
X-259147D01*
X-256487Y-81946D01*
X-255593Y-83495D01*
X-253495Y-85593D01*
X-250925Y-87077D01*
X-248059Y-87845D01*
X-245091D01*
X-242225Y-87077D01*
X-239655Y-85593D01*
X-237557Y-83495D01*
X-236073Y-80925D01*
X-235305Y-78059D01*
Y-75091D01*
X-236073Y-72225D01*
X-237557Y-69655D01*
X-239655Y-67557D01*
X-242225Y-66073D01*
X-245091Y-65305D01*
D02*
G37*
G36*
X-129759Y200775D02*
X-133959D01*
Y132120D01*
X-137770D01*
Y74080D01*
X-133959D01*
Y25420D01*
X-137770D01*
Y-32620D01*
X-133959D01*
Y-76725D01*
X-129759D01*
Y-32620D01*
X-71230D01*
Y25420D01*
X-129759D01*
Y74080D01*
X-71230D01*
Y132120D01*
X-129759D01*
Y200775D01*
D02*
G37*
G36*
X69592Y-71710D02*
X58860D01*
Y-86359D01*
X61167Y-86055D01*
X63909Y-84919D01*
X66263Y-83113D01*
X68069Y-80759D01*
X69205Y-78017D01*
X69592Y-75075D01*
Y-71710D01*
D02*
G37*
G36*
X32190Y-72110D02*
X21458D01*
Y-76475D01*
X21845Y-79417D01*
X22981Y-82159D01*
X24787Y-84513D01*
X27141Y-86319D01*
X29883Y-87455D01*
X32190Y-87759D01*
Y-72110D01*
D02*
G37*
%LPD*%
G36*
X-319767Y-2850D02*
X-320013Y-2558D01*
X-320259Y-2296D01*
X-320504Y-2065D01*
X-320749Y-1865D01*
X-320993Y-1695D01*
X-321237Y-1556D01*
X-321480Y-1449D01*
X-321723Y-1372D01*
X-321965Y-1325D01*
X-322206Y-1310D01*
X-322076Y-40D01*
X-321852Y-26D01*
X-321618Y15D01*
X-321373Y83D01*
X-321117Y179D01*
X-320849Y302D01*
X-320571Y453D01*
X-320281Y631D01*
X-319669Y1069D01*
X-319347Y1329D01*
X-319767Y-2850D01*
D02*
G37*
G36*
X-304366Y-27513D02*
X-304685Y-27251D01*
X-305292Y-26810D01*
X-305580Y-26631D01*
X-305857Y-26479D01*
X-306124Y-26355D01*
X-306380Y-26259D01*
X-306625Y-26190D01*
X-306859Y-26149D01*
X-307084Y-26135D01*
X-307203Y-24865D01*
X-306962Y-24850D01*
X-306721Y-24804D01*
X-306478Y-24727D01*
X-306234Y-24619D01*
X-305989Y-24481D01*
X-305743Y-24313D01*
X-305497Y-24113D01*
X-305249Y-23883D01*
X-305000Y-23622D01*
X-304751Y-23330D01*
X-304366Y-27513D01*
D02*
G37*
D19*
X-104500Y103100D02*
D03*
Y-3600D02*
D03*
D40*
X-348175Y-25775D02*
X-347900Y-25500D01*
X-302700D01*
X-302425Y-25225D01*
X-348175Y-375D02*
X-347875Y-675D01*
X-317725D02*
X-317425Y-975D01*
X-347875Y-675D02*
X-317725D01*
X-246650Y-76500D02*
X-246575Y-76575D01*
D41*
X32825Y-71475D02*
D03*
Y-56275D02*
D03*
Y-20675D02*
D03*
Y-5475D02*
D03*
Y30125D02*
D03*
Y45325D02*
D03*
Y80925D02*
D03*
Y96125D02*
D03*
Y131725D02*
D03*
Y146925D02*
D03*
Y182525D02*
D03*
Y197725D02*
D03*
D42*
X-322775Y25025D02*
D03*
Y50425D02*
D03*
Y75825D02*
D03*
Y101225D02*
D03*
Y126625D02*
D03*
Y152025D02*
D03*
Y177425D02*
D03*
X-246575Y-76575D02*
D03*
X-271975D02*
D03*
X-297375D02*
D03*
X-322775D02*
D03*
X-348175Y126625D02*
D03*
Y-25775D02*
D03*
Y50425D02*
D03*
Y75825D02*
D03*
Y101225D02*
D03*
Y-375D02*
D03*
Y25025D02*
D03*
D43*
X58225Y182925D02*
D03*
Y197325D02*
D03*
Y30525D02*
D03*
Y-20275D02*
D03*
Y-5875D02*
D03*
Y146525D02*
D03*
Y132125D02*
D03*
Y81325D02*
D03*
Y95725D02*
D03*
Y44925D02*
D03*
Y-71075D02*
D03*
Y-56675D02*
D03*
D44*
X-348175Y152025D02*
D03*
D45*
X69775Y213725D02*
D03*
X74775Y203725D02*
D03*
Y183725D02*
D03*
Y163725D02*
D03*
Y143725D02*
D03*
Y123725D02*
D03*
X69775Y113725D02*
D03*
X74775Y103725D02*
D03*
Y83725D02*
D03*
Y63725D02*
D03*
Y43725D02*
D03*
Y23725D02*
D03*
X69775Y13725D02*
D03*
X74775Y3725D02*
D03*
Y-16275D02*
D03*
Y-36275D02*
D03*
Y-56275D02*
D03*
Y-76275D02*
D03*
X69775Y-86275D02*
D03*
X-230225D02*
D03*
X-260225D02*
D03*
X-310225D02*
D03*
X-320225Y213725D02*
D03*
Y193725D02*
D03*
X-330225Y213725D02*
D03*
X-325225Y203725D02*
D03*
X-330225Y193725D02*
D03*
Y-6275D02*
D03*
Y-46275D02*
D03*
X-340225Y213725D02*
D03*
X-335225Y203725D02*
D03*
X-340225Y193725D02*
D03*
Y173725D02*
D03*
X-335225Y-16275D02*
D03*
Y-36275D02*
D03*
X-340225Y-46275D02*
D03*
X-335225Y-56275D02*
D03*
X-340225Y-66275D02*
D03*
Y-86275D02*
D03*
X-350225Y213725D02*
D03*
X-345225Y203725D02*
D03*
X-350225Y193725D02*
D03*
X-345225Y183725D02*
D03*
X-350225Y173725D02*
D03*
Y-46275D02*
D03*
X-345225Y-56275D02*
D03*
X-350225Y-66275D02*
D03*
X-345225Y-76275D02*
D03*
X-350225Y-86275D02*
D03*
X-360225Y213725D02*
D03*
X-355225Y203725D02*
D03*
X-360225Y193725D02*
D03*
X-355225Y183725D02*
D03*
X-360225Y173725D02*
D03*
Y113725D02*
D03*
Y33725D02*
D03*
Y13725D02*
D03*
Y-46275D02*
D03*
X-355225Y-56275D02*
D03*
X-360225Y-66275D02*
D03*
X-355225Y-76275D02*
D03*
X-360225Y-86275D02*
D03*
X19775Y113725D02*
D03*
X-10225Y-66275D02*
D03*
X-25225Y143725D02*
D03*
X-40225Y113725D02*
D03*
Y53725D02*
D03*
Y-6275D02*
D03*
Y-66275D02*
D03*
X-55225Y203725D02*
D03*
Y143725D02*
D03*
X-70225Y53725D02*
D03*
Y-66275D02*
D03*
X-85225Y203725D02*
D03*
Y143725D02*
D03*
X-100225Y53725D02*
D03*
X-85225Y-36275D02*
D03*
X-100225Y-66275D02*
D03*
X-115225Y203725D02*
D03*
Y143725D02*
D03*
Y-36275D02*
D03*
X-145225Y203725D02*
D03*
X-160225Y173725D02*
D03*
X-145225Y143725D02*
D03*
Y23725D02*
D03*
X-160225Y-6275D02*
D03*
X-145225Y-36275D02*
D03*
X-160225Y-66275D02*
D03*
X-175225Y203725D02*
D03*
X-190225Y173725D02*
D03*
X-175225Y143725D02*
D03*
X-190225Y-6275D02*
D03*
X-175225Y-36275D02*
D03*
X-190225Y-66275D02*
D03*
X-205225Y203725D02*
D03*
Y143725D02*
D03*
X-220225Y113725D02*
D03*
Y-6275D02*
D03*
X-205225Y-36275D02*
D03*
X-220225Y-66275D02*
D03*
X-235225Y203725D02*
D03*
Y143725D02*
D03*
Y83725D02*
D03*
Y-36275D02*
D03*
X-265225Y203725D02*
D03*
Y143725D02*
D03*
X-280225Y113725D02*
D03*
X-265225Y83725D02*
D03*
X-295225Y203725D02*
D03*
Y143725D02*
D03*
X-310225Y113725D02*
D03*
X-325225Y203725D02*
D03*
X-340225Y173725D02*
D03*
Y-66275D02*
D03*
X-7500Y177000D02*
D03*
X7500D02*
D03*
X-7500Y153500D02*
D03*
X7500D02*
D03*
X-7500Y104250D02*
D03*
X7500D02*
D03*
X-7500Y52500D02*
D03*
X7500D02*
D03*
Y0D02*
D03*
X-7500D02*
D03*
X-91595Y181000D02*
D03*
X-103750D02*
D03*
X-115905Y181160D02*
D03*
X-203540Y177045D02*
D03*
X-215695D02*
D03*
X-227850Y177205D02*
D03*
X-79100Y84050D02*
D03*
Y122150D02*
D03*
X-129900D02*
D03*
Y84050D02*
D03*
X-117200D02*
D03*
X-104500D02*
D03*
X-91800D02*
D03*
X-79100Y96750D02*
D03*
Y109450D02*
D03*
X-91800Y96750D02*
D03*
Y109450D02*
D03*
Y122150D02*
D03*
X-104500D02*
D03*
Y109450D02*
D03*
Y96750D02*
D03*
X-117200D02*
D03*
X-129900D02*
D03*
Y109450D02*
D03*
X-117200D02*
D03*
Y122150D02*
D03*
X-79100Y-22650D02*
D03*
Y15450D02*
D03*
X-129900D02*
D03*
Y-22650D02*
D03*
X-117200D02*
D03*
X-104500D02*
D03*
X-91800D02*
D03*
X-79100Y-9950D02*
D03*
Y2750D02*
D03*
X-91800Y-9950D02*
D03*
Y2750D02*
D03*
Y15450D02*
D03*
X-104500D02*
D03*
Y2750D02*
D03*
Y-9950D02*
D03*
X-117200D02*
D03*
X-129900D02*
D03*
Y2750D02*
D03*
X-117200D02*
D03*
Y15450D02*
D03*
X-40225Y213725D02*
D03*
X-50225D02*
D03*
X-60225D02*
D03*
X-70225D02*
D03*
X-80225D02*
D03*
X-90225D02*
D03*
X-100225D02*
D03*
X-110225D02*
D03*
X-105225Y203725D02*
D03*
X-120225Y213725D02*
D03*
X-115225Y203725D02*
D03*
X-130225Y213725D02*
D03*
X-125225Y203725D02*
D03*
X-140225Y213725D02*
D03*
X-135225Y203725D02*
D03*
X-140225Y193725D02*
D03*
X-150225Y213725D02*
D03*
X-145225Y203725D02*
D03*
X-150225Y193725D02*
D03*
X-160225Y213725D02*
D03*
X-155225Y203725D02*
D03*
X-160225Y193725D02*
D03*
X-170225Y213725D02*
D03*
X-180225D02*
D03*
X-190225D02*
D03*
X-200225D02*
D03*
X-210225D02*
D03*
X-220225D02*
D03*
X-230225D02*
D03*
X-240225D02*
D03*
X-250225D02*
D03*
X-260225D02*
D03*
X-270225D02*
D03*
X-280225D02*
D03*
X-290225D02*
D03*
X-300225D02*
D03*
X-310225D02*
D03*
X9775Y-86275D02*
D03*
X-225D02*
D03*
X-10225D02*
D03*
X-20225D02*
D03*
X-30225D02*
D03*
X-40225D02*
D03*
X-50225D02*
D03*
X-60225D02*
D03*
X-70225D02*
D03*
X-80225D02*
D03*
X-90225D02*
D03*
X-100225Y-66275D02*
D03*
Y-86275D02*
D03*
X-110225Y-66275D02*
D03*
X-105225Y-76275D02*
D03*
X-110225Y-86275D02*
D03*
X-120225Y-66275D02*
D03*
X-115225Y-76275D02*
D03*
X-120225Y-86275D02*
D03*
X-125225Y-76275D02*
D03*
X-130225Y-86275D02*
D03*
X-140225Y-66275D02*
D03*
Y-86275D02*
D03*
X-150225Y-66275D02*
D03*
X-145225Y-76275D02*
D03*
X-150225Y-86275D02*
D03*
X-160225Y-66275D02*
D03*
X-155225Y-76275D02*
D03*
X-160225Y-86275D02*
D03*
X-165225Y-76275D02*
D03*
X-170225Y-86275D02*
D03*
X-180225D02*
D03*
X-190225D02*
D03*
X-200225D02*
D03*
X-210225D02*
D03*
X-220225D02*
D03*
X-240225Y93725D02*
D03*
X-235225Y83725D02*
D03*
X-240225Y73725D02*
D03*
X-235225Y63725D02*
D03*
X-240225Y53725D02*
D03*
X-235225Y43725D02*
D03*
X-240225Y33725D02*
D03*
X-302425Y-25225D02*
D03*
X-317425Y-975D02*
D03*
X-203550Y64400D02*
D03*
X-242475Y150725D02*
D03*
X-155495Y90745D02*
D03*
X-155495Y47245D02*
D03*
X-155495Y104745D02*
D03*
X-155475Y32725D02*
D03*
M02*
