G04*
G04 #@! TF.GenerationSoftware,Altium Limited,Altium Designer,22.6.1 (34)*
G04*
G04 Layer_Color=8388736*
%FSLAX44Y44*%
%MOMM*%
G71*
G04*
G04 #@! TF.SameCoordinates,5A10DA5C-CD7F-47E8-AF5C-5331072B1CDA*
G04*
G04*
G04 #@! TF.FilePolarity,Negative*
G04*
G01*
G75*
%ADD23R,3.7500X2.0000*%
%ADD24R,1.2000X1.1500*%
%ADD25R,1.1500X1.1000*%
%ADD26R,3.1500X1.4000*%
%ADD27R,6.5500X5.7000*%
%ADD28R,2.9500X1.7000*%
%ADD29O,2.1500X0.7500*%
%ADD30R,1.1000X1.0500*%
%ADD31O,2.1500X3.1500*%
%ADD32C,2.1500*%
%ADD33O,2.1500X2.9500*%
%ADD34R,2.1500X2.1500*%
%ADD35C,0.7500*%
D23*
X-51250Y181000D02*
D03*
X-103750D02*
D03*
X-268195Y177045D02*
D03*
X-215695D02*
D03*
D24*
X-183655Y105745D02*
D03*
X-169155D02*
D03*
X-183655Y32745D02*
D03*
X-169155D02*
D03*
X-183655Y76745D02*
D03*
X-169155D02*
D03*
X-183655Y61745D02*
D03*
X-169155D02*
D03*
D25*
X-242175Y128475D02*
D03*
X-257175D02*
D03*
D26*
X-40000Y80200D02*
D03*
Y126000D02*
D03*
Y-26500D02*
D03*
Y19300D02*
D03*
D27*
X-104500Y103100D02*
D03*
Y-3600D02*
D03*
D28*
X0Y0D02*
D03*
Y-26500D02*
D03*
Y104250D02*
D03*
Y77750D02*
D03*
Y153500D02*
D03*
Y127000D02*
D03*
Y177000D02*
D03*
Y203500D02*
D03*
Y52500D02*
D03*
Y26000D02*
D03*
D29*
X-220425Y102625D02*
D03*
Y26425D02*
D03*
Y39125D02*
D03*
Y51825D02*
D03*
Y64525D02*
D03*
Y77225D02*
D03*
Y89925D02*
D03*
X-279925Y26425D02*
D03*
Y39125D02*
D03*
Y51825D02*
D03*
Y64525D02*
D03*
Y77225D02*
D03*
Y89925D02*
D03*
Y102625D02*
D03*
D30*
X-169655Y120245D02*
D03*
X-184155D02*
D03*
X-169655Y18245D02*
D03*
X-184155D02*
D03*
Y91245D02*
D03*
X-169655D02*
D03*
X-184155Y47245D02*
D03*
X-169655D02*
D03*
D31*
X32825Y-71475D02*
D03*
Y-56275D02*
D03*
Y-20675D02*
D03*
Y-5475D02*
D03*
Y30125D02*
D03*
Y45325D02*
D03*
Y80925D02*
D03*
Y96125D02*
D03*
Y131725D02*
D03*
Y146925D02*
D03*
Y182525D02*
D03*
Y197725D02*
D03*
D32*
X-322775Y25025D02*
D03*
Y50425D02*
D03*
Y75825D02*
D03*
Y101225D02*
D03*
Y126625D02*
D03*
Y152025D02*
D03*
Y177425D02*
D03*
X-246575Y-76575D02*
D03*
X-271975D02*
D03*
X-297375D02*
D03*
X-322775D02*
D03*
X-348175Y126625D02*
D03*
Y-25775D02*
D03*
Y50425D02*
D03*
Y75825D02*
D03*
Y101225D02*
D03*
Y-375D02*
D03*
Y25025D02*
D03*
D33*
X58225Y182925D02*
D03*
Y197325D02*
D03*
Y30525D02*
D03*
Y-20275D02*
D03*
Y-5875D02*
D03*
Y146525D02*
D03*
Y132125D02*
D03*
Y81325D02*
D03*
Y95725D02*
D03*
Y44925D02*
D03*
Y-71075D02*
D03*
Y-56675D02*
D03*
D34*
X-348175Y152025D02*
D03*
D35*
X-7500Y177000D02*
D03*
X7500D02*
D03*
X-7500Y153500D02*
D03*
X7500D02*
D03*
X-7500Y104250D02*
D03*
X7500D02*
D03*
X-7500Y52500D02*
D03*
X7500D02*
D03*
Y0D02*
D03*
X-7500D02*
D03*
X-91595Y181000D02*
D03*
X-103750D02*
D03*
X-115905Y181160D02*
D03*
X-203540Y177045D02*
D03*
X-215695D02*
D03*
X-227850Y177205D02*
D03*
X-79100Y84050D02*
D03*
Y122150D02*
D03*
X-129900D02*
D03*
Y84050D02*
D03*
X-117200D02*
D03*
X-104500D02*
D03*
X-91800D02*
D03*
X-79100Y96750D02*
D03*
Y109450D02*
D03*
X-91800Y96750D02*
D03*
Y109450D02*
D03*
Y122150D02*
D03*
X-104500D02*
D03*
Y109450D02*
D03*
Y96750D02*
D03*
X-117200D02*
D03*
X-129900D02*
D03*
Y109450D02*
D03*
X-117200D02*
D03*
Y122150D02*
D03*
X-79100Y-22650D02*
D03*
Y15450D02*
D03*
X-129900D02*
D03*
Y-22650D02*
D03*
X-117200D02*
D03*
X-104500D02*
D03*
X-91800D02*
D03*
X-79100Y-9950D02*
D03*
Y2750D02*
D03*
X-91800Y-9950D02*
D03*
Y2750D02*
D03*
Y15450D02*
D03*
X-104500D02*
D03*
Y2750D02*
D03*
Y-9950D02*
D03*
X-117200D02*
D03*
X-129900D02*
D03*
Y2750D02*
D03*
X-117200D02*
D03*
Y15450D02*
D03*
X-40225Y213725D02*
D03*
X-50225D02*
D03*
X-60225D02*
D03*
X-70225D02*
D03*
X-80225D02*
D03*
X-90225D02*
D03*
X-100225D02*
D03*
X-110225D02*
D03*
X-105225Y203725D02*
D03*
X-120225Y213725D02*
D03*
X-115225Y203725D02*
D03*
X-130225Y213725D02*
D03*
X-125225Y203725D02*
D03*
X-140225Y213725D02*
D03*
X-135225Y203725D02*
D03*
X-140225Y193725D02*
D03*
X-150225Y213725D02*
D03*
X-145225Y203725D02*
D03*
X-150225Y193725D02*
D03*
X-160225Y213725D02*
D03*
X-155225Y203725D02*
D03*
X-160225Y193725D02*
D03*
X-170225Y213725D02*
D03*
X-180225D02*
D03*
X-190225D02*
D03*
X-200225D02*
D03*
X-210225D02*
D03*
X-220225D02*
D03*
X-230225D02*
D03*
X-240225D02*
D03*
X-250225D02*
D03*
X-260225D02*
D03*
X-270225D02*
D03*
X-280225D02*
D03*
X-290225D02*
D03*
X-300225D02*
D03*
X-310225D02*
D03*
X9775Y-86275D02*
D03*
X-225D02*
D03*
X-10225D02*
D03*
X-20225D02*
D03*
X-30225D02*
D03*
X-40225D02*
D03*
X-50225D02*
D03*
X-60225D02*
D03*
X-70225D02*
D03*
X-80225D02*
D03*
X-90225D02*
D03*
X-100225Y-66275D02*
D03*
Y-86275D02*
D03*
X-110225Y-66275D02*
D03*
X-105225Y-76275D02*
D03*
X-110225Y-86275D02*
D03*
X-120225Y-66275D02*
D03*
X-115225Y-76275D02*
D03*
X-120225Y-86275D02*
D03*
X-125225Y-76275D02*
D03*
X-130225Y-86275D02*
D03*
X-140225Y-66275D02*
D03*
Y-86275D02*
D03*
X-150225Y-66275D02*
D03*
X-145225Y-76275D02*
D03*
X-150225Y-86275D02*
D03*
X-160225Y-66275D02*
D03*
X-155225Y-76275D02*
D03*
X-160225Y-86275D02*
D03*
X-165225Y-76275D02*
D03*
X-170225Y-86275D02*
D03*
X-180225D02*
D03*
X-190225D02*
D03*
X-200225D02*
D03*
X-210225D02*
D03*
X-220225D02*
D03*
X-240225Y93725D02*
D03*
X-235225Y83725D02*
D03*
X-240225Y73725D02*
D03*
X-235225Y63725D02*
D03*
X-240225Y53725D02*
D03*
X-235225Y43725D02*
D03*
X-240225Y33725D02*
D03*
M02*
