G04*
G04 #@! TF.GenerationSoftware,Altium Limited,Altium Designer,22.6.1 (34)*
G04*
G04 Layer_Physical_Order=1*
G04 Layer_Color=255*
%FSLAX44Y44*%
%MOMM*%
G71*
G04*
G04 #@! TF.SameCoordinates,5A10DA5C-CD7F-47E8-AF5C-5331072B1CDA*
G04*
G04*
G04 #@! TF.FilePolarity,Positive*
G04*
G01*
G75*
%ADD11C,0.6000*%
%ADD15R,3.6000X1.8500*%
%ADD16R,1.0500X1.0000*%
%ADD17R,1.0000X0.9500*%
%ADD18R,3.0000X1.2500*%
%ADD19R,6.4000X5.5500*%
%ADD20R,2.8000X1.5500*%
%ADD21O,2.0000X0.6000*%
%ADD22R,0.9500X0.9000*%
%ADD36C,1.0000*%
%ADD37C,2.0000*%
%ADD38C,1.5000*%
%ADD39C,0.5000*%
%ADD40C,0.1270*%
%ADD41O,2.0000X3.0000*%
%ADD42C,2.0000*%
%ADD43O,2.0000X2.8000*%
%ADD44R,2.0000X2.0000*%
%ADD45C,0.6000*%
G36*
X83625Y-93275D02*
X-367225D01*
Y215932D01*
X-363632Y219524D01*
X-158475Y219468D01*
X-157225D01*
Y219525D01*
X83625D01*
Y-93275D01*
D02*
G37*
%LPC*%
G36*
X58225Y214192D02*
X32825D01*
X29883Y213805D01*
X27141Y212669D01*
X24787Y210863D01*
X22981Y208509D01*
X22415Y207143D01*
X15270D01*
Y212520D01*
X-15270D01*
Y209893D01*
X-28750D01*
X-31196Y209406D01*
X-33270Y208020D01*
X-42770Y198520D01*
X-44156Y196446D01*
X-44643Y194000D01*
Y191520D01*
X-70520D01*
Y170480D01*
X-31980D01*
Y184632D01*
X-31857Y185250D01*
Y191352D01*
X-26102Y197107D01*
X-15270D01*
Y194480D01*
X2133D01*
X2750Y194357D01*
X19461D01*
X21702Y189378D01*
X21458Y187525D01*
Y177525D01*
X21464Y177475D01*
X21458Y177425D01*
X21845Y174483D01*
X22981Y171741D01*
X24787Y169387D01*
X27141Y167581D01*
X27398Y167474D01*
Y161976D01*
X27141Y161869D01*
X24787Y160063D01*
X22981Y157709D01*
X21845Y154967D01*
X21458Y152025D01*
X21464Y151975D01*
X21458Y151925D01*
Y141925D01*
X21562Y141132D01*
X18245Y136096D01*
X250D01*
X250Y136096D01*
X-325Y136020D01*
X-15270D01*
Y132893D01*
X-23730D01*
Y133520D01*
X-56270D01*
Y118480D01*
X-23730D01*
Y118480D01*
X-18650Y119632D01*
X-15270Y117980D01*
Y113270D01*
X-15270Y112900D01*
Y104885D01*
X0D01*
X15270D01*
Y112900D01*
X15270Y113270D01*
Y117980D01*
X15694Y118404D01*
X25025D01*
X27141Y116781D01*
X27398Y116674D01*
Y111176D01*
X27141Y111069D01*
X24787Y109263D01*
X22981Y106909D01*
X21845Y104167D01*
X21458Y101225D01*
X21464Y101175D01*
X21458Y101125D01*
Y91125D01*
X17350Y86846D01*
X250D01*
X250Y86846D01*
X-325Y86770D01*
X-15270D01*
Y86593D01*
X-23730D01*
Y87720D01*
X-56270D01*
Y72680D01*
X-23730D01*
Y73807D01*
X-15270D01*
Y68730D01*
X15270D01*
Y69154D01*
X23738D01*
X24787Y67787D01*
X27141Y65981D01*
X27398Y65874D01*
Y60376D01*
X27141Y60269D01*
X24787Y58463D01*
X22981Y56109D01*
X21845Y53367D01*
X21458Y50425D01*
X21464Y50375D01*
X21458Y50325D01*
Y40325D01*
X21479Y40167D01*
X17899Y35096D01*
X250D01*
X-325Y35020D01*
X-15270D01*
Y32643D01*
X-24300D01*
X-24300Y32643D01*
X-26746Y32156D01*
X-28820Y30770D01*
X-32771Y26820D01*
X-56270D01*
Y11780D01*
X-23730D01*
Y17779D01*
X-21652Y19857D01*
X-15270D01*
Y16980D01*
X15270D01*
Y17404D01*
X24467D01*
X24787Y16987D01*
X27141Y15181D01*
X27398Y15074D01*
Y9576D01*
X27141Y9469D01*
X24787Y7663D01*
X22981Y5309D01*
X21845Y2567D01*
X21458Y-375D01*
X21464Y-425D01*
X21458Y-475D01*
Y-10475D01*
X21500Y-10794D01*
X21026Y-13175D01*
X17128Y-17404D01*
X250D01*
X250Y-17404D01*
X-325Y-17480D01*
X-15270D01*
Y-20107D01*
X-23730D01*
Y-18980D01*
X-56270D01*
Y-34020D01*
X-23730D01*
Y-32893D01*
X-15270D01*
Y-35520D01*
X15270D01*
Y-35096D01*
X26459D01*
X27141Y-35619D01*
X27519Y-35776D01*
Y-41274D01*
X27141Y-41431D01*
X24787Y-43237D01*
X22981Y-45591D01*
X21845Y-48333D01*
X21458Y-51275D01*
Y-55640D01*
X32825D01*
Y-56910D01*
X21458D01*
Y-61275D01*
X21800Y-63875D01*
X21458Y-66475D01*
Y-70840D01*
X32825D01*
Y-71475D01*
X33460D01*
Y-87759D01*
X35767Y-87455D01*
X38509Y-86319D01*
X40863Y-84513D01*
X42669Y-82159D01*
X43066Y-81202D01*
X47650Y-80820D01*
X48498Y-80912D01*
X50187Y-83113D01*
X52541Y-84919D01*
X55283Y-86055D01*
X57590Y-86359D01*
Y-71075D01*
X58225D01*
Y-70440D01*
X69592D01*
Y-67075D01*
X69205Y-64133D01*
X69098Y-63875D01*
X69205Y-63617D01*
X69592Y-60675D01*
Y-57310D01*
X58225D01*
Y-56040D01*
X69592D01*
Y-52675D01*
X69205Y-49733D01*
X68069Y-46991D01*
X66263Y-44637D01*
X63909Y-42831D01*
X62100Y-42081D01*
X61616Y-39225D01*
X62100Y-36369D01*
X63909Y-35619D01*
X66263Y-33813D01*
X68069Y-31459D01*
X69205Y-28717D01*
X69592Y-25775D01*
X69493Y-25025D01*
X69592Y-24275D01*
Y-16275D01*
X69205Y-13333D01*
X69098Y-13075D01*
X69205Y-12817D01*
X69592Y-9875D01*
Y-1875D01*
X69493Y-1125D01*
X69592Y-375D01*
X69205Y2567D01*
X68069Y5309D01*
X66263Y7663D01*
X63909Y9469D01*
X63652Y9576D01*
Y15074D01*
X63909Y15181D01*
X66263Y16987D01*
X68069Y19341D01*
X69205Y22083D01*
X69592Y25025D01*
X69493Y25775D01*
X69592Y26525D01*
Y34525D01*
X69205Y37467D01*
X69098Y37725D01*
X69205Y37983D01*
X69592Y40925D01*
Y48925D01*
X69493Y49675D01*
X69592Y50425D01*
X69205Y53367D01*
X68069Y56109D01*
X66263Y58463D01*
X63909Y60269D01*
X63652Y60376D01*
Y65874D01*
X63909Y65981D01*
X66263Y67787D01*
X68069Y70141D01*
X69205Y72883D01*
X69592Y75825D01*
X69493Y76575D01*
X69592Y77325D01*
Y85325D01*
X69205Y88267D01*
X69098Y88525D01*
X69205Y88783D01*
X69592Y91725D01*
Y99725D01*
X69493Y100475D01*
X69592Y101225D01*
X69205Y104167D01*
X68069Y106909D01*
X66263Y109263D01*
X63909Y111069D01*
X63652Y111176D01*
Y116674D01*
X63909Y116781D01*
X66263Y118587D01*
X68069Y120941D01*
X69205Y123683D01*
X69592Y126625D01*
X69493Y127375D01*
X69592Y128125D01*
Y136125D01*
X69205Y139067D01*
X69098Y139325D01*
X69205Y139583D01*
X69592Y142525D01*
Y150525D01*
X69493Y151275D01*
X69592Y152025D01*
X69205Y154967D01*
X68069Y157709D01*
X66263Y160063D01*
X63909Y161869D01*
X63652Y161976D01*
Y167474D01*
X63909Y167581D01*
X66263Y169387D01*
X68069Y171741D01*
X69205Y174483D01*
X69592Y177425D01*
X69493Y178175D01*
X69592Y178925D01*
Y186925D01*
X69205Y189867D01*
X69098Y190125D01*
X69205Y190383D01*
X69592Y193325D01*
Y201325D01*
X69493Y202075D01*
X69592Y202825D01*
X69205Y205767D01*
X68069Y208509D01*
X66263Y210863D01*
X63909Y212669D01*
X61167Y213805D01*
X58225Y214192D01*
D02*
G37*
G36*
X-84480Y191520D02*
X-103115D01*
Y181635D01*
X-84480D01*
Y191520D01*
D02*
G37*
G36*
X-104385D02*
X-123020D01*
Y181635D01*
X-104385D01*
Y191520D01*
D02*
G37*
G36*
X-196425Y187565D02*
X-215060D01*
Y177680D01*
X-196425D01*
Y187565D01*
D02*
G37*
G36*
X-216330D02*
X-234965D01*
Y177680D01*
X-216330D01*
Y187565D01*
D02*
G37*
G36*
X15270Y186020D02*
X635D01*
Y177635D01*
X15270D01*
Y186020D01*
D02*
G37*
G36*
X-635D02*
X-15270D01*
Y177635D01*
X-635D01*
Y186020D01*
D02*
G37*
G36*
X-84480Y180365D02*
X-103115D01*
Y170480D01*
X-84480D01*
Y180365D01*
D02*
G37*
G36*
X-104385D02*
X-123020D01*
Y170480D01*
X-104385D01*
Y180365D01*
D02*
G37*
G36*
X15270Y176365D02*
X635D01*
Y167980D01*
X15270D01*
Y176365D01*
D02*
G37*
G36*
X-635D02*
X-15270D01*
Y167980D01*
X-635D01*
Y176365D01*
D02*
G37*
G36*
X-196425Y176410D02*
X-215060D01*
Y166525D01*
X-196425D01*
Y176410D01*
D02*
G37*
G36*
X-216330D02*
X-234965D01*
Y166525D01*
X-216330D01*
Y176410D01*
D02*
G37*
G36*
X15270Y162520D02*
X635D01*
Y154135D01*
X15270D01*
Y162520D01*
D02*
G37*
G36*
X-635D02*
X-15270D01*
Y154135D01*
X-635D01*
Y162520D01*
D02*
G37*
G36*
X-348810Y163295D02*
X-359445D01*
Y152660D01*
X-348810D01*
Y163295D01*
D02*
G37*
G36*
X15270Y152865D02*
X635D01*
Y144480D01*
X15270D01*
Y152865D01*
D02*
G37*
G36*
X-635D02*
X-15270D01*
Y144480D01*
X-635D01*
Y152865D01*
D02*
G37*
G36*
X-241540Y134495D02*
Y129110D01*
X-235905D01*
Y134495D01*
X-241540D01*
D02*
G37*
G36*
X-235905Y127840D02*
X-241540D01*
Y122455D01*
X-235905D01*
Y127840D01*
D02*
G37*
G36*
X15270Y103615D02*
X635D01*
Y95230D01*
X15270D01*
Y103615D01*
D02*
G37*
G36*
X-635D02*
X-15270D01*
Y95230D01*
X-635D01*
Y103615D01*
D02*
G37*
G36*
X-129725Y200775D02*
X-133959D01*
Y132120D01*
X-137770D01*
Y82369D01*
X-159842D01*
X-163062Y85006D01*
X-163635Y87681D01*
Y90610D01*
X-169655D01*
Y91880D01*
X-163635D01*
Y94809D01*
X-162635Y99475D01*
X-162635Y101681D01*
Y105110D01*
X-169155D01*
Y106380D01*
X-162635D01*
Y109809D01*
X-162635Y112015D01*
X-163635Y116681D01*
Y126015D01*
X-163832D01*
X-167713Y128655D01*
X-167861Y129398D01*
X-168281Y130028D01*
X-172351Y134098D01*
X-172982Y134520D01*
X-173725Y134667D01*
X-188225D01*
X-188225Y134667D01*
X-188968Y134520D01*
X-189598Y134099D01*
X-189599Y134098D01*
X-198348Y125349D01*
X-198769Y124718D01*
X-198917Y123975D01*
Y106530D01*
X-201029Y104417D01*
X-209487D01*
X-210347Y105703D01*
X-211759Y106647D01*
X-213425Y106979D01*
X-227425D01*
X-229091Y106647D01*
X-230504Y105703D01*
X-231263Y104567D01*
X-240325D01*
X-241068Y104419D01*
X-241698Y103998D01*
X-248128Y97569D01*
X-252821Y99513D01*
Y120756D01*
X-248445Y122455D01*
X-245825Y122455D01*
X-242810D01*
Y128475D01*
Y134495D01*
X-245825D01*
X-248445Y134495D01*
X-252821Y136194D01*
Y166525D01*
X-248925D01*
Y187565D01*
X-287465D01*
Y181779D01*
X-312275D01*
X-313757Y184345D01*
X-315855Y186443D01*
X-318425Y187927D01*
X-321291Y188695D01*
X-324259D01*
X-327125Y187927D01*
X-329695Y186443D01*
X-331793Y184345D01*
X-333277Y181775D01*
X-334045Y178909D01*
Y175941D01*
X-333277Y173075D01*
X-331793Y170505D01*
X-329695Y168407D01*
X-328146Y167513D01*
X-327602Y164853D01*
Y164597D01*
X-328138Y161977D01*
X-328340Y161826D01*
X-329695Y161043D01*
X-330624Y160115D01*
X-332144Y158975D01*
X-336905Y160251D01*
Y163295D01*
X-347540D01*
Y152025D01*
X-348175D01*
Y151390D01*
X-359445D01*
Y140755D01*
X-358243D01*
X-357686Y139976D01*
X-355095Y135643D01*
X-355622Y135116D01*
X-356213Y134663D01*
X-356666Y134072D01*
X-357193Y133545D01*
X-357566Y132900D01*
X-358019Y132309D01*
X-358304Y131620D01*
X-358677Y130975D01*
X-358870Y130255D01*
X-359155Y129567D01*
X-359252Y128828D01*
X-359445Y128109D01*
Y127364D01*
X-359542Y126625D01*
X-359445Y125886D01*
Y125141D01*
X-359252Y124422D01*
X-359155Y123683D01*
X-358870Y122995D01*
X-358677Y122275D01*
X-358304Y121630D01*
X-358019Y120941D01*
X-357566Y120350D01*
X-357193Y119705D01*
X-356666Y119178D01*
X-356213Y118587D01*
X-355622Y118134D01*
X-355095Y117607D01*
X-354450Y117234D01*
X-353859Y116781D01*
X-353636Y116688D01*
X-353002Y114461D01*
Y113389D01*
X-353636Y111161D01*
X-353859Y111069D01*
X-354450Y110616D01*
X-355095Y110243D01*
X-355622Y109716D01*
X-356213Y109263D01*
X-356666Y108672D01*
X-357193Y108145D01*
X-357566Y107500D01*
X-358019Y106909D01*
X-358304Y106220D01*
X-358677Y105575D01*
X-358870Y104855D01*
X-359155Y104167D01*
X-359252Y103428D01*
X-359445Y102709D01*
Y101964D01*
X-359542Y101225D01*
X-359445Y100486D01*
Y99741D01*
X-359252Y99022D01*
X-359155Y98283D01*
X-358870Y97595D01*
X-358677Y96875D01*
X-358304Y96230D01*
X-358019Y95541D01*
X-357566Y94950D01*
X-357193Y94305D01*
X-356666Y93778D01*
X-356213Y93187D01*
X-355622Y92734D01*
X-355095Y92207D01*
X-354450Y91834D01*
X-353859Y91381D01*
X-353636Y91288D01*
X-353002Y89061D01*
Y87989D01*
X-353636Y85761D01*
X-353859Y85669D01*
X-354450Y85216D01*
X-355095Y84843D01*
X-355622Y84316D01*
X-356213Y83863D01*
X-356666Y83272D01*
X-357193Y82745D01*
X-357566Y82100D01*
X-358019Y81509D01*
X-358304Y80820D01*
X-358677Y80175D01*
X-358870Y79455D01*
X-359155Y78767D01*
X-359252Y78028D01*
X-359445Y77309D01*
Y76564D01*
X-359542Y75825D01*
X-359445Y75086D01*
Y74341D01*
X-359252Y73622D01*
X-359155Y72883D01*
X-358870Y72195D01*
X-358677Y71475D01*
X-358304Y70830D01*
X-358019Y70141D01*
X-357566Y69550D01*
X-357193Y68905D01*
X-356666Y68378D01*
X-356213Y67787D01*
X-355622Y67334D01*
X-355095Y66807D01*
X-354450Y66434D01*
X-353859Y65981D01*
X-353636Y65889D01*
X-353002Y63661D01*
Y62589D01*
X-353636Y60361D01*
X-353859Y60269D01*
X-354450Y59816D01*
X-355095Y59443D01*
X-355622Y58916D01*
X-356213Y58463D01*
X-356666Y57872D01*
X-357193Y57345D01*
X-357566Y56700D01*
X-358019Y56109D01*
X-358304Y55420D01*
X-358677Y54775D01*
X-358870Y54055D01*
X-359155Y53367D01*
X-359252Y52628D01*
X-359445Y51909D01*
Y51164D01*
X-359542Y50425D01*
X-359445Y49686D01*
Y48941D01*
X-359252Y48222D01*
X-359155Y47483D01*
X-358870Y46795D01*
X-358677Y46075D01*
X-358304Y45430D01*
X-358019Y44741D01*
X-357566Y44150D01*
X-357193Y43505D01*
X-356666Y42978D01*
X-356213Y42387D01*
X-355622Y41934D01*
X-355095Y41407D01*
X-354450Y41034D01*
X-353859Y40581D01*
X-353636Y40489D01*
X-353002Y38261D01*
Y37189D01*
X-353636Y34962D01*
X-353859Y34869D01*
X-354450Y34416D01*
X-355095Y34043D01*
X-355622Y33516D01*
X-356213Y33063D01*
X-356666Y32472D01*
X-357193Y31945D01*
X-357566Y31300D01*
X-358019Y30709D01*
X-358304Y30020D01*
X-358677Y29375D01*
X-358870Y28655D01*
X-359155Y27967D01*
X-359252Y27228D01*
X-359445Y26509D01*
Y25764D01*
X-359542Y25025D01*
X-359445Y24286D01*
Y23541D01*
X-359252Y22822D01*
X-359155Y22083D01*
X-358870Y21395D01*
X-358677Y20675D01*
X-358304Y20030D01*
X-358019Y19341D01*
X-357566Y18750D01*
X-357193Y18105D01*
X-356666Y17578D01*
X-356213Y16987D01*
X-355622Y16534D01*
X-355095Y16007D01*
X-354450Y15634D01*
X-353859Y15181D01*
X-353636Y15088D01*
X-353002Y12861D01*
Y12197D01*
X-353546Y9537D01*
X-355095Y8643D01*
X-357193Y6545D01*
X-358677Y3975D01*
X-359445Y1109D01*
Y-1859D01*
X-358677Y-4725D01*
X-357193Y-7295D01*
X-355095Y-9393D01*
X-353546Y-10287D01*
X-353002Y-12947D01*
Y-13203D01*
X-353546Y-15863D01*
X-355095Y-16757D01*
X-357193Y-18855D01*
X-358677Y-21425D01*
X-359445Y-24291D01*
Y-27259D01*
X-358677Y-30125D01*
X-357193Y-32695D01*
X-355095Y-34793D01*
X-352525Y-36277D01*
X-349659Y-37045D01*
X-346691D01*
X-343825Y-36277D01*
X-341255Y-34793D01*
X-339157Y-32695D01*
X-337673Y-30125D01*
X-336905Y-27259D01*
Y-24291D01*
X-337673Y-21425D01*
X-339157Y-18855D01*
X-341255Y-16757D01*
X-342804Y-15863D01*
X-343349Y-13203D01*
Y-12947D01*
X-342804Y-10287D01*
X-341255Y-9393D01*
X-339157Y-7295D01*
X-337673Y-4725D01*
X-336905Y-1859D01*
Y1109D01*
X-337673Y3975D01*
X-339157Y6545D01*
X-341189Y8578D01*
X-341184Y8885D01*
X-339780Y13658D01*
X-322775D01*
X-322036Y13755D01*
X-321376D01*
X-319806Y12131D01*
X-318622Y9325D01*
X-324148Y3798D01*
X-324570Y3168D01*
X-324717Y2425D01*
Y-720D01*
X-324717Y-65428D01*
X-327125Y-66073D01*
X-329695Y-67557D01*
X-331793Y-69655D01*
X-333277Y-72225D01*
X-334045Y-75091D01*
Y-78059D01*
X-333277Y-80925D01*
X-331793Y-83495D01*
X-329695Y-85593D01*
X-327125Y-87077D01*
X-324259Y-87845D01*
X-321291D01*
X-318425Y-87077D01*
X-315855Y-85593D01*
X-313757Y-83495D01*
X-312863Y-81946D01*
X-310203Y-81402D01*
X-309947D01*
X-307287Y-81946D01*
X-306393Y-83495D01*
X-304295Y-85593D01*
X-301725Y-87077D01*
X-298859Y-87845D01*
X-295891D01*
X-293025Y-87077D01*
X-290455Y-85593D01*
X-288357Y-83495D01*
X-287463Y-81946D01*
X-284803Y-81402D01*
X-284547D01*
X-281887Y-81946D01*
X-280993Y-83495D01*
X-278895Y-85593D01*
X-276325Y-87077D01*
X-273459Y-87845D01*
X-270491D01*
X-267625Y-87077D01*
X-265055Y-85593D01*
X-262957Y-83495D01*
X-262063Y-81946D01*
X-259403Y-81402D01*
X-259147D01*
X-256487Y-81946D01*
X-255593Y-83495D01*
X-253495Y-85593D01*
X-250925Y-87077D01*
X-248059Y-87845D01*
X-245091D01*
X-242225Y-87077D01*
X-239655Y-85593D01*
X-237557Y-83495D01*
X-236073Y-80925D01*
X-235305Y-78059D01*
Y-75091D01*
X-236073Y-72225D01*
X-237557Y-69655D01*
X-239655Y-67557D01*
X-242225Y-66073D01*
X-245091Y-65305D01*
X-247788D01*
X-247788Y-56133D01*
Y16591D01*
X-247788Y17665D01*
X-240970Y24483D01*
X-231263D01*
X-230504Y23347D01*
X-229091Y22403D01*
X-227425Y22071D01*
X-213425D01*
X-211759Y22403D01*
X-210496Y23247D01*
X-210347Y23347D01*
Y23347D01*
X-209688Y24333D01*
X-202829D01*
X-198917Y20420D01*
Y13225D01*
X-198769Y12482D01*
X-198348Y11852D01*
X-192598Y6102D01*
X-191968Y5681D01*
X-191225Y5533D01*
X-173975D01*
X-173232Y5681D01*
X-172602Y6102D01*
X-168282Y10422D01*
X-168281Y10422D01*
X-167861Y11052D01*
X-167713Y11795D01*
X-163635Y12475D01*
Y21809D01*
X-162635Y26475D01*
X-162635Y28681D01*
Y32110D01*
X-169155D01*
Y33380D01*
X-162635D01*
Y36809D01*
X-162635Y39015D01*
X-163635Y43681D01*
Y46610D01*
X-169655D01*
Y47880D01*
X-163635D01*
Y50809D01*
X-162635Y55475D01*
X-160209Y57901D01*
X-149837D01*
X-133959Y42023D01*
Y25420D01*
X-137770D01*
Y-32620D01*
X-133959D01*
Y-76725D01*
X-129725D01*
Y-32620D01*
X-71230D01*
Y25420D01*
X-124602D01*
Y41946D01*
X-124602Y41946D01*
X-124895Y43417D01*
X-125728Y44664D01*
X-125728Y44664D01*
X-129725Y48661D01*
Y74080D01*
X-71230D01*
Y132120D01*
X-129725D01*
Y200775D01*
D02*
G37*
G36*
X15270Y61520D02*
X635D01*
Y53135D01*
X15270D01*
Y61520D01*
D02*
G37*
G36*
X-635D02*
X-15270D01*
Y53135D01*
X-635D01*
Y61520D01*
D02*
G37*
G36*
X15270Y51865D02*
X635D01*
Y43480D01*
X15270D01*
Y51865D01*
D02*
G37*
G36*
X-635D02*
X-15270D01*
Y43480D01*
X-635D01*
Y51865D01*
D02*
G37*
G36*
X15270Y9020D02*
X635D01*
Y635D01*
X15270D01*
Y9020D01*
D02*
G37*
G36*
X-635D02*
X-15270D01*
Y635D01*
X-635D01*
Y9020D01*
D02*
G37*
G36*
X15270Y-635D02*
X635D01*
Y-9020D01*
X15270D01*
Y-635D01*
D02*
G37*
G36*
X-635D02*
X-15270D01*
Y-9020D01*
X-635D01*
Y-635D01*
D02*
G37*
G36*
X69592Y-71710D02*
X58860D01*
Y-86359D01*
X61167Y-86055D01*
X63909Y-84919D01*
X66263Y-83113D01*
X68069Y-80759D01*
X69205Y-78017D01*
X69592Y-75075D01*
Y-71710D01*
D02*
G37*
G36*
X32190Y-72110D02*
X21458D01*
Y-76475D01*
X21845Y-79417D01*
X22981Y-82159D01*
X24787Y-84513D01*
X27141Y-86319D01*
X29883Y-87455D01*
X32190Y-87759D01*
Y-72110D01*
D02*
G37*
%LPD*%
G36*
X-306781Y79846D02*
X-306754Y79657D01*
X-306709Y79511D01*
X-306646Y79409D01*
X-306565Y79350D01*
X-306467Y79335D01*
X-306350Y79362D01*
X-306215Y79434D01*
X-306063Y79548D01*
X-305892Y79706D01*
Y77910D01*
X-306063Y77727D01*
X-306215Y77536D01*
X-306350Y77338D01*
X-306467Y77132D01*
X-306565Y76919D01*
X-306646Y76698D01*
X-306709Y76470D01*
X-306754Y76235D01*
X-306781Y75992D01*
X-306790Y75742D01*
X-308060Y77275D01*
X-306790Y80078D01*
X-306781Y79846D01*
D02*
G37*
G36*
X-287465Y166525D02*
X-261529D01*
Y134495D01*
X-263445D01*
Y122455D01*
X-261529D01*
Y69978D01*
X-262628Y68879D01*
X-268941D01*
X-270128Y73959D01*
X-269846Y74146D01*
X-269846Y74147D01*
X-269037Y75357D01*
X-268903Y75559D01*
X-268903Y75559D01*
X-268571Y77225D01*
X-268903Y78891D01*
X-268903Y78891D01*
X-269846Y80303D01*
X-269846Y80303D01*
X-270655Y80843D01*
X-270981Y83575D01*
X-270655Y86307D01*
X-270048Y86712D01*
X-269846Y86847D01*
X-269846Y86847D01*
X-269037Y88057D01*
X-268903Y88259D01*
X-268903Y88259D01*
X-268571Y89925D01*
X-268903Y91591D01*
X-268903Y91591D01*
X-269846Y93003D01*
X-269846Y93004D01*
X-270655Y93543D01*
X-270981Y96275D01*
X-270655Y99007D01*
X-270048Y99412D01*
X-269846Y99546D01*
X-269846Y99547D01*
X-268903Y100959D01*
X-268571Y102625D01*
X-268903Y104291D01*
X-268903Y104291D01*
X-269846Y105703D01*
X-271259Y106647D01*
X-271259Y106647D01*
X-272925Y106979D01*
X-286925D01*
X-288591Y106647D01*
X-290004Y105703D01*
X-290763Y104567D01*
X-302325D01*
X-302325Y104567D01*
X-303068Y104419D01*
X-303698Y103998D01*
X-306533Y101164D01*
X-306861Y101168D01*
X-308440Y101439D01*
X-311646Y103235D01*
X-311698Y103428D01*
X-311795Y104167D01*
X-312080Y104855D01*
X-312273Y105575D01*
X-312646Y106220D01*
X-312931Y106909D01*
X-313384Y107500D01*
X-313757Y108145D01*
X-314284Y108672D01*
X-314737Y109263D01*
X-315328Y109716D01*
X-315855Y110243D01*
X-316500Y110616D01*
X-317091Y111069D01*
X-317314Y111161D01*
X-317948Y113389D01*
Y114461D01*
X-317314Y116688D01*
X-317091Y116781D01*
X-316500Y117234D01*
X-315855Y117607D01*
X-315328Y118134D01*
X-314737Y118587D01*
X-314284Y119178D01*
X-313757Y119705D01*
X-313384Y120350D01*
X-312931Y120941D01*
X-312646Y121630D01*
X-312273Y122275D01*
X-312080Y122995D01*
X-311795Y123683D01*
X-311698Y124422D01*
X-311505Y125141D01*
Y125886D01*
X-311408Y126625D01*
X-311505Y127364D01*
Y128109D01*
X-311698Y128828D01*
X-311795Y129567D01*
X-312080Y130255D01*
X-312273Y130975D01*
X-312646Y131620D01*
X-312931Y132309D01*
X-313384Y132900D01*
X-313757Y133545D01*
X-314284Y134072D01*
X-314737Y134663D01*
X-315328Y135116D01*
X-315855Y135643D01*
X-316500Y136016D01*
X-317091Y136469D01*
X-317314Y136561D01*
X-317948Y138789D01*
Y139453D01*
X-317404Y142113D01*
X-315855Y143007D01*
X-313757Y145105D01*
X-312273Y147675D01*
X-311505Y150541D01*
Y151390D01*
X-322775D01*
Y152660D01*
X-311505D01*
Y153509D01*
X-312273Y156375D01*
X-313757Y158945D01*
X-315855Y161043D01*
X-317404Y161937D01*
X-317948Y164597D01*
Y164853D01*
X-317404Y167513D01*
X-315855Y168407D01*
X-313757Y170505D01*
X-312275Y173071D01*
X-287465D01*
Y166525D01*
D02*
G37*
G36*
X-231263Y100683D02*
X-230504Y99546D01*
X-229695Y99007D01*
X-229369Y96275D01*
X-229695Y93543D01*
X-230504Y93004D01*
X-231447Y91591D01*
X-231779Y89925D01*
X-231447Y88259D01*
X-230504Y86847D01*
X-229695Y86307D01*
X-229369Y83575D01*
X-229695Y80843D01*
X-230504Y80303D01*
X-231447Y78891D01*
X-231779Y77225D01*
X-231447Y75559D01*
X-230504Y74146D01*
X-229695Y73607D01*
X-229369Y70875D01*
X-229695Y68143D01*
X-230504Y67604D01*
X-231313Y66393D01*
X-231447Y66191D01*
X-231447Y66191D01*
X-231652Y65160D01*
X-220425D01*
X-209198D01*
X-209403Y66191D01*
X-209403Y66191D01*
X-210347Y67604D01*
X-211155Y68143D01*
X-211471Y70791D01*
X-209283Y75133D01*
X-209141D01*
X-190175D01*
X-190175Y69245D01*
X-190175Y65395D01*
Y55475D01*
X-190175D01*
Y54267D01*
X-191967Y51256D01*
X-197719Y50716D01*
X-200051Y53048D01*
X-200682Y53470D01*
X-201425Y53617D01*
X-209487D01*
X-210347Y54903D01*
X-211155Y55443D01*
X-211481Y58175D01*
X-211155Y60907D01*
X-210548Y61312D01*
X-210347Y61446D01*
X-210346Y61447D01*
X-209403Y62859D01*
X-209198Y63890D01*
X-220425D01*
X-231652D01*
X-231447Y62859D01*
X-230504Y61447D01*
X-230504Y61446D01*
X-229695Y60907D01*
X-229369Y58175D01*
X-229695Y55443D01*
X-230504Y54903D01*
X-231447Y53491D01*
X-231779Y51825D01*
X-231447Y50159D01*
X-230504Y48747D01*
X-229695Y48207D01*
X-229369Y45475D01*
X-229695Y42743D01*
X-230504Y42203D01*
X-231447Y40791D01*
X-231779Y39125D01*
X-231447Y37459D01*
X-230504Y36047D01*
X-229695Y35507D01*
X-229369Y32775D01*
X-229695Y30043D01*
X-230504Y29504D01*
X-231263Y28367D01*
X-241775D01*
X-241775Y28367D01*
X-242518Y28219D01*
X-243148Y27798D01*
X-245634Y25312D01*
X-250328Y27257D01*
X-250328Y67867D01*
Y88828D01*
X-250328Y89875D01*
X-239520Y100683D01*
X-231659D01*
X-231263D01*
D02*
G37*
G36*
X-296731Y23451D02*
X-296704Y23262D01*
X-296659Y23116D01*
X-296596Y23014D01*
X-296516Y22955D01*
X-296417Y22940D01*
X-296300Y22967D01*
X-296165Y23039D01*
X-296013Y23153D01*
X-295842Y23311D01*
Y21515D01*
X-296013Y21332D01*
X-296165Y21141D01*
X-296300Y20943D01*
X-296417Y20737D01*
X-296516Y20524D01*
X-296596Y20303D01*
X-296659Y20076D01*
X-296704Y19840D01*
X-296731Y19597D01*
X-296740Y19347D01*
X-298010Y20880D01*
X-296740Y23683D01*
X-296731Y23451D01*
D02*
G37*
G36*
X-313630Y1922D02*
X-313785Y1746D01*
X-313923Y1546D01*
X-314044Y1321D01*
X-314149Y1072D01*
X-314237Y797D01*
X-314308Y498D01*
X-314362Y175D01*
X-314400Y-174D01*
X-314425Y-945D01*
X-317395Y2025D01*
X-316997Y2029D01*
X-316275Y2088D01*
X-315952Y2142D01*
X-315653Y2213D01*
X-315378Y2301D01*
X-315129Y2406D01*
X-314904Y2527D01*
X-314704Y2665D01*
X-314528Y2820D01*
X-313630Y1922D01*
D02*
G37*
G36*
X-301540Y-20559D02*
X-301526Y-20784D01*
X-301485Y-21019D01*
X-301415Y-21264D01*
X-301318Y-21520D01*
X-301193Y-21785D01*
X-301041Y-22061D01*
X-300861Y-22347D01*
X-300417Y-22949D01*
X-300154Y-23265D01*
X-304339Y-22915D01*
X-304049Y-22662D01*
X-303789Y-22411D01*
X-303559Y-22161D01*
X-303361Y-21912D01*
X-303192Y-21665D01*
X-303055Y-21419D01*
X-302948Y-21175D01*
X-302871Y-20932D01*
X-302825Y-20690D01*
X-302810Y-20450D01*
X-301540Y-20559D01*
D02*
G37*
D11*
X-203550Y64400D02*
X-203425Y64275D01*
X-222925Y64525D02*
X-203675D01*
X-203550Y64400D01*
X-277425Y64525D02*
X-260825D01*
X-257175Y68175D02*
Y128475D01*
X-260825Y64525D02*
X-257175Y68175D01*
X-322775Y177425D02*
X-268575D01*
X-268195Y177045D01*
X-257175Y128475D02*
Y170795D01*
X-268195Y177045D02*
X-263425D01*
X-257175Y170795D01*
D15*
X-51250Y181000D02*
D03*
X-103750D02*
D03*
X-268195Y177045D02*
D03*
X-215695D02*
D03*
D16*
X-183655Y105745D02*
D03*
X-169155D02*
D03*
X-183655Y32745D02*
D03*
X-169155D02*
D03*
X-183655Y76745D02*
D03*
X-169155D02*
D03*
X-183655Y61745D02*
D03*
X-169155D02*
D03*
D17*
X-242175Y128475D02*
D03*
X-257175D02*
D03*
D18*
X-40000Y80200D02*
D03*
Y126000D02*
D03*
Y-26500D02*
D03*
Y19300D02*
D03*
D19*
X-104500Y103100D02*
D03*
Y-3600D02*
D03*
D20*
X0Y0D02*
D03*
Y-26500D02*
D03*
Y104250D02*
D03*
Y77750D02*
D03*
Y153500D02*
D03*
Y127000D02*
D03*
Y177000D02*
D03*
Y203500D02*
D03*
Y52500D02*
D03*
Y26000D02*
D03*
D21*
X-220425Y102625D02*
D03*
Y26425D02*
D03*
Y39125D02*
D03*
Y51825D02*
D03*
Y64525D02*
D03*
Y77225D02*
D03*
Y89925D02*
D03*
X-279925Y26425D02*
D03*
Y39125D02*
D03*
Y51825D02*
D03*
Y64525D02*
D03*
Y77225D02*
D03*
Y89925D02*
D03*
Y102625D02*
D03*
D22*
X-169655Y120245D02*
D03*
X-184155D02*
D03*
X-169655Y18245D02*
D03*
X-184155D02*
D03*
Y91245D02*
D03*
X-169655D02*
D03*
X-184155Y47245D02*
D03*
X-169655D02*
D03*
D36*
X-51250Y181000D02*
X-42500D01*
X-38250Y185250D01*
Y194000D01*
X-28750Y203500D02*
X0D01*
X-38250Y194000D02*
X-28750Y203500D01*
X-24300Y26250D02*
X250D01*
X-31250Y19300D02*
X-24300Y26250D01*
X-40000Y19300D02*
X-31250D01*
X-40000Y-26500D02*
X0D01*
X2750Y200750D02*
X30750D01*
X32825Y202825D01*
X0Y203500D02*
X2750Y200750D01*
X-2450Y80200D02*
X0Y77750D01*
X-40000Y80200D02*
X-2450D01*
X-39500Y126500D02*
X-500D01*
X0Y127000D01*
X-40000Y126000D02*
X-39500Y126500D01*
X32125Y176725D02*
X32825Y177425D01*
X27619Y-13175D02*
X32825Y-18381D01*
Y-25775D02*
Y-18381D01*
X27419Y-13175D02*
X27619D01*
X27419D02*
X32825Y-7769D01*
Y-375D01*
D37*
Y-25775D02*
X58225D01*
X32825Y25025D02*
X58225D01*
X32825Y75825D02*
X58225D01*
X32825Y126625D02*
X58225D01*
X32825Y202825D02*
X58225D01*
X32825Y177425D02*
X58225D01*
X32825Y-375D02*
X58225D01*
X32825Y152025D02*
X58225D01*
X32825Y101225D02*
X58225D01*
X32825Y50425D02*
X58225D01*
X32825Y-76575D02*
X58225D01*
X32825Y-51175D02*
X58225D01*
X-348175Y126625D02*
X-322775D01*
X-348175Y50425D02*
X-322775D01*
X-348175Y75825D02*
X-322775D01*
X-348175Y101225D02*
X-322775D01*
X-348175Y25025D02*
X-322775D01*
X-348175Y152025D02*
X-322775D01*
D38*
X32350Y-26250D02*
X32825Y-25775D01*
X0Y-26500D02*
X250Y-26250D01*
X32350D01*
X250Y26250D02*
X31600D01*
X32825Y25025D01*
X250Y78000D02*
X30650D01*
X0Y77750D02*
X250Y78000D01*
X30650D02*
X32825Y75825D01*
X250Y127250D02*
X32200D01*
X0Y127000D02*
X250Y127250D01*
X32200D02*
X32825Y126625D01*
D39*
X-110600Y103100D02*
X-107000D01*
X-135175Y78525D02*
X-110600Y103100D01*
X-119700Y96750D02*
X-118325Y95375D01*
X-118325D01*
X-135175Y78525D02*
X-131025Y82675D01*
X-118325Y95375D01*
X-167375Y78525D02*
X-135175D01*
X-169155Y76745D02*
X-167375Y78525D01*
X-104500Y-3600D02*
Y-2296D01*
X-122246Y15450D02*
X-104500Y-2296D01*
X-128446Y21650D02*
Y41946D01*
Y21650D02*
X-122246Y15450D01*
X-148245Y61745D02*
X-128446Y41946D01*
X-169155Y61745D02*
X-148245D01*
X-242325Y128625D02*
X-242175Y128475D01*
X-242475Y150725D02*
X-242325Y150575D01*
Y128625D02*
Y150575D01*
D40*
X-302425Y-25225D02*
X-302175Y-24975D01*
Y43025D01*
X-293425Y51775D02*
X-277475D01*
X-302175Y43025D02*
X-293425Y51775D01*
X-277475D02*
X-277425Y51825D01*
X-317425Y-975D02*
X-304885Y11565D01*
Y71315D01*
X-298925Y77275D02*
X-277475D01*
X-304885Y71315D02*
X-298925Y77275D01*
X-277475D02*
X-277425Y77225D01*
X-249730Y-73420D02*
Y18470D01*
Y-73420D02*
X-246575Y-76575D01*
X-249730Y18470D02*
X-241775Y26425D01*
X-194495Y32745D02*
X-183655D01*
X-291830Y26425D02*
X-277425D01*
X-297375Y20880D02*
X-291830Y26425D01*
X-241775D02*
X-222925D01*
X-240325Y102625D02*
X-222925D01*
X-222775Y26275D02*
X-202025D01*
X-222925Y26425D02*
X-222775Y26275D01*
Y51675D02*
X-201425D01*
X-222925Y51825D02*
X-222775Y51675D01*
X-302325Y102625D02*
X-277425D01*
X-292575Y39125D02*
X-277425D01*
X-297375Y34325D02*
X-292575Y39125D01*
X-222775Y102475D02*
X-200225D01*
X-222925Y102625D02*
X-222775Y102475D01*
Y89775D02*
X-199875D01*
X-222925Y89925D02*
X-222775Y89775D01*
Y38975D02*
X-200725D01*
X-222925Y39125D02*
X-222775Y38975D01*
Y77075D02*
X-183985D01*
X-222925Y77225D02*
X-222775Y77075D01*
X-294775Y89925D02*
X-277425D01*
X-307425Y77275D02*
X-294775Y89925D01*
X-183985Y77075D02*
X-183655Y76745D01*
X-200725Y38975D02*
X-194495Y32745D01*
X-183905Y105745D02*
X-183655D01*
X-193598Y96053D02*
X-183905Y105745D01*
X-193598Y96053D02*
Y96053D01*
X-199875Y89775D02*
X-193598Y96053D01*
X-169655Y120245D02*
Y128655D01*
X-173725Y132725D02*
X-169655Y128655D01*
X-188225Y132725D02*
X-173725D01*
X-196975Y123975D02*
X-188225Y132725D01*
X-196975Y105725D02*
Y123975D01*
X-200225Y102475D02*
X-196975Y105725D01*
X-297375Y20880D02*
Y34325D01*
X-307425Y97525D02*
X-302325Y102625D01*
X-307425Y77275D02*
Y97525D01*
X-196995Y47245D02*
X-184155D01*
X-201425Y51675D02*
X-196995Y47245D01*
X-169655Y11795D02*
Y18245D01*
X-173975Y7475D02*
X-169655Y11795D01*
X-191225Y7475D02*
X-173975D01*
X-196975Y13225D02*
X-191225Y7475D01*
X-196975Y13225D02*
Y21225D01*
X-202025Y26275D02*
X-196975Y21225D01*
X-252270Y90680D02*
X-240325Y102625D01*
X-252270Y-56870D02*
Y90680D01*
X-271975Y-76575D02*
X-252270Y-56870D01*
X-297375Y-76575D02*
Y20880D01*
X-322775Y-76575D02*
Y2425D01*
X-307425Y17775D01*
Y77275D01*
X-169155Y90745D02*
X-155495D01*
X-169655Y91245D02*
X-169155Y90745D01*
X-169655Y47245D02*
X-155495D01*
X-168155Y104745D02*
X-155495D01*
X-169155Y105745D02*
X-168155Y104745D01*
X-155495Y32745D02*
X-155475Y32725D01*
X-169155Y32745D02*
X-155495D01*
X-184155Y47245D02*
X-183655Y47745D01*
Y61745D01*
X-184155Y77245D02*
Y91245D01*
Y77245D02*
X-183985Y77075D01*
X-184155Y32245D02*
X-183655Y32745D01*
X-184155Y18245D02*
Y32245D01*
Y120245D02*
X-183655Y119745D01*
Y105745D02*
Y119745D01*
D41*
X32825Y-71475D02*
D03*
Y-56275D02*
D03*
Y-20675D02*
D03*
Y-5475D02*
D03*
Y30125D02*
D03*
Y45325D02*
D03*
Y80925D02*
D03*
Y96125D02*
D03*
Y131725D02*
D03*
Y146925D02*
D03*
Y182525D02*
D03*
Y197725D02*
D03*
D42*
X-322775Y25025D02*
D03*
Y50425D02*
D03*
Y75825D02*
D03*
Y101225D02*
D03*
Y126625D02*
D03*
Y152025D02*
D03*
Y177425D02*
D03*
X-246575Y-76575D02*
D03*
X-271975D02*
D03*
X-297375D02*
D03*
X-322775D02*
D03*
X-348175Y126625D02*
D03*
Y-25775D02*
D03*
Y50425D02*
D03*
Y75825D02*
D03*
Y101225D02*
D03*
Y-375D02*
D03*
Y25025D02*
D03*
D43*
X58225Y182925D02*
D03*
Y197325D02*
D03*
Y30525D02*
D03*
Y-20275D02*
D03*
Y-5875D02*
D03*
Y146525D02*
D03*
Y132125D02*
D03*
Y81325D02*
D03*
Y95725D02*
D03*
Y44925D02*
D03*
Y-71075D02*
D03*
Y-56675D02*
D03*
D44*
X-348175Y152025D02*
D03*
D45*
X69775Y213725D02*
D03*
X74775Y203725D02*
D03*
Y183725D02*
D03*
Y163725D02*
D03*
Y143725D02*
D03*
Y123725D02*
D03*
X69775Y113725D02*
D03*
X74775Y103725D02*
D03*
Y83725D02*
D03*
Y63725D02*
D03*
Y43725D02*
D03*
Y23725D02*
D03*
X69775Y13725D02*
D03*
X74775Y3725D02*
D03*
Y-16275D02*
D03*
Y-36275D02*
D03*
Y-56275D02*
D03*
Y-76275D02*
D03*
X69775Y-86275D02*
D03*
X-230225D02*
D03*
X-260225D02*
D03*
X-310225D02*
D03*
X-320225Y213725D02*
D03*
Y193725D02*
D03*
X-330225Y213725D02*
D03*
X-325225Y203725D02*
D03*
X-330225Y193725D02*
D03*
Y-6275D02*
D03*
Y-46275D02*
D03*
X-340225Y213725D02*
D03*
X-335225Y203725D02*
D03*
X-340225Y193725D02*
D03*
Y173725D02*
D03*
X-335225Y-16275D02*
D03*
Y-36275D02*
D03*
X-340225Y-46275D02*
D03*
X-335225Y-56275D02*
D03*
X-340225Y-66275D02*
D03*
Y-86275D02*
D03*
X-350225Y213725D02*
D03*
X-345225Y203725D02*
D03*
X-350225Y193725D02*
D03*
X-345225Y183725D02*
D03*
X-350225Y173725D02*
D03*
Y-46275D02*
D03*
X-345225Y-56275D02*
D03*
X-350225Y-66275D02*
D03*
X-345225Y-76275D02*
D03*
X-350225Y-86275D02*
D03*
X-360225Y213725D02*
D03*
X-355225Y203725D02*
D03*
X-360225Y193725D02*
D03*
X-355225Y183725D02*
D03*
X-360225Y173725D02*
D03*
Y113725D02*
D03*
Y33725D02*
D03*
Y13725D02*
D03*
Y-46275D02*
D03*
X-355225Y-56275D02*
D03*
X-360225Y-66275D02*
D03*
X-355225Y-76275D02*
D03*
X-360225Y-86275D02*
D03*
X19775Y113725D02*
D03*
X-10225Y-66275D02*
D03*
X-25225Y143725D02*
D03*
X-40225Y113725D02*
D03*
Y53725D02*
D03*
Y-6275D02*
D03*
Y-66275D02*
D03*
X-55225Y203725D02*
D03*
Y143725D02*
D03*
X-70225Y53725D02*
D03*
Y-66275D02*
D03*
X-85225Y203725D02*
D03*
Y143725D02*
D03*
X-100225Y53725D02*
D03*
X-85225Y-36275D02*
D03*
X-100225Y-66275D02*
D03*
X-115225Y203725D02*
D03*
Y143725D02*
D03*
Y-36275D02*
D03*
X-145225Y203725D02*
D03*
X-160225Y173725D02*
D03*
X-145225Y143725D02*
D03*
Y23725D02*
D03*
X-160225Y-6275D02*
D03*
X-145225Y-36275D02*
D03*
X-160225Y-66275D02*
D03*
X-175225Y203725D02*
D03*
X-190225Y173725D02*
D03*
X-175225Y143725D02*
D03*
X-190225Y-6275D02*
D03*
X-175225Y-36275D02*
D03*
X-190225Y-66275D02*
D03*
X-205225Y203725D02*
D03*
Y143725D02*
D03*
X-220225Y113725D02*
D03*
Y-6275D02*
D03*
X-205225Y-36275D02*
D03*
X-220225Y-66275D02*
D03*
X-235225Y203725D02*
D03*
Y143725D02*
D03*
Y83725D02*
D03*
Y-36275D02*
D03*
X-265225Y203725D02*
D03*
Y143725D02*
D03*
X-280225Y113725D02*
D03*
X-265225Y83725D02*
D03*
X-295225Y203725D02*
D03*
Y143725D02*
D03*
X-310225Y113725D02*
D03*
X-325225Y203725D02*
D03*
X-340225Y173725D02*
D03*
Y-66275D02*
D03*
X-7500Y177000D02*
D03*
X7500D02*
D03*
X-7500Y153500D02*
D03*
X7500D02*
D03*
X-7500Y104250D02*
D03*
X7500D02*
D03*
X-7500Y52500D02*
D03*
X7500D02*
D03*
Y0D02*
D03*
X-7500D02*
D03*
X-91595Y181000D02*
D03*
X-103750D02*
D03*
X-115905Y181160D02*
D03*
X-203540Y177045D02*
D03*
X-215695D02*
D03*
X-227850Y177205D02*
D03*
X-79100Y84050D02*
D03*
Y122150D02*
D03*
X-129900D02*
D03*
Y84050D02*
D03*
X-117200D02*
D03*
X-104500D02*
D03*
X-91800D02*
D03*
X-79100Y96750D02*
D03*
Y109450D02*
D03*
X-91800Y96750D02*
D03*
Y109450D02*
D03*
Y122150D02*
D03*
X-104500D02*
D03*
Y109450D02*
D03*
Y96750D02*
D03*
X-117200D02*
D03*
X-129900D02*
D03*
Y109450D02*
D03*
X-117200D02*
D03*
Y122150D02*
D03*
X-79100Y-22650D02*
D03*
Y15450D02*
D03*
X-129900D02*
D03*
Y-22650D02*
D03*
X-117200D02*
D03*
X-104500D02*
D03*
X-91800D02*
D03*
X-79100Y-9950D02*
D03*
Y2750D02*
D03*
X-91800Y-9950D02*
D03*
Y2750D02*
D03*
Y15450D02*
D03*
X-104500D02*
D03*
Y2750D02*
D03*
Y-9950D02*
D03*
X-117200D02*
D03*
X-129900D02*
D03*
Y2750D02*
D03*
X-117200D02*
D03*
Y15450D02*
D03*
X-40225Y213725D02*
D03*
X-50225D02*
D03*
X-60225D02*
D03*
X-70225D02*
D03*
X-80225D02*
D03*
X-90225D02*
D03*
X-100225D02*
D03*
X-110225D02*
D03*
X-105225Y203725D02*
D03*
X-120225Y213725D02*
D03*
X-115225Y203725D02*
D03*
X-130225Y213725D02*
D03*
X-125225Y203725D02*
D03*
X-140225Y213725D02*
D03*
X-135225Y203725D02*
D03*
X-140225Y193725D02*
D03*
X-150225Y213725D02*
D03*
X-145225Y203725D02*
D03*
X-150225Y193725D02*
D03*
X-160225Y213725D02*
D03*
X-155225Y203725D02*
D03*
X-160225Y193725D02*
D03*
X-170225Y213725D02*
D03*
X-180225D02*
D03*
X-190225D02*
D03*
X-200225D02*
D03*
X-210225D02*
D03*
X-220225D02*
D03*
X-230225D02*
D03*
X-240225D02*
D03*
X-250225D02*
D03*
X-260225D02*
D03*
X-270225D02*
D03*
X-280225D02*
D03*
X-290225D02*
D03*
X-300225D02*
D03*
X-310225D02*
D03*
X9775Y-86275D02*
D03*
X-225D02*
D03*
X-10225D02*
D03*
X-20225D02*
D03*
X-30225D02*
D03*
X-40225D02*
D03*
X-50225D02*
D03*
X-60225D02*
D03*
X-70225D02*
D03*
X-80225D02*
D03*
X-90225D02*
D03*
X-100225Y-66275D02*
D03*
Y-86275D02*
D03*
X-110225Y-66275D02*
D03*
X-105225Y-76275D02*
D03*
X-110225Y-86275D02*
D03*
X-120225Y-66275D02*
D03*
X-115225Y-76275D02*
D03*
X-120225Y-86275D02*
D03*
X-125225Y-76275D02*
D03*
X-130225Y-86275D02*
D03*
X-140225Y-66275D02*
D03*
Y-86275D02*
D03*
X-150225Y-66275D02*
D03*
X-145225Y-76275D02*
D03*
X-150225Y-86275D02*
D03*
X-160225Y-66275D02*
D03*
X-155225Y-76275D02*
D03*
X-160225Y-86275D02*
D03*
X-165225Y-76275D02*
D03*
X-170225Y-86275D02*
D03*
X-180225D02*
D03*
X-190225D02*
D03*
X-200225D02*
D03*
X-210225D02*
D03*
X-220225D02*
D03*
X-240225Y93725D02*
D03*
X-235225Y83725D02*
D03*
X-240225Y73725D02*
D03*
X-235225Y63725D02*
D03*
X-240225Y53725D02*
D03*
X-235225Y43725D02*
D03*
X-240225Y33725D02*
D03*
X-302425Y-25225D02*
D03*
X-317425Y-975D02*
D03*
X-203550Y64400D02*
D03*
X-242475Y150725D02*
D03*
X-155495Y90745D02*
D03*
X-155495Y47245D02*
D03*
X-155495Y104745D02*
D03*
X-155475Y32725D02*
D03*
M02*
