G04*
G04 #@! TF.GenerationSoftware,Altium Limited,Altium Designer,22.6.1 (34)*
G04*
G04 Layer_Color=2752767*
%FSLAX44Y44*%
%MOMM*%
G71*
G04*
G04 #@! TF.SameCoordinates,5A10DA5C-CD7F-47E8-AF5C-5331072B1CDA*
G04*
G04*
G04 #@! TF.FilePolarity,Positive*
G04*
G01*
G75*
%ADD46C,0.0677*%
%ADD47C,0.0508*%
D46*
X34857Y-76575D02*
G03*
X34857Y-76575I-2032J0D01*
G01*
Y-51175D02*
G03*
X34857Y-51175I-2032J0D01*
G01*
Y-25775D02*
G03*
X34857Y-25775I-2032J0D01*
G01*
Y-375D02*
G03*
X34857Y-375I-2032J0D01*
G01*
Y25025D02*
G03*
X34857Y25025I-2032J0D01*
G01*
Y50425D02*
G03*
X34857Y50425I-2032J0D01*
G01*
Y75825D02*
G03*
X34857Y75825I-2032J0D01*
G01*
Y101225D02*
G03*
X34857Y101225I-2032J0D01*
G01*
Y126625D02*
G03*
X34857Y126625I-2032J0D01*
G01*
Y152025D02*
G03*
X34857Y152025I-2032J0D01*
G01*
Y177425D02*
G03*
X34857Y177425I-2032J0D01*
G01*
Y202825D02*
G03*
X34857Y202825I-2032J0D01*
G01*
X-320743Y25025D02*
G03*
X-320743Y25025I-2032J0D01*
G01*
Y50425D02*
G03*
X-320743Y50425I-2032J0D01*
G01*
Y75825D02*
G03*
X-320743Y75825I-2032J0D01*
G01*
Y101225D02*
G03*
X-320743Y101225I-2032J0D01*
G01*
Y126625D02*
G03*
X-320743Y126625I-2032J0D01*
G01*
Y152025D02*
G03*
X-320743Y152025I-2032J0D01*
G01*
Y177425D02*
G03*
X-320743Y177425I-2032J0D01*
G01*
X-244543Y-76575D02*
G03*
X-244543Y-76575I-2032J0D01*
G01*
X-269943D02*
G03*
X-269943Y-76575I-2032J0D01*
G01*
X-295343D02*
G03*
X-295343Y-76575I-2032J0D01*
G01*
X-320743D02*
G03*
X-320743Y-76575I-2032J0D01*
G01*
D47*
X56193Y175393D02*
Y179457D01*
X60257D01*
Y175393D01*
X56193D01*
Y200793D02*
Y204857D01*
X60257D01*
Y200793D01*
X56193D01*
Y22993D02*
Y27057D01*
X60257D01*
Y22993D01*
X56193D01*
Y-27807D02*
Y-23743D01*
X60257D01*
Y-27807D01*
X56193D01*
Y-2407D02*
Y1657D01*
X60257D01*
Y-2407D01*
X56193D01*
Y149993D02*
Y154057D01*
X60257D01*
Y149993D01*
X56193D01*
Y124593D02*
Y128657D01*
X60257D01*
Y124593D01*
X56193D01*
Y73793D02*
Y77857D01*
X60257D01*
Y73793D01*
X56193D01*
Y99193D02*
Y103257D01*
X60257D01*
Y99193D01*
X56193D01*
Y48393D02*
Y52457D01*
X60257D01*
Y48393D01*
X56193D01*
Y-78607D02*
Y-74543D01*
X60257D01*
Y-78607D01*
X56193D01*
Y-53207D02*
Y-49143D01*
X60257D01*
Y-53207D01*
X56193D01*
X-350207Y124593D02*
Y128657D01*
X-346143D01*
Y124593D01*
X-350207D01*
Y-27807D02*
Y-23743D01*
X-346143D01*
Y-27807D01*
X-350207D01*
Y48393D02*
Y52457D01*
X-346143D01*
Y48393D01*
X-350207D01*
Y73793D02*
Y77857D01*
X-346143D01*
Y73793D01*
X-350207D01*
Y99193D02*
Y103257D01*
X-346143D01*
Y99193D01*
X-350207D01*
Y-2407D02*
Y1657D01*
X-346143D01*
Y-2407D01*
X-350207D01*
Y22993D02*
Y27057D01*
X-346143D01*
Y22993D01*
X-350207D01*
Y149993D02*
Y154057D01*
X-346143D01*
Y149993D01*
X-350207D01*
X69775Y211693D02*
X70791Y212709D01*
X71807D01*
X70791Y213725D01*
X71807Y214741D01*
X70791D01*
X69775Y215757D01*
X68759Y214741D01*
X67743D01*
X68759Y213725D01*
X67743Y212709D01*
X68759D01*
X69775Y211693D01*
X74775Y201693D02*
X75791Y202709D01*
X76807D01*
X75791Y203725D01*
X76807Y204741D01*
X75791D01*
X74775Y205757D01*
X73759Y204741D01*
X72743D01*
X73759Y203725D01*
X72743Y202709D01*
X73759D01*
X74775Y201693D01*
Y181693D02*
X75791Y182709D01*
X76807D01*
X75791Y183725D01*
X76807Y184741D01*
X75791D01*
X74775Y185757D01*
X73759Y184741D01*
X72743D01*
X73759Y183725D01*
X72743Y182709D01*
X73759D01*
X74775Y181693D01*
Y161693D02*
X75791Y162709D01*
X76807D01*
X75791Y163725D01*
X76807Y164741D01*
X75791D01*
X74775Y165757D01*
X73759Y164741D01*
X72743D01*
X73759Y163725D01*
X72743Y162709D01*
X73759D01*
X74775Y161693D01*
Y141693D02*
X75791Y142709D01*
X76807D01*
X75791Y143725D01*
X76807Y144741D01*
X75791D01*
X74775Y145757D01*
X73759Y144741D01*
X72743D01*
X73759Y143725D01*
X72743Y142709D01*
X73759D01*
X74775Y141693D01*
Y121693D02*
X75791Y122709D01*
X76807D01*
X75791Y123725D01*
X76807Y124741D01*
X75791D01*
X74775Y125757D01*
X73759Y124741D01*
X72743D01*
X73759Y123725D01*
X72743Y122709D01*
X73759D01*
X74775Y121693D01*
X69775Y111693D02*
X70791Y112709D01*
X71807D01*
X70791Y113725D01*
X71807Y114741D01*
X70791D01*
X69775Y115757D01*
X68759Y114741D01*
X67743D01*
X68759Y113725D01*
X67743Y112709D01*
X68759D01*
X69775Y111693D01*
X74775Y101693D02*
X75791Y102709D01*
X76807D01*
X75791Y103725D01*
X76807Y104741D01*
X75791D01*
X74775Y105757D01*
X73759Y104741D01*
X72743D01*
X73759Y103725D01*
X72743Y102709D01*
X73759D01*
X74775Y101693D01*
Y81693D02*
X75791Y82709D01*
X76807D01*
X75791Y83725D01*
X76807Y84741D01*
X75791D01*
X74775Y85757D01*
X73759Y84741D01*
X72743D01*
X73759Y83725D01*
X72743Y82709D01*
X73759D01*
X74775Y81693D01*
Y61693D02*
X75791Y62709D01*
X76807D01*
X75791Y63725D01*
X76807Y64741D01*
X75791D01*
X74775Y65757D01*
X73759Y64741D01*
X72743D01*
X73759Y63725D01*
X72743Y62709D01*
X73759D01*
X74775Y61693D01*
Y41693D02*
X75791Y42709D01*
X76807D01*
X75791Y43725D01*
X76807Y44741D01*
X75791D01*
X74775Y45757D01*
X73759Y44741D01*
X72743D01*
X73759Y43725D01*
X72743Y42709D01*
X73759D01*
X74775Y41693D01*
Y21693D02*
X75791Y22709D01*
X76807D01*
X75791Y23725D01*
X76807Y24741D01*
X75791D01*
X74775Y25757D01*
X73759Y24741D01*
X72743D01*
X73759Y23725D01*
X72743Y22709D01*
X73759D01*
X74775Y21693D01*
X69775Y11693D02*
X70791Y12709D01*
X71807D01*
X70791Y13725D01*
X71807Y14741D01*
X70791D01*
X69775Y15757D01*
X68759Y14741D01*
X67743D01*
X68759Y13725D01*
X67743Y12709D01*
X68759D01*
X69775Y11693D01*
X74775Y1693D02*
X75791Y2709D01*
X76807D01*
X75791Y3725D01*
X76807Y4741D01*
X75791D01*
X74775Y5757D01*
X73759Y4741D01*
X72743D01*
X73759Y3725D01*
X72743Y2709D01*
X73759D01*
X74775Y1693D01*
Y-18307D02*
X75791Y-17291D01*
X76807D01*
X75791Y-16275D01*
X76807Y-15259D01*
X75791D01*
X74775Y-14243D01*
X73759Y-15259D01*
X72743D01*
X73759Y-16275D01*
X72743Y-17291D01*
X73759D01*
X74775Y-18307D01*
Y-38307D02*
X75791Y-37291D01*
X76807D01*
X75791Y-36275D01*
X76807Y-35259D01*
X75791D01*
X74775Y-34243D01*
X73759Y-35259D01*
X72743D01*
X73759Y-36275D01*
X72743Y-37291D01*
X73759D01*
X74775Y-38307D01*
Y-58307D02*
X75791Y-57291D01*
X76807D01*
X75791Y-56275D01*
X76807Y-55259D01*
X75791D01*
X74775Y-54243D01*
X73759Y-55259D01*
X72743D01*
X73759Y-56275D01*
X72743Y-57291D01*
X73759D01*
X74775Y-58307D01*
Y-78307D02*
X75791Y-77291D01*
X76807D01*
X75791Y-76275D01*
X76807Y-75259D01*
X75791D01*
X74775Y-74243D01*
X73759Y-75259D01*
X72743D01*
X73759Y-76275D01*
X72743Y-77291D01*
X73759D01*
X74775Y-78307D01*
X69775Y-88307D02*
X70791Y-87291D01*
X71807D01*
X70791Y-86275D01*
X71807Y-85259D01*
X70791D01*
X69775Y-84243D01*
X68759Y-85259D01*
X67743D01*
X68759Y-86275D01*
X67743Y-87291D01*
X68759D01*
X69775Y-88307D01*
X-230225D02*
X-229209Y-87291D01*
X-228193D01*
X-229209Y-86275D01*
X-228193Y-85259D01*
X-229209D01*
X-230225Y-84243D01*
X-231241Y-85259D01*
X-232257D01*
X-231241Y-86275D01*
X-232257Y-87291D01*
X-231241D01*
X-230225Y-88307D01*
X-260225D02*
X-259209Y-87291D01*
X-258193D01*
X-259209Y-86275D01*
X-258193Y-85259D01*
X-259209D01*
X-260225Y-84243D01*
X-261241Y-85259D01*
X-262257D01*
X-261241Y-86275D01*
X-262257Y-87291D01*
X-261241D01*
X-260225Y-88307D01*
X-310225D02*
X-309209Y-87291D01*
X-308193D01*
X-309209Y-86275D01*
X-308193Y-85259D01*
X-309209D01*
X-310225Y-84243D01*
X-311241Y-85259D01*
X-312257D01*
X-311241Y-86275D01*
X-312257Y-87291D01*
X-311241D01*
X-310225Y-88307D01*
X-320225Y211693D02*
X-319209Y212709D01*
X-318193D01*
X-319209Y213725D01*
X-318193Y214741D01*
X-319209D01*
X-320225Y215757D01*
X-321241Y214741D01*
X-322257D01*
X-321241Y213725D01*
X-322257Y212709D01*
X-321241D01*
X-320225Y211693D01*
Y191693D02*
X-319209Y192709D01*
X-318193D01*
X-319209Y193725D01*
X-318193Y194741D01*
X-319209D01*
X-320225Y195757D01*
X-321241Y194741D01*
X-322257D01*
X-321241Y193725D01*
X-322257Y192709D01*
X-321241D01*
X-320225Y191693D01*
X-330225Y211693D02*
X-329209Y212709D01*
X-328193D01*
X-329209Y213725D01*
X-328193Y214741D01*
X-329209D01*
X-330225Y215757D01*
X-331241Y214741D01*
X-332257D01*
X-331241Y213725D01*
X-332257Y212709D01*
X-331241D01*
X-330225Y211693D01*
X-325225Y201693D02*
X-324209Y202709D01*
X-323193D01*
X-324209Y203725D01*
X-323193Y204741D01*
X-324209D01*
X-325225Y205757D01*
X-326241Y204741D01*
X-327257D01*
X-326241Y203725D01*
X-327257Y202709D01*
X-326241D01*
X-325225Y201693D01*
X-330225Y191693D02*
X-329209Y192709D01*
X-328193D01*
X-329209Y193725D01*
X-328193Y194741D01*
X-329209D01*
X-330225Y195757D01*
X-331241Y194741D01*
X-332257D01*
X-331241Y193725D01*
X-332257Y192709D01*
X-331241D01*
X-330225Y191693D01*
Y-8307D02*
X-329209Y-7291D01*
X-328193D01*
X-329209Y-6275D01*
X-328193Y-5259D01*
X-329209D01*
X-330225Y-4243D01*
X-331241Y-5259D01*
X-332257D01*
X-331241Y-6275D01*
X-332257Y-7291D01*
X-331241D01*
X-330225Y-8307D01*
Y-48307D02*
X-329209Y-47291D01*
X-328193D01*
X-329209Y-46275D01*
X-328193Y-45259D01*
X-329209D01*
X-330225Y-44243D01*
X-331241Y-45259D01*
X-332257D01*
X-331241Y-46275D01*
X-332257Y-47291D01*
X-331241D01*
X-330225Y-48307D01*
X-340225Y211693D02*
X-339209Y212709D01*
X-338193D01*
X-339209Y213725D01*
X-338193Y214741D01*
X-339209D01*
X-340225Y215757D01*
X-341241Y214741D01*
X-342257D01*
X-341241Y213725D01*
X-342257Y212709D01*
X-341241D01*
X-340225Y211693D01*
X-335225Y201693D02*
X-334209Y202709D01*
X-333193D01*
X-334209Y203725D01*
X-333193Y204741D01*
X-334209D01*
X-335225Y205757D01*
X-336241Y204741D01*
X-337257D01*
X-336241Y203725D01*
X-337257Y202709D01*
X-336241D01*
X-335225Y201693D01*
X-340225Y191693D02*
X-339209Y192709D01*
X-338193D01*
X-339209Y193725D01*
X-338193Y194741D01*
X-339209D01*
X-340225Y195757D01*
X-341241Y194741D01*
X-342257D01*
X-341241Y193725D01*
X-342257Y192709D01*
X-341241D01*
X-340225Y191693D01*
Y171693D02*
X-339209Y172709D01*
X-338193D01*
X-339209Y173725D01*
X-338193Y174741D01*
X-339209D01*
X-340225Y175757D01*
X-341241Y174741D01*
X-342257D01*
X-341241Y173725D01*
X-342257Y172709D01*
X-341241D01*
X-340225Y171693D01*
X-335225Y-18307D02*
X-334209Y-17291D01*
X-333193D01*
X-334209Y-16275D01*
X-333193Y-15259D01*
X-334209D01*
X-335225Y-14243D01*
X-336241Y-15259D01*
X-337257D01*
X-336241Y-16275D01*
X-337257Y-17291D01*
X-336241D01*
X-335225Y-18307D01*
Y-38307D02*
X-334209Y-37291D01*
X-333193D01*
X-334209Y-36275D01*
X-333193Y-35259D01*
X-334209D01*
X-335225Y-34243D01*
X-336241Y-35259D01*
X-337257D01*
X-336241Y-36275D01*
X-337257Y-37291D01*
X-336241D01*
X-335225Y-38307D01*
X-340225Y-48307D02*
X-339209Y-47291D01*
X-338193D01*
X-339209Y-46275D01*
X-338193Y-45259D01*
X-339209D01*
X-340225Y-44243D01*
X-341241Y-45259D01*
X-342257D01*
X-341241Y-46275D01*
X-342257Y-47291D01*
X-341241D01*
X-340225Y-48307D01*
X-335225Y-58307D02*
X-334209Y-57291D01*
X-333193D01*
X-334209Y-56275D01*
X-333193Y-55259D01*
X-334209D01*
X-335225Y-54243D01*
X-336241Y-55259D01*
X-337257D01*
X-336241Y-56275D01*
X-337257Y-57291D01*
X-336241D01*
X-335225Y-58307D01*
X-340225Y-68307D02*
X-339209Y-67291D01*
X-338193D01*
X-339209Y-66275D01*
X-338193Y-65259D01*
X-339209D01*
X-340225Y-64243D01*
X-341241Y-65259D01*
X-342257D01*
X-341241Y-66275D01*
X-342257Y-67291D01*
X-341241D01*
X-340225Y-68307D01*
Y-88307D02*
X-339209Y-87291D01*
X-338193D01*
X-339209Y-86275D01*
X-338193Y-85259D01*
X-339209D01*
X-340225Y-84243D01*
X-341241Y-85259D01*
X-342257D01*
X-341241Y-86275D01*
X-342257Y-87291D01*
X-341241D01*
X-340225Y-88307D01*
X-350225Y211693D02*
X-349209Y212709D01*
X-348193D01*
X-349209Y213725D01*
X-348193Y214741D01*
X-349209D01*
X-350225Y215757D01*
X-351241Y214741D01*
X-352257D01*
X-351241Y213725D01*
X-352257Y212709D01*
X-351241D01*
X-350225Y211693D01*
X-345225Y201693D02*
X-344209Y202709D01*
X-343193D01*
X-344209Y203725D01*
X-343193Y204741D01*
X-344209D01*
X-345225Y205757D01*
X-346241Y204741D01*
X-347257D01*
X-346241Y203725D01*
X-347257Y202709D01*
X-346241D01*
X-345225Y201693D01*
X-350225Y191693D02*
X-349209Y192709D01*
X-348193D01*
X-349209Y193725D01*
X-348193Y194741D01*
X-349209D01*
X-350225Y195757D01*
X-351241Y194741D01*
X-352257D01*
X-351241Y193725D01*
X-352257Y192709D01*
X-351241D01*
X-350225Y191693D01*
X-345225Y181693D02*
X-344209Y182709D01*
X-343193D01*
X-344209Y183725D01*
X-343193Y184741D01*
X-344209D01*
X-345225Y185757D01*
X-346241Y184741D01*
X-347257D01*
X-346241Y183725D01*
X-347257Y182709D01*
X-346241D01*
X-345225Y181693D01*
X-350225Y171693D02*
X-349209Y172709D01*
X-348193D01*
X-349209Y173725D01*
X-348193Y174741D01*
X-349209D01*
X-350225Y175757D01*
X-351241Y174741D01*
X-352257D01*
X-351241Y173725D01*
X-352257Y172709D01*
X-351241D01*
X-350225Y171693D01*
Y-48307D02*
X-349209Y-47291D01*
X-348193D01*
X-349209Y-46275D01*
X-348193Y-45259D01*
X-349209D01*
X-350225Y-44243D01*
X-351241Y-45259D01*
X-352257D01*
X-351241Y-46275D01*
X-352257Y-47291D01*
X-351241D01*
X-350225Y-48307D01*
X-345225Y-58307D02*
X-344209Y-57291D01*
X-343193D01*
X-344209Y-56275D01*
X-343193Y-55259D01*
X-344209D01*
X-345225Y-54243D01*
X-346241Y-55259D01*
X-347257D01*
X-346241Y-56275D01*
X-347257Y-57291D01*
X-346241D01*
X-345225Y-58307D01*
X-350225Y-68307D02*
X-349209Y-67291D01*
X-348193D01*
X-349209Y-66275D01*
X-348193Y-65259D01*
X-349209D01*
X-350225Y-64243D01*
X-351241Y-65259D01*
X-352257D01*
X-351241Y-66275D01*
X-352257Y-67291D01*
X-351241D01*
X-350225Y-68307D01*
X-345225Y-78307D02*
X-344209Y-77291D01*
X-343193D01*
X-344209Y-76275D01*
X-343193Y-75259D01*
X-344209D01*
X-345225Y-74243D01*
X-346241Y-75259D01*
X-347257D01*
X-346241Y-76275D01*
X-347257Y-77291D01*
X-346241D01*
X-345225Y-78307D01*
X-350225Y-88307D02*
X-349209Y-87291D01*
X-348193D01*
X-349209Y-86275D01*
X-348193Y-85259D01*
X-349209D01*
X-350225Y-84243D01*
X-351241Y-85259D01*
X-352257D01*
X-351241Y-86275D01*
X-352257Y-87291D01*
X-351241D01*
X-350225Y-88307D01*
X-360225Y211693D02*
X-359209Y212709D01*
X-358193D01*
X-359209Y213725D01*
X-358193Y214741D01*
X-359209D01*
X-360225Y215757D01*
X-361241Y214741D01*
X-362257D01*
X-361241Y213725D01*
X-362257Y212709D01*
X-361241D01*
X-360225Y211693D01*
X-355225Y201693D02*
X-354209Y202709D01*
X-353193D01*
X-354209Y203725D01*
X-353193Y204741D01*
X-354209D01*
X-355225Y205757D01*
X-356241Y204741D01*
X-357257D01*
X-356241Y203725D01*
X-357257Y202709D01*
X-356241D01*
X-355225Y201693D01*
X-360225Y191693D02*
X-359209Y192709D01*
X-358193D01*
X-359209Y193725D01*
X-358193Y194741D01*
X-359209D01*
X-360225Y195757D01*
X-361241Y194741D01*
X-362257D01*
X-361241Y193725D01*
X-362257Y192709D01*
X-361241D01*
X-360225Y191693D01*
X-355225Y181693D02*
X-354209Y182709D01*
X-353193D01*
X-354209Y183725D01*
X-353193Y184741D01*
X-354209D01*
X-355225Y185757D01*
X-356241Y184741D01*
X-357257D01*
X-356241Y183725D01*
X-357257Y182709D01*
X-356241D01*
X-355225Y181693D01*
X-360225Y171693D02*
X-359209Y172709D01*
X-358193D01*
X-359209Y173725D01*
X-358193Y174741D01*
X-359209D01*
X-360225Y175757D01*
X-361241Y174741D01*
X-362257D01*
X-361241Y173725D01*
X-362257Y172709D01*
X-361241D01*
X-360225Y171693D01*
Y111693D02*
X-359209Y112709D01*
X-358193D01*
X-359209Y113725D01*
X-358193Y114741D01*
X-359209D01*
X-360225Y115757D01*
X-361241Y114741D01*
X-362257D01*
X-361241Y113725D01*
X-362257Y112709D01*
X-361241D01*
X-360225Y111693D01*
Y31693D02*
X-359209Y32709D01*
X-358193D01*
X-359209Y33725D01*
X-358193Y34741D01*
X-359209D01*
X-360225Y35757D01*
X-361241Y34741D01*
X-362257D01*
X-361241Y33725D01*
X-362257Y32709D01*
X-361241D01*
X-360225Y31693D01*
Y11693D02*
X-359209Y12709D01*
X-358193D01*
X-359209Y13725D01*
X-358193Y14741D01*
X-359209D01*
X-360225Y15757D01*
X-361241Y14741D01*
X-362257D01*
X-361241Y13725D01*
X-362257Y12709D01*
X-361241D01*
X-360225Y11693D01*
Y-48307D02*
X-359209Y-47291D01*
X-358193D01*
X-359209Y-46275D01*
X-358193Y-45259D01*
X-359209D01*
X-360225Y-44243D01*
X-361241Y-45259D01*
X-362257D01*
X-361241Y-46275D01*
X-362257Y-47291D01*
X-361241D01*
X-360225Y-48307D01*
X-355225Y-58307D02*
X-354209Y-57291D01*
X-353193D01*
X-354209Y-56275D01*
X-353193Y-55259D01*
X-354209D01*
X-355225Y-54243D01*
X-356241Y-55259D01*
X-357257D01*
X-356241Y-56275D01*
X-357257Y-57291D01*
X-356241D01*
X-355225Y-58307D01*
X-360225Y-68307D02*
X-359209Y-67291D01*
X-358193D01*
X-359209Y-66275D01*
X-358193Y-65259D01*
X-359209D01*
X-360225Y-64243D01*
X-361241Y-65259D01*
X-362257D01*
X-361241Y-66275D01*
X-362257Y-67291D01*
X-361241D01*
X-360225Y-68307D01*
X-355225Y-78307D02*
X-354209Y-77291D01*
X-353193D01*
X-354209Y-76275D01*
X-353193Y-75259D01*
X-354209D01*
X-355225Y-74243D01*
X-356241Y-75259D01*
X-357257D01*
X-356241Y-76275D01*
X-357257Y-77291D01*
X-356241D01*
X-355225Y-78307D01*
X-360225Y-88307D02*
X-359209Y-87291D01*
X-358193D01*
X-359209Y-86275D01*
X-358193Y-85259D01*
X-359209D01*
X-360225Y-84243D01*
X-361241Y-85259D01*
X-362257D01*
X-361241Y-86275D01*
X-362257Y-87291D01*
X-361241D01*
X-360225Y-88307D01*
X19775Y111693D02*
X20791Y112709D01*
X21807D01*
X20791Y113725D01*
X21807Y114741D01*
X20791D01*
X19775Y115757D01*
X18759Y114741D01*
X17743D01*
X18759Y113725D01*
X17743Y112709D01*
X18759D01*
X19775Y111693D01*
X-10225Y-68307D02*
X-9209Y-67291D01*
X-8193D01*
X-9209Y-66275D01*
X-8193Y-65259D01*
X-9209D01*
X-10225Y-64243D01*
X-11241Y-65259D01*
X-12257D01*
X-11241Y-66275D01*
X-12257Y-67291D01*
X-11241D01*
X-10225Y-68307D01*
X-25225Y141693D02*
X-24209Y142709D01*
X-23193D01*
X-24209Y143725D01*
X-23193Y144741D01*
X-24209D01*
X-25225Y145757D01*
X-26241Y144741D01*
X-27257D01*
X-26241Y143725D01*
X-27257Y142709D01*
X-26241D01*
X-25225Y141693D01*
X-40225Y111693D02*
X-39209Y112709D01*
X-38193D01*
X-39209Y113725D01*
X-38193Y114741D01*
X-39209D01*
X-40225Y115757D01*
X-41241Y114741D01*
X-42257D01*
X-41241Y113725D01*
X-42257Y112709D01*
X-41241D01*
X-40225Y111693D01*
Y51693D02*
X-39209Y52709D01*
X-38193D01*
X-39209Y53725D01*
X-38193Y54741D01*
X-39209D01*
X-40225Y55757D01*
X-41241Y54741D01*
X-42257D01*
X-41241Y53725D01*
X-42257Y52709D01*
X-41241D01*
X-40225Y51693D01*
Y-8307D02*
X-39209Y-7291D01*
X-38193D01*
X-39209Y-6275D01*
X-38193Y-5259D01*
X-39209D01*
X-40225Y-4243D01*
X-41241Y-5259D01*
X-42257D01*
X-41241Y-6275D01*
X-42257Y-7291D01*
X-41241D01*
X-40225Y-8307D01*
Y-68307D02*
X-39209Y-67291D01*
X-38193D01*
X-39209Y-66275D01*
X-38193Y-65259D01*
X-39209D01*
X-40225Y-64243D01*
X-41241Y-65259D01*
X-42257D01*
X-41241Y-66275D01*
X-42257Y-67291D01*
X-41241D01*
X-40225Y-68307D01*
X-55225Y201693D02*
X-54209Y202709D01*
X-53193D01*
X-54209Y203725D01*
X-53193Y204741D01*
X-54209D01*
X-55225Y205757D01*
X-56241Y204741D01*
X-57257D01*
X-56241Y203725D01*
X-57257Y202709D01*
X-56241D01*
X-55225Y201693D01*
Y141693D02*
X-54209Y142709D01*
X-53193D01*
X-54209Y143725D01*
X-53193Y144741D01*
X-54209D01*
X-55225Y145757D01*
X-56241Y144741D01*
X-57257D01*
X-56241Y143725D01*
X-57257Y142709D01*
X-56241D01*
X-55225Y141693D01*
X-70225Y51693D02*
X-69209Y52709D01*
X-68193D01*
X-69209Y53725D01*
X-68193Y54741D01*
X-69209D01*
X-70225Y55757D01*
X-71241Y54741D01*
X-72257D01*
X-71241Y53725D01*
X-72257Y52709D01*
X-71241D01*
X-70225Y51693D01*
Y-68307D02*
X-69209Y-67291D01*
X-68193D01*
X-69209Y-66275D01*
X-68193Y-65259D01*
X-69209D01*
X-70225Y-64243D01*
X-71241Y-65259D01*
X-72257D01*
X-71241Y-66275D01*
X-72257Y-67291D01*
X-71241D01*
X-70225Y-68307D01*
X-85225Y201693D02*
X-84209Y202709D01*
X-83193D01*
X-84209Y203725D01*
X-83193Y204741D01*
X-84209D01*
X-85225Y205757D01*
X-86241Y204741D01*
X-87257D01*
X-86241Y203725D01*
X-87257Y202709D01*
X-86241D01*
X-85225Y201693D01*
Y141693D02*
X-84209Y142709D01*
X-83193D01*
X-84209Y143725D01*
X-83193Y144741D01*
X-84209D01*
X-85225Y145757D01*
X-86241Y144741D01*
X-87257D01*
X-86241Y143725D01*
X-87257Y142709D01*
X-86241D01*
X-85225Y141693D01*
X-100225Y51693D02*
X-99209Y52709D01*
X-98193D01*
X-99209Y53725D01*
X-98193Y54741D01*
X-99209D01*
X-100225Y55757D01*
X-101241Y54741D01*
X-102257D01*
X-101241Y53725D01*
X-102257Y52709D01*
X-101241D01*
X-100225Y51693D01*
X-85225Y-38307D02*
X-84209Y-37291D01*
X-83193D01*
X-84209Y-36275D01*
X-83193Y-35259D01*
X-84209D01*
X-85225Y-34243D01*
X-86241Y-35259D01*
X-87257D01*
X-86241Y-36275D01*
X-87257Y-37291D01*
X-86241D01*
X-85225Y-38307D01*
X-100225Y-68307D02*
X-99209Y-67291D01*
X-98193D01*
X-99209Y-66275D01*
X-98193Y-65259D01*
X-99209D01*
X-100225Y-64243D01*
X-101241Y-65259D01*
X-102257D01*
X-101241Y-66275D01*
X-102257Y-67291D01*
X-101241D01*
X-100225Y-68307D01*
X-115225Y201693D02*
X-114209Y202709D01*
X-113193D01*
X-114209Y203725D01*
X-113193Y204741D01*
X-114209D01*
X-115225Y205757D01*
X-116241Y204741D01*
X-117257D01*
X-116241Y203725D01*
X-117257Y202709D01*
X-116241D01*
X-115225Y201693D01*
Y141693D02*
X-114209Y142709D01*
X-113193D01*
X-114209Y143725D01*
X-113193Y144741D01*
X-114209D01*
X-115225Y145757D01*
X-116241Y144741D01*
X-117257D01*
X-116241Y143725D01*
X-117257Y142709D01*
X-116241D01*
X-115225Y141693D01*
Y-38307D02*
X-114209Y-37291D01*
X-113193D01*
X-114209Y-36275D01*
X-113193Y-35259D01*
X-114209D01*
X-115225Y-34243D01*
X-116241Y-35259D01*
X-117257D01*
X-116241Y-36275D01*
X-117257Y-37291D01*
X-116241D01*
X-115225Y-38307D01*
X-145225Y201693D02*
X-144209Y202709D01*
X-143193D01*
X-144209Y203725D01*
X-143193Y204741D01*
X-144209D01*
X-145225Y205757D01*
X-146241Y204741D01*
X-147257D01*
X-146241Y203725D01*
X-147257Y202709D01*
X-146241D01*
X-145225Y201693D01*
X-160225Y171693D02*
X-159209Y172709D01*
X-158193D01*
X-159209Y173725D01*
X-158193Y174741D01*
X-159209D01*
X-160225Y175757D01*
X-161241Y174741D01*
X-162257D01*
X-161241Y173725D01*
X-162257Y172709D01*
X-161241D01*
X-160225Y171693D01*
X-145225Y141693D02*
X-144209Y142709D01*
X-143193D01*
X-144209Y143725D01*
X-143193Y144741D01*
X-144209D01*
X-145225Y145757D01*
X-146241Y144741D01*
X-147257D01*
X-146241Y143725D01*
X-147257Y142709D01*
X-146241D01*
X-145225Y141693D01*
Y21693D02*
X-144209Y22709D01*
X-143193D01*
X-144209Y23725D01*
X-143193Y24741D01*
X-144209D01*
X-145225Y25757D01*
X-146241Y24741D01*
X-147257D01*
X-146241Y23725D01*
X-147257Y22709D01*
X-146241D01*
X-145225Y21693D01*
X-160225Y-8307D02*
X-159209Y-7291D01*
X-158193D01*
X-159209Y-6275D01*
X-158193Y-5259D01*
X-159209D01*
X-160225Y-4243D01*
X-161241Y-5259D01*
X-162257D01*
X-161241Y-6275D01*
X-162257Y-7291D01*
X-161241D01*
X-160225Y-8307D01*
X-145225Y-38307D02*
X-144209Y-37291D01*
X-143193D01*
X-144209Y-36275D01*
X-143193Y-35259D01*
X-144209D01*
X-145225Y-34243D01*
X-146241Y-35259D01*
X-147257D01*
X-146241Y-36275D01*
X-147257Y-37291D01*
X-146241D01*
X-145225Y-38307D01*
X-160225Y-68307D02*
X-159209Y-67291D01*
X-158193D01*
X-159209Y-66275D01*
X-158193Y-65259D01*
X-159209D01*
X-160225Y-64243D01*
X-161241Y-65259D01*
X-162257D01*
X-161241Y-66275D01*
X-162257Y-67291D01*
X-161241D01*
X-160225Y-68307D01*
X-175225Y201693D02*
X-174209Y202709D01*
X-173193D01*
X-174209Y203725D01*
X-173193Y204741D01*
X-174209D01*
X-175225Y205757D01*
X-176241Y204741D01*
X-177257D01*
X-176241Y203725D01*
X-177257Y202709D01*
X-176241D01*
X-175225Y201693D01*
X-190225Y171693D02*
X-189209Y172709D01*
X-188193D01*
X-189209Y173725D01*
X-188193Y174741D01*
X-189209D01*
X-190225Y175757D01*
X-191241Y174741D01*
X-192257D01*
X-191241Y173725D01*
X-192257Y172709D01*
X-191241D01*
X-190225Y171693D01*
X-175225Y141693D02*
X-174209Y142709D01*
X-173193D01*
X-174209Y143725D01*
X-173193Y144741D01*
X-174209D01*
X-175225Y145757D01*
X-176241Y144741D01*
X-177257D01*
X-176241Y143725D01*
X-177257Y142709D01*
X-176241D01*
X-175225Y141693D01*
X-190225Y-8307D02*
X-189209Y-7291D01*
X-188193D01*
X-189209Y-6275D01*
X-188193Y-5259D01*
X-189209D01*
X-190225Y-4243D01*
X-191241Y-5259D01*
X-192257D01*
X-191241Y-6275D01*
X-192257Y-7291D01*
X-191241D01*
X-190225Y-8307D01*
X-175225Y-38307D02*
X-174209Y-37291D01*
X-173193D01*
X-174209Y-36275D01*
X-173193Y-35259D01*
X-174209D01*
X-175225Y-34243D01*
X-176241Y-35259D01*
X-177257D01*
X-176241Y-36275D01*
X-177257Y-37291D01*
X-176241D01*
X-175225Y-38307D01*
X-190225Y-68307D02*
X-189209Y-67291D01*
X-188193D01*
X-189209Y-66275D01*
X-188193Y-65259D01*
X-189209D01*
X-190225Y-64243D01*
X-191241Y-65259D01*
X-192257D01*
X-191241Y-66275D01*
X-192257Y-67291D01*
X-191241D01*
X-190225Y-68307D01*
X-205225Y201693D02*
X-204209Y202709D01*
X-203193D01*
X-204209Y203725D01*
X-203193Y204741D01*
X-204209D01*
X-205225Y205757D01*
X-206241Y204741D01*
X-207257D01*
X-206241Y203725D01*
X-207257Y202709D01*
X-206241D01*
X-205225Y201693D01*
Y141693D02*
X-204209Y142709D01*
X-203193D01*
X-204209Y143725D01*
X-203193Y144741D01*
X-204209D01*
X-205225Y145757D01*
X-206241Y144741D01*
X-207257D01*
X-206241Y143725D01*
X-207257Y142709D01*
X-206241D01*
X-205225Y141693D01*
X-220225Y111693D02*
X-219209Y112709D01*
X-218193D01*
X-219209Y113725D01*
X-218193Y114741D01*
X-219209D01*
X-220225Y115757D01*
X-221241Y114741D01*
X-222257D01*
X-221241Y113725D01*
X-222257Y112709D01*
X-221241D01*
X-220225Y111693D01*
Y-8307D02*
X-219209Y-7291D01*
X-218193D01*
X-219209Y-6275D01*
X-218193Y-5259D01*
X-219209D01*
X-220225Y-4243D01*
X-221241Y-5259D01*
X-222257D01*
X-221241Y-6275D01*
X-222257Y-7291D01*
X-221241D01*
X-220225Y-8307D01*
X-205225Y-38307D02*
X-204209Y-37291D01*
X-203193D01*
X-204209Y-36275D01*
X-203193Y-35259D01*
X-204209D01*
X-205225Y-34243D01*
X-206241Y-35259D01*
X-207257D01*
X-206241Y-36275D01*
X-207257Y-37291D01*
X-206241D01*
X-205225Y-38307D01*
X-220225Y-68307D02*
X-219209Y-67291D01*
X-218193D01*
X-219209Y-66275D01*
X-218193Y-65259D01*
X-219209D01*
X-220225Y-64243D01*
X-221241Y-65259D01*
X-222257D01*
X-221241Y-66275D01*
X-222257Y-67291D01*
X-221241D01*
X-220225Y-68307D01*
X-235225Y201693D02*
X-234209Y202709D01*
X-233193D01*
X-234209Y203725D01*
X-233193Y204741D01*
X-234209D01*
X-235225Y205757D01*
X-236241Y204741D01*
X-237257D01*
X-236241Y203725D01*
X-237257Y202709D01*
X-236241D01*
X-235225Y201693D01*
Y141693D02*
X-234209Y142709D01*
X-233193D01*
X-234209Y143725D01*
X-233193Y144741D01*
X-234209D01*
X-235225Y145757D01*
X-236241Y144741D01*
X-237257D01*
X-236241Y143725D01*
X-237257Y142709D01*
X-236241D01*
X-235225Y141693D01*
Y81693D02*
X-234209Y82709D01*
X-233193D01*
X-234209Y83725D01*
X-233193Y84741D01*
X-234209D01*
X-235225Y85757D01*
X-236241Y84741D01*
X-237257D01*
X-236241Y83725D01*
X-237257Y82709D01*
X-236241D01*
X-235225Y81693D01*
Y-38307D02*
X-234209Y-37291D01*
X-233193D01*
X-234209Y-36275D01*
X-233193Y-35259D01*
X-234209D01*
X-235225Y-34243D01*
X-236241Y-35259D01*
X-237257D01*
X-236241Y-36275D01*
X-237257Y-37291D01*
X-236241D01*
X-235225Y-38307D01*
X-265225Y201693D02*
X-264209Y202709D01*
X-263193D01*
X-264209Y203725D01*
X-263193Y204741D01*
X-264209D01*
X-265225Y205757D01*
X-266241Y204741D01*
X-267257D01*
X-266241Y203725D01*
X-267257Y202709D01*
X-266241D01*
X-265225Y201693D01*
Y141693D02*
X-264209Y142709D01*
X-263193D01*
X-264209Y143725D01*
X-263193Y144741D01*
X-264209D01*
X-265225Y145757D01*
X-266241Y144741D01*
X-267257D01*
X-266241Y143725D01*
X-267257Y142709D01*
X-266241D01*
X-265225Y141693D01*
X-280225Y111693D02*
X-279209Y112709D01*
X-278193D01*
X-279209Y113725D01*
X-278193Y114741D01*
X-279209D01*
X-280225Y115757D01*
X-281241Y114741D01*
X-282257D01*
X-281241Y113725D01*
X-282257Y112709D01*
X-281241D01*
X-280225Y111693D01*
X-265225Y81693D02*
X-264209Y82709D01*
X-263193D01*
X-264209Y83725D01*
X-263193Y84741D01*
X-264209D01*
X-265225Y85757D01*
X-266241Y84741D01*
X-267257D01*
X-266241Y83725D01*
X-267257Y82709D01*
X-266241D01*
X-265225Y81693D01*
X-295225Y201693D02*
X-294209Y202709D01*
X-293193D01*
X-294209Y203725D01*
X-293193Y204741D01*
X-294209D01*
X-295225Y205757D01*
X-296241Y204741D01*
X-297257D01*
X-296241Y203725D01*
X-297257Y202709D01*
X-296241D01*
X-295225Y201693D01*
Y141693D02*
X-294209Y142709D01*
X-293193D01*
X-294209Y143725D01*
X-293193Y144741D01*
X-294209D01*
X-295225Y145757D01*
X-296241Y144741D01*
X-297257D01*
X-296241Y143725D01*
X-297257Y142709D01*
X-296241D01*
X-295225Y141693D01*
X-310225Y111693D02*
X-309209Y112709D01*
X-308193D01*
X-309209Y113725D01*
X-308193Y114741D01*
X-309209D01*
X-310225Y115757D01*
X-311241Y114741D01*
X-312257D01*
X-311241Y113725D01*
X-312257Y112709D01*
X-311241D01*
X-310225Y111693D01*
X-325225Y201693D02*
X-324209Y202709D01*
X-323193D01*
X-324209Y203725D01*
X-323193Y204741D01*
X-324209D01*
X-325225Y205757D01*
X-326241Y204741D01*
X-327257D01*
X-326241Y203725D01*
X-327257Y202709D01*
X-326241D01*
X-325225Y201693D01*
X-340225Y171693D02*
X-339209Y172709D01*
X-338193D01*
X-339209Y173725D01*
X-338193Y174741D01*
X-339209D01*
X-340225Y175757D01*
X-341241Y174741D01*
X-342257D01*
X-341241Y173725D01*
X-342257Y172709D01*
X-341241D01*
X-340225Y171693D01*
Y-68307D02*
X-339209Y-67291D01*
X-338193D01*
X-339209Y-66275D01*
X-338193Y-65259D01*
X-339209D01*
X-340225Y-64243D01*
X-341241Y-65259D01*
X-342257D01*
X-341241Y-66275D01*
X-342257Y-67291D01*
X-341241D01*
X-340225Y-68307D01*
X-7500Y174968D02*
X-6484Y175984D01*
X-5468D01*
X-6484Y177000D01*
X-5468Y178016D01*
X-6484D01*
X-7500Y179032D01*
X-8516Y178016D01*
X-9532D01*
X-8516Y177000D01*
X-9532Y175984D01*
X-8516D01*
X-7500Y174968D01*
X7500D02*
X8516Y175984D01*
X9532D01*
X8516Y177000D01*
X9532Y178016D01*
X8516D01*
X7500Y179032D01*
X6484Y178016D01*
X5468D01*
X6484Y177000D01*
X5468Y175984D01*
X6484D01*
X7500Y174968D01*
X-7500Y151468D02*
X-6484Y152484D01*
X-5468D01*
X-6484Y153500D01*
X-5468Y154516D01*
X-6484D01*
X-7500Y155532D01*
X-8516Y154516D01*
X-9532D01*
X-8516Y153500D01*
X-9532Y152484D01*
X-8516D01*
X-7500Y151468D01*
X7500D02*
X8516Y152484D01*
X9532D01*
X8516Y153500D01*
X9532Y154516D01*
X8516D01*
X7500Y155532D01*
X6484Y154516D01*
X5468D01*
X6484Y153500D01*
X5468Y152484D01*
X6484D01*
X7500Y151468D01*
X-7500Y102218D02*
X-6484Y103234D01*
X-5468D01*
X-6484Y104250D01*
X-5468Y105266D01*
X-6484D01*
X-7500Y106282D01*
X-8516Y105266D01*
X-9532D01*
X-8516Y104250D01*
X-9532Y103234D01*
X-8516D01*
X-7500Y102218D01*
X7500D02*
X8516Y103234D01*
X9532D01*
X8516Y104250D01*
X9532Y105266D01*
X8516D01*
X7500Y106282D01*
X6484Y105266D01*
X5468D01*
X6484Y104250D01*
X5468Y103234D01*
X6484D01*
X7500Y102218D01*
X-7500Y50468D02*
X-6484Y51484D01*
X-5468D01*
X-6484Y52500D01*
X-5468Y53516D01*
X-6484D01*
X-7500Y54532D01*
X-8516Y53516D01*
X-9532D01*
X-8516Y52500D01*
X-9532Y51484D01*
X-8516D01*
X-7500Y50468D01*
X7500D02*
X8516Y51484D01*
X9532D01*
X8516Y52500D01*
X9532Y53516D01*
X8516D01*
X7500Y54532D01*
X6484Y53516D01*
X5468D01*
X6484Y52500D01*
X5468Y51484D01*
X6484D01*
X7500Y50468D01*
Y-2032D02*
X8516Y-1016D01*
X9532D01*
X8516Y0D01*
X9532Y1016D01*
X8516D01*
X7500Y2032D01*
X6484Y1016D01*
X5468D01*
X6484Y0D01*
X5468Y-1016D01*
X6484D01*
X7500Y-2032D01*
X-7500D02*
X-6484Y-1016D01*
X-5468D01*
X-6484Y0D01*
X-5468Y1016D01*
X-6484D01*
X-7500Y2032D01*
X-8516Y1016D01*
X-9532D01*
X-8516Y0D01*
X-9532Y-1016D01*
X-8516D01*
X-7500Y-2032D01*
X-91595Y178968D02*
X-90579Y179984D01*
X-89563D01*
X-90579Y181000D01*
X-89563Y182016D01*
X-90579D01*
X-91595Y183032D01*
X-92611Y182016D01*
X-93627D01*
X-92611Y181000D01*
X-93627Y179984D01*
X-92611D01*
X-91595Y178968D01*
X-103750D02*
X-102734Y179984D01*
X-101718D01*
X-102734Y181000D01*
X-101718Y182016D01*
X-102734D01*
X-103750Y183032D01*
X-104766Y182016D01*
X-105782D01*
X-104766Y181000D01*
X-105782Y179984D01*
X-104766D01*
X-103750Y178968D01*
X-115905Y179128D02*
X-114889Y180144D01*
X-113873D01*
X-114889Y181160D01*
X-113873Y182176D01*
X-114889D01*
X-115905Y183192D01*
X-116921Y182176D01*
X-117937D01*
X-116921Y181160D01*
X-117937Y180144D01*
X-116921D01*
X-115905Y179128D01*
X-203540Y175013D02*
X-202524Y176029D01*
X-201508D01*
X-202524Y177045D01*
X-201508Y178061D01*
X-202524D01*
X-203540Y179077D01*
X-204556Y178061D01*
X-205572D01*
X-204556Y177045D01*
X-205572Y176029D01*
X-204556D01*
X-203540Y175013D01*
X-215695D02*
X-214679Y176029D01*
X-213663D01*
X-214679Y177045D01*
X-213663Y178061D01*
X-214679D01*
X-215695Y179077D01*
X-216711Y178061D01*
X-217727D01*
X-216711Y177045D01*
X-217727Y176029D01*
X-216711D01*
X-215695Y175013D01*
X-227850Y175173D02*
X-226834Y176189D01*
X-225818D01*
X-226834Y177205D01*
X-225818Y178221D01*
X-226834D01*
X-227850Y179237D01*
X-228866Y178221D01*
X-229882D01*
X-228866Y177205D01*
X-229882Y176189D01*
X-228866D01*
X-227850Y175173D01*
X-79100Y82018D02*
X-78084Y83034D01*
X-77068D01*
X-78084Y84050D01*
X-77068Y85066D01*
X-78084D01*
X-79100Y86082D01*
X-80116Y85066D01*
X-81132D01*
X-80116Y84050D01*
X-81132Y83034D01*
X-80116D01*
X-79100Y82018D01*
Y120118D02*
X-78084Y121134D01*
X-77068D01*
X-78084Y122150D01*
X-77068Y123166D01*
X-78084D01*
X-79100Y124182D01*
X-80116Y123166D01*
X-81132D01*
X-80116Y122150D01*
X-81132Y121134D01*
X-80116D01*
X-79100Y120118D01*
X-129900D02*
X-128884Y121134D01*
X-127868D01*
X-128884Y122150D01*
X-127868Y123166D01*
X-128884D01*
X-129900Y124182D01*
X-130916Y123166D01*
X-131932D01*
X-130916Y122150D01*
X-131932Y121134D01*
X-130916D01*
X-129900Y120118D01*
Y82018D02*
X-128884Y83034D01*
X-127868D01*
X-128884Y84050D01*
X-127868Y85066D01*
X-128884D01*
X-129900Y86082D01*
X-130916Y85066D01*
X-131932D01*
X-130916Y84050D01*
X-131932Y83034D01*
X-130916D01*
X-129900Y82018D01*
X-117200D02*
X-116184Y83034D01*
X-115168D01*
X-116184Y84050D01*
X-115168Y85066D01*
X-116184D01*
X-117200Y86082D01*
X-118216Y85066D01*
X-119232D01*
X-118216Y84050D01*
X-119232Y83034D01*
X-118216D01*
X-117200Y82018D01*
X-104500D02*
X-103484Y83034D01*
X-102468D01*
X-103484Y84050D01*
X-102468Y85066D01*
X-103484D01*
X-104500Y86082D01*
X-105516Y85066D01*
X-106532D01*
X-105516Y84050D01*
X-106532Y83034D01*
X-105516D01*
X-104500Y82018D01*
X-91800D02*
X-90784Y83034D01*
X-89768D01*
X-90784Y84050D01*
X-89768Y85066D01*
X-90784D01*
X-91800Y86082D01*
X-92816Y85066D01*
X-93832D01*
X-92816Y84050D01*
X-93832Y83034D01*
X-92816D01*
X-91800Y82018D01*
X-79100Y94718D02*
X-78084Y95734D01*
X-77068D01*
X-78084Y96750D01*
X-77068Y97766D01*
X-78084D01*
X-79100Y98782D01*
X-80116Y97766D01*
X-81132D01*
X-80116Y96750D01*
X-81132Y95734D01*
X-80116D01*
X-79100Y94718D01*
Y107418D02*
X-78084Y108434D01*
X-77068D01*
X-78084Y109450D01*
X-77068Y110466D01*
X-78084D01*
X-79100Y111482D01*
X-80116Y110466D01*
X-81132D01*
X-80116Y109450D01*
X-81132Y108434D01*
X-80116D01*
X-79100Y107418D01*
X-91800Y94718D02*
X-90784Y95734D01*
X-89768D01*
X-90784Y96750D01*
X-89768Y97766D01*
X-90784D01*
X-91800Y98782D01*
X-92816Y97766D01*
X-93832D01*
X-92816Y96750D01*
X-93832Y95734D01*
X-92816D01*
X-91800Y94718D01*
Y107418D02*
X-90784Y108434D01*
X-89768D01*
X-90784Y109450D01*
X-89768Y110466D01*
X-90784D01*
X-91800Y111482D01*
X-92816Y110466D01*
X-93832D01*
X-92816Y109450D01*
X-93832Y108434D01*
X-92816D01*
X-91800Y107418D01*
Y120118D02*
X-90784Y121134D01*
X-89768D01*
X-90784Y122150D01*
X-89768Y123166D01*
X-90784D01*
X-91800Y124182D01*
X-92816Y123166D01*
X-93832D01*
X-92816Y122150D01*
X-93832Y121134D01*
X-92816D01*
X-91800Y120118D01*
X-104500D02*
X-103484Y121134D01*
X-102468D01*
X-103484Y122150D01*
X-102468Y123166D01*
X-103484D01*
X-104500Y124182D01*
X-105516Y123166D01*
X-106532D01*
X-105516Y122150D01*
X-106532Y121134D01*
X-105516D01*
X-104500Y120118D01*
Y107418D02*
X-103484Y108434D01*
X-102468D01*
X-103484Y109450D01*
X-102468Y110466D01*
X-103484D01*
X-104500Y111482D01*
X-105516Y110466D01*
X-106532D01*
X-105516Y109450D01*
X-106532Y108434D01*
X-105516D01*
X-104500Y107418D01*
Y94718D02*
X-103484Y95734D01*
X-102468D01*
X-103484Y96750D01*
X-102468Y97766D01*
X-103484D01*
X-104500Y98782D01*
X-105516Y97766D01*
X-106532D01*
X-105516Y96750D01*
X-106532Y95734D01*
X-105516D01*
X-104500Y94718D01*
X-117200D02*
X-116184Y95734D01*
X-115168D01*
X-116184Y96750D01*
X-115168Y97766D01*
X-116184D01*
X-117200Y98782D01*
X-118216Y97766D01*
X-119232D01*
X-118216Y96750D01*
X-119232Y95734D01*
X-118216D01*
X-117200Y94718D01*
X-129900D02*
X-128884Y95734D01*
X-127868D01*
X-128884Y96750D01*
X-127868Y97766D01*
X-128884D01*
X-129900Y98782D01*
X-130916Y97766D01*
X-131932D01*
X-130916Y96750D01*
X-131932Y95734D01*
X-130916D01*
X-129900Y94718D01*
Y107418D02*
X-128884Y108434D01*
X-127868D01*
X-128884Y109450D01*
X-127868Y110466D01*
X-128884D01*
X-129900Y111482D01*
X-130916Y110466D01*
X-131932D01*
X-130916Y109450D01*
X-131932Y108434D01*
X-130916D01*
X-129900Y107418D01*
X-117200D02*
X-116184Y108434D01*
X-115168D01*
X-116184Y109450D01*
X-115168Y110466D01*
X-116184D01*
X-117200Y111482D01*
X-118216Y110466D01*
X-119232D01*
X-118216Y109450D01*
X-119232Y108434D01*
X-118216D01*
X-117200Y107418D01*
Y120118D02*
X-116184Y121134D01*
X-115168D01*
X-116184Y122150D01*
X-115168Y123166D01*
X-116184D01*
X-117200Y124182D01*
X-118216Y123166D01*
X-119232D01*
X-118216Y122150D01*
X-119232Y121134D01*
X-118216D01*
X-117200Y120118D01*
X-79100Y-24682D02*
X-78084Y-23666D01*
X-77068D01*
X-78084Y-22650D01*
X-77068Y-21634D01*
X-78084D01*
X-79100Y-20618D01*
X-80116Y-21634D01*
X-81132D01*
X-80116Y-22650D01*
X-81132Y-23666D01*
X-80116D01*
X-79100Y-24682D01*
Y13418D02*
X-78084Y14434D01*
X-77068D01*
X-78084Y15450D01*
X-77068Y16466D01*
X-78084D01*
X-79100Y17482D01*
X-80116Y16466D01*
X-81132D01*
X-80116Y15450D01*
X-81132Y14434D01*
X-80116D01*
X-79100Y13418D01*
X-129900D02*
X-128884Y14434D01*
X-127868D01*
X-128884Y15450D01*
X-127868Y16466D01*
X-128884D01*
X-129900Y17482D01*
X-130916Y16466D01*
X-131932D01*
X-130916Y15450D01*
X-131932Y14434D01*
X-130916D01*
X-129900Y13418D01*
Y-24682D02*
X-128884Y-23666D01*
X-127868D01*
X-128884Y-22650D01*
X-127868Y-21634D01*
X-128884D01*
X-129900Y-20618D01*
X-130916Y-21634D01*
X-131932D01*
X-130916Y-22650D01*
X-131932Y-23666D01*
X-130916D01*
X-129900Y-24682D01*
X-117200D02*
X-116184Y-23666D01*
X-115168D01*
X-116184Y-22650D01*
X-115168Y-21634D01*
X-116184D01*
X-117200Y-20618D01*
X-118216Y-21634D01*
X-119232D01*
X-118216Y-22650D01*
X-119232Y-23666D01*
X-118216D01*
X-117200Y-24682D01*
X-104500D02*
X-103484Y-23666D01*
X-102468D01*
X-103484Y-22650D01*
X-102468Y-21634D01*
X-103484D01*
X-104500Y-20618D01*
X-105516Y-21634D01*
X-106532D01*
X-105516Y-22650D01*
X-106532Y-23666D01*
X-105516D01*
X-104500Y-24682D01*
X-91800D02*
X-90784Y-23666D01*
X-89768D01*
X-90784Y-22650D01*
X-89768Y-21634D01*
X-90784D01*
X-91800Y-20618D01*
X-92816Y-21634D01*
X-93832D01*
X-92816Y-22650D01*
X-93832Y-23666D01*
X-92816D01*
X-91800Y-24682D01*
X-79100Y-11982D02*
X-78084Y-10966D01*
X-77068D01*
X-78084Y-9950D01*
X-77068Y-8934D01*
X-78084D01*
X-79100Y-7918D01*
X-80116Y-8934D01*
X-81132D01*
X-80116Y-9950D01*
X-81132Y-10966D01*
X-80116D01*
X-79100Y-11982D01*
Y718D02*
X-78084Y1734D01*
X-77068D01*
X-78084Y2750D01*
X-77068Y3766D01*
X-78084D01*
X-79100Y4782D01*
X-80116Y3766D01*
X-81132D01*
X-80116Y2750D01*
X-81132Y1734D01*
X-80116D01*
X-79100Y718D01*
X-91800Y-11982D02*
X-90784Y-10966D01*
X-89768D01*
X-90784Y-9950D01*
X-89768Y-8934D01*
X-90784D01*
X-91800Y-7918D01*
X-92816Y-8934D01*
X-93832D01*
X-92816Y-9950D01*
X-93832Y-10966D01*
X-92816D01*
X-91800Y-11982D01*
Y718D02*
X-90784Y1734D01*
X-89768D01*
X-90784Y2750D01*
X-89768Y3766D01*
X-90784D01*
X-91800Y4782D01*
X-92816Y3766D01*
X-93832D01*
X-92816Y2750D01*
X-93832Y1734D01*
X-92816D01*
X-91800Y718D01*
Y13418D02*
X-90784Y14434D01*
X-89768D01*
X-90784Y15450D01*
X-89768Y16466D01*
X-90784D01*
X-91800Y17482D01*
X-92816Y16466D01*
X-93832D01*
X-92816Y15450D01*
X-93832Y14434D01*
X-92816D01*
X-91800Y13418D01*
X-104500D02*
X-103484Y14434D01*
X-102468D01*
X-103484Y15450D01*
X-102468Y16466D01*
X-103484D01*
X-104500Y17482D01*
X-105516Y16466D01*
X-106532D01*
X-105516Y15450D01*
X-106532Y14434D01*
X-105516D01*
X-104500Y13418D01*
Y718D02*
X-103484Y1734D01*
X-102468D01*
X-103484Y2750D01*
X-102468Y3766D01*
X-103484D01*
X-104500Y4782D01*
X-105516Y3766D01*
X-106532D01*
X-105516Y2750D01*
X-106532Y1734D01*
X-105516D01*
X-104500Y718D01*
Y-11982D02*
X-103484Y-10966D01*
X-102468D01*
X-103484Y-9950D01*
X-102468Y-8934D01*
X-103484D01*
X-104500Y-7918D01*
X-105516Y-8934D01*
X-106532D01*
X-105516Y-9950D01*
X-106532Y-10966D01*
X-105516D01*
X-104500Y-11982D01*
X-117200D02*
X-116184Y-10966D01*
X-115168D01*
X-116184Y-9950D01*
X-115168Y-8934D01*
X-116184D01*
X-117200Y-7918D01*
X-118216Y-8934D01*
X-119232D01*
X-118216Y-9950D01*
X-119232Y-10966D01*
X-118216D01*
X-117200Y-11982D01*
X-129900D02*
X-128884Y-10966D01*
X-127868D01*
X-128884Y-9950D01*
X-127868Y-8934D01*
X-128884D01*
X-129900Y-7918D01*
X-130916Y-8934D01*
X-131932D01*
X-130916Y-9950D01*
X-131932Y-10966D01*
X-130916D01*
X-129900Y-11982D01*
Y718D02*
X-128884Y1734D01*
X-127868D01*
X-128884Y2750D01*
X-127868Y3766D01*
X-128884D01*
X-129900Y4782D01*
X-130916Y3766D01*
X-131932D01*
X-130916Y2750D01*
X-131932Y1734D01*
X-130916D01*
X-129900Y718D01*
X-117200D02*
X-116184Y1734D01*
X-115168D01*
X-116184Y2750D01*
X-115168Y3766D01*
X-116184D01*
X-117200Y4782D01*
X-118216Y3766D01*
X-119232D01*
X-118216Y2750D01*
X-119232Y1734D01*
X-118216D01*
X-117200Y718D01*
Y13418D02*
X-116184Y14434D01*
X-115168D01*
X-116184Y15450D01*
X-115168Y16466D01*
X-116184D01*
X-117200Y17482D01*
X-118216Y16466D01*
X-119232D01*
X-118216Y15450D01*
X-119232Y14434D01*
X-118216D01*
X-117200Y13418D01*
X-40225Y211693D02*
X-39209Y212709D01*
X-38193D01*
X-39209Y213725D01*
X-38193Y214741D01*
X-39209D01*
X-40225Y215757D01*
X-41241Y214741D01*
X-42257D01*
X-41241Y213725D01*
X-42257Y212709D01*
X-41241D01*
X-40225Y211693D01*
X-50225D02*
X-49209Y212709D01*
X-48193D01*
X-49209Y213725D01*
X-48193Y214741D01*
X-49209D01*
X-50225Y215757D01*
X-51241Y214741D01*
X-52257D01*
X-51241Y213725D01*
X-52257Y212709D01*
X-51241D01*
X-50225Y211693D01*
X-60225D02*
X-59209Y212709D01*
X-58193D01*
X-59209Y213725D01*
X-58193Y214741D01*
X-59209D01*
X-60225Y215757D01*
X-61241Y214741D01*
X-62257D01*
X-61241Y213725D01*
X-62257Y212709D01*
X-61241D01*
X-60225Y211693D01*
X-70225D02*
X-69209Y212709D01*
X-68193D01*
X-69209Y213725D01*
X-68193Y214741D01*
X-69209D01*
X-70225Y215757D01*
X-71241Y214741D01*
X-72257D01*
X-71241Y213725D01*
X-72257Y212709D01*
X-71241D01*
X-70225Y211693D01*
X-80225D02*
X-79209Y212709D01*
X-78193D01*
X-79209Y213725D01*
X-78193Y214741D01*
X-79209D01*
X-80225Y215757D01*
X-81241Y214741D01*
X-82257D01*
X-81241Y213725D01*
X-82257Y212709D01*
X-81241D01*
X-80225Y211693D01*
X-90225D02*
X-89209Y212709D01*
X-88193D01*
X-89209Y213725D01*
X-88193Y214741D01*
X-89209D01*
X-90225Y215757D01*
X-91241Y214741D01*
X-92257D01*
X-91241Y213725D01*
X-92257Y212709D01*
X-91241D01*
X-90225Y211693D01*
X-100225D02*
X-99209Y212709D01*
X-98193D01*
X-99209Y213725D01*
X-98193Y214741D01*
X-99209D01*
X-100225Y215757D01*
X-101241Y214741D01*
X-102257D01*
X-101241Y213725D01*
X-102257Y212709D01*
X-101241D01*
X-100225Y211693D01*
X-110225D02*
X-109209Y212709D01*
X-108193D01*
X-109209Y213725D01*
X-108193Y214741D01*
X-109209D01*
X-110225Y215757D01*
X-111241Y214741D01*
X-112257D01*
X-111241Y213725D01*
X-112257Y212709D01*
X-111241D01*
X-110225Y211693D01*
X-105225Y201693D02*
X-104209Y202709D01*
X-103193D01*
X-104209Y203725D01*
X-103193Y204741D01*
X-104209D01*
X-105225Y205757D01*
X-106241Y204741D01*
X-107257D01*
X-106241Y203725D01*
X-107257Y202709D01*
X-106241D01*
X-105225Y201693D01*
X-120225Y211693D02*
X-119209Y212709D01*
X-118193D01*
X-119209Y213725D01*
X-118193Y214741D01*
X-119209D01*
X-120225Y215757D01*
X-121241Y214741D01*
X-122257D01*
X-121241Y213725D01*
X-122257Y212709D01*
X-121241D01*
X-120225Y211693D01*
X-115225Y201693D02*
X-114209Y202709D01*
X-113193D01*
X-114209Y203725D01*
X-113193Y204741D01*
X-114209D01*
X-115225Y205757D01*
X-116241Y204741D01*
X-117257D01*
X-116241Y203725D01*
X-117257Y202709D01*
X-116241D01*
X-115225Y201693D01*
X-130225Y211693D02*
X-129209Y212709D01*
X-128193D01*
X-129209Y213725D01*
X-128193Y214741D01*
X-129209D01*
X-130225Y215757D01*
X-131241Y214741D01*
X-132257D01*
X-131241Y213725D01*
X-132257Y212709D01*
X-131241D01*
X-130225Y211693D01*
X-125225Y201693D02*
X-124209Y202709D01*
X-123193D01*
X-124209Y203725D01*
X-123193Y204741D01*
X-124209D01*
X-125225Y205757D01*
X-126241Y204741D01*
X-127257D01*
X-126241Y203725D01*
X-127257Y202709D01*
X-126241D01*
X-125225Y201693D01*
X-140225Y211693D02*
X-139209Y212709D01*
X-138193D01*
X-139209Y213725D01*
X-138193Y214741D01*
X-139209D01*
X-140225Y215757D01*
X-141241Y214741D01*
X-142257D01*
X-141241Y213725D01*
X-142257Y212709D01*
X-141241D01*
X-140225Y211693D01*
X-135225Y201693D02*
X-134209Y202709D01*
X-133193D01*
X-134209Y203725D01*
X-133193Y204741D01*
X-134209D01*
X-135225Y205757D01*
X-136241Y204741D01*
X-137257D01*
X-136241Y203725D01*
X-137257Y202709D01*
X-136241D01*
X-135225Y201693D01*
X-140225Y191693D02*
X-139209Y192709D01*
X-138193D01*
X-139209Y193725D01*
X-138193Y194741D01*
X-139209D01*
X-140225Y195757D01*
X-141241Y194741D01*
X-142257D01*
X-141241Y193725D01*
X-142257Y192709D01*
X-141241D01*
X-140225Y191693D01*
X-150225Y211693D02*
X-149209Y212709D01*
X-148193D01*
X-149209Y213725D01*
X-148193Y214741D01*
X-149209D01*
X-150225Y215757D01*
X-151241Y214741D01*
X-152257D01*
X-151241Y213725D01*
X-152257Y212709D01*
X-151241D01*
X-150225Y211693D01*
X-145225Y201693D02*
X-144209Y202709D01*
X-143193D01*
X-144209Y203725D01*
X-143193Y204741D01*
X-144209D01*
X-145225Y205757D01*
X-146241Y204741D01*
X-147257D01*
X-146241Y203725D01*
X-147257Y202709D01*
X-146241D01*
X-145225Y201693D01*
X-150225Y191693D02*
X-149209Y192709D01*
X-148193D01*
X-149209Y193725D01*
X-148193Y194741D01*
X-149209D01*
X-150225Y195757D01*
X-151241Y194741D01*
X-152257D01*
X-151241Y193725D01*
X-152257Y192709D01*
X-151241D01*
X-150225Y191693D01*
X-160225Y211693D02*
X-159209Y212709D01*
X-158193D01*
X-159209Y213725D01*
X-158193Y214741D01*
X-159209D01*
X-160225Y215757D01*
X-161241Y214741D01*
X-162257D01*
X-161241Y213725D01*
X-162257Y212709D01*
X-161241D01*
X-160225Y211693D01*
X-155225Y201693D02*
X-154209Y202709D01*
X-153193D01*
X-154209Y203725D01*
X-153193Y204741D01*
X-154209D01*
X-155225Y205757D01*
X-156241Y204741D01*
X-157257D01*
X-156241Y203725D01*
X-157257Y202709D01*
X-156241D01*
X-155225Y201693D01*
X-160225Y191693D02*
X-159209Y192709D01*
X-158193D01*
X-159209Y193725D01*
X-158193Y194741D01*
X-159209D01*
X-160225Y195757D01*
X-161241Y194741D01*
X-162257D01*
X-161241Y193725D01*
X-162257Y192709D01*
X-161241D01*
X-160225Y191693D01*
X-170225Y211693D02*
X-169209Y212709D01*
X-168193D01*
X-169209Y213725D01*
X-168193Y214741D01*
X-169209D01*
X-170225Y215757D01*
X-171241Y214741D01*
X-172257D01*
X-171241Y213725D01*
X-172257Y212709D01*
X-171241D01*
X-170225Y211693D01*
X-180225D02*
X-179209Y212709D01*
X-178193D01*
X-179209Y213725D01*
X-178193Y214741D01*
X-179209D01*
X-180225Y215757D01*
X-181241Y214741D01*
X-182257D01*
X-181241Y213725D01*
X-182257Y212709D01*
X-181241D01*
X-180225Y211693D01*
X-190225D02*
X-189209Y212709D01*
X-188193D01*
X-189209Y213725D01*
X-188193Y214741D01*
X-189209D01*
X-190225Y215757D01*
X-191241Y214741D01*
X-192257D01*
X-191241Y213725D01*
X-192257Y212709D01*
X-191241D01*
X-190225Y211693D01*
X-200225D02*
X-199209Y212709D01*
X-198193D01*
X-199209Y213725D01*
X-198193Y214741D01*
X-199209D01*
X-200225Y215757D01*
X-201241Y214741D01*
X-202257D01*
X-201241Y213725D01*
X-202257Y212709D01*
X-201241D01*
X-200225Y211693D01*
X-210225D02*
X-209209Y212709D01*
X-208193D01*
X-209209Y213725D01*
X-208193Y214741D01*
X-209209D01*
X-210225Y215757D01*
X-211241Y214741D01*
X-212257D01*
X-211241Y213725D01*
X-212257Y212709D01*
X-211241D01*
X-210225Y211693D01*
X-220225D02*
X-219209Y212709D01*
X-218193D01*
X-219209Y213725D01*
X-218193Y214741D01*
X-219209D01*
X-220225Y215757D01*
X-221241Y214741D01*
X-222257D01*
X-221241Y213725D01*
X-222257Y212709D01*
X-221241D01*
X-220225Y211693D01*
X-230225D02*
X-229209Y212709D01*
X-228193D01*
X-229209Y213725D01*
X-228193Y214741D01*
X-229209D01*
X-230225Y215757D01*
X-231241Y214741D01*
X-232257D01*
X-231241Y213725D01*
X-232257Y212709D01*
X-231241D01*
X-230225Y211693D01*
X-240225D02*
X-239209Y212709D01*
X-238193D01*
X-239209Y213725D01*
X-238193Y214741D01*
X-239209D01*
X-240225Y215757D01*
X-241241Y214741D01*
X-242257D01*
X-241241Y213725D01*
X-242257Y212709D01*
X-241241D01*
X-240225Y211693D01*
X-250225D02*
X-249209Y212709D01*
X-248193D01*
X-249209Y213725D01*
X-248193Y214741D01*
X-249209D01*
X-250225Y215757D01*
X-251241Y214741D01*
X-252257D01*
X-251241Y213725D01*
X-252257Y212709D01*
X-251241D01*
X-250225Y211693D01*
X-260225D02*
X-259209Y212709D01*
X-258193D01*
X-259209Y213725D01*
X-258193Y214741D01*
X-259209D01*
X-260225Y215757D01*
X-261241Y214741D01*
X-262257D01*
X-261241Y213725D01*
X-262257Y212709D01*
X-261241D01*
X-260225Y211693D01*
X-270225D02*
X-269209Y212709D01*
X-268193D01*
X-269209Y213725D01*
X-268193Y214741D01*
X-269209D01*
X-270225Y215757D01*
X-271241Y214741D01*
X-272257D01*
X-271241Y213725D01*
X-272257Y212709D01*
X-271241D01*
X-270225Y211693D01*
X-280225D02*
X-279209Y212709D01*
X-278193D01*
X-279209Y213725D01*
X-278193Y214741D01*
X-279209D01*
X-280225Y215757D01*
X-281241Y214741D01*
X-282257D01*
X-281241Y213725D01*
X-282257Y212709D01*
X-281241D01*
X-280225Y211693D01*
X-290225D02*
X-289209Y212709D01*
X-288193D01*
X-289209Y213725D01*
X-288193Y214741D01*
X-289209D01*
X-290225Y215757D01*
X-291241Y214741D01*
X-292257D01*
X-291241Y213725D01*
X-292257Y212709D01*
X-291241D01*
X-290225Y211693D01*
X-300225D02*
X-299209Y212709D01*
X-298193D01*
X-299209Y213725D01*
X-298193Y214741D01*
X-299209D01*
X-300225Y215757D01*
X-301241Y214741D01*
X-302257D01*
X-301241Y213725D01*
X-302257Y212709D01*
X-301241D01*
X-300225Y211693D01*
X-310225D02*
X-309209Y212709D01*
X-308193D01*
X-309209Y213725D01*
X-308193Y214741D01*
X-309209D01*
X-310225Y215757D01*
X-311241Y214741D01*
X-312257D01*
X-311241Y213725D01*
X-312257Y212709D01*
X-311241D01*
X-310225Y211693D01*
X9775Y-88307D02*
X10791Y-87291D01*
X11807D01*
X10791Y-86275D01*
X11807Y-85259D01*
X10791D01*
X9775Y-84243D01*
X8759Y-85259D01*
X7743D01*
X8759Y-86275D01*
X7743Y-87291D01*
X8759D01*
X9775Y-88307D01*
X-225D02*
X791Y-87291D01*
X1807D01*
X791Y-86275D01*
X1807Y-85259D01*
X791D01*
X-225Y-84243D01*
X-1241Y-85259D01*
X-2257D01*
X-1241Y-86275D01*
X-2257Y-87291D01*
X-1241D01*
X-225Y-88307D01*
X-10225D02*
X-9209Y-87291D01*
X-8193D01*
X-9209Y-86275D01*
X-8193Y-85259D01*
X-9209D01*
X-10225Y-84243D01*
X-11241Y-85259D01*
X-12257D01*
X-11241Y-86275D01*
X-12257Y-87291D01*
X-11241D01*
X-10225Y-88307D01*
X-20225D02*
X-19209Y-87291D01*
X-18193D01*
X-19209Y-86275D01*
X-18193Y-85259D01*
X-19209D01*
X-20225Y-84243D01*
X-21241Y-85259D01*
X-22257D01*
X-21241Y-86275D01*
X-22257Y-87291D01*
X-21241D01*
X-20225Y-88307D01*
X-30225D02*
X-29209Y-87291D01*
X-28193D01*
X-29209Y-86275D01*
X-28193Y-85259D01*
X-29209D01*
X-30225Y-84243D01*
X-31241Y-85259D01*
X-32257D01*
X-31241Y-86275D01*
X-32257Y-87291D01*
X-31241D01*
X-30225Y-88307D01*
X-40225D02*
X-39209Y-87291D01*
X-38193D01*
X-39209Y-86275D01*
X-38193Y-85259D01*
X-39209D01*
X-40225Y-84243D01*
X-41241Y-85259D01*
X-42257D01*
X-41241Y-86275D01*
X-42257Y-87291D01*
X-41241D01*
X-40225Y-88307D01*
X-50225D02*
X-49209Y-87291D01*
X-48193D01*
X-49209Y-86275D01*
X-48193Y-85259D01*
X-49209D01*
X-50225Y-84243D01*
X-51241Y-85259D01*
X-52257D01*
X-51241Y-86275D01*
X-52257Y-87291D01*
X-51241D01*
X-50225Y-88307D01*
X-60225D02*
X-59209Y-87291D01*
X-58193D01*
X-59209Y-86275D01*
X-58193Y-85259D01*
X-59209D01*
X-60225Y-84243D01*
X-61241Y-85259D01*
X-62257D01*
X-61241Y-86275D01*
X-62257Y-87291D01*
X-61241D01*
X-60225Y-88307D01*
X-70225D02*
X-69209Y-87291D01*
X-68193D01*
X-69209Y-86275D01*
X-68193Y-85259D01*
X-69209D01*
X-70225Y-84243D01*
X-71241Y-85259D01*
X-72257D01*
X-71241Y-86275D01*
X-72257Y-87291D01*
X-71241D01*
X-70225Y-88307D01*
X-80225D02*
X-79209Y-87291D01*
X-78193D01*
X-79209Y-86275D01*
X-78193Y-85259D01*
X-79209D01*
X-80225Y-84243D01*
X-81241Y-85259D01*
X-82257D01*
X-81241Y-86275D01*
X-82257Y-87291D01*
X-81241D01*
X-80225Y-88307D01*
X-90225D02*
X-89209Y-87291D01*
X-88193D01*
X-89209Y-86275D01*
X-88193Y-85259D01*
X-89209D01*
X-90225Y-84243D01*
X-91241Y-85259D01*
X-92257D01*
X-91241Y-86275D01*
X-92257Y-87291D01*
X-91241D01*
X-90225Y-88307D01*
X-100225Y-68307D02*
X-99209Y-67291D01*
X-98193D01*
X-99209Y-66275D01*
X-98193Y-65259D01*
X-99209D01*
X-100225Y-64243D01*
X-101241Y-65259D01*
X-102257D01*
X-101241Y-66275D01*
X-102257Y-67291D01*
X-101241D01*
X-100225Y-68307D01*
Y-88307D02*
X-99209Y-87291D01*
X-98193D01*
X-99209Y-86275D01*
X-98193Y-85259D01*
X-99209D01*
X-100225Y-84243D01*
X-101241Y-85259D01*
X-102257D01*
X-101241Y-86275D01*
X-102257Y-87291D01*
X-101241D01*
X-100225Y-88307D01*
X-110225Y-68307D02*
X-109209Y-67291D01*
X-108193D01*
X-109209Y-66275D01*
X-108193Y-65259D01*
X-109209D01*
X-110225Y-64243D01*
X-111241Y-65259D01*
X-112257D01*
X-111241Y-66275D01*
X-112257Y-67291D01*
X-111241D01*
X-110225Y-68307D01*
X-105225Y-78307D02*
X-104209Y-77291D01*
X-103193D01*
X-104209Y-76275D01*
X-103193Y-75259D01*
X-104209D01*
X-105225Y-74243D01*
X-106241Y-75259D01*
X-107257D01*
X-106241Y-76275D01*
X-107257Y-77291D01*
X-106241D01*
X-105225Y-78307D01*
X-110225Y-88307D02*
X-109209Y-87291D01*
X-108193D01*
X-109209Y-86275D01*
X-108193Y-85259D01*
X-109209D01*
X-110225Y-84243D01*
X-111241Y-85259D01*
X-112257D01*
X-111241Y-86275D01*
X-112257Y-87291D01*
X-111241D01*
X-110225Y-88307D01*
X-120225Y-68307D02*
X-119209Y-67291D01*
X-118193D01*
X-119209Y-66275D01*
X-118193Y-65259D01*
X-119209D01*
X-120225Y-64243D01*
X-121241Y-65259D01*
X-122257D01*
X-121241Y-66275D01*
X-122257Y-67291D01*
X-121241D01*
X-120225Y-68307D01*
X-115225Y-78307D02*
X-114209Y-77291D01*
X-113193D01*
X-114209Y-76275D01*
X-113193Y-75259D01*
X-114209D01*
X-115225Y-74243D01*
X-116241Y-75259D01*
X-117257D01*
X-116241Y-76275D01*
X-117257Y-77291D01*
X-116241D01*
X-115225Y-78307D01*
X-120225Y-88307D02*
X-119209Y-87291D01*
X-118193D01*
X-119209Y-86275D01*
X-118193Y-85259D01*
X-119209D01*
X-120225Y-84243D01*
X-121241Y-85259D01*
X-122257D01*
X-121241Y-86275D01*
X-122257Y-87291D01*
X-121241D01*
X-120225Y-88307D01*
X-125225Y-78307D02*
X-124209Y-77291D01*
X-123193D01*
X-124209Y-76275D01*
X-123193Y-75259D01*
X-124209D01*
X-125225Y-74243D01*
X-126241Y-75259D01*
X-127257D01*
X-126241Y-76275D01*
X-127257Y-77291D01*
X-126241D01*
X-125225Y-78307D01*
X-130225Y-88307D02*
X-129209Y-87291D01*
X-128193D01*
X-129209Y-86275D01*
X-128193Y-85259D01*
X-129209D01*
X-130225Y-84243D01*
X-131241Y-85259D01*
X-132257D01*
X-131241Y-86275D01*
X-132257Y-87291D01*
X-131241D01*
X-130225Y-88307D01*
X-140225Y-68307D02*
X-139209Y-67291D01*
X-138193D01*
X-139209Y-66275D01*
X-138193Y-65259D01*
X-139209D01*
X-140225Y-64243D01*
X-141241Y-65259D01*
X-142257D01*
X-141241Y-66275D01*
X-142257Y-67291D01*
X-141241D01*
X-140225Y-68307D01*
Y-88307D02*
X-139209Y-87291D01*
X-138193D01*
X-139209Y-86275D01*
X-138193Y-85259D01*
X-139209D01*
X-140225Y-84243D01*
X-141241Y-85259D01*
X-142257D01*
X-141241Y-86275D01*
X-142257Y-87291D01*
X-141241D01*
X-140225Y-88307D01*
X-150225Y-68307D02*
X-149209Y-67291D01*
X-148193D01*
X-149209Y-66275D01*
X-148193Y-65259D01*
X-149209D01*
X-150225Y-64243D01*
X-151241Y-65259D01*
X-152257D01*
X-151241Y-66275D01*
X-152257Y-67291D01*
X-151241D01*
X-150225Y-68307D01*
X-145225Y-78307D02*
X-144209Y-77291D01*
X-143193D01*
X-144209Y-76275D01*
X-143193Y-75259D01*
X-144209D01*
X-145225Y-74243D01*
X-146241Y-75259D01*
X-147257D01*
X-146241Y-76275D01*
X-147257Y-77291D01*
X-146241D01*
X-145225Y-78307D01*
X-150225Y-88307D02*
X-149209Y-87291D01*
X-148193D01*
X-149209Y-86275D01*
X-148193Y-85259D01*
X-149209D01*
X-150225Y-84243D01*
X-151241Y-85259D01*
X-152257D01*
X-151241Y-86275D01*
X-152257Y-87291D01*
X-151241D01*
X-150225Y-88307D01*
X-160225Y-68307D02*
X-159209Y-67291D01*
X-158193D01*
X-159209Y-66275D01*
X-158193Y-65259D01*
X-159209D01*
X-160225Y-64243D01*
X-161241Y-65259D01*
X-162257D01*
X-161241Y-66275D01*
X-162257Y-67291D01*
X-161241D01*
X-160225Y-68307D01*
X-155225Y-78307D02*
X-154209Y-77291D01*
X-153193D01*
X-154209Y-76275D01*
X-153193Y-75259D01*
X-154209D01*
X-155225Y-74243D01*
X-156241Y-75259D01*
X-157257D01*
X-156241Y-76275D01*
X-157257Y-77291D01*
X-156241D01*
X-155225Y-78307D01*
X-160225Y-88307D02*
X-159209Y-87291D01*
X-158193D01*
X-159209Y-86275D01*
X-158193Y-85259D01*
X-159209D01*
X-160225Y-84243D01*
X-161241Y-85259D01*
X-162257D01*
X-161241Y-86275D01*
X-162257Y-87291D01*
X-161241D01*
X-160225Y-88307D01*
X-165225Y-78307D02*
X-164209Y-77291D01*
X-163193D01*
X-164209Y-76275D01*
X-163193Y-75259D01*
X-164209D01*
X-165225Y-74243D01*
X-166241Y-75259D01*
X-167257D01*
X-166241Y-76275D01*
X-167257Y-77291D01*
X-166241D01*
X-165225Y-78307D01*
X-170225Y-88307D02*
X-169209Y-87291D01*
X-168193D01*
X-169209Y-86275D01*
X-168193Y-85259D01*
X-169209D01*
X-170225Y-84243D01*
X-171241Y-85259D01*
X-172257D01*
X-171241Y-86275D01*
X-172257Y-87291D01*
X-171241D01*
X-170225Y-88307D01*
X-180225D02*
X-179209Y-87291D01*
X-178193D01*
X-179209Y-86275D01*
X-178193Y-85259D01*
X-179209D01*
X-180225Y-84243D01*
X-181241Y-85259D01*
X-182257D01*
X-181241Y-86275D01*
X-182257Y-87291D01*
X-181241D01*
X-180225Y-88307D01*
X-190225D02*
X-189209Y-87291D01*
X-188193D01*
X-189209Y-86275D01*
X-188193Y-85259D01*
X-189209D01*
X-190225Y-84243D01*
X-191241Y-85259D01*
X-192257D01*
X-191241Y-86275D01*
X-192257Y-87291D01*
X-191241D01*
X-190225Y-88307D01*
X-200225D02*
X-199209Y-87291D01*
X-198193D01*
X-199209Y-86275D01*
X-198193Y-85259D01*
X-199209D01*
X-200225Y-84243D01*
X-201241Y-85259D01*
X-202257D01*
X-201241Y-86275D01*
X-202257Y-87291D01*
X-201241D01*
X-200225Y-88307D01*
X-210225D02*
X-209209Y-87291D01*
X-208193D01*
X-209209Y-86275D01*
X-208193Y-85259D01*
X-209209D01*
X-210225Y-84243D01*
X-211241Y-85259D01*
X-212257D01*
X-211241Y-86275D01*
X-212257Y-87291D01*
X-211241D01*
X-210225Y-88307D01*
X-220225D02*
X-219209Y-87291D01*
X-218193D01*
X-219209Y-86275D01*
X-218193Y-85259D01*
X-219209D01*
X-220225Y-84243D01*
X-221241Y-85259D01*
X-222257D01*
X-221241Y-86275D01*
X-222257Y-87291D01*
X-221241D01*
X-220225Y-88307D01*
X-240225Y91693D02*
X-239209Y92709D01*
X-238193D01*
X-239209Y93725D01*
X-238193Y94741D01*
X-239209D01*
X-240225Y95757D01*
X-241241Y94741D01*
X-242257D01*
X-241241Y93725D01*
X-242257Y92709D01*
X-241241D01*
X-240225Y91693D01*
X-235225Y81693D02*
X-234209Y82709D01*
X-233193D01*
X-234209Y83725D01*
X-233193Y84741D01*
X-234209D01*
X-235225Y85757D01*
X-236241Y84741D01*
X-237257D01*
X-236241Y83725D01*
X-237257Y82709D01*
X-236241D01*
X-235225Y81693D01*
X-240225Y71693D02*
X-239209Y72709D01*
X-238193D01*
X-239209Y73725D01*
X-238193Y74741D01*
X-239209D01*
X-240225Y75757D01*
X-241241Y74741D01*
X-242257D01*
X-241241Y73725D01*
X-242257Y72709D01*
X-241241D01*
X-240225Y71693D01*
X-235225Y61693D02*
X-234209Y62709D01*
X-233193D01*
X-234209Y63725D01*
X-233193Y64741D01*
X-234209D01*
X-235225Y65757D01*
X-236241Y64741D01*
X-237257D01*
X-236241Y63725D01*
X-237257Y62709D01*
X-236241D01*
X-235225Y61693D01*
X-240225Y51693D02*
X-239209Y52709D01*
X-238193D01*
X-239209Y53725D01*
X-238193Y54741D01*
X-239209D01*
X-240225Y55757D01*
X-241241Y54741D01*
X-242257D01*
X-241241Y53725D01*
X-242257Y52709D01*
X-241241D01*
X-240225Y51693D01*
X-235225Y41693D02*
X-234209Y42709D01*
X-233193D01*
X-234209Y43725D01*
X-233193Y44741D01*
X-234209D01*
X-235225Y45757D01*
X-236241Y44741D01*
X-237257D01*
X-236241Y43725D01*
X-237257Y42709D01*
X-236241D01*
X-235225Y41693D01*
X-240225Y31693D02*
X-239209Y32709D01*
X-238193D01*
X-239209Y33725D01*
X-238193Y34741D01*
X-239209D01*
X-240225Y35757D01*
X-241241Y34741D01*
X-242257D01*
X-241241Y33725D01*
X-242257Y32709D01*
X-241241D01*
X-240225Y31693D01*
X-304457Y-27257D02*
X-303441Y-25225D01*
X-304457Y-23193D01*
X-302425Y-24209D01*
X-300393Y-23193D01*
X-301409Y-25225D01*
X-300393Y-27257D01*
X-302425Y-26241D01*
X-304457Y-27257D01*
X-319457Y-3007D02*
X-318441Y-975D01*
X-319457Y1057D01*
X-317425Y41D01*
X-315393Y1057D01*
X-316409Y-975D01*
X-315393Y-3007D01*
X-317425Y-1991D01*
X-319457Y-3007D01*
X-205582Y62368D02*
X-204566Y64400D01*
X-205582Y66432D01*
X-203550Y65416D01*
X-201518Y66432D01*
X-202534Y64400D01*
X-201518Y62368D01*
X-203550Y63384D01*
X-205582Y62368D01*
X-244507Y148693D02*
X-243491Y150725D01*
X-244507Y152757D01*
X-242475Y151741D01*
X-240443Y152757D01*
X-241459Y150725D01*
X-240443Y148693D01*
X-242475Y149709D01*
X-244507Y148693D01*
X-157527Y88713D02*
X-156511Y90745D01*
X-157527Y92777D01*
X-155495Y91761D01*
X-153463Y92777D01*
X-154479Y90745D01*
X-153463Y88713D01*
X-155495Y89729D01*
X-157527Y88713D01*
X-157527Y45213D02*
X-156511Y47245D01*
X-157527Y49277D01*
X-155495Y48261D01*
X-153463Y49277D01*
X-154479Y47245D01*
X-153463Y45213D01*
X-155495Y46229D01*
X-157527Y45213D01*
X-157527Y102713D02*
X-156511Y104745D01*
X-157527Y106777D01*
X-155495Y105761D01*
X-153463Y106777D01*
X-154479Y104745D01*
X-153463Y102713D01*
X-155495Y103729D01*
X-157527Y102713D01*
X-157507Y30693D02*
X-156491Y32725D01*
X-157507Y34757D01*
X-155475Y33741D01*
X-153443Y34757D01*
X-154459Y32725D01*
X-153443Y30693D01*
X-155475Y31709D01*
X-157507Y30693D01*
M02*
