M48
;Layer_Color=9474304
;FILE_FORMAT=4:4
METRIC,LZ
;TYPE=PLATED
T1F00S00C0.3000
T2F00S00C0.6000
T4F00S00C0.9000
T5F00S00C1.0000
T8F00S00C1.0160
T9F00S00C1.0200
T10F00S00C1.0600
T11F00S00C1.1000
T13F00S00C1.8000
T14F00S00C1.8300
T15F00S00C2.8000
T16F00S00C3.0000
T17F00S00C3.2000
%
T01
X0014Y004675
X0015
X0016
X0017
X0018
Y004775
X0017
X0016
X0015
X0014
Y004875
X0015
X0016
X0017
X0018
T02
X0035179Y0020193
X0046863
X0035179Y0044323
X002286
T04
X01183489Y00870823
Y00896223
Y00921622
Y00947022
Y00972422
Y00997822
Y01023223
Y01048623
Y01074023
Y01099423
Y01124822
Y01150222
Y01175622
X01208889
Y01150222
Y01124822
Y01099423
Y01074023
Y01048623
Y01023223
Y00997822
Y00972422
Y00947022
Y00921622
Y00896223
Y00870823
Y01201022
Y01226423
Y01251823
Y01277223
Y01302623
Y01328022
Y01353423
X01209189Y01556523
Y01581923
X01183789
Y01556523
X01183489Y01353423
Y01328022
Y01302623
Y01277223
Y01251823
Y01226423
Y01201022
X00785809Y01756391
X00760409
X00760409Y01781791
X00735009
X00709609
Y01756391
X00735009
X00785809Y01781791
X00811209
Y01756391
X00836609Y01756391
X00862009Y01756391
X00887409
X00887409Y01781791
X00862009
X00836609
X00912809
X00938209
X00963609
X00989009
X01014409
X01014409Y01756391
X00989009
X00963609
X00938209
X00912809
X01183789Y01658123
Y01632723
Y01607323
X01209189Y01607323
Y01632723
Y01658123
T05
X0052Y016825
Y017375
T08
X01650321Y00705571
Y00730071
Y00754571
Y00779071
X011336Y007425
X011082
X010828
X010574
X01032
X010066
X009812
X009558
X009304
X00905
X000845Y0073025
Y0075475
X00486378Y00861616
Y00886116
Y00959116
Y00983616
X01650321Y00983221
Y01007721
Y00958721
Y00934221
Y00909721
Y00885221
Y00828071
Y0080357
X0165734Y0119925
X0163284Y0119925
X0160834Y0119925
X0158384Y0119925
X0155934
X0153484Y0119925
X014815
X01457
X014325Y0119925
X01408
X013835
X01359
X01415872Y01615168
Y01639668
Y01664168
T09
X01751921Y00732821
Y00758221
Y00783621
X01472521Y00732821
X01447121
X01421721
X01396321Y00732821
X007767Y0084
X008021
X008275
X008529
X01396321Y00834421
X01396321Y00859821
X01396321Y00885221
Y00910621
Y00936021
Y00961421
Y00986821
X014053Y0109765
X014307
X014561Y0109765
X014815Y0109765
X015069
X015323
X015577
X015831Y0109765
X013799Y0109765
X013545Y0109765
X016085Y0109765
X016339
X01751921Y01012221
Y00986821
Y00961421
X01751921Y00936021
X01751921Y00910621
Y00885221
Y00859821
X01751921Y00834421
X01751921Y00809021
X016085Y0145325
X015831
X015577Y0145325
X015323Y0145325
X015069
X014815
X014561
X013545Y0145325
Y0142785
Y0140245
X013545Y0137705
T10
X0042Y006121
Y006375
X004454
Y006121
X002168
Y006375
X001914
Y006121
Y011455
X002168
Y011709
X001914
X0042
X004454
Y011455
X0042
T11
X001792Y012917
X002046
X0023
Y013425
X001792
T13
X003217Y007075
X003725
X003725Y012205
X003217
T14
X0051675Y0131847
X005169Y0139467
Y0148357
X0051675Y0155977
X0034425Y01558995
X003444Y01482795
Y01393895
X0034425Y01317695
T15
X00437522Y00319364
Y00391364
T16
X00545Y001625
X01125
Y006575
X00545
X0047274Y006937
X0016274
X0047274Y012337
X0016274
T17
X00574397Y00080063
X01273489
X01767823Y00574397
X01273489Y00763423
X00651189
X00080063Y00574397
X00651189Y01084559
X01072829
X00923942Y00923944
X01767823Y01273489
X00080063
X00574397Y01767823
X00651189Y01767823
X01072829Y01767818
X01273489Y01767823
Y01767823
M30
