M48
;Layer_Color=9474304
;FILE_FORMAT=4:4
METRIC,LZ
;TYPE=PLATED
T1F00S00C0.3000
T2F00S00C1.0000
T3F00S00C1.0200
%
T01
X-00360225Y-00086275
X-00350225
X-00340225
X-00345225Y-00076275
X-00355225
X-00360225Y-00066275
X-00350225
X-00340225
X-00340225Y-00066275
X-00345225Y-00056275
X-00335225
X-00340225Y-00046275
X-00330225
X-00335225Y-00036275
Y-00016275
X-00330225Y-00006275
X-00317425Y-00000975
X-00302425Y-00025225
X-00310225Y-00086275
X-00260225
X-00230225
X-00220225
X-00210225
X-00200225
X-00190225
X-00180225
X-00170225
X-00160225
X-00150225
X-00140225
X-00130225
X-00120225
X-00110225
X-00100225
X-00090225
X-00080225
X-00070225
X-00060225
X-00050225
X-00040225
X-00030225
X-00020225
X-00010225
X-00000225
X00009775
X-00010225Y-00066275
X-00040225
X-00070225
X-00100225Y-00066275
X-00100225Y-00066275
X-00110225Y-00066275
X-00120225
X-00115225Y-00076275
X-00105225
X-00125225
X-00145225
X-00155225
X-00165225
X-00160225Y-00066275
X-00160225Y-00066275
X-00150225
X-00140225
X-00145225Y-00036275
X-001299Y-0002265
X-001172
X-001045
X-000918
X-000791
Y-0000995
Y0000275
Y0001545
X-000918
Y0000275
Y-0000995
X-001045
Y0000275
Y0001545
X-001172
X-001299
Y0000275
Y-0000995
X-001172
Y0000275
X-00115225Y-00036275
X-00085225
X-00040225Y-00006275
X-000075Y0
X000075
Y000525
X-000075
X-00040225Y00053725
X-00070225
X-00100225
X-001045Y0008405
X-001172
X-001299
Y0009675
X-001172
X-001045
X-000918
Y0008405
X-000791
Y0009675
Y0010945
Y0012215
X-000918
Y0010945
X-001045
Y0012215
X-001172
X-001299
Y0010945
X-001172
X-00115225Y00143725
X-00085225
X-00055225
X-00025225
X-000075Y001535
X000075
Y00177
X-000075
X-00040225Y00213725
X-00050225
X-00060225
X-00070225
X-00080225
X-00090225
X-00100225
X-00110225
X-00120225
X-00130225
X-00140225
X-00150225
X-00160225
X-00170225
X-00180225
X-00190225
X-00200225
X-00210225
X-00220225
X-00230225
X-00240225
X-00250225
X-00260225
X-00270225
X-00280225
X-00290225
X-00300225
X-00310225
X-00320225
X-00330225
X-00340225
X-00350225
X-00360225
X-00355225Y00203725
X-00345225
X-00335225
X-00325225
X-00325225Y00203725
X-00330225Y00193725
X-00320225
X-00340225
X-00350225
X-00360225
X-00355225Y00183725
X-00345225
X-00350225Y00173725
X-00340225
X-00340225Y00173725
X-00360225Y00173725
Y00113725
X-00310225Y00113725
X-00280225
X-00265225Y00143725
X-00242475Y00150725
X-00235225Y00143725
X-00205225
X-00175225
X-00145225
X-00160225Y00173725
X-00160225Y00193725
X-00150225
X-00140225
X-00145225Y00203725
X-00145225Y00203725
X-00135225
X-00125225
X-00115225
X-00115225Y00203725
X-00105225Y00203725
X-00085225Y00203725
X-00091595Y00181
X-0010375
X-00115905Y0018116
X-00155225Y00203725
X-00175225Y00203725
X-00205225
X-0020354Y00177045
X-00215695
X-0022785Y00177205
X-00235225Y00203725
X-00265225
X-00295225
Y00143725
X-00265225Y00083725
X-00235225
X-00235225Y00083725
X-00240225Y00093725
Y00073725
X-00235225Y00063725
X-00240225Y00053725
X-00235225Y00043725
X-00240225Y00033725
X-00220225Y-00006275
X-00190225
X-00160225
X-00155475Y00032725
X-00155495Y00047245
X-00145225Y00023725
X-00155495Y00090745
Y00104745
X-00220225Y00113725
X-0020355Y000644
X-00205225Y-00036275
X-00175225
X-00190225Y-00066275
X-00220225
X-00235225Y-00036275
X-00350225Y-00046275
X-00360225
X-00355225Y-00056275
X-00360225Y00013725
Y00033725
X-00190225Y00173725
X-00055225Y00203725
X-00040225Y00113725
X-000075Y0010425
X000075
X00019775Y00113725
X00069775Y00113725
X00074775Y00123725
Y00143725
Y00163725
Y00183725
Y00203725
X00069775Y00213725
X00074775Y00103725
Y00083725
Y00063725
Y00043725
Y00023725
X00069775Y00013725
X00074775Y00003725
Y-00016275
Y-00036275
Y-00056275
Y-00076275
X00069775Y-00086275
T02
X-00348175Y-00025775
Y-00000375
Y00025025
Y00050425
Y00075825
Y00101225
Y00126625
Y00152025
X00058225
Y00177425
Y00202825
Y00126625
Y00101225
Y00075825
Y00050425
Y00025025
Y-00000375
Y-00025775
Y-00051175
Y-00076575
T03
X-00322775Y-00076575
X-00297375
X-00271975
X-00246575
X-00322775Y00025025
Y00050425
Y00075825
Y00101225
Y00126625
Y00152025
Y00177425
X00032825
Y00152025
Y00126625
Y00101225
Y00075825
Y00050425
Y00025025
Y-00000375
Y-00025775
Y-00051175
Y-00076575
Y00202825
M30
