G04*
G04 #@! TF.GenerationSoftware,Altium Limited,Altium Designer,22.6.1 (34)*
G04*
G04 Layer_Color=65535*
%FSLAX44Y44*%
%MOMM*%
G71*
G04*
G04 #@! TF.SameCoordinates,0282B534-2DD6-4313-8036-895CCBFEA7A8*
G04*
G04*
G04 #@! TF.FilePolarity,Positive*
G04*
G01*
G75*
%ADD10C,0.2540*%
%ADD11C,0.1000*%
%ADD12C,0.6000*%
%ADD13C,0.2500*%
%ADD14C,0.2000*%
%ADD15C,0.0500*%
%ADD16C,0.3000*%
%ADD17C,0.5000*%
%ADD18C,1.0000*%
%ADD19C,0.1270*%
G36*
X190672Y-1010386D02*
X216072Y-1035786D01*
Y-984986D01*
X190672Y-1010386D01*
D02*
G37*
G36*
X812650Y-506410D02*
Y-496250D01*
X822810D01*
X812650Y-506410D01*
D02*
G37*
G36*
X1319721Y-366539D02*
Y-362729D01*
X1315911D01*
X1319721Y-366539D01*
D02*
G37*
G36*
X1251400Y-1090D02*
Y-4900D01*
X1255210D01*
X1251400Y-1090D01*
D02*
G37*
G36*
X1395061Y-646180D02*
X1398871D01*
Y-642370D01*
X1395061Y-646180D01*
D02*
G37*
G36*
X1675321Y-341139D02*
Y-337329D01*
X1671511D01*
X1675321Y-341139D01*
D02*
G37*
G36*
X1556440Y-281350D02*
X1560250D01*
Y-277540D01*
X1556440Y-281350D01*
D02*
G37*
G36*
X1531040Y74250D02*
X1534850D01*
Y78060D01*
X1531040Y74250D01*
D02*
G37*
D10*
X1218654Y402073D02*
G03*
X1218654Y402073I-35014J0D01*
G01*
X168350Y-10250D02*
G03*
X334350Y-10250I83000J0D01*
G01*
X334350Y158735D02*
G03*
X168350Y158735I-83000J0D01*
G01*
X341350Y-9250D02*
G03*
X507350Y-9250I83000J0D01*
G01*
X507350Y159735D02*
G03*
X341350Y159735I-83000J0D01*
G01*
X1218664Y402072D02*
G03*
X1218664Y402072I-35024J0D01*
G01*
X596376D02*
G03*
X596376Y402072I-35037J0D01*
G01*
X595745Y-602327D02*
G03*
X595745Y-602327I-34405J0D01*
G01*
X1218495D02*
G03*
X1218495Y-602327I-34855J0D01*
G01*
X596376Y402072D02*
G03*
X596376Y402072I-35037J0D01*
G01*
X1018016Y-281192D02*
G03*
X1018016Y-281192I-35037J0D01*
G01*
Y402068D02*
G03*
X1018016Y402068I-35037J0D01*
G01*
X596376Y-281192D02*
G03*
X596376Y-281192I-35037J0D01*
G01*
X519561Y402073D02*
G03*
X519561Y402073I-35014J0D01*
G01*
X1712987Y-791353D02*
G03*
X1712987Y-791353I-35014J0D01*
G01*
X25228D02*
G03*
X25228Y-791353I-35014J0D01*
G01*
Y-92261D02*
G03*
X25228Y-92261I-35014J0D01*
G01*
X1712987D02*
G03*
X1712987Y-92261I-35014J0D01*
G01*
X1218654Y-1285686D02*
G03*
X1218654Y-1285686I-35014J0D01*
G01*
X519561D02*
G03*
X519561Y-1285686I-35014J0D01*
G01*
X869106Y-441806D02*
G03*
X869106Y-441806I-35014J0D01*
G01*
X334350Y-10250D02*
Y158735D01*
X168350Y-10250D02*
X168350Y158735D01*
X507350Y-9250D02*
Y159735D01*
X341350Y-9250D02*
X341350Y159735D01*
X1131639Y178072D02*
Y305072D01*
X1081639D02*
X1131639D01*
X1081639Y178072D02*
X1131639D01*
X1131339Y-507627D02*
Y373D01*
X510539Y-653128D02*
Y452873D01*
X1234439Y-653128D02*
Y452873D01*
X510539D02*
X1234439D01*
X510539Y-653128D02*
X1234439D01*
X1081339Y-507627D02*
X1131339D01*
X1081339D02*
Y373D01*
X1081639Y178072D02*
Y305072D01*
X1081339Y373D02*
X1131339D01*
X526299Y437113D02*
X1018019Y437108D01*
X526299Y-316231D02*
X526299Y437113D01*
X526299Y-316231D02*
X1018019D01*
Y437108D01*
X55147Y-775640D02*
X162647D01*
X55147Y-830640D02*
X162647D01*
X55147Y-850570D02*
X162647D01*
X55147Y-905570D02*
X162647D01*
X-78850Y-523873D02*
Y-416373D01*
X-23850Y-523873D02*
Y-416373D01*
X-18350Y-523873D02*
Y-416373D01*
X36650Y-523873D02*
Y-416373D01*
X42890Y-702050D02*
X412890D01*
Y-102050D01*
X42890D02*
X412890D01*
X42890Y-702050D02*
Y-102050D01*
D11*
X132977Y143270D02*
G03*
X110523Y143270I-11227J-52820D01*
G01*
X366172Y-946886D02*
G03*
X352672Y-932886I-13750J250D01*
G01*
Y-1087886D02*
G03*
X366172Y-1073886I-250J13750D01*
G01*
X447391Y259280D02*
G03*
X414363Y258864I-17241J57470D01*
G01*
X1259521Y-333329D02*
X1259521Y-652129D01*
X1715871Y-652629D02*
X1715871Y-333829D01*
X1259021Y-333829D02*
X1715871Y-333829D01*
X1259521Y-652129D02*
X1716371D01*
X1563750Y-321900D02*
Y134950D01*
X1244950Y-321900D02*
X1563750D01*
X1245450Y134450D02*
X1564250D01*
X1245450D02*
X1245450Y-322400D01*
X96350Y90450D02*
X110523Y104623D01*
Y143270D01*
X132977Y104623D02*
X147150Y90450D01*
X132977Y104623D02*
Y143270D01*
X91750Y90450D02*
X151750D01*
X80250Y34450D02*
X163250D01*
Y-51550D02*
Y34450D01*
X80250Y-51550D02*
Y34450D01*
X132750Y-58050D02*
X135750D01*
X107750D02*
X110750D01*
X151750Y45950D02*
Y90450D01*
Y45950D02*
X163250Y34450D01*
X91750Y45950D02*
Y90450D01*
X80250Y34450D02*
X91750Y45950D01*
X346963Y-1235877D02*
X357569Y-1225271D01*
X347411Y-1236326D02*
X358018Y-1225720D01*
X379231Y-1246933D01*
X347411Y-1236326D02*
X368625Y-1257540D01*
X379231Y-1246933D01*
X175672Y-1087886D02*
X352672D01*
X175672Y-932886D02*
X352672D01*
X175672Y-1087886D02*
Y-932886D01*
X366172Y-1016736D02*
Y-1004036D01*
X366375Y-865090D02*
X372725D01*
X366375D02*
X366375Y-871440D01*
X372725Y-871440D01*
X299300Y-819940D02*
X372800D01*
Y-877440D02*
Y-819940D01*
X299300Y-877440D02*
X372800D01*
X299300D02*
Y-819940D01*
X299375Y-871440D02*
X305725D01*
Y-865090D01*
X299375Y-865090D02*
X305725Y-865090D01*
X427075Y-566150D02*
X433425Y-566150D01*
Y-572500D02*
Y-566150D01*
X427075Y-572500D02*
X433425D01*
X427000Y-578500D02*
Y-521000D01*
Y-578500D02*
X500500D01*
Y-521000D01*
X427000D02*
X500500D01*
X494075Y-572500D02*
X500425Y-572500D01*
X494075Y-566150D02*
X494075Y-572500D01*
X494075Y-566150D02*
X500425D01*
X494075Y-351150D02*
X500425D01*
X494075Y-357500D02*
Y-351150D01*
Y-357500D02*
X500425Y-357500D01*
X427000Y-306000D02*
X500500Y-306000D01*
Y-363500D02*
Y-306000D01*
X427000Y-363500D02*
X500500D01*
X427000D02*
Y-306000D01*
X427075Y-357500D02*
X433425D01*
Y-351150D01*
X427075D02*
X433425D01*
X1330850Y166250D02*
Y264250D01*
X1273350D02*
X1330850D01*
X1273350Y166250D02*
Y264250D01*
Y166250D02*
X1330850D01*
X1324850Y257825D02*
Y264175D01*
X1318500Y257825D02*
X1324850D01*
X1318500D02*
Y264175D01*
X1324850Y166325D02*
Y172675D01*
X1318500D02*
X1324850D01*
X1318500Y166325D02*
Y172675D01*
X812650Y-496250D02*
X822810D01*
X812650Y-506410D02*
Y-496250D01*
Y-506410D02*
X822810Y-496250D01*
X812650Y-508950D02*
X825350Y-496250D01*
X812650Y-648650D02*
X1074650D01*
Y-496250D01*
X825350D02*
X1074650D01*
X812650Y-648650D02*
Y-508950D01*
X1531040Y74250D02*
X1534850D01*
Y78060D01*
X1531040Y74250D02*
X1534850Y78060D01*
X1528500Y74250D02*
X1534850Y80600D01*
X1350050Y74250D02*
X1528500D01*
X1534850Y80600D02*
X1534850Y100750D01*
X1350050Y100750D02*
X1534850Y100750D01*
X1350050Y74250D02*
Y100750D01*
X1277900Y-4900D02*
Y103700D01*
X1257750Y-4900D02*
X1277900D01*
X1251400Y103700D02*
X1251400Y1450D01*
X1257750Y-4900D01*
X1251400Y-1090D02*
X1255210Y-4900D01*
X1251400D02*
X1255210D01*
X1251400D02*
Y-1090D01*
Y103700D02*
X1277900D01*
X1319721Y-366539D02*
Y-362729D01*
X1315911D02*
X1319721D01*
X1315911D02*
X1319721Y-366539D01*
X1313371Y-362729D02*
X1319721Y-369079D01*
Y-547529D02*
Y-369079D01*
X1293221Y-362729D02*
X1313371D01*
X1293221Y-547529D02*
X1293221Y-362729D01*
X1293221Y-547529D02*
X1319721D01*
X1290271Y-619679D02*
X1398871D01*
Y-639829D02*
Y-619679D01*
X1290271Y-646180D02*
X1392521D01*
X1398871Y-639829D01*
X1395061Y-646180D02*
X1398871Y-642370D01*
Y-646180D02*
Y-642370D01*
X1395061Y-646180D02*
X1398871D01*
X1290271D02*
Y-619679D01*
X1556440Y-281350D02*
X1560250D01*
Y-277540D01*
X1556440Y-281350D02*
X1560250Y-277540D01*
X1553900Y-281350D02*
X1560250Y-275000D01*
X1248450Y-281350D02*
X1553900D01*
X1560250Y-254850D02*
X1560250Y-275000D01*
X1248450Y-254850D02*
X1560250Y-254850D01*
X1248450Y-281350D02*
Y-254850D01*
X1675321Y-341139D02*
Y-337329D01*
X1671511D02*
X1675321D01*
X1671511D02*
X1675321Y-341139D01*
X1668971Y-337329D02*
X1675321Y-343679D01*
Y-649129D02*
Y-343679D01*
X1648821Y-337329D02*
X1668971D01*
X1648821Y-649129D02*
Y-337329D01*
X1648821Y-649129D02*
X1675321Y-649129D01*
X283530Y-814570D02*
Y-782820D01*
X194630D02*
X283530D01*
X194630Y-814570D02*
Y-782820D01*
X283530Y-897120D02*
Y-865370D01*
X194630Y-897120D02*
Y-865370D01*
Y-897120D02*
X283530D01*
X-54350Y-310750D02*
X7650D01*
Y-245750D01*
X-54350Y-310750D02*
Y-245750D01*
X7650D01*
X-54350Y-315750D02*
X7650D01*
X-54350Y-380750D02*
Y-315750D01*
X7650Y-380750D02*
Y-315750D01*
X-54350Y-380750D02*
X7650D01*
X351550Y-709200D02*
Y-239300D01*
X146000Y-746250D02*
X311100D01*
X146000Y-202250D02*
X311100D01*
X105550Y-709200D02*
Y-239300D01*
X674150Y-335250D02*
X775750D01*
X674150Y-538450D02*
Y-335250D01*
X775750Y-538450D02*
Y-335250D01*
X674150Y-538450D02*
X775750D01*
X321720Y345431D02*
X332327Y356038D01*
X322169Y344982D02*
X332776Y355589D01*
X353989Y334376D01*
X322169Y344982D02*
X343382Y323769D01*
X353989Y334376D01*
X420150Y-1246250D02*
Y-665250D01*
X1320150Y-1246250D02*
Y-665250D01*
X420150Y-1246250D02*
X1320150D01*
X420150Y-665250D02*
X1320150D01*
X76317Y-60584D02*
X75484Y-59751D01*
X73818D01*
X72985Y-60584D01*
Y-61417D01*
X73818Y-62250D01*
X75484D01*
X76317Y-63083D01*
Y-63916D01*
X75484Y-64749D01*
X73818D01*
X72985Y-63916D01*
X81315Y-64749D02*
X77983D01*
X81315Y-61417D01*
Y-60584D01*
X80482Y-59751D01*
X78816D01*
X77983Y-60584D01*
X-36030Y-651424D02*
X-36863Y-650591D01*
X-38529D01*
X-39362Y-651424D01*
Y-654756D01*
X-38529Y-655589D01*
X-36863D01*
X-36030Y-654756D01*
X-34364Y-655589D02*
X-32698D01*
X-33531D01*
Y-650591D01*
X-34364Y-651424D01*
X693917Y-396334D02*
X693084Y-395501D01*
X691418D01*
X690585Y-396334D01*
Y-399666D01*
X691418Y-400499D01*
X693084D01*
X693917Y-399666D01*
X698915Y-400499D02*
X695583D01*
X698915Y-397167D01*
Y-396334D01*
X698082Y-395501D01*
X696416D01*
X695583Y-396334D01*
X44317Y-704084D02*
X43484Y-703251D01*
X41818D01*
X40985Y-704084D01*
Y-707416D01*
X41818Y-708249D01*
X43484D01*
X44317Y-707416D01*
X45983Y-704084D02*
X46816Y-703251D01*
X48482D01*
X49315Y-704084D01*
Y-704917D01*
X48482Y-705750D01*
X47649D01*
X48482D01*
X49315Y-706583D01*
Y-707416D01*
X48482Y-708249D01*
X46816D01*
X45983Y-707416D01*
X694667Y-484754D02*
X693834Y-483921D01*
X692168D01*
X691335Y-484754D01*
Y-488086D01*
X692168Y-488919D01*
X693834D01*
X694667Y-488086D01*
X698832Y-488919D02*
Y-483921D01*
X696333Y-486420D01*
X699665D01*
X326267Y-86804D02*
X325434Y-85971D01*
X323768D01*
X322935Y-86804D01*
Y-90136D01*
X323768Y-90969D01*
X325434D01*
X326267Y-90136D01*
X331265Y-85971D02*
X327933D01*
Y-88470D01*
X329599Y-87637D01*
X330432D01*
X331265Y-88470D01*
Y-90136D01*
X330432Y-90969D01*
X328766D01*
X327933Y-90136D01*
X499267Y-86579D02*
X498434Y-85746D01*
X496768D01*
X495935Y-86579D01*
Y-89911D01*
X496768Y-90744D01*
X498434D01*
X499267Y-89911D01*
X504265Y-85746D02*
X502599Y-86579D01*
X500933Y-88245D01*
Y-89911D01*
X501766Y-90744D01*
X503432D01*
X504265Y-89911D01*
Y-89078D01*
X503432Y-88245D01*
X500933D01*
X445167Y-253334D02*
X444334Y-252501D01*
X442668D01*
X441835Y-253334D01*
Y-256666D01*
X442668Y-257499D01*
X444334D01*
X445167Y-256666D01*
X446833Y-252501D02*
X450165D01*
Y-253334D01*
X446833Y-256666D01*
Y-257499D01*
X445167Y-468334D02*
X444334Y-467501D01*
X442668D01*
X441835Y-468334D01*
Y-471666D01*
X442668Y-472499D01*
X444334D01*
X445167Y-471666D01*
X446833Y-468334D02*
X447666Y-467501D01*
X449332D01*
X450165Y-468334D01*
Y-469167D01*
X449332Y-470000D01*
X450165Y-470833D01*
Y-471666D01*
X449332Y-472499D01*
X447666D01*
X446833Y-471666D01*
Y-470833D01*
X447666Y-470000D01*
X446833Y-469167D01*
Y-468334D01*
X447666Y-470000D02*
X449332D01*
X430167Y-283334D02*
X429334Y-282501D01*
X427668D01*
X426835Y-283334D01*
Y-286666D01*
X427668Y-287499D01*
X429334D01*
X430167Y-286666D01*
X431833D02*
X432666Y-287499D01*
X434332D01*
X435165Y-286666D01*
Y-283334D01*
X434332Y-282501D01*
X432666D01*
X431833Y-283334D01*
Y-284167D01*
X432666Y-285000D01*
X435165D01*
X428084Y-498334D02*
X427251Y-497501D01*
X425585D01*
X424752Y-498334D01*
Y-501666D01*
X425585Y-502499D01*
X427251D01*
X428084Y-501666D01*
X429750Y-502499D02*
X431417D01*
X430583D01*
Y-497501D01*
X429750Y-498334D01*
X433916D02*
X434749Y-497501D01*
X436415D01*
X437248Y-498334D01*
Y-501666D01*
X436415Y-502499D01*
X434749D01*
X433916Y-501666D01*
Y-498334D01*
X783484Y-617833D02*
X782651Y-618666D01*
Y-620332D01*
X783484Y-621165D01*
X786816D01*
X787649Y-620332D01*
Y-618666D01*
X786816Y-617833D01*
X787649Y-616167D02*
Y-614500D01*
Y-615334D01*
X782651D01*
X783484Y-616167D01*
X787649Y-612001D02*
Y-610335D01*
Y-611168D01*
X782651D01*
X783484Y-612001D01*
X826434Y-599084D02*
X825601Y-598251D01*
X823935D01*
X823102Y-599084D01*
Y-602416D01*
X823935Y-603249D01*
X825601D01*
X826434Y-602416D01*
X828100Y-603249D02*
X829766D01*
X828933D01*
Y-598251D01*
X828100Y-599084D01*
X835598Y-603249D02*
X832266D01*
X835598Y-599917D01*
Y-599084D01*
X834765Y-598251D01*
X833099D01*
X832266Y-599084D01*
X1425016Y225416D02*
X1425849Y226249D01*
Y227915D01*
X1425016Y228748D01*
X1421684D01*
X1420851Y227915D01*
Y226249D01*
X1421684Y225416D01*
X1420851Y223750D02*
Y222083D01*
Y222917D01*
X1425849D01*
X1425016Y223750D01*
Y219584D02*
X1425849Y218751D01*
Y217085D01*
X1425016Y216252D01*
X1424183D01*
X1423350Y217085D01*
Y217918D01*
Y217085D01*
X1422517Y216252D01*
X1421684D01*
X1420851Y217085D01*
Y218751D01*
X1421684Y219584D01*
X1429016Y-366834D02*
X1429849Y-366001D01*
Y-364335D01*
X1429016Y-363502D01*
X1425684D01*
X1424851Y-364335D01*
Y-366001D01*
X1425684Y-366834D01*
X1424851Y-368500D02*
Y-370167D01*
Y-369333D01*
X1429849D01*
X1429016Y-368500D01*
X1424851Y-375165D02*
X1429849D01*
X1427350Y-372666D01*
Y-375998D01*
X1457016Y200666D02*
X1457849Y201499D01*
Y203165D01*
X1457016Y203998D01*
X1453684D01*
X1452851Y203165D01*
Y201499D01*
X1453684Y200666D01*
X1452851Y199000D02*
Y197334D01*
Y198167D01*
X1457849D01*
X1457016Y199000D01*
X1457849Y191502D02*
Y194834D01*
X1455350D01*
X1456183Y193168D01*
Y192335D01*
X1455350Y191502D01*
X1453684D01*
X1452851Y192335D01*
Y194001D01*
X1453684Y194834D01*
X1341516Y-358834D02*
X1342349Y-358001D01*
Y-356335D01*
X1341516Y-355502D01*
X1338184D01*
X1337351Y-356335D01*
Y-358001D01*
X1338184Y-358834D01*
X1337351Y-360500D02*
Y-362166D01*
Y-361334D01*
X1342349D01*
X1341516Y-360500D01*
X1342349Y-367998D02*
X1341516Y-366332D01*
X1339850Y-364666D01*
X1338184D01*
X1337351Y-365499D01*
Y-367165D01*
X1338184Y-367998D01*
X1339017D01*
X1339850Y-367165D01*
Y-364666D01*
X1594234Y-285484D02*
X1593401Y-284651D01*
X1591735D01*
X1590902Y-285484D01*
Y-288816D01*
X1591735Y-289649D01*
X1593401D01*
X1594234Y-288816D01*
X1595901Y-289649D02*
X1597567D01*
X1596734D01*
Y-284651D01*
X1595901Y-285484D01*
X1600066Y-284651D02*
X1603398D01*
Y-285484D01*
X1600066Y-288816D01*
Y-289649D01*
X1702150Y-327297D02*
X1701317Y-326464D01*
X1699651D01*
X1698818Y-327297D01*
Y-330629D01*
X1699651Y-331462D01*
X1701317D01*
X1702150Y-330629D01*
X1703816Y-331462D02*
X1705482D01*
X1704650D01*
Y-326464D01*
X1703816Y-327297D01*
X1707982D02*
X1708815Y-326464D01*
X1710481D01*
X1711314Y-327297D01*
Y-328130D01*
X1710481Y-328963D01*
X1711314Y-329796D01*
Y-330629D01*
X1710481Y-331462D01*
X1708815D01*
X1707982Y-330629D01*
Y-329796D01*
X1708815Y-328963D01*
X1707982Y-328130D01*
Y-327297D01*
X1708815Y-328963D02*
X1710481D01*
X1675834Y-285634D02*
X1675001Y-284801D01*
X1673335D01*
X1672502Y-285634D01*
Y-288966D01*
X1673335Y-289799D01*
X1675001D01*
X1675834Y-288966D01*
X1677500Y-289799D02*
X1679167D01*
X1678333D01*
Y-284801D01*
X1677500Y-285634D01*
X1681666Y-288966D02*
X1682499Y-289799D01*
X1684165D01*
X1684998Y-288966D01*
Y-285634D01*
X1684165Y-284801D01*
X1682499D01*
X1681666Y-285634D01*
Y-286467D01*
X1682499Y-287300D01*
X1684998D01*
X1682084Y-368953D02*
X1681251Y-368120D01*
X1679585D01*
X1678752Y-368953D01*
Y-372285D01*
X1679585Y-373118D01*
X1681251D01*
X1682084Y-372285D01*
X1687083Y-373118D02*
X1683750D01*
X1687083Y-369786D01*
Y-368953D01*
X1686250Y-368120D01*
X1684583D01*
X1683750Y-368953D01*
X1688749D02*
X1689582Y-368120D01*
X1691248D01*
X1692081Y-368953D01*
Y-372285D01*
X1691248Y-373118D01*
X1689582D01*
X1688749Y-372285D01*
Y-368953D01*
X1510851Y-95584D02*
X1510018Y-94751D01*
X1508352D01*
X1507519Y-95584D01*
Y-98916D01*
X1508352Y-99749D01*
X1510018D01*
X1510851Y-98916D01*
X1515849Y-99749D02*
X1512517D01*
X1515849Y-96417D01*
Y-95584D01*
X1515016Y-94751D01*
X1513350D01*
X1512517Y-95584D01*
X1517515Y-99749D02*
X1519181D01*
X1518348D01*
Y-94751D01*
X1517515Y-95584D01*
X1332326Y-94887D02*
X1331493Y-94054D01*
X1329827D01*
X1328994Y-94887D01*
Y-98219D01*
X1329827Y-99052D01*
X1331493D01*
X1332326Y-98219D01*
X1337325Y-99052D02*
X1333992D01*
X1337325Y-95720D01*
Y-94887D01*
X1336492Y-94054D01*
X1334825D01*
X1333992Y-94887D01*
X1342323Y-99052D02*
X1338991D01*
X1342323Y-95720D01*
Y-94887D01*
X1341490Y-94054D01*
X1339824D01*
X1338991Y-94887D01*
X1572158Y-139434D02*
X1571325Y-138601D01*
X1569659D01*
X1568826Y-139434D01*
Y-142766D01*
X1569659Y-143599D01*
X1571325D01*
X1572158Y-142766D01*
X1577156Y-143599D02*
X1573824D01*
X1577156Y-140267D01*
Y-139434D01*
X1576323Y-138601D01*
X1574657D01*
X1573824Y-139434D01*
X1578822D02*
X1579655Y-138601D01*
X1581322D01*
X1582155Y-139434D01*
Y-140267D01*
X1581322Y-141100D01*
X1580488D01*
X1581322D01*
X1582155Y-141933D01*
Y-142766D01*
X1581322Y-143599D01*
X1579655D01*
X1578822Y-142766D01*
X1399382Y-139337D02*
X1398549Y-138504D01*
X1396883D01*
X1396050Y-139337D01*
Y-142669D01*
X1396883Y-143502D01*
X1398549D01*
X1399382Y-142669D01*
X1404381Y-143502D02*
X1401048D01*
X1404381Y-140170D01*
Y-139337D01*
X1403548Y-138504D01*
X1401882D01*
X1401048Y-139337D01*
X1408546Y-143502D02*
Y-138504D01*
X1406047Y-141003D01*
X1409379D01*
X1477218Y-247384D02*
X1476385Y-246551D01*
X1474719D01*
X1473885Y-247384D01*
Y-250716D01*
X1474719Y-251549D01*
X1476385D01*
X1477218Y-250716D01*
X1482216Y-251549D02*
X1478884D01*
X1482216Y-248217D01*
Y-247384D01*
X1481383Y-246551D01*
X1479717D01*
X1478884Y-247384D01*
X1487215Y-246551D02*
X1483882D01*
Y-249050D01*
X1485548Y-248217D01*
X1486381D01*
X1487215Y-249050D01*
Y-250716D01*
X1486381Y-251549D01*
X1484715D01*
X1483882Y-250716D01*
X1426418Y-247384D02*
X1425585Y-246551D01*
X1423919D01*
X1423085Y-247384D01*
Y-250716D01*
X1423919Y-251549D01*
X1425585D01*
X1426418Y-250716D01*
X1431416Y-251549D02*
X1428084D01*
X1431416Y-248217D01*
Y-247384D01*
X1430583Y-246551D01*
X1428917D01*
X1428084Y-247384D01*
X1436414Y-246551D02*
X1434748Y-247384D01*
X1433082Y-249050D01*
Y-250716D01*
X1433915Y-251549D01*
X1435581D01*
X1436414Y-250716D01*
Y-249883D01*
X1435581Y-249050D01*
X1433082D01*
X1375618Y-247384D02*
X1374785Y-246551D01*
X1373119D01*
X1372285Y-247384D01*
Y-250716D01*
X1373119Y-251549D01*
X1374785D01*
X1375618Y-250716D01*
X1380616Y-251549D02*
X1377284D01*
X1380616Y-248217D01*
Y-247384D01*
X1379783Y-246551D01*
X1378117D01*
X1377284Y-247384D01*
X1382282Y-246551D02*
X1385614D01*
Y-247384D01*
X1382282Y-250716D01*
Y-251549D01*
X1324818Y-247384D02*
X1323985Y-246551D01*
X1322319D01*
X1321485Y-247384D01*
Y-250716D01*
X1322319Y-251549D01*
X1323985D01*
X1324818Y-250716D01*
X1329816Y-251549D02*
X1326484D01*
X1329816Y-248217D01*
Y-247384D01*
X1328983Y-246551D01*
X1327317D01*
X1326484Y-247384D01*
X1331482D02*
X1332315Y-246551D01*
X1333981D01*
X1334814Y-247384D01*
Y-248217D01*
X1333981Y-249050D01*
X1334814Y-249883D01*
Y-250716D01*
X1333981Y-251549D01*
X1332315D01*
X1331482Y-250716D01*
Y-249883D01*
X1332315Y-249050D01*
X1331482Y-248217D01*
Y-247384D01*
X1332315Y-249050D02*
X1333981D01*
X1455538Y-393563D02*
X1454705Y-392730D01*
X1453039D01*
X1452206Y-393563D01*
Y-396895D01*
X1453039Y-397729D01*
X1454705D01*
X1455538Y-396895D01*
X1460537Y-397729D02*
X1457204D01*
X1460537Y-394396D01*
Y-393563D01*
X1459704Y-392730D01*
X1458038D01*
X1457204Y-393563D01*
X1462203Y-396895D02*
X1463036Y-397729D01*
X1464702D01*
X1465535Y-396895D01*
Y-393563D01*
X1464702Y-392730D01*
X1463036D01*
X1462203Y-393563D01*
Y-394396D01*
X1463036Y-395229D01*
X1465535D01*
X1439514Y-534307D02*
X1438681Y-533474D01*
X1437015D01*
X1436182Y-534307D01*
Y-537639D01*
X1437015Y-538472D01*
X1438681D01*
X1439514Y-537639D01*
X1441180Y-534307D02*
X1442014Y-533474D01*
X1443680D01*
X1444513Y-534307D01*
Y-535140D01*
X1443680Y-535973D01*
X1442847D01*
X1443680D01*
X1444513Y-536806D01*
Y-537639D01*
X1443680Y-538472D01*
X1442014D01*
X1441180Y-537639D01*
X1446179Y-534307D02*
X1447012Y-533474D01*
X1448678D01*
X1449511Y-534307D01*
Y-537639D01*
X1448678Y-538472D01*
X1447012D01*
X1446179Y-537639D01*
Y-534307D01*
X1532572Y-355463D02*
X1531738Y-354630D01*
X1530072D01*
X1529239Y-355463D01*
Y-358796D01*
X1530072Y-359629D01*
X1531738D01*
X1532572Y-358796D01*
X1534238Y-355463D02*
X1535071Y-354630D01*
X1536737D01*
X1537570Y-355463D01*
Y-356296D01*
X1536737Y-357129D01*
X1535904D01*
X1536737D01*
X1537570Y-357962D01*
Y-358796D01*
X1536737Y-359629D01*
X1535071D01*
X1534238Y-358796D01*
X1539236Y-359629D02*
X1540902D01*
X1540069D01*
Y-354630D01*
X1539236Y-355463D01*
X1531738Y-535113D02*
X1530905Y-534280D01*
X1529239D01*
X1528406Y-535113D01*
Y-538446D01*
X1529239Y-539279D01*
X1530905D01*
X1531738Y-538446D01*
X1533405Y-535113D02*
X1534238Y-534280D01*
X1535904D01*
X1536737Y-535113D01*
Y-535946D01*
X1535904Y-536780D01*
X1535071D01*
X1535904D01*
X1536737Y-537613D01*
Y-538446D01*
X1535904Y-539279D01*
X1534238D01*
X1533405Y-538446D01*
X1541735Y-539279D02*
X1538403D01*
X1541735Y-535946D01*
Y-535113D01*
X1540902Y-534280D01*
X1539236D01*
X1538403Y-535113D01*
X1595238Y-415363D02*
X1594405Y-414530D01*
X1592739D01*
X1591906Y-415363D01*
Y-418696D01*
X1592739Y-419529D01*
X1594405D01*
X1595238Y-418696D01*
X1596904Y-415363D02*
X1597738Y-414530D01*
X1599404D01*
X1600237Y-415363D01*
Y-416196D01*
X1599404Y-417029D01*
X1598571D01*
X1599404D01*
X1600237Y-417863D01*
Y-418696D01*
X1599404Y-419529D01*
X1597738D01*
X1596904Y-418696D01*
X1601903Y-415363D02*
X1602736Y-414530D01*
X1604402D01*
X1605235Y-415363D01*
Y-416196D01*
X1604402Y-417029D01*
X1603569D01*
X1604402D01*
X1605235Y-417863D01*
Y-418696D01*
X1604402Y-419529D01*
X1602736D01*
X1601903Y-418696D01*
X1595238Y-466163D02*
X1594405Y-465330D01*
X1592739D01*
X1591906Y-466163D01*
Y-469496D01*
X1592739Y-470329D01*
X1594405D01*
X1595238Y-469496D01*
X1596904Y-466163D02*
X1597738Y-465330D01*
X1599404D01*
X1600237Y-466163D01*
Y-466996D01*
X1599404Y-467829D01*
X1598571D01*
X1599404D01*
X1600237Y-468662D01*
Y-469496D01*
X1599404Y-470329D01*
X1597738D01*
X1596904Y-469496D01*
X1604402Y-470329D02*
Y-465330D01*
X1601903Y-467829D01*
X1605235D01*
X1595238Y-516963D02*
X1594405Y-516130D01*
X1592739D01*
X1591906Y-516963D01*
Y-520296D01*
X1592739Y-521129D01*
X1594405D01*
X1595238Y-520296D01*
X1596904Y-516963D02*
X1597738Y-516130D01*
X1599404D01*
X1600237Y-516963D01*
Y-517796D01*
X1599404Y-518629D01*
X1598571D01*
X1599404D01*
X1600237Y-519463D01*
Y-520296D01*
X1599404Y-521129D01*
X1597738D01*
X1596904Y-520296D01*
X1605235Y-516130D02*
X1601903D01*
Y-518629D01*
X1603569Y-517796D01*
X1604402D01*
X1605235Y-518629D01*
Y-520296D01*
X1604402Y-521129D01*
X1602736D01*
X1601903Y-520296D01*
X1595238Y-567763D02*
X1594405Y-566930D01*
X1592739D01*
X1591906Y-567763D01*
Y-571096D01*
X1592739Y-571929D01*
X1594405D01*
X1595238Y-571096D01*
X1596904Y-567763D02*
X1597738Y-566930D01*
X1599404D01*
X1600237Y-567763D01*
Y-568596D01*
X1599404Y-569429D01*
X1598571D01*
X1599404D01*
X1600237Y-570262D01*
Y-571096D01*
X1599404Y-571929D01*
X1597738D01*
X1596904Y-571096D01*
X1605235Y-566930D02*
X1603569Y-567763D01*
X1601903Y-569429D01*
Y-571096D01*
X1602736Y-571929D01*
X1604402D01*
X1605235Y-571096D01*
Y-570262D01*
X1604402Y-569429D01*
X1601903D01*
X346027Y-1226339D02*
X349561Y-1229874D01*
X351328Y-1228106D01*
Y-1226928D01*
X348972Y-1224572D01*
X347794Y-1224572D01*
X346027Y-1226339D01*
X353095D02*
X354273Y-1225161D01*
X353684Y-1225750D01*
X350150Y-1222216D01*
X350150Y-1223394D01*
X510352Y465254D02*
Y460256D01*
X512851D01*
X513684Y461089D01*
Y464421D01*
X512851Y465254D01*
X510352D01*
X517850Y460256D02*
X516184D01*
X515350Y461089D01*
Y462755D01*
X516184Y463588D01*
X517850D01*
X518683Y462755D01*
Y461922D01*
X515350D01*
X520349Y460256D02*
X522015D01*
X521182D01*
Y465254D01*
X520349Y464421D01*
X524514D02*
X525347Y465254D01*
X527013D01*
X527846Y464421D01*
Y461089D01*
X527013Y460256D01*
X525347D01*
X524514Y461089D01*
Y464421D01*
X526100Y449506D02*
Y444508D01*
X528599D01*
X529432Y445341D01*
Y448673D01*
X528599Y449506D01*
X526100D01*
X533598Y444508D02*
X531931D01*
X531098Y445341D01*
Y447007D01*
X531931Y447840D01*
X533598D01*
X534431Y447007D01*
Y446174D01*
X531098D01*
X536097Y448673D02*
X536930Y449506D01*
X538596D01*
X539429Y448673D01*
Y445341D01*
X538596Y444508D01*
X536930D01*
X536097Y445341D01*
Y448673D01*
X47647Y-773141D02*
X44315D01*
Y-775640D01*
X45981D01*
X44315D01*
Y-778139D01*
X49313D02*
X50979D01*
X50146D01*
Y-773141D01*
X49313Y-773974D01*
X46474Y-847651D02*
X43142D01*
Y-850150D01*
X44808D01*
X43142D01*
Y-852649D01*
X51472D02*
X48140D01*
X51472Y-849317D01*
Y-848484D01*
X50639Y-847651D01*
X48973D01*
X48140Y-848484D01*
X-77833Y-408501D02*
X-81165D01*
Y-411000D01*
X-79499D01*
X-81165D01*
Y-413499D01*
X-76167Y-409334D02*
X-75334Y-408501D01*
X-73668D01*
X-72835Y-409334D01*
Y-410167D01*
X-73668Y-411000D01*
X-74501D01*
X-73668D01*
X-72835Y-411833D01*
Y-412666D01*
X-73668Y-413499D01*
X-75334D01*
X-76167Y-412666D01*
X36167Y-408501D02*
X32835D01*
Y-411000D01*
X34501D01*
X32835D01*
Y-413499D01*
X40332D02*
Y-408501D01*
X37833Y-411000D01*
X41165D01*
X202650Y-1093251D02*
X200984D01*
X201817D01*
Y-1097416D01*
X200984Y-1098249D01*
X200151D01*
X199318Y-1097416D01*
X204316Y-1098249D02*
X205982D01*
X205149D01*
Y-1093251D01*
X204316Y-1094084D01*
X369339Y-940385D02*
Y-935386D01*
X371839D01*
X372672Y-936219D01*
Y-937886D01*
X371839Y-938719D01*
X369339D01*
X374338Y-940385D02*
X376004D01*
X375171D01*
Y-935386D01*
X374338Y-936219D01*
X374641Y-821835D02*
X379639D01*
Y-824334D01*
X378806Y-825167D01*
X377140D01*
X376307Y-824334D01*
Y-821835D01*
X374641Y-830165D02*
Y-826833D01*
X377973Y-830165D01*
X378806D01*
X379639Y-829332D01*
Y-827666D01*
X378806Y-826833D01*
X416835Y-577499D02*
Y-572501D01*
X419334D01*
X420167Y-573334D01*
Y-575000D01*
X419334Y-575833D01*
X416835D01*
X421833Y-573334D02*
X422666Y-572501D01*
X424332D01*
X425165Y-573334D01*
Y-574167D01*
X424332Y-575000D01*
X423499D01*
X424332D01*
X425165Y-575833D01*
Y-576666D01*
X424332Y-577499D01*
X422666D01*
X421833Y-576666D01*
X416835Y-362499D02*
Y-357501D01*
X419334D01*
X420167Y-358334D01*
Y-360000D01*
X419334Y-360833D01*
X416835D01*
X424332Y-362499D02*
Y-357501D01*
X421833Y-360000D01*
X425165D01*
X1273876Y270772D02*
Y275770D01*
X1276375D01*
X1277208Y274937D01*
Y273271D01*
X1276375Y272438D01*
X1273876D01*
X1282207Y275770D02*
X1278874D01*
Y273271D01*
X1280540Y274104D01*
X1281374D01*
X1282207Y273271D01*
Y271605D01*
X1281374Y270772D01*
X1279707D01*
X1278874Y271605D01*
X813120Y-489704D02*
Y-484706D01*
X815619D01*
X816452Y-485539D01*
Y-487205D01*
X815619Y-488038D01*
X813120D01*
X821451Y-484706D02*
X819784Y-485539D01*
X818118Y-487205D01*
Y-488871D01*
X818951Y-489704D01*
X820618D01*
X821451Y-488871D01*
Y-488038D01*
X820618Y-487205D01*
X818118D01*
X1350584Y107450D02*
Y112448D01*
X1353083D01*
X1353916Y111615D01*
Y109949D01*
X1353083Y109116D01*
X1350584D01*
X1355582Y112448D02*
X1358915D01*
Y111615D01*
X1355582Y108283D01*
Y107450D01*
X1251778Y110244D02*
Y115242D01*
X1254277D01*
X1255110Y114409D01*
Y112743D01*
X1254277Y111910D01*
X1251778D01*
X1256776Y114409D02*
X1257609Y115242D01*
X1259276D01*
X1260109Y114409D01*
Y113576D01*
X1259276Y112743D01*
X1260109Y111910D01*
Y111077D01*
X1259276Y110244D01*
X1257609D01*
X1256776Y111077D01*
Y111910D01*
X1257609Y112743D01*
X1256776Y113576D01*
Y114409D01*
X1257609Y112743D02*
X1259276D01*
X1303092Y-350544D02*
X1308090D01*
Y-353043D01*
X1307257Y-353876D01*
X1305591D01*
X1304758Y-353043D01*
Y-350544D01*
X1303925Y-355542D02*
X1303092Y-356375D01*
Y-358041D01*
X1303925Y-358874D01*
X1307257D01*
X1308090Y-358041D01*
Y-356375D01*
X1307257Y-355542D01*
X1306424D01*
X1305591Y-356375D01*
Y-358874D01*
X1290894Y-613148D02*
Y-608150D01*
X1293393D01*
X1294226Y-608983D01*
Y-610649D01*
X1293393Y-611482D01*
X1290894D01*
X1295892Y-613148D02*
X1297558D01*
X1296725D01*
Y-608150D01*
X1295892Y-608983D01*
X1300058D02*
X1300891Y-608150D01*
X1302557D01*
X1303390Y-608983D01*
Y-612315D01*
X1302557Y-613148D01*
X1300891D01*
X1300058Y-612315D01*
Y-608983D01*
X1248984Y-248150D02*
Y-243152D01*
X1251483D01*
X1252316Y-243985D01*
Y-245651D01*
X1251483Y-246484D01*
X1248984D01*
X1253982Y-248150D02*
X1255648D01*
X1254816D01*
Y-243152D01*
X1253982Y-243985D01*
X1258148Y-248150D02*
X1259814D01*
X1258981D01*
Y-243152D01*
X1258148Y-243985D01*
X1655823Y-330629D02*
Y-325630D01*
X1658322D01*
X1659155Y-326463D01*
Y-328129D01*
X1658322Y-328963D01*
X1655823D01*
X1660821Y-330629D02*
X1662487D01*
X1661654D01*
Y-325630D01*
X1660821Y-326463D01*
X1668319Y-330629D02*
X1664986D01*
X1668319Y-327296D01*
Y-326463D01*
X1667486Y-325630D01*
X1665819D01*
X1664986Y-326463D01*
X359561Y-1219874D02*
X356027Y-1216339D01*
X357794Y-1214572D01*
X358972Y-1214572D01*
X360150Y-1215750D01*
Y-1216928D01*
X358383Y-1218695D01*
X359561Y-1217517D02*
X361917Y-1217517D01*
X363095Y-1216339D02*
X364273Y-1215161D01*
X363684Y-1215750D01*
X360150Y-1212216D01*
X360150Y-1213394D01*
X55185Y63626D02*
Y68624D01*
X57684D01*
X58517Y67791D01*
Y66125D01*
X57684Y65292D01*
X55185D01*
X56851D02*
X58517Y63626D01*
X63515D02*
X60183D01*
X63515Y66958D01*
Y67791D01*
X62682Y68624D01*
X61016D01*
X60183Y67791D01*
X363062Y334234D02*
X359528Y337769D01*
X361295Y339536D01*
X362473Y339536D01*
X363651Y338358D01*
Y337179D01*
X361884Y335412D01*
X363062Y336590D02*
X365418Y336590D01*
X363651Y340714D02*
X363651Y341892D01*
X364829Y343070D01*
X366007D01*
X366596Y342481D01*
Y341303D01*
X366007Y340714D01*
X366596Y341303D01*
X367775D01*
X368364Y340714D01*
Y339536D01*
X367185Y338358D01*
X366007D01*
X420149Y302585D02*
X415151D01*
Y305084D01*
X415984Y305917D01*
X417650D01*
X418483Y305084D01*
Y302585D01*
Y304251D02*
X420149Y305917D01*
Y310082D02*
X415151D01*
X417650Y307583D01*
Y310915D01*
X282416Y-776870D02*
X283249Y-776037D01*
Y-774371D01*
X282416Y-773538D01*
X281583D01*
X280750Y-774371D01*
Y-776037D01*
X279917Y-776870D01*
X279084D01*
X278251Y-776037D01*
Y-774371D01*
X279084Y-773538D01*
X278251Y-778536D02*
Y-780202D01*
Y-779369D01*
X283249D01*
X282416Y-778536D01*
X16359Y-276584D02*
X15525Y-275751D01*
X13859D01*
X13026Y-276584D01*
Y-277417D01*
X13859Y-278250D01*
X15525D01*
X16359Y-279083D01*
Y-279916D01*
X15525Y-280749D01*
X13859D01*
X13026Y-279916D01*
X18025Y-276584D02*
X18858Y-275751D01*
X20524D01*
X21357Y-276584D01*
Y-277417D01*
X20524Y-278250D01*
X19691D01*
X20524D01*
X21357Y-279083D01*
Y-279916D01*
X20524Y-280749D01*
X18858D01*
X18025Y-279916D01*
X16359Y-349084D02*
X15525Y-348251D01*
X13859D01*
X13026Y-349084D01*
Y-349917D01*
X13859Y-350750D01*
X15525D01*
X16359Y-351583D01*
Y-352416D01*
X15525Y-353249D01*
X13859D01*
X13026Y-352416D01*
X20524Y-353249D02*
Y-348251D01*
X18025Y-350750D01*
X21357D01*
X89220Y-170254D02*
X92552D01*
X90886D01*
Y-175252D01*
X94218D02*
X95885D01*
X95051D01*
Y-170254D01*
X94218Y-171087D01*
X43146Y-93386D02*
X46479D01*
X44813D01*
Y-98385D01*
X51477D02*
X48145D01*
X51477Y-95053D01*
Y-94220D01*
X50644Y-93386D01*
X48978D01*
X48145Y-94220D01*
X675985Y-325751D02*
X679317D01*
X677651D01*
Y-330749D01*
X680983Y-326584D02*
X681816Y-325751D01*
X683482D01*
X684315Y-326584D01*
Y-327417D01*
X683482Y-328250D01*
X682649D01*
X683482D01*
X684315Y-329083D01*
Y-329916D01*
X683482Y-330749D01*
X681816D01*
X680983Y-329916D01*
X-67865Y-205501D02*
Y-209666D01*
X-67032Y-210499D01*
X-65366D01*
X-64533Y-209666D01*
Y-205501D01*
X-59535Y-210499D02*
X-62867D01*
X-59535Y-207167D01*
Y-206334D01*
X-60368Y-205501D01*
X-62034D01*
X-62867Y-206334D01*
X-73165Y-169999D02*
Y-165001D01*
X-70666D01*
X-69833Y-165834D01*
Y-167500D01*
X-70666Y-168333D01*
X-73165D01*
X-71499D02*
X-69833Y-169999D01*
X-64835Y-165001D02*
X-68167D01*
Y-167500D01*
X-66501Y-166667D01*
X-65668D01*
X-64835Y-167500D01*
Y-169166D01*
X-65668Y-169999D01*
X-67334D01*
X-68167Y-169166D01*
X-3165Y-169999D02*
Y-165001D01*
X-666D01*
X167Y-165834D01*
Y-167500D01*
X-666Y-168333D01*
X-3165D01*
X-1499D02*
X167Y-169999D01*
X5165Y-165001D02*
X3499Y-165834D01*
X1833Y-167500D01*
Y-169166D01*
X2666Y-169999D01*
X4332D01*
X5165Y-169166D01*
Y-168333D01*
X4332Y-167500D01*
X1833D01*
X-8332Y-33501D02*
Y-37666D01*
X-7499Y-38499D01*
X-5833D01*
X-5000Y-37666D01*
Y-33501D01*
X-3334Y-38499D02*
X-1668D01*
X-2501D01*
Y-33501D01*
X-3334Y-34334D01*
X347028Y325269D02*
X350562Y321734D01*
X352329Y323501D01*
Y324679D01*
X349973Y327036D01*
X348795Y327036D01*
X347028Y325269D01*
X356453Y327625D02*
X354096Y325269D01*
Y329981D01*
X353507Y330570D01*
X352329D01*
X351151Y329392D01*
X351151Y328214D01*
X420690Y-658614D02*
Y-653616D01*
X423189D01*
X424022Y-654449D01*
Y-656115D01*
X423189Y-656948D01*
X420690D01*
X422356D02*
X424022Y-658614D01*
X425688D02*
Y-653616D01*
X428188D01*
X429021Y-654449D01*
Y-656115D01*
X428188Y-656948D01*
X425688D01*
X430687Y-658614D02*
X432353D01*
X431520D01*
Y-655282D01*
X430687D01*
X434852Y-658614D02*
X436518D01*
X435685D01*
Y-653616D01*
X434852Y-654449D01*
D12*
X-45700Y-194000D02*
G03*
X-45700Y-194000I-3000J0D01*
G01*
X13000Y-22000D02*
G03*
X13000Y-22000I-3000J0D01*
G01*
D13*
X-60000Y-215250D02*
G03*
X-60000Y-215250I-1250J0D01*
G01*
X-1300Y-43250D02*
G03*
X-1300Y-43250I-1250J0D01*
G01*
D14*
X27970Y-715965D02*
Y-660340D01*
X6220D02*
X27970D01*
X-40030D02*
X-18280D01*
X-40030Y-715965D02*
Y-660340D01*
X6220Y-728340D02*
X15595D01*
X27970Y-715965D01*
X-40030D02*
X-27655Y-728340D01*
X-18280D01*
X716875Y-464500D02*
X772500D01*
Y-442750D01*
Y-418250D02*
Y-396500D01*
X716875D02*
X772500D01*
X704500Y-452125D02*
Y-442750D01*
Y-452125D02*
X716875Y-464500D01*
X704500Y-408875D02*
X716875Y-396500D01*
X704500Y-418250D02*
Y-408875D01*
X510000Y-235375D02*
X510000Y-179750D01*
X488250Y-179750D02*
X510000Y-179750D01*
X442000D02*
X463750D01*
X442000D02*
X442000Y-235375D01*
X488250Y-247750D02*
X497625Y-247750D01*
X510000Y-235375D01*
X442000Y-235375D02*
X454375Y-247750D01*
X463750Y-247750D01*
X510000Y-450375D02*
Y-394750D01*
X488250Y-394750D02*
X510000Y-394750D01*
X442000Y-394750D02*
X463750Y-394750D01*
X442000Y-450375D02*
Y-394750D01*
X488250Y-462750D02*
X497625Y-462750D01*
X510000Y-450375D01*
X442000Y-450375D02*
X454375Y-462750D01*
X463750Y-462750D01*
X712400Y-551750D02*
X768025D01*
X712400Y-573500D02*
Y-551750D01*
Y-619750D02*
Y-598000D01*
Y-619750D02*
X768025D01*
X780400Y-573500D02*
Y-564125D01*
X768025Y-551750D02*
X780400Y-564125D01*
X768025Y-619750D02*
X780400Y-607375D01*
Y-598000D01*
X1427350Y157125D02*
Y212750D01*
X1405600Y212750D02*
X1427350Y212750D01*
X1359350Y212750D02*
X1381100Y212750D01*
X1359350Y157125D02*
X1359350Y212750D01*
X1405600Y144750D02*
X1414975D01*
X1427350Y157125D01*
X1359350D02*
X1371725Y144750D01*
X1381100Y144750D01*
X1363350Y-442500D02*
Y-386875D01*
Y-442500D02*
X1385100Y-442500D01*
X1409600Y-442500D02*
X1431350D01*
Y-386875D01*
X1375725Y-374500D02*
X1385100D01*
X1363350Y-386875D02*
X1375725Y-374500D01*
X1418975Y-374500D02*
X1431350Y-386875D01*
X1409600Y-374500D02*
X1418975Y-374500D01*
X1687350Y-263625D02*
X1687350Y-208000D01*
X1665600D02*
X1687350D01*
X1619350D02*
X1641100D01*
X1619350D02*
X1619350Y-263625D01*
X1665600Y-276000D02*
X1674975D01*
X1687350Y-263625D01*
X1619350D02*
X1631725Y-276000D01*
X1641100D01*
X1678871Y-458229D02*
X1678871Y-402604D01*
X1678871Y-458229D02*
X1700621D01*
X1725121D02*
X1746871D01*
X1746871Y-402604D02*
X1746871Y-458229D01*
X1691246Y-390229D02*
X1700621D01*
X1678871Y-402604D02*
X1691246Y-390229D01*
X1734496D02*
X1746871Y-402604D01*
X1725121Y-390229D02*
X1734496D01*
X1547615Y-130650D02*
X1603240D01*
X1603240Y-108900D02*
X1603240Y-130650D01*
X1603240Y-84400D02*
X1603240Y-62650D01*
X1547615Y-62650D02*
X1603240Y-62650D01*
X1535240Y-118275D02*
X1535240Y-108900D01*
X1535240Y-118275D02*
X1547615Y-130650D01*
X1535240Y-75025D02*
X1547615Y-62650D01*
X1535240Y-84400D02*
Y-75025D01*
X1371775Y-130650D02*
X1427400Y-130650D01*
X1427400Y-108900D02*
X1427400Y-130650D01*
Y-84400D02*
Y-62650D01*
X1371775Y-62650D02*
X1427400Y-62650D01*
X1359400Y-118275D02*
Y-108900D01*
Y-118275D02*
X1371775Y-130650D01*
X1359400Y-75025D02*
X1371775Y-62650D01*
X1359400Y-84400D02*
Y-75025D01*
X1524621Y-377904D02*
X1524621Y-322279D01*
X1502871D02*
X1524621D01*
X1456621D02*
X1478371D01*
X1456621D02*
X1456621Y-377904D01*
X1502871Y-390279D02*
X1512246D01*
X1524621Y-377904D01*
X1456621D02*
X1468996Y-390279D01*
X1478371Y-390280D01*
X1524621Y-557555D02*
X1524621Y-501930D01*
X1502871D02*
X1524621D01*
X1456621D02*
X1478371D01*
X1456621D02*
X1456621Y-557555D01*
X1502871Y-569930D02*
X1512246D01*
X1524621Y-557555D01*
X1456621D02*
X1468996Y-569930D01*
X1478371D01*
X607059Y377940D02*
X937259D01*
X607059Y428741D02*
X937259D01*
X607059Y377940D02*
Y428741D01*
X937259Y377940D02*
Y428741D01*
X210650Y-1183250D02*
X293650D01*
X337650D02*
X356650D01*
Y-1160250D01*
X210650Y-1183250D02*
Y-1093250D01*
X356650D01*
X356650Y-1116250D01*
X-8700Y-204000D02*
Y-172000D01*
X-58700Y-204000D02*
Y-172000D01*
X-8700D01*
X-58700Y-204000D02*
X-8700D01*
X50000Y-32000D02*
Y0D01*
X0Y-32000D02*
Y0D01*
X50000D01*
X0Y-32000D02*
X50000D01*
D15*
X41150Y-710500D02*
X74150D01*
X41150Y-757500D02*
X74150D01*
Y-710500D01*
X41150Y-757500D02*
Y-710500D01*
X749000Y-505420D02*
Y-472420D01*
X702000Y-505420D02*
Y-472420D01*
Y-505420D02*
X749000D01*
X702000Y-472420D02*
X749000D01*
X439250Y-301500D02*
X439250Y-268500D01*
X486250Y-301500D02*
Y-268500D01*
X439250D02*
X486250D01*
X439250Y-301500D02*
X486250Y-301500D01*
X439250Y-483500D02*
X439250Y-516500D01*
X486250Y-516500D02*
Y-483500D01*
X439250Y-483500D02*
X486250Y-483500D01*
X439250Y-516500D02*
X486250Y-516500D01*
X821850Y-593250D02*
Y-563250D01*
X836850Y-593250D02*
Y-563250D01*
X821850Y-593250D02*
X836850D01*
X821850Y-563250D02*
X836850D01*
X1438850Y189500D02*
X1471850D01*
X1438850Y142500D02*
X1471850D01*
X1471850Y189500D02*
X1471850Y142500D01*
X1438850D02*
Y189500D01*
X1325850Y-416000D02*
X1358850D01*
X1325850Y-369000D02*
X1358850D01*
X1325850Y-416000D02*
X1325850Y-369000D01*
X1358850Y-416000D02*
Y-369000D01*
X1580650Y-231350D02*
X1613650D01*
X1580650Y-278350D02*
X1613650D01*
Y-231350D01*
X1580650Y-278350D02*
Y-231350D01*
X1745100Y-370750D02*
Y-337750D01*
X1698100Y-370750D02*
Y-337750D01*
Y-370750D02*
X1745100D01*
X1698100Y-337750D02*
X1745100D01*
X1535490Y-133600D02*
X1565490D01*
X1535490Y-148600D02*
X1565490D01*
X1535490D02*
X1535490Y-133600D01*
X1565490Y-148600D02*
X1565490Y-133600D01*
X1359650Y-133600D02*
X1389650Y-133600D01*
X1359650Y-148600D02*
X1389650D01*
X1359650D02*
Y-133600D01*
X1389650Y-133600D02*
X1389650Y-148600D01*
X1503500Y-213500D02*
X1503500Y-246500D01*
X1456500Y-213500D02*
X1456500Y-246500D01*
X1503500D01*
X1456500Y-213500D02*
X1503500D01*
X1453800Y-246500D02*
Y-213500D01*
X1406800Y-213500D02*
X1406800Y-246500D01*
X1453800D01*
X1406800Y-213500D02*
X1453800Y-213500D01*
X1401900Y-213500D02*
X1401900Y-246500D01*
X1354900Y-213500D02*
X1354900Y-246500D01*
X1401900D01*
X1354900Y-213500D02*
X1401900Y-213500D01*
X1352200Y-213500D02*
X1352200Y-246500D01*
X1305200Y-213500D02*
X1305200Y-246500D01*
X1352200Y-246500D01*
X1305200Y-213500D02*
X1352200Y-213500D01*
X1527571Y-390029D02*
Y-360029D01*
X1542571Y-390029D02*
Y-360029D01*
X1527571Y-390029D02*
X1542571Y-390029D01*
X1527571Y-360029D02*
X1542571D01*
X1527571Y-569679D02*
Y-539679D01*
X1542571Y-569679D02*
Y-539679D01*
X1527571Y-569679D02*
X1542571D01*
X1527571Y-539679D02*
X1542571D01*
X1607471Y-394080D02*
X1640471D01*
X1607471Y-441079D02*
X1640471D01*
Y-394080D01*
X1607471Y-441079D02*
Y-394080D01*
Y-443779D02*
X1640471D01*
X1607471Y-490779D02*
X1640471D01*
Y-443779D01*
X1607471Y-490779D02*
Y-443779D01*
Y-495680D02*
X1640471D01*
X1607471Y-542679D02*
X1640471D01*
Y-495680D01*
X1607471Y-542679D02*
Y-495680D01*
Y-545379D02*
X1640471D01*
X1607471Y-592379D02*
X1640471D01*
Y-545379D01*
X1607471Y-592379D02*
Y-545379D01*
X368978Y-1215467D02*
X390191Y-1236680D01*
X358372Y-1226073D02*
X368978Y-1215467D01*
X358372Y-1226073D02*
X379585Y-1247286D01*
X390191Y-1236680D01*
X51850Y30000D02*
Y60000D01*
Y30000D02*
X66850Y30000D01*
Y60000D01*
X51850Y60000D02*
X66850Y60000D01*
X345150Y367963D02*
X366363Y346750D01*
X334543Y357357D02*
X345150Y367963D01*
X334543Y357357D02*
X355757Y336143D01*
X366363Y346750D01*
X-76500Y-202750D02*
Y-172750D01*
Y-202750D02*
X-61500D01*
Y-172750D01*
X-76500D02*
X-61500D01*
X-6500Y-202750D02*
Y-172750D01*
Y-202750D02*
X8500D01*
Y-172750D01*
X-6500D02*
X8500D01*
D16*
X105884Y114904D02*
X108241Y117260D01*
Y119617D01*
X103528Y124329D01*
X101172D01*
X98816Y121973D01*
Y119617D01*
X103528Y114904D01*
X105884D01*
X95281Y118439D02*
X102350Y111370D01*
X90569Y113726D01*
X97638Y106657D01*
X146172Y168329D02*
X143816Y165973D01*
Y163617D01*
X146172Y161260D01*
X148528D01*
X150884Y163617D01*
Y165973D01*
X148528Y168329D01*
X146172D01*
X139103Y161260D02*
X144994Y155370D01*
X142638Y157726D01*
X143816Y158904D01*
X141459Y156548D01*
X142638Y157726D01*
X144994Y155370D01*
X144994Y153013D01*
X133212Y155370D02*
X139103Y149479D01*
X136747Y151835D01*
X137925Y153013D01*
X135569Y150657D01*
X136747Y151835D01*
X139103Y149479D01*
Y147123D01*
X-20355Y-241247D02*
Y-231250D01*
X-27852D01*
Y-236248D01*
Y-231250D01*
X-35350D01*
X-35000Y-386000D02*
X-20005D01*
Y-393498D01*
X-22504Y-395997D01*
X-27502D01*
X-30002Y-393498D01*
Y-386000D01*
Y-390998D02*
X-35000Y-395997D01*
X330753Y324404D02*
X320150Y335007D01*
Y327938D01*
X313081Y327938D01*
X323684Y317335D01*
X314848Y315568D02*
X311314Y312034D01*
X307780D01*
X302478Y317335D01*
X307780Y322637D01*
X311314D01*
X311314Y319102D01*
X306012Y313801D01*
X306012Y306732D02*
X298944Y313801D01*
X302478Y310266D01*
Y306732D01*
Y303198D01*
X300711Y301431D01*
X288340Y303198D02*
X295409Y296129D01*
X290108Y290827D01*
X286573D01*
X281272Y296129D01*
X371893Y-1260750D02*
X382496Y-1250147D01*
X387797Y-1255448D01*
Y-1258983D01*
X384263Y-1262517D01*
X380729D01*
X375427Y-1257216D01*
X384263Y-1273120D02*
X387797Y-1276655D01*
X391332D01*
X394866Y-1273120D01*
Y-1269586D01*
X391332Y-1266052D01*
X387797D01*
X384263Y-1269586D01*
Y-1273120D01*
X400168Y-1274888D02*
X394866Y-1280189D01*
Y-1283723D01*
X398401Y-1283724D01*
Y-1287258D01*
X401935D01*
X407237Y-1281956D01*
X409004Y-1297861D02*
X405469Y-1294327D01*
Y-1290792D01*
X409004Y-1287258D01*
X412538D01*
X416073Y-1290792D01*
Y-1294327D01*
X414305Y-1296094D01*
X407237Y-1289025D01*
X421374Y-1296094D02*
X414305Y-1303163D01*
X417840Y-1299628D01*
X421374D01*
X424908Y-1299628D01*
X426676Y-1301396D01*
X301972Y-1051836D02*
Y-1038507D01*
X301972Y-981986D02*
Y-968657D01*
X295307Y-975321D02*
X308636D01*
X126653Y-274400D02*
X133318D01*
X136650Y-271068D01*
X133318Y-267736D01*
X126653D01*
X136650Y-262737D02*
Y-259405D01*
X134984Y-257739D01*
X131652D01*
X129986Y-259405D01*
Y-262737D01*
X131652Y-264403D01*
X134984D01*
X136650Y-262737D01*
X129986Y-254407D02*
X134984D01*
X136650Y-252740D01*
Y-247742D01*
X129986D01*
X128319Y-242743D02*
X129986D01*
Y-244410D01*
Y-241077D01*
Y-242743D01*
X134984D01*
X136650Y-241077D01*
X318819Y-261385D02*
X317153Y-263052D01*
Y-266384D01*
X318819Y-268050D01*
X325484D01*
X327150Y-266384D01*
Y-263052D01*
X325484Y-261385D01*
X322152D01*
Y-264718D01*
X327150Y-258053D02*
X317153D01*
X327150Y-251389D01*
X317153D01*
Y-248057D02*
X327150D01*
Y-243058D01*
X325484Y-241392D01*
X318819D01*
X317153Y-243058D01*
Y-248057D01*
X318819Y-699536D02*
X317153Y-701202D01*
Y-704534D01*
X318819Y-706200D01*
X325484D01*
X327150Y-704534D01*
Y-701202D01*
X325484Y-699536D01*
X322152D01*
Y-702868D01*
X327150Y-696203D02*
X317153D01*
X327150Y-689539D01*
X317153D01*
Y-686207D02*
X327150D01*
Y-681208D01*
X325484Y-679542D01*
X318819D01*
X317153Y-681208D01*
Y-686207D01*
X126653Y-706200D02*
X133318D01*
X136650Y-702868D01*
X133318Y-699536D01*
X126653D01*
X136650Y-696203D02*
Y-692871D01*
Y-694537D01*
X129986D01*
Y-696203D01*
X136650Y-687873D02*
X129986D01*
Y-682874D01*
X131652Y-681208D01*
X136650D01*
D17*
X183806Y-89070D02*
Y-75741D01*
X177141Y-82405D02*
X190470D01*
X356805Y-88070D02*
Y-74741D01*
X350141Y-81405D02*
X363470D01*
X246159Y-248754D02*
Y-258750D01*
X251157Y-263749D01*
X271150D01*
X276149Y-258750D01*
Y-248754D01*
X271150Y-243755D01*
X251157D01*
X246159Y-248754D01*
Y-233759D02*
X271150D01*
X276149Y-228760D01*
Y-218763D01*
X271150Y-213765D01*
X246159D01*
Y-203768D02*
Y-183775D01*
Y-193771D01*
X276149D01*
X243659Y-631249D02*
Y-621252D01*
Y-626250D01*
X273649D01*
Y-631249D01*
Y-621252D01*
Y-606257D02*
X243659D01*
X273649Y-586263D01*
X243659D01*
X196849Y-665749D02*
Y-652420D01*
X325184Y-665749D02*
Y-652420D01*
X318520Y-659084D02*
X331849D01*
X196850Y-152750D02*
Y-139421D01*
X325185Y-152750D02*
Y-139421D01*
X318521Y-146085D02*
X331850D01*
D18*
X838226Y-356260D02*
X888210D01*
Y-331268D01*
X879879Y-322938D01*
X846557D01*
X838226Y-331268D01*
Y-356260D01*
X888210Y-281284D02*
Y-297946D01*
X879879Y-306276D01*
X863218D01*
X854887Y-297946D01*
Y-281284D01*
X863218Y-272954D01*
X871549D01*
Y-306276D01*
X888210Y-256292D02*
Y-239631D01*
Y-247962D01*
X838226D01*
X846557Y-256292D01*
Y-214639D02*
X838226Y-206308D01*
Y-189647D01*
X846557Y-181317D01*
X879879D01*
X888210Y-189647D01*
Y-206308D01*
X879879Y-214639D01*
X846557D01*
X863218Y-164655D02*
Y-131333D01*
X888210Y-114671D02*
X838226D01*
X888210Y-81349D01*
X838226D01*
X854887Y-56357D02*
Y-39696D01*
X863218Y-31365D01*
X888210D01*
Y-56357D01*
X879879Y-64688D01*
X871549Y-56357D01*
Y-31365D01*
X888210Y-14704D02*
X854887D01*
Y10288D01*
X863218Y18619D01*
X888210D01*
Y43611D02*
Y60272D01*
X879879Y68603D01*
X863218D01*
X854887Y60272D01*
Y43611D01*
X863218Y35280D01*
X879879D01*
X888210Y43611D01*
X735356Y-137820D02*
X785340D01*
Y-112828D01*
X777009Y-104497D01*
X743687D01*
X735356Y-112828D01*
Y-137820D01*
Y-54514D02*
Y-87836D01*
X785340D01*
Y-54514D01*
X760348Y-87836D02*
Y-71175D01*
X743687Y-37852D02*
X735356Y-29522D01*
Y-12860D01*
X743687Y-4530D01*
X777009D01*
X785340Y-12860D01*
Y-29522D01*
X777009Y-37852D01*
X743687D01*
X760348Y12132D02*
Y45454D01*
X785340Y62115D02*
X735356D01*
X785340Y95438D01*
X735356D01*
X752018Y120430D02*
Y137091D01*
X760348Y145422D01*
X785340D01*
Y120430D01*
X777009Y112099D01*
X768679Y120430D01*
Y145422D01*
X785340Y162083D02*
X752018D01*
Y187075D01*
X760348Y195406D01*
X785340D01*
Y220397D02*
Y237059D01*
X777009Y245389D01*
X760348D01*
X752018Y237059D01*
Y220397D01*
X760348Y212067D01*
X777009D01*
X785340Y220397D01*
X729350Y-963250D02*
Y-887075D01*
X767438D01*
X780134Y-899771D01*
Y-925162D01*
X767438Y-937858D01*
X729350D01*
X754742D02*
X780134Y-963250D01*
X805525D02*
Y-887075D01*
X843613D01*
X856309Y-899771D01*
Y-925162D01*
X843613Y-937858D01*
X805525D01*
X881701Y-963250D02*
X907093D01*
X894397D01*
Y-912466D01*
X881701D01*
D19*
X1122339Y-517753D02*
X1115992D01*
X1119165Y-520928D01*
Y-516696D01*
X1117049Y-514580D02*
X1115992Y-513522D01*
Y-511406D01*
X1117049Y-510348D01*
X1121281D01*
X1122339Y-511406D01*
Y-513522D01*
X1121281Y-514580D01*
X1117049D01*
X1090050Y-520928D02*
X1088991Y-519869D01*
Y-517753D01*
X1090050Y-516696D01*
X1091107D01*
X1092165Y-517753D01*
Y-518811D01*
Y-517753D01*
X1093223Y-516696D01*
X1094281D01*
X1095339Y-517753D01*
Y-519869D01*
X1094281Y-520928D01*
Y-514580D02*
X1095339Y-513522D01*
Y-511406D01*
X1094281Y-510348D01*
X1090050D01*
X1088991Y-511406D01*
Y-513522D01*
X1090050Y-514580D01*
X1091107D01*
X1092165Y-513522D01*
Y-510348D01*
X1121639Y313004D02*
Y308773D01*
X1117407Y313004D01*
X1116349D01*
X1115292Y311947D01*
Y309830D01*
X1116349Y308773D01*
X1096639D02*
Y310889D01*
Y309830D01*
X1090292D01*
X1091349Y308773D01*
X1095581Y170772D02*
X1096639Y171831D01*
Y173946D01*
X1095581Y175005D01*
X1091349D01*
X1090292Y173946D01*
Y171831D01*
X1091349Y170772D01*
X1092407D01*
X1093465Y171831D01*
Y175005D01*
X1121639Y165772D02*
Y167889D01*
Y166831D01*
X1115292D01*
X1116349Y165772D01*
Y171063D02*
X1115292Y172120D01*
Y174237D01*
X1116349Y175294D01*
X1120581D01*
X1121639Y174237D01*
Y172120D01*
X1120581Y171063D01*
X1116349D01*
X1122339Y8304D02*
Y4072D01*
X1118107Y8304D01*
X1117049D01*
X1115992Y7247D01*
Y5131D01*
X1117049Y4072D01*
X1096339D02*
Y6188D01*
Y5131D01*
X1089992D01*
X1091049Y4072D01*
X622259Y372640D02*
Y374757D01*
Y373699D01*
X615911D01*
X616969Y372640D01*
X946259Y418573D02*
Y414341D01*
X942028Y418573D01*
X940969D01*
X939911Y417514D01*
Y415398D01*
X940969Y414341D01*
X939911Y424921D02*
X940969Y422804D01*
X943085Y420689D01*
X945201D01*
X946259Y421746D01*
Y423862D01*
X945201Y424921D01*
X944144D01*
X943085Y423862D01*
Y420689D01*
X946259Y386572D02*
Y382341D01*
X942028Y386572D01*
X940969D01*
X939911Y385514D01*
Y383399D01*
X940969Y382341D01*
X939911Y392920D02*
Y388689D01*
X943085D01*
X942028Y390804D01*
Y391862D01*
X943085Y392920D01*
X945201D01*
X946259Y391862D01*
Y389747D01*
X945201Y388689D01*
X603259Y426572D02*
Y422341D01*
X599027Y426572D01*
X597970D01*
X596912Y425514D01*
Y423399D01*
X597970Y422341D01*
M02*
