G04*
G04 #@! TF.GenerationSoftware,Altium Limited,Altium Designer,22.6.1 (34)*
G04*
G04 Layer_Color=16711935*
%FSLAX44Y44*%
%MOMM*%
G71*
G04*
G04 #@! TF.SameCoordinates,0282B534-2DD6-4313-8036-895CCBFEA7A8*
G04*
G04*
G04 #@! TF.FilePolarity,Positive*
G04*
G01*
G75*
%ADD99C,0.0127*%
%ADD100C,0.0130*%
D99*
X472120Y482072D02*
G03*
X436765Y467428I0J-50000D01*
G01*
X-75142Y-44479D02*
G03*
X-89787Y-79834I35355J-35355D01*
G01*
Y-803780D02*
G03*
X-75142Y-839135I50000J0D01*
G01*
X1231421Y467428D02*
G03*
X1196066Y482072I-35355J-35355D01*
G01*
X436765Y-1351042D02*
G03*
X472120Y-1365686I35355J35355D01*
G01*
X1743328Y-839135D02*
G03*
X1757973Y-803780I-35355J35355D01*
G01*
X1196066Y-1365686D02*
G03*
X1231421Y-1351042I0J50000D01*
G01*
X1757973Y-79834D02*
G03*
X1743328Y-44479I-50000J0D01*
G01*
X175672Y-1089949D02*
X436765Y-1351042D01*
X1757973Y-803780D02*
Y-79834D01*
X472120Y-1365686D02*
X1196066D01*
X1231421Y-1351042D02*
X1743328Y-839135D01*
X-89787Y-803780D02*
Y-79834D01*
X1231421Y467428D02*
X1743328Y-44479D01*
X472120Y482072D02*
X1196066D01*
X-75142Y-44479D02*
X436765Y467428D01*
D100*
X175672Y-936136D02*
G03*
X172422Y-932886I-3250J0D01*
G01*
X175672Y-1089949D02*
Y-936136D01*
X-75142Y-839135D02*
X-75142D01*
X18672Y-932886D02*
X172422D01*
X-75142Y-839135D02*
X18672Y-932886D01*
M02*
