G04*
G04 #@! TF.GenerationSoftware,Altium Limited,Altium Designer,22.6.1 (34)*
G04*
G04 Layer_Color=32896*
%FSLAX44Y44*%
%MOMM*%
G71*
G04*
G04 #@! TF.SameCoordinates,0282B534-2DD6-4313-8036-895CCBFEA7A8*
G04*
G04*
G04 #@! TF.FilePolarity,Positive*
G04*
G01*
G75*
%ADD10C,0.2540*%
%ADD11C,0.1000*%
D10*
X1218654Y402073D02*
G03*
X1218654Y402073I-35014J0D01*
G01*
X596376Y402072D02*
G03*
X596376Y402072I-35037J0D01*
G01*
X1218664D02*
G03*
X1218664Y402072I-35024J0D01*
G01*
X595745Y-602327D02*
G03*
X595745Y-602327I-34405J0D01*
G01*
X1218495D02*
G03*
X1218495Y-602327I-34855J0D01*
G01*
X1018016Y-281192D02*
G03*
X1018016Y-281192I-35037J0D01*
G01*
Y402068D02*
G03*
X1018016Y402068I-35037J0D01*
G01*
X596376Y-281192D02*
G03*
X596376Y-281192I-35037J0D01*
G01*
X596376Y402072D02*
G03*
X596376Y402072I-35037J0D01*
G01*
X519561Y402073D02*
G03*
X519561Y402073I-35014J0D01*
G01*
X1712987Y-791353D02*
G03*
X1712987Y-791353I-35014J0D01*
G01*
X25228D02*
G03*
X25228Y-791353I-35014J0D01*
G01*
Y-92261D02*
G03*
X25228Y-92261I-35014J0D01*
G01*
X1712987D02*
G03*
X1712987Y-92261I-35014J0D01*
G01*
X1218654Y-1285686D02*
G03*
X1218654Y-1285686I-35014J0D01*
G01*
X519561D02*
G03*
X519561Y-1285686I-35014J0D01*
G01*
X869106Y-441806D02*
G03*
X869106Y-441806I-35014J0D01*
G01*
D11*
X1420565Y-177650D02*
X1426915D01*
Y-184000D02*
Y-177650D01*
X1420565Y-184000D02*
X1426915D01*
X1420490Y-190000D02*
Y-132500D01*
X1585565Y-177650D02*
X1591915Y-177650D01*
X1585565Y-184000D02*
X1585565Y-177650D01*
X1585565Y-184000D02*
X1591915D01*
X1420490Y-132500D02*
X1591990Y-132500D01*
X1591990Y-190000D01*
X1420490D02*
X1591990D01*
X1244725Y-177650D02*
X1251075Y-177650D01*
Y-184000D02*
Y-177650D01*
X1244725Y-184000D02*
X1251075D01*
X1244650Y-190000D02*
Y-132500D01*
X1409725Y-177650D02*
X1416075D01*
X1409725Y-184000D02*
Y-177650D01*
Y-184000D02*
X1416075Y-184000D01*
X1244650Y-132500D02*
X1416150D01*
Y-190000D02*
Y-132500D01*
X1244650Y-190000D02*
X1416150Y-190000D01*
X1571621Y-498604D02*
X1571621Y-504954D01*
X1571621Y-498604D02*
X1577971D01*
Y-504954D02*
Y-498604D01*
X1526471Y-505029D02*
X1583971D01*
X1571621Y-333604D02*
X1571621Y-339954D01*
X1577971D01*
Y-333604D01*
X1526471Y-505029D02*
Y-333529D01*
X1583971D01*
Y-505029D02*
Y-333529D01*
X1571621Y-678254D02*
X1571621Y-684604D01*
X1571621Y-678254D02*
X1577971Y-678254D01*
Y-684604D02*
Y-678254D01*
X1526471Y-684679D02*
X1583971Y-684679D01*
X1571621Y-519604D02*
Y-513255D01*
Y-519604D02*
X1577971D01*
Y-513255D01*
X1526471Y-684679D02*
Y-513180D01*
X1583971D01*
X1583971Y-684679D02*
X1583971Y-513180D01*
X1592459Y-197979D02*
Y-192980D01*
X1589959D01*
X1589126Y-193813D01*
Y-195480D01*
X1589959Y-196313D01*
X1592459D01*
X1587460Y-197979D02*
X1585794D01*
X1586627D01*
Y-192980D01*
X1587460Y-193813D01*
X1583295D02*
X1582462Y-192980D01*
X1580796D01*
X1579963Y-193813D01*
Y-194646D01*
X1580796Y-195480D01*
X1581629D01*
X1580796D01*
X1579963Y-196313D01*
Y-197146D01*
X1580796Y-197979D01*
X1582462D01*
X1583295Y-197146D01*
X1259119Y-197979D02*
Y-192980D01*
X1256619D01*
X1255786Y-193813D01*
Y-195479D01*
X1256619Y-196313D01*
X1259119D01*
X1254120Y-197979D02*
X1252454D01*
X1253287D01*
Y-192980D01*
X1254120Y-193813D01*
X1247456Y-197979D02*
Y-192980D01*
X1249955Y-195479D01*
X1246623D01*
X1579419Y-330629D02*
Y-325630D01*
X1576919D01*
X1576086Y-326463D01*
Y-328129D01*
X1576919Y-328963D01*
X1579419D01*
X1574420Y-330629D02*
X1572754D01*
X1573587D01*
Y-325630D01*
X1574420Y-326463D01*
X1566923Y-325630D02*
X1570255D01*
Y-328129D01*
X1568589Y-327296D01*
X1567756D01*
X1566923Y-328129D01*
Y-329796D01*
X1567756Y-330629D01*
X1569422D01*
X1570255Y-329796D01*
X1579419Y-692579D02*
Y-687580D01*
X1576919D01*
X1576086Y-688413D01*
Y-690079D01*
X1576919Y-690912D01*
X1579419D01*
X1574420Y-692579D02*
X1572754D01*
X1573587D01*
Y-687580D01*
X1574420Y-688413D01*
X1566923Y-687580D02*
X1568589Y-688413D01*
X1570255Y-690079D01*
Y-691746D01*
X1569422Y-692579D01*
X1567756D01*
X1566923Y-691746D01*
Y-690912D01*
X1567756Y-690079D01*
X1570255D01*
M02*
